G04 #@! TF.GenerationSoftware,KiCad,Pcbnew,(5.0.0)*
G04 #@! TF.CreationDate,2019-02-17T00:09:27-08:00*
G04 #@! TF.ProjectId,Voyager40,566F796167657234302E6B696361645F,rev?*
G04 #@! TF.SameCoordinates,Original*
G04 #@! TF.FileFunction,Legend,Top*
G04 #@! TF.FilePolarity,Positive*
%FSLAX46Y46*%
G04 Gerber Fmt 4.6, Leading zero omitted, Abs format (unit mm)*
G04 Created by KiCad (PCBNEW (5.0.0)) date 02/17/19 00:09:27*
%MOMM*%
%LPD*%
G01*
G04 APERTURE LIST*
%ADD10C,0.300000*%
%ADD11C,0.500000*%
%ADD12C,4.387800*%
%ADD13C,2.150000*%
%ADD14C,3.448000*%
%ADD15O,1.400000X2.000000*%
%ADD16O,1.400000X2.500000*%
%ADD17C,1.050000*%
%ADD18C,2.101800*%
%ADD19C,1.300000*%
G04 APERTURE END LIST*
D10*
X104473428Y-85530571D02*
X104473428Y-86530571D01*
X104116285Y-84959142D02*
X103759142Y-86030571D01*
X104687714Y-86030571D01*
X105544857Y-85030571D02*
X105687714Y-85030571D01*
X105830571Y-85102000D01*
X105902000Y-85173428D01*
X105973428Y-85316285D01*
X106044857Y-85602000D01*
X106044857Y-85959142D01*
X105973428Y-86244857D01*
X105902000Y-86387714D01*
X105830571Y-86459142D01*
X105687714Y-86530571D01*
X105544857Y-86530571D01*
X105402000Y-86459142D01*
X105330571Y-86387714D01*
X105259142Y-86244857D01*
X105187714Y-85959142D01*
X105187714Y-85602000D01*
X105259142Y-85316285D01*
X105330571Y-85173428D01*
X105402000Y-85102000D01*
X105544857Y-85030571D01*
D11*
X70685416Y-85122023D02*
X72352083Y-89122023D01*
X74018750Y-85122023D01*
X76637797Y-85122023D02*
X77590178Y-85122023D01*
X78066369Y-85312500D01*
X78542559Y-85693452D01*
X78780654Y-86455357D01*
X78780654Y-87788690D01*
X78542559Y-88550595D01*
X78066369Y-88931547D01*
X77590178Y-89122023D01*
X76637797Y-89122023D01*
X76161607Y-88931547D01*
X75685416Y-88550595D01*
X75447321Y-87788690D01*
X75447321Y-86455357D01*
X75685416Y-85693452D01*
X76161607Y-85312500D01*
X76637797Y-85122023D01*
X81875892Y-87217261D02*
X81875892Y-89122023D01*
X80209226Y-85122023D02*
X81875892Y-87217261D01*
X83542559Y-85122023D01*
X84971130Y-87979166D02*
X87352083Y-87979166D01*
X84494940Y-89122023D02*
X86161607Y-85122023D01*
X87828273Y-89122023D01*
X92113988Y-85312500D02*
X91637797Y-85122023D01*
X90923511Y-85122023D01*
X90209226Y-85312500D01*
X89733035Y-85693452D01*
X89494940Y-86074404D01*
X89256845Y-86836309D01*
X89256845Y-87407738D01*
X89494940Y-88169642D01*
X89733035Y-88550595D01*
X90209226Y-88931547D01*
X90923511Y-89122023D01*
X91399702Y-89122023D01*
X92113988Y-88931547D01*
X92352083Y-88741071D01*
X92352083Y-87407738D01*
X91399702Y-87407738D01*
X94494940Y-87026785D02*
X96161607Y-87026785D01*
X96875892Y-89122023D02*
X94494940Y-89122023D01*
X94494940Y-85122023D01*
X96875892Y-85122023D01*
X101875892Y-89122023D02*
X100209226Y-87217261D01*
X99018750Y-89122023D02*
X99018750Y-85122023D01*
X100923511Y-85122023D01*
X101399702Y-85312500D01*
X101637797Y-85502976D01*
X101875892Y-85883928D01*
X101875892Y-86455357D01*
X101637797Y-86836309D01*
X101399702Y-87026785D01*
X100923511Y-87217261D01*
X99018750Y-87217261D01*
%LPC*%
D12*
G04 #@! TO.C,K_A1*
X76200000Y-58737500D03*
D13*
X71120000Y-58737500D03*
X81280000Y-58737500D03*
G04 #@! TD*
D12*
G04 #@! TO.C,K_\002C1*
X219075000Y-77787500D03*
D13*
X213995000Y-77787500D03*
X224155000Y-77787500D03*
G04 #@! TD*
D12*
G04 #@! TO.C,K_.1*
X238125000Y-77787500D03*
D13*
X233045000Y-77787500D03*
X243205000Y-77787500D03*
G04 #@! TD*
D12*
G04 #@! TO.C,K_;1*
X247650000Y-58737500D03*
D13*
X242570000Y-58737500D03*
X252730000Y-58737500D03*
G04 #@! TD*
G04 #@! TO.C,K_\005C1*
X271780000Y-39687500D03*
X261620000Y-39687500D03*
D12*
X266700000Y-39687500D03*
G04 #@! TD*
D13*
G04 #@! TO.C,K_ALT1*
X93186250Y-96837500D03*
X83026250Y-96837500D03*
D12*
X88106250Y-96837500D03*
G04 #@! TD*
D13*
G04 #@! TO.C,K_B1*
X167005000Y-77787500D03*
X156845000Y-77787500D03*
D12*
X161925000Y-77787500D03*
G04 #@! TD*
D13*
G04 #@! TO.C,K_C1*
X128905000Y-77787500D03*
X118745000Y-77787500D03*
D12*
X123825000Y-77787500D03*
G04 #@! TD*
G04 #@! TO.C,K_CAPS1*
X50006250Y-58737500D03*
D13*
X44926250Y-58737500D03*
X55086250Y-58737500D03*
G04 #@! TD*
D12*
G04 #@! TO.C,K_CAPS2*
X45243750Y-58737500D03*
D13*
X40163750Y-58737500D03*
X50323750Y-58737500D03*
G04 #@! TD*
D12*
G04 #@! TO.C,K_CTRL1*
X45243750Y-96837500D03*
D13*
X40163750Y-96837500D03*
X50323750Y-96837500D03*
G04 #@! TD*
G04 #@! TO.C,K_D1*
X119380000Y-58737500D03*
X109220000Y-58737500D03*
D12*
X114300000Y-58737500D03*
G04 #@! TD*
D13*
G04 #@! TO.C,K_E1*
X114617500Y-39687500D03*
X104457500Y-39687500D03*
D12*
X109537500Y-39687500D03*
G04 #@! TD*
G04 #@! TO.C,K_F1*
X133350000Y-58737500D03*
D13*
X128270000Y-58737500D03*
X138430000Y-58737500D03*
G04 #@! TD*
G04 #@! TO.C,K_G1*
X157480000Y-58737500D03*
X147320000Y-58737500D03*
D12*
X152400000Y-58737500D03*
G04 #@! TD*
D13*
G04 #@! TO.C,K_H1*
X176530000Y-58737500D03*
X166370000Y-58737500D03*
D12*
X171450000Y-58737500D03*
G04 #@! TD*
G04 #@! TO.C,K_I1*
X204787500Y-39687500D03*
D13*
X199707500Y-39687500D03*
X209867500Y-39687500D03*
G04 #@! TD*
G04 #@! TO.C,K_J1*
X195580000Y-58737500D03*
X185420000Y-58737500D03*
D12*
X190500000Y-58737500D03*
G04 #@! TD*
D13*
G04 #@! TO.C,K_K1*
X214630000Y-58737500D03*
X204470000Y-58737500D03*
D12*
X209550000Y-58737500D03*
G04 #@! TD*
G04 #@! TO.C,K_L1*
X228600000Y-58737500D03*
D13*
X223520000Y-58737500D03*
X233680000Y-58737500D03*
G04 #@! TD*
D12*
G04 #@! TO.C,K_LSPACE1*
X121443750Y-96837500D03*
D13*
X116363750Y-96837500D03*
X126523750Y-96837500D03*
D14*
X109505750Y-103822500D03*
X133381750Y-103822500D03*
D12*
X109505750Y-88582500D03*
X133381750Y-88582500D03*
G04 #@! TD*
G04 #@! TO.C,K_M1*
X200025000Y-77787500D03*
D13*
X194945000Y-77787500D03*
X205105000Y-77787500D03*
G04 #@! TD*
D12*
G04 #@! TO.C,K_N1*
X180975000Y-77787500D03*
D13*
X175895000Y-77787500D03*
X186055000Y-77787500D03*
G04 #@! TD*
D12*
G04 #@! TO.C,K_O1*
X223837500Y-39687500D03*
D13*
X218757500Y-39687500D03*
X228917500Y-39687500D03*
G04 #@! TD*
D12*
G04 #@! TO.C,K_P1*
X242887500Y-39687500D03*
D13*
X237807500Y-39687500D03*
X247967500Y-39687500D03*
G04 #@! TD*
G04 #@! TO.C,K_Q1*
X76517500Y-39687500D03*
X66357500Y-39687500D03*
D12*
X71437500Y-39687500D03*
G04 #@! TD*
G04 #@! TO.C,K_R1*
X128587500Y-39687500D03*
D13*
X123507500Y-39687500D03*
X133667500Y-39687500D03*
G04 #@! TD*
G04 #@! TO.C,K_RALT1*
X231298750Y-96837500D03*
X221138750Y-96837500D03*
D12*
X226218750Y-96837500D03*
G04 #@! TD*
G04 #@! TO.C,K_RCTRL1*
X269081250Y-96837500D03*
D13*
X264001250Y-96837500D03*
X274161250Y-96837500D03*
G04 #@! TD*
D12*
G04 #@! TO.C,K_RSPACE1*
X200056750Y-88582500D03*
X176180750Y-88582500D03*
D14*
X200056750Y-103822500D03*
X176180750Y-103822500D03*
D13*
X193198750Y-96837500D03*
X183038750Y-96837500D03*
D12*
X188118750Y-96837500D03*
G04 #@! TD*
D13*
G04 #@! TO.C,K_RWIN1*
X252730000Y-96837500D03*
X242570000Y-96837500D03*
D12*
X247650000Y-96837500D03*
G04 #@! TD*
D13*
G04 #@! TO.C,K_S1*
X100330000Y-58737500D03*
X90170000Y-58737500D03*
D12*
X95250000Y-58737500D03*
G04 #@! TD*
G04 #@! TO.C,K_SHIFT1*
X54768750Y-77787500D03*
D13*
X49688750Y-77787500D03*
X59848750Y-77787500D03*
D14*
X42830750Y-70802500D03*
X66706750Y-70802500D03*
D12*
X42830750Y-86042500D03*
X66706750Y-86042500D03*
G04 #@! TD*
G04 #@! TO.C,K_SHIFT2*
X45243750Y-77787500D03*
D13*
X40163750Y-77787500D03*
X50323750Y-77787500D03*
G04 #@! TD*
G04 #@! TO.C,K_SHIFT3*
X71755000Y-77787500D03*
X61595000Y-77787500D03*
D12*
X66675000Y-77787500D03*
G04 #@! TD*
D13*
G04 #@! TO.C,K_SPACE3*
X157480000Y-96837500D03*
X147320000Y-96837500D03*
D12*
X152400000Y-96837500D03*
G04 #@! TD*
G04 #@! TO.C,K_T1*
X147637500Y-39687500D03*
D13*
X142557500Y-39687500D03*
X152717500Y-39687500D03*
G04 #@! TD*
D12*
G04 #@! TO.C,K_TAB1*
X47625000Y-39687500D03*
D13*
X42545000Y-39687500D03*
X52705000Y-39687500D03*
G04 #@! TD*
G04 #@! TO.C,K_U1*
X190817500Y-39687500D03*
X180657500Y-39687500D03*
D12*
X185737500Y-39687500D03*
G04 #@! TD*
G04 #@! TO.C,K_V1*
X142875000Y-77787500D03*
D13*
X137795000Y-77787500D03*
X147955000Y-77787500D03*
G04 #@! TD*
D12*
G04 #@! TO.C,K_W1*
X90487500Y-39687500D03*
D13*
X85407500Y-39687500D03*
X95567500Y-39687500D03*
G04 #@! TD*
G04 #@! TO.C,K_WIN1*
X71755000Y-96837500D03*
X61595000Y-96837500D03*
D12*
X66675000Y-96837500D03*
G04 #@! TD*
G04 #@! TO.C,K_X1*
X104775000Y-77787500D03*
D13*
X99695000Y-77787500D03*
X109855000Y-77787500D03*
G04 #@! TD*
G04 #@! TO.C,K_Y1*
X171767500Y-39687500D03*
X161607500Y-39687500D03*
D12*
X166687500Y-39687500D03*
G04 #@! TD*
G04 #@! TO.C,K_Z1*
X85725000Y-77787500D03*
D13*
X80645000Y-77787500D03*
X90805000Y-77787500D03*
G04 #@! TD*
D15*
G04 #@! TO.C,USB1*
X63851250Y-29587500D03*
X55211250Y-29587500D03*
D16*
X63851250Y-33767500D03*
X55211250Y-33767500D03*
D17*
X56641250Y-33237500D03*
X62421250Y-33237500D03*
G04 #@! TD*
D12*
G04 #@! TO.C,K_ENTER1*
X259556250Y-58737500D03*
D13*
X254476250Y-58737500D03*
X264636250Y-58737500D03*
D14*
X247618250Y-51752500D03*
X271494250Y-51752500D03*
D12*
X247618250Y-66992500D03*
X271494250Y-66992500D03*
G04 #@! TD*
G04 #@! TO.C,K_ENTER2*
X269081250Y-58737500D03*
D13*
X264001250Y-58737500D03*
X274161250Y-58737500D03*
G04 #@! TD*
D12*
G04 #@! TO.C,K_ENTER3*
X269081250Y-49212500D03*
D18*
X269081250Y-44132500D03*
X269081250Y-54292500D03*
D14*
X276066250Y-61150500D03*
X276066250Y-37274500D03*
D12*
X260826250Y-61150500D03*
X260826250Y-37274500D03*
G04 #@! TD*
D13*
G04 #@! TO.C,K_RSHIFT1*
X269398750Y-77787500D03*
X259238750Y-77787500D03*
D12*
X264318750Y-77787500D03*
G04 #@! TD*
G04 #@! TO.C,K_RSHIFT2*
X245268750Y-77787500D03*
D13*
X240188750Y-77787500D03*
X250348750Y-77787500D03*
G04 #@! TD*
D12*
G04 #@! TO.C,K_RSHIFT3*
X271462500Y-77787500D03*
D13*
X266382500Y-77787500D03*
X276542500Y-77787500D03*
G04 #@! TD*
D12*
G04 #@! TO.C,K_RSHIFT4*
X254793750Y-77787500D03*
D13*
X249713750Y-77787500D03*
X259873750Y-77787500D03*
D14*
X242855750Y-70802500D03*
X266731750Y-70802500D03*
D12*
X242855750Y-86042500D03*
X266731750Y-86042500D03*
G04 #@! TD*
G04 #@! TO.C,K_SPACE2*
X166687500Y-96837500D03*
D13*
X161607500Y-96837500D03*
X171767500Y-96837500D03*
D14*
X109537500Y-103822500D03*
X204787500Y-103822500D03*
D12*
X109537500Y-88582500D03*
X204787500Y-88582500D03*
G04 #@! TD*
G04 #@! TO.C,K_SPACE4*
X161925000Y-96837500D03*
D13*
X156845000Y-96837500D03*
X167005000Y-96837500D03*
G04 #@! TD*
D12*
G04 #@! TO.C,K_LSPACE2*
X126206250Y-96837500D03*
D13*
X121126250Y-96837500D03*
X131286250Y-96837500D03*
D14*
X114268250Y-103822500D03*
X138144250Y-103822500D03*
D12*
X114268250Y-88582500D03*
X138144250Y-88582500D03*
G04 #@! TD*
G04 #@! TO.C,K_RSPACE2*
X192881250Y-96837500D03*
D13*
X187801250Y-96837500D03*
X197961250Y-96837500D03*
D14*
X180943250Y-103822500D03*
X204819250Y-103822500D03*
D12*
X180943250Y-88582500D03*
X204819250Y-88582500D03*
G04 #@! TD*
D19*
G04 #@! TO.C,SW3*
X104068750Y-50336250D03*
X107068750Y-50336250D03*
G04 #@! TD*
M02*
