M48
;DRILL file {KiCad (5.0.0)} date 02/17/19 19:36:43
;FORMAT={-:-/ absolute / inch / decimal}
FMAT,2
INCH,TZ
T1C0.0157
T2C0.0236
T3C0.0409
T4C0.0579
%
G90
G05
M72
T1
X1.525Y-2.415
X1.605Y-1.965
X1.62Y-1.68
X1.62Y-1.73
X1.84Y-1.875
X1.975Y-1.955
X2.Y-1.65
X2.08Y-2.235
X2.095Y-2.505
X2.105Y-2.4
X2.105Y-2.44
X2.13Y-2.505
X2.17Y-1.45
X2.195Y-1.765
X2.205Y-3.475
X2.21Y-1.895
X2.215Y-2.405
X2.245Y-2.455
X2.255Y-2.145
X2.26Y-1.455
X2.27Y-3.895
X2.285Y-2.165
X2.285Y-2.455
X2.295Y-1.425
X2.3Y-3.15
X2.33Y-1.69
X2.33Y-1.725
X2.38Y-2.38
X2.405Y-2.495
X2.41Y-2.4
X2.45Y-1.425
X2.47Y-1.88
X2.505Y-2.68
X2.535Y-2.325
X2.585Y-1.76
X2.585Y-1.83
X2.61Y-1.65
X2.64Y-1.625
X2.64Y-2.6
X2.655Y-2.115
X2.715Y-1.91
X2.76Y-1.91
X2.765Y-2.02
X2.765Y-2.135
X2.815Y-1.975
X2.83Y-2.4
X2.83Y-2.435
X2.935Y-3.89
X2.99Y-3.165
X3.025Y-1.975
X3.035Y-3.5
X3.14Y-1.635
X3.14Y-1.975
X3.19Y-1.925
X3.295Y-2.39
X3.305Y-1.925
X3.39Y-3.555
X3.795Y-1.965
X4.79Y-3.515
X4.85Y-1.865
X4.925Y-1.86
X5.015Y-1.905
X6.42Y-3.465
X6.66Y-1.86
X6.735Y-1.855
X6.83Y-1.95
X8.16Y-1.86
X8.235Y-1.855
X8.25Y-3.515
X8.33Y-1.95
X8.935Y-2.885
X8.935Y-3.125
X9.605Y-2.63
X9.61Y-2.43
X9.745Y-1.86
X9.86Y-2.43
X9.985Y-3.465
X10.11Y-1.8
X10.205Y-1.855
X10.36Y-1.76
X10.75Y-3.5
X10.865Y-1.965
T3
X3.325Y-3.2625
X3.425Y-3.2625
X10.3562Y-3.2625
X10.4562Y-3.2625
X3.5125Y-1.7625
X3.6125Y-1.7625
X4.825Y-3.2625
X4.925Y-3.2625
X5.0125Y-1.7625
X5.1125Y-1.7625
X4.45Y-2.5125
X4.55Y-2.5125
X2.1062Y-3.2625
X2.2062Y-3.2625
X8.0125Y-1.7625
X8.1125Y-1.7625
X6.7Y-2.5125
X6.8Y-2.5125
X2.575Y-4.0125
X2.675Y-4.0125
X1.7312Y-2.5125
X1.8313Y-2.5125
X10.3937Y-1.8875
X10.3937Y-1.9875
X8.8562Y-4.0125
X8.9562Y-4.0125
X6.5125Y-4.0125
X6.6125Y-4.0125
X4.9188Y-4.0125
X5.0187Y-4.0125
X1.7312Y-4.0125
X1.8313Y-4.0125
X5.575Y-3.2625
X5.675Y-3.2625
X10.5437Y-2.5125
X10.6437Y-2.5125
X7.825Y-3.2625
X7.925Y-3.2625
X10.45Y-1.7625
X10.55Y-1.7625
X5.7625Y-1.7625
X5.8625Y-1.7625
X4.075Y-3.2625
X4.175Y-3.2625
X7.5438Y-4.0125
X7.6437Y-4.0125
X2.7625Y-1.7625
X2.8625Y-1.7625
X1.9187Y-2.5125
X2.0187Y-2.5125
X7.2625Y-1.7625
X7.3625Y-1.7625
X6.325Y-3.2625
X6.425Y-3.2625
X8.7625Y-1.7625
X8.8625Y-1.7625
X9.7Y-4.0125
X9.8Y-4.0125
X7.3563Y-4.0125
X7.4562Y-4.0125
X2.95Y-2.5125
X3.05Y-2.5125
X9.6062Y-3.2625
X9.7062Y-3.2625
X6.325Y-4.0125
X6.425Y-4.0125
X4.7313Y-4.0125
X4.8312Y-4.0125
X5.95Y-2.5125
X6.05Y-2.5125
X1.825Y-1.7625
X1.925Y-1.7625
X3.4187Y-4.0125
X3.5187Y-4.0125
X10.1687Y-2.5125
X10.2687Y-2.5125
X7.075Y-3.2625
X7.175Y-3.2625
X9.5125Y-1.7625
X9.6125Y-1.7625
X9.9812Y-3.2625
X10.0812Y-3.2625
X6.5125Y-1.7625
X6.6125Y-1.7625
X5.2Y-2.5125
X5.3Y-2.5125
X5.95Y-4.0125
X6.05Y-4.0125
X8.575Y-3.2625
X8.675Y-3.2625
X7.45Y-2.5125
X7.55Y-2.5125
X9.7Y-2.5125
X9.8Y-2.5125
X8.95Y-2.5125
X9.05Y-2.5125
X10.5437Y-4.0125
X10.6437Y-4.0125
X10.6375Y-3.2625
X10.7375Y-3.2625
X3.7Y-2.5125
X3.8Y-2.5125
X2.575Y-3.2625
X2.675Y-3.2625
X4.2625Y-1.7625
X4.3625Y-1.7625
X1.7312Y-3.2625
X1.8313Y-3.2625
X9.325Y-3.2625
X9.425Y-3.2625
X8.2Y-2.5125
X8.3Y-2.5125
T4
X6.225Y-3.7125
X6.2766Y-3.655
X6.4734Y-3.6353
X6.475Y-3.6125
X4.6312Y-3.7125
X4.6828Y-3.655
X4.8797Y-3.6353
X4.8812Y-3.6125
X5.85Y-2.2125
X5.9016Y-2.155
X6.0984Y-2.1353
X6.1Y-2.1125
X1.725Y-1.4625
X1.7766Y-1.405
X1.9734Y-1.3853
X1.975Y-1.3625
X3.3188Y-3.7125
X3.3703Y-3.655
X3.5672Y-3.6353
X3.5688Y-3.6125
X10.0687Y-2.2125
X10.1203Y-2.155
X10.3172Y-2.1353
X10.3187Y-2.1125
X6.975Y-2.9625
X7.0266Y-2.905
X7.2234Y-2.8853
X7.225Y-2.8625
X9.4125Y-1.4625
X9.4641Y-1.405
X9.6609Y-1.3853
X9.6625Y-1.3625
X9.8812Y-2.9625
X9.9328Y-2.905
X10.1297Y-2.8853
X10.1312Y-2.8625
X6.4125Y-1.4625
X6.4641Y-1.405
X6.6609Y-1.3853
X6.6625Y-1.3625
X5.1Y-2.2125
X5.1516Y-2.155
X5.3484Y-2.1353
X5.35Y-2.1125
X5.85Y-3.7125
X5.9016Y-3.655
X6.0984Y-3.6353
X6.1Y-3.6125
X8.475Y-2.9625
X8.5266Y-2.905
X8.7234Y-2.8853
X8.725Y-2.8625
X7.35Y-2.2125
X7.4016Y-2.155
X7.5984Y-2.1353
X7.6Y-2.1125
X9.6Y-2.2125
X9.6516Y-2.155
X9.8484Y-2.1353
X9.85Y-2.1125
X8.85Y-2.2125
X8.9016Y-2.155
X9.0984Y-2.1353
X9.1Y-2.1125
X10.4437Y-3.7125
X10.4953Y-3.655
X10.6922Y-3.6353
X10.6937Y-3.6125
X10.5375Y-2.9625
X10.5891Y-2.905
X10.7859Y-2.8853
X10.7875Y-2.8625
X3.6Y-2.2125
X3.6516Y-2.155
X3.8484Y-2.1353
X3.85Y-2.1125
X2.475Y-2.9625
X2.5266Y-2.905
X2.7234Y-2.8853
X2.725Y-2.8625
X4.1625Y-1.4625
X4.2141Y-1.405
X4.4109Y-1.3853
X4.4125Y-1.3625
X1.6312Y-2.9625
X1.6828Y-2.905
X1.8797Y-2.8853
X1.8812Y-2.8625
X9.225Y-2.9625
X9.2766Y-2.905
X9.4734Y-2.8853
X9.475Y-2.8625
X8.1Y-2.2125
X8.1516Y-2.155
X8.3484Y-2.1353
X8.35Y-2.1125
X3.225Y-2.9625
X3.2766Y-2.905
X3.4734Y-2.8853
X3.475Y-2.8625
X10.2562Y-2.9625
X10.3078Y-2.905
X10.5047Y-2.8853
X10.5062Y-2.8625
X3.4125Y-1.4625
X3.4641Y-1.405
X3.6609Y-1.3853
X3.6625Y-1.3625
X4.725Y-2.9625
X4.7766Y-2.905
X4.9734Y-2.8853
X4.975Y-2.8625
X4.9125Y-1.4625
X4.9641Y-1.405
X5.1609Y-1.3853
X5.1625Y-1.3625
X4.35Y-2.2125
X4.4016Y-2.155
X4.5984Y-2.1353
X4.6Y-2.1125
X2.0063Y-2.9625
X2.0578Y-2.905
X2.2547Y-2.8853
X2.2563Y-2.8625
X7.9125Y-1.4625
X7.9641Y-1.405
X8.1609Y-1.3853
X8.1625Y-1.3625
X6.6Y-2.2125
X6.6516Y-2.155
X6.8484Y-2.1353
X6.85Y-2.1125
X2.475Y-3.7125
X2.5266Y-3.655
X2.7234Y-3.6353
X2.725Y-3.6125
X1.6312Y-2.2125
X1.6828Y-2.155
X1.8797Y-2.1353
X1.8812Y-2.1125
X10.4953Y-2.1147
X10.6922Y-2.095
X10.6937Y-1.7875
X10.7512Y-1.8391
X10.7709Y-2.0359
X10.7937Y-2.0375
X8.7562Y-3.7125
X8.8078Y-3.655
X9.0047Y-3.6353
X9.0062Y-3.6125
X6.4125Y-3.7125
X6.4641Y-3.655
X6.6609Y-3.6353
X6.6625Y-3.6125
X4.8187Y-3.7125
X4.8703Y-3.655
X5.0672Y-3.6353
X5.0687Y-3.6125
X1.6312Y-3.7125
X1.6828Y-3.655
X1.8797Y-3.6353
X1.8812Y-3.6125
X5.475Y-2.9625
X5.5266Y-2.905
X5.7234Y-2.8853
X5.725Y-2.8625
X10.4437Y-2.2125
X10.4953Y-2.155
X10.6922Y-2.1353
X10.6937Y-2.1125
X7.725Y-2.9625
X7.7766Y-2.905
X7.9734Y-2.8853
X7.975Y-2.8625
X10.35Y-1.4625
X10.4016Y-1.405
X10.5984Y-1.3853
X10.6Y-1.3625
X5.6625Y-1.4625
X5.7141Y-1.405
X5.9109Y-1.3853
X5.9125Y-1.3625
X3.975Y-2.9625
X4.0266Y-2.905
X4.2234Y-2.8853
X4.225Y-2.8625
X7.4437Y-3.7125
X7.4953Y-3.655
X7.6922Y-3.6353
X7.6937Y-3.6125
X2.6625Y-1.4625
X2.7141Y-1.405
X2.9109Y-1.3853
X2.9125Y-1.3625
X1.8187Y-2.2125
X1.8703Y-2.155
X2.0672Y-2.1353
X2.0688Y-2.1125
X7.1625Y-1.4625
X7.2141Y-1.405
X7.4109Y-1.3853
X7.4125Y-1.3625
X6.225Y-2.9625
X6.2766Y-2.905
X6.4734Y-2.8853
X6.475Y-2.8625
X8.6625Y-1.4625
X8.7141Y-1.405
X8.9109Y-1.3853
X8.9125Y-1.3625
X9.6Y-3.7125
X9.6516Y-3.655
X9.8484Y-3.6353
X9.85Y-3.6125
X7.2562Y-3.7125
X7.3078Y-3.655
X7.5047Y-3.6353
X7.5062Y-3.6125
X2.85Y-2.2125
X2.9016Y-2.155
X3.0984Y-2.1353
X3.1Y-2.1125
X9.5062Y-2.9625
X9.5578Y-2.905
X9.7547Y-2.8853
X9.7562Y-2.8625
T2
X2.1737Y-1.1531G85X2.1737Y-1.1767
G05
X2.1737Y-1.3078G85X2.1737Y-1.3511
G05
X2.5138Y-1.1531G85X2.5138Y-1.1767
G05
X2.5138Y-1.3078G85X2.5138Y-1.3511
G05
T0
M30
