G04 #@! TF.GenerationSoftware,KiCad,Pcbnew,(5.0.0)*
G04 #@! TF.CreationDate,2019-02-03T03:36:39-08:00*
G04 #@! TF.ProjectId,Voyager40,566F796167657234302E6B696361645F,rev?*
G04 #@! TF.SameCoordinates,Original*
G04 #@! TF.FileFunction,Soldermask,Bot*
G04 #@! TF.FilePolarity,Negative*
%FSLAX46Y46*%
G04 Gerber Fmt 4.6, Leading zero omitted, Abs format (unit mm)*
G04 Created by KiCad (PCBNEW (5.0.0)) date 02/03/19 03:36:39*
%MOMM*%
%LPD*%
G01*
G04 APERTURE LIST*
%ADD10R,1.200000X1.150000*%
%ADD11R,1.150000X1.200000*%
%ADD12R,1.600000X1.300000*%
%ADD13R,2.430000X1.540000*%
%ADD14C,2.650000*%
%ADD15C,2.650000*%
%ADD16C,4.387800*%
%ADD17C,2.305000*%
%ADD18R,2.305000X2.305000*%
%ADD19C,2.150000*%
%ADD20C,3.448000*%
%ADD21R,1.200000X1.300000*%
%ADD22R,1.700000X1.100000*%
%ADD23R,1.100000X1.700000*%
%ADD24R,2.200000X1.500000*%
%ADD25R,1.100000X1.400000*%
%ADD26R,1.100000X1.000000*%
%ADD27O,1.400000X2.000000*%
%ADD28O,1.400000X2.500000*%
%ADD29C,1.050000*%
%ADD30R,0.700000X1.850000*%
%ADD31R,1.000000X1.850000*%
%ADD32R,1.800000X1.600000*%
%ADD33C,2.101800*%
%ADD34R,2.125000X2.125000*%
%ADD35R,1.100000X0.650000*%
%ADD36R,0.650000X1.100000*%
%ADD37R,2.000000X1.400000*%
G04 APERTURE END LIST*
D10*
G04 #@! TO.C,C2*
X59487500Y-55562500D03*
X57987500Y-55562500D03*
G04 #@! TD*
D11*
G04 #@! TO.C,C3*
X67945000Y-50685000D03*
X67945000Y-52185000D03*
G04 #@! TD*
D10*
G04 #@! TO.C,C4*
X59487500Y-57150000D03*
X57987500Y-57150000D03*
G04 #@! TD*
G04 #@! TO.C,C6*
X59487500Y-60325000D03*
X57987500Y-60325000D03*
G04 #@! TD*
D11*
G04 #@! TO.C,C7*
X59309000Y-52216750D03*
X59309000Y-50716750D03*
G04 #@! TD*
D10*
G04 #@! TO.C,C8*
X63551500Y-48291750D03*
X62051500Y-48291750D03*
G04 #@! TD*
D12*
G04 #@! TO.C,D1*
X234156250Y-95187500D03*
X234156250Y-98487500D03*
G04 #@! TD*
G04 #@! TO.C,D16*
X39687500Y-38037500D03*
X39687500Y-41337500D03*
G04 #@! TD*
G04 #@! TO.C,D17*
X79375000Y-41337500D03*
X79375000Y-38037500D03*
G04 #@! TD*
G04 #@! TO.C,D18*
X98425000Y-38037500D03*
X98425000Y-41337500D03*
G04 #@! TD*
G04 #@! TO.C,D19*
X117475000Y-38037500D03*
X117475000Y-41337500D03*
G04 #@! TD*
G04 #@! TO.C,D20*
X136525000Y-36450000D03*
X136525000Y-39750000D03*
G04 #@! TD*
G04 #@! TO.C,D21*
X155575000Y-41337500D03*
X155575000Y-38037500D03*
G04 #@! TD*
G04 #@! TO.C,D22*
X174625000Y-38037500D03*
X174625000Y-41337500D03*
G04 #@! TD*
G04 #@! TO.C,D23*
X193675000Y-38037500D03*
X193675000Y-41337500D03*
G04 #@! TD*
G04 #@! TO.C,D24*
X212725000Y-41337500D03*
X212725000Y-38037500D03*
G04 #@! TD*
G04 #@! TO.C,D25*
X231775000Y-41337500D03*
X231775000Y-38037500D03*
G04 #@! TD*
G04 #@! TO.C,D26*
X250825000Y-39750000D03*
X250825000Y-36450000D03*
G04 #@! TD*
G04 #@! TO.C,D27*
X254000000Y-36450000D03*
X254000000Y-39750000D03*
G04 #@! TD*
G04 #@! TO.C,D31*
X37306250Y-60387500D03*
X37306250Y-57087500D03*
G04 #@! TD*
G04 #@! TO.C,D32*
X84137500Y-60387500D03*
X84137500Y-57087500D03*
G04 #@! TD*
G04 #@! TO.C,D33*
X103187500Y-57087500D03*
X103187500Y-60387500D03*
G04 #@! TD*
G04 #@! TO.C,D34*
X122237500Y-57087500D03*
X122237500Y-60387500D03*
G04 #@! TD*
G04 #@! TO.C,D35*
X141287500Y-60387500D03*
X141287500Y-57087500D03*
G04 #@! TD*
G04 #@! TO.C,D36*
X160337500Y-60387500D03*
X160337500Y-57087500D03*
G04 #@! TD*
G04 #@! TO.C,D37*
X179387500Y-60387500D03*
X179387500Y-57087500D03*
G04 #@! TD*
G04 #@! TO.C,D38*
X198437500Y-57087500D03*
X198437500Y-60387500D03*
G04 #@! TD*
G04 #@! TO.C,D39*
X217487500Y-60387500D03*
X217487500Y-57087500D03*
G04 #@! TD*
G04 #@! TO.C,D40*
X220662500Y-60387500D03*
X220662500Y-57087500D03*
G04 #@! TD*
G04 #@! TO.C,D41*
X239712500Y-60387500D03*
X239712500Y-57087500D03*
G04 #@! TD*
G04 #@! TO.C,D42*
X236537500Y-60387500D03*
X236537500Y-57087500D03*
G04 #@! TD*
G04 #@! TO.C,D44*
X74612500Y-76137500D03*
X74612500Y-79437500D03*
G04 #@! TD*
G04 #@! TO.C,D45*
X77787500Y-76137500D03*
X77787500Y-79437500D03*
G04 #@! TD*
G04 #@! TO.C,D46*
X93662500Y-77850000D03*
X93662500Y-74550000D03*
G04 #@! TD*
G04 #@! TO.C,D47*
X112712500Y-76137500D03*
X112712500Y-79437500D03*
G04 #@! TD*
G04 #@! TO.C,D48*
X131762500Y-77850000D03*
X131762500Y-74550000D03*
G04 #@! TD*
G04 #@! TO.C,D49*
X150812500Y-76137500D03*
X150812500Y-79437500D03*
G04 #@! TD*
G04 #@! TO.C,D50*
X169862500Y-77850000D03*
X169862500Y-74550000D03*
G04 #@! TD*
G04 #@! TO.C,D51*
X188912500Y-76137500D03*
X188912500Y-79437500D03*
G04 #@! TD*
G04 #@! TO.C,D52*
X207962500Y-74550000D03*
X207962500Y-77850000D03*
G04 #@! TD*
G04 #@! TO.C,D53*
X211137500Y-74550000D03*
X211137500Y-77850000D03*
G04 #@! TD*
G04 #@! TO.C,D54*
X230187500Y-76137500D03*
X230187500Y-79437500D03*
G04 #@! TD*
G04 #@! TO.C,D55*
X227012500Y-76137500D03*
X227012500Y-79437500D03*
G04 #@! TD*
G04 #@! TO.C,D58*
X134143750Y-98487500D03*
X134143750Y-95187500D03*
G04 #@! TD*
G04 #@! TO.C,D59*
X53181250Y-98487500D03*
X53181250Y-95187500D03*
G04 #@! TD*
G04 #@! TO.C,D60*
X74612500Y-95187500D03*
X74612500Y-98487500D03*
G04 #@! TD*
G04 #@! TO.C,D61*
X174625000Y-95187500D03*
X174625000Y-98487500D03*
G04 #@! TD*
G04 #@! TO.C,D62*
X200818750Y-98487500D03*
X200818750Y-95187500D03*
G04 #@! TD*
G04 #@! TO.C,D63*
X255587500Y-95187500D03*
X255587500Y-98487500D03*
G04 #@! TD*
G04 #@! TO.C,D64*
X261143750Y-98487500D03*
X261143750Y-95187500D03*
G04 #@! TD*
G04 #@! TO.C,D67*
X96043750Y-98487500D03*
X96043750Y-95187500D03*
G04 #@! TD*
D13*
G04 #@! TO.C,F1*
X53975000Y-42456250D03*
X53975000Y-44856250D03*
G04 #@! TD*
D14*
G04 #@! TO.C,K_\002C1*
X221595000Y-72997500D03*
D15*
X221575000Y-73287500D02*
X221615000Y-72707500D01*
D14*
X221615000Y-72707500D03*
X215920001Y-74517500D03*
D15*
X215265000Y-75247500D02*
X216575002Y-73787500D01*
D16*
X219075000Y-77787500D03*
D14*
X216575000Y-73787500D03*
D17*
X217805000Y-82867500D03*
D18*
X220345000Y-82867500D03*
D19*
X213995000Y-77787500D03*
X224155000Y-77787500D03*
G04 #@! TD*
D14*
G04 #@! TO.C,K_.1*
X240645000Y-72997500D03*
D15*
X240625000Y-73287500D02*
X240665000Y-72707500D01*
D14*
X240665000Y-72707500D03*
X234970001Y-74517500D03*
D15*
X234315000Y-75247500D02*
X235625002Y-73787500D01*
D16*
X238125000Y-77787500D03*
D14*
X235625000Y-73787500D03*
D17*
X236855000Y-82867500D03*
D18*
X239395000Y-82867500D03*
D19*
X233045000Y-77787500D03*
X243205000Y-77787500D03*
G04 #@! TD*
D14*
G04 #@! TO.C,K_;1*
X250170000Y-53947500D03*
D15*
X250150000Y-54237500D02*
X250190000Y-53657500D01*
D14*
X250190000Y-53657500D03*
X244495001Y-55467500D03*
D15*
X243840000Y-56197500D02*
X245150002Y-54737500D01*
D16*
X247650000Y-58737500D03*
D14*
X245150000Y-54737500D03*
D17*
X246380000Y-63817500D03*
D18*
X248920000Y-63817500D03*
D19*
X242570000Y-58737500D03*
X252730000Y-58737500D03*
G04 #@! TD*
G04 #@! TO.C,K_\005C1*
X271780000Y-39687500D03*
X261620000Y-39687500D03*
D18*
X267970000Y-44767500D03*
D17*
X265430000Y-44767500D03*
D14*
X264200000Y-35687500D03*
D16*
X266700000Y-39687500D03*
D14*
X263545001Y-36417500D03*
D15*
X262890000Y-37147500D02*
X264200002Y-35687500D01*
D14*
X269240000Y-34607500D03*
X269220000Y-34897500D03*
D15*
X269200000Y-35187500D02*
X269240000Y-34607500D01*
G04 #@! TD*
D14*
G04 #@! TO.C,K_A1*
X78720000Y-53947500D03*
D15*
X78700000Y-54237500D02*
X78740000Y-53657500D01*
D14*
X78740000Y-53657500D03*
X73045001Y-55467500D03*
D15*
X72390000Y-56197500D02*
X73700002Y-54737500D01*
D16*
X76200000Y-58737500D03*
D14*
X73700000Y-54737500D03*
D17*
X74930000Y-63817500D03*
D18*
X77470000Y-63817500D03*
D19*
X71120000Y-58737500D03*
X81280000Y-58737500D03*
G04 #@! TD*
G04 #@! TO.C,K_ALT1*
X93186250Y-96837500D03*
X83026250Y-96837500D03*
D18*
X89376250Y-101917500D03*
D17*
X86836250Y-101917500D03*
D14*
X85606250Y-92837500D03*
D16*
X88106250Y-96837500D03*
D14*
X84951251Y-93567500D03*
D15*
X84296250Y-94297500D02*
X85606252Y-92837500D01*
D14*
X90646250Y-91757500D03*
X90626250Y-92047500D03*
D15*
X90606250Y-92337500D02*
X90646250Y-91757500D01*
G04 #@! TD*
D19*
G04 #@! TO.C,K_B1*
X167005000Y-77787500D03*
X156845000Y-77787500D03*
D18*
X163195000Y-82867500D03*
D17*
X160655000Y-82867500D03*
D14*
X159425000Y-73787500D03*
D16*
X161925000Y-77787500D03*
D14*
X158770001Y-74517500D03*
D15*
X158115000Y-75247500D02*
X159425002Y-73787500D01*
D14*
X164465000Y-72707500D03*
X164445000Y-72997500D03*
D15*
X164425000Y-73287500D02*
X164465000Y-72707500D01*
G04 #@! TD*
D19*
G04 #@! TO.C,K_C1*
X128905000Y-77787500D03*
X118745000Y-77787500D03*
D18*
X125095000Y-82867500D03*
D17*
X122555000Y-82867500D03*
D14*
X121325000Y-73787500D03*
D16*
X123825000Y-77787500D03*
D14*
X120670001Y-74517500D03*
D15*
X120015000Y-75247500D02*
X121325002Y-73787500D01*
D14*
X126365000Y-72707500D03*
X126345000Y-72997500D03*
D15*
X126325000Y-73287500D02*
X126365000Y-72707500D01*
G04 #@! TD*
D14*
G04 #@! TO.C,K_CAPS1*
X52526250Y-53947500D03*
D15*
X52506250Y-54237500D02*
X52546250Y-53657500D01*
D14*
X52546250Y-53657500D03*
X46851251Y-55467500D03*
D15*
X46196250Y-56197500D02*
X47506252Y-54737500D01*
D16*
X50006250Y-58737500D03*
D14*
X47506250Y-54737500D03*
D17*
X48736250Y-63817500D03*
D18*
X51276250Y-63817500D03*
D19*
X44926250Y-58737500D03*
X55086250Y-58737500D03*
G04 #@! TD*
D14*
G04 #@! TO.C,K_CAPS2*
X47763750Y-53947500D03*
D15*
X47743750Y-54237500D02*
X47783750Y-53657500D01*
D14*
X47783750Y-53657500D03*
X42088751Y-55467500D03*
D15*
X41433750Y-56197500D02*
X42743752Y-54737500D01*
D16*
X45243750Y-58737500D03*
D14*
X42743750Y-54737500D03*
D17*
X46513750Y-63817500D03*
D18*
X43973750Y-63817500D03*
D19*
X40163750Y-58737500D03*
X50323750Y-58737500D03*
G04 #@! TD*
D14*
G04 #@! TO.C,K_CTRL1*
X47763750Y-92047500D03*
D15*
X47743750Y-92337500D02*
X47783750Y-91757500D01*
D14*
X47783750Y-91757500D03*
X42088751Y-93567500D03*
D15*
X41433750Y-94297500D02*
X42743752Y-92837500D01*
D16*
X45243750Y-96837500D03*
D14*
X42743750Y-92837500D03*
D17*
X43973750Y-101917500D03*
D18*
X46513750Y-101917500D03*
D19*
X40163750Y-96837500D03*
X50323750Y-96837500D03*
G04 #@! TD*
G04 #@! TO.C,K_D1*
X119380000Y-58737500D03*
X109220000Y-58737500D03*
D18*
X115570000Y-63817500D03*
D17*
X113030000Y-63817500D03*
D14*
X111800000Y-54737500D03*
D16*
X114300000Y-58737500D03*
D14*
X111145001Y-55467500D03*
D15*
X110490000Y-56197500D02*
X111800002Y-54737500D01*
D14*
X116840000Y-53657500D03*
X116820000Y-53947500D03*
D15*
X116800000Y-54237500D02*
X116840000Y-53657500D01*
G04 #@! TD*
D19*
G04 #@! TO.C,K_E1*
X114617500Y-39687500D03*
X104457500Y-39687500D03*
D18*
X110807500Y-44767500D03*
D17*
X108267500Y-44767500D03*
D14*
X107037500Y-35687500D03*
D16*
X109537500Y-39687500D03*
D14*
X106382501Y-36417500D03*
D15*
X105727500Y-37147500D02*
X107037502Y-35687500D01*
D14*
X112077500Y-34607500D03*
X112057500Y-34897500D03*
D15*
X112037500Y-35187500D02*
X112077500Y-34607500D01*
G04 #@! TD*
D14*
G04 #@! TO.C,K_F1*
X135870000Y-53947500D03*
D15*
X135850000Y-54237500D02*
X135890000Y-53657500D01*
D14*
X135890000Y-53657500D03*
X130195001Y-55467500D03*
D15*
X129540000Y-56197500D02*
X130850002Y-54737500D01*
D16*
X133350000Y-58737500D03*
D14*
X130850000Y-54737500D03*
D17*
X132080000Y-63817500D03*
D18*
X134620000Y-63817500D03*
D19*
X128270000Y-58737500D03*
X138430000Y-58737500D03*
G04 #@! TD*
G04 #@! TO.C,K_G1*
X157480000Y-58737500D03*
X147320000Y-58737500D03*
D18*
X153670000Y-63817500D03*
D17*
X151130000Y-63817500D03*
D14*
X149900000Y-54737500D03*
D16*
X152400000Y-58737500D03*
D14*
X149245001Y-55467500D03*
D15*
X148590000Y-56197500D02*
X149900002Y-54737500D01*
D14*
X154940000Y-53657500D03*
X154920000Y-53947500D03*
D15*
X154900000Y-54237500D02*
X154940000Y-53657500D01*
G04 #@! TD*
D19*
G04 #@! TO.C,K_H1*
X176530000Y-58737500D03*
X166370000Y-58737500D03*
D18*
X172720000Y-63817500D03*
D17*
X170180000Y-63817500D03*
D14*
X168950000Y-54737500D03*
D16*
X171450000Y-58737500D03*
D14*
X168295001Y-55467500D03*
D15*
X167640000Y-56197500D02*
X168950002Y-54737500D01*
D14*
X173990000Y-53657500D03*
X173970000Y-53947500D03*
D15*
X173950000Y-54237500D02*
X173990000Y-53657500D01*
G04 #@! TD*
D14*
G04 #@! TO.C,K_I1*
X207307500Y-34897500D03*
D15*
X207287500Y-35187500D02*
X207327500Y-34607500D01*
D14*
X207327500Y-34607500D03*
X201632501Y-36417500D03*
D15*
X200977500Y-37147500D02*
X202287502Y-35687500D01*
D16*
X204787500Y-39687500D03*
D14*
X202287500Y-35687500D03*
D17*
X203517500Y-44767500D03*
D18*
X206057500Y-44767500D03*
D19*
X199707500Y-39687500D03*
X209867500Y-39687500D03*
G04 #@! TD*
G04 #@! TO.C,K_J1*
X195580000Y-58737500D03*
X185420000Y-58737500D03*
D18*
X191770000Y-63817500D03*
D17*
X189230000Y-63817500D03*
D14*
X188000000Y-54737500D03*
D16*
X190500000Y-58737500D03*
D14*
X187345001Y-55467500D03*
D15*
X186690000Y-56197500D02*
X188000002Y-54737500D01*
D14*
X193040000Y-53657500D03*
X193020000Y-53947500D03*
D15*
X193000000Y-54237500D02*
X193040000Y-53657500D01*
G04 #@! TD*
D19*
G04 #@! TO.C,K_K1*
X214630000Y-58737500D03*
X204470000Y-58737500D03*
D18*
X210820000Y-63817500D03*
D17*
X208280000Y-63817500D03*
D14*
X207050000Y-54737500D03*
D16*
X209550000Y-58737500D03*
D14*
X206395001Y-55467500D03*
D15*
X205740000Y-56197500D02*
X207050002Y-54737500D01*
D14*
X212090000Y-53657500D03*
X212070000Y-53947500D03*
D15*
X212050000Y-54237500D02*
X212090000Y-53657500D01*
G04 #@! TD*
D14*
G04 #@! TO.C,K_L1*
X231120000Y-53947500D03*
D15*
X231100000Y-54237500D02*
X231140000Y-53657500D01*
D14*
X231140000Y-53657500D03*
X225445001Y-55467500D03*
D15*
X224790000Y-56197500D02*
X226100002Y-54737500D01*
D16*
X228600000Y-58737500D03*
D14*
X226100000Y-54737500D03*
D17*
X227330000Y-63817500D03*
D18*
X229870000Y-63817500D03*
D19*
X223520000Y-58737500D03*
X233680000Y-58737500D03*
G04 #@! TD*
D14*
G04 #@! TO.C,K_LSPACE1*
X123963750Y-92047500D03*
D15*
X123943750Y-92337500D02*
X123983750Y-91757500D01*
D14*
X123983750Y-91757500D03*
X118288751Y-93567500D03*
D15*
X117633750Y-94297500D02*
X118943752Y-92837500D01*
D16*
X121443750Y-96837500D03*
D14*
X118943750Y-92837500D03*
D17*
X120173750Y-101917500D03*
D18*
X122713750Y-101917500D03*
D19*
X116363750Y-96837500D03*
X126523750Y-96837500D03*
D20*
X109505750Y-103822500D03*
X133381750Y-103822500D03*
D16*
X109505750Y-88582500D03*
X133381750Y-88582500D03*
G04 #@! TD*
D14*
G04 #@! TO.C,K_M1*
X202545000Y-72997500D03*
D15*
X202525000Y-73287500D02*
X202565000Y-72707500D01*
D14*
X202565000Y-72707500D03*
X196870001Y-74517500D03*
D15*
X196215000Y-75247500D02*
X197525002Y-73787500D01*
D16*
X200025000Y-77787500D03*
D14*
X197525000Y-73787500D03*
D17*
X198755000Y-82867500D03*
D18*
X201295000Y-82867500D03*
D19*
X194945000Y-77787500D03*
X205105000Y-77787500D03*
G04 #@! TD*
D14*
G04 #@! TO.C,K_N1*
X183495000Y-72997500D03*
D15*
X183475000Y-73287500D02*
X183515000Y-72707500D01*
D14*
X183515000Y-72707500D03*
X177820001Y-74517500D03*
D15*
X177165000Y-75247500D02*
X178475002Y-73787500D01*
D16*
X180975000Y-77787500D03*
D14*
X178475000Y-73787500D03*
D17*
X179705000Y-82867500D03*
D18*
X182245000Y-82867500D03*
D19*
X175895000Y-77787500D03*
X186055000Y-77787500D03*
G04 #@! TD*
D14*
G04 #@! TO.C,K_O1*
X226357500Y-34897500D03*
D15*
X226337500Y-35187500D02*
X226377500Y-34607500D01*
D14*
X226377500Y-34607500D03*
X220682501Y-36417500D03*
D15*
X220027500Y-37147500D02*
X221337502Y-35687500D01*
D16*
X223837500Y-39687500D03*
D14*
X221337500Y-35687500D03*
D17*
X222567500Y-44767500D03*
D18*
X225107500Y-44767500D03*
D19*
X218757500Y-39687500D03*
X228917500Y-39687500D03*
G04 #@! TD*
D14*
G04 #@! TO.C,K_P1*
X245407500Y-34897500D03*
D15*
X245387500Y-35187500D02*
X245427500Y-34607500D01*
D14*
X245427500Y-34607500D03*
X239732501Y-36417500D03*
D15*
X239077500Y-37147500D02*
X240387502Y-35687500D01*
D16*
X242887500Y-39687500D03*
D14*
X240387500Y-35687500D03*
D17*
X241617500Y-44767500D03*
D18*
X244157500Y-44767500D03*
D19*
X237807500Y-39687500D03*
X247967500Y-39687500D03*
G04 #@! TD*
G04 #@! TO.C,K_Q1*
X76517500Y-39687500D03*
X66357500Y-39687500D03*
D18*
X72707500Y-44767500D03*
D17*
X70167500Y-44767500D03*
D14*
X68937500Y-35687500D03*
D16*
X71437500Y-39687500D03*
D14*
X68282501Y-36417500D03*
D15*
X67627500Y-37147500D02*
X68937502Y-35687500D01*
D14*
X73977500Y-34607500D03*
X73957500Y-34897500D03*
D15*
X73937500Y-35187500D02*
X73977500Y-34607500D01*
G04 #@! TD*
D14*
G04 #@! TO.C,K_R1*
X131107500Y-34897500D03*
D15*
X131087500Y-35187500D02*
X131127500Y-34607500D01*
D14*
X131127500Y-34607500D03*
X125432501Y-36417500D03*
D15*
X124777500Y-37147500D02*
X126087502Y-35687500D01*
D16*
X128587500Y-39687500D03*
D14*
X126087500Y-35687500D03*
D17*
X127317500Y-44767500D03*
D18*
X129857500Y-44767500D03*
D19*
X123507500Y-39687500D03*
X133667500Y-39687500D03*
G04 #@! TD*
G04 #@! TO.C,K_RALT1*
X231298750Y-96837500D03*
X221138750Y-96837500D03*
D18*
X227488750Y-101917500D03*
D17*
X224948750Y-101917500D03*
D14*
X223718750Y-92837500D03*
D16*
X226218750Y-96837500D03*
D14*
X223063751Y-93567500D03*
D15*
X222408750Y-94297500D02*
X223718752Y-92837500D01*
D14*
X228758750Y-91757500D03*
X228738750Y-92047500D03*
D15*
X228718750Y-92337500D02*
X228758750Y-91757500D01*
G04 #@! TD*
D14*
G04 #@! TO.C,K_RCTRL1*
X271601250Y-92047500D03*
D15*
X271581250Y-92337500D02*
X271621250Y-91757500D01*
D14*
X271621250Y-91757500D03*
X265926251Y-93567500D03*
D15*
X265271250Y-94297500D02*
X266581252Y-92837500D01*
D16*
X269081250Y-96837500D03*
D14*
X266581250Y-92837500D03*
D17*
X267811250Y-101917500D03*
D18*
X270351250Y-101917500D03*
D19*
X264001250Y-96837500D03*
X274161250Y-96837500D03*
G04 #@! TD*
D16*
G04 #@! TO.C,K_RSPACE1*
X200056750Y-88582500D03*
X176180750Y-88582500D03*
D20*
X200056750Y-103822500D03*
X176180750Y-103822500D03*
D19*
X193198750Y-96837500D03*
X183038750Y-96837500D03*
D18*
X189388750Y-101917500D03*
D17*
X186848750Y-101917500D03*
D14*
X185618750Y-92837500D03*
D16*
X188118750Y-96837500D03*
D14*
X184963751Y-93567500D03*
D15*
X184308750Y-94297500D02*
X185618752Y-92837500D01*
D14*
X190658750Y-91757500D03*
X190638750Y-92047500D03*
D15*
X190618750Y-92337500D02*
X190658750Y-91757500D01*
G04 #@! TD*
D19*
G04 #@! TO.C,K_RWIN1*
X252730000Y-96837500D03*
X242570000Y-96837500D03*
D18*
X248920000Y-101917500D03*
D17*
X246380000Y-101917500D03*
D14*
X245150000Y-92837500D03*
D16*
X247650000Y-96837500D03*
D14*
X244495001Y-93567500D03*
D15*
X243840000Y-94297500D02*
X245150002Y-92837500D01*
D14*
X250190000Y-91757500D03*
X250170000Y-92047500D03*
D15*
X250150000Y-92337500D02*
X250190000Y-91757500D01*
G04 #@! TD*
D19*
G04 #@! TO.C,K_S1*
X100330000Y-58737500D03*
X90170000Y-58737500D03*
D18*
X96520000Y-63817500D03*
D17*
X93980000Y-63817500D03*
D14*
X92750000Y-54737500D03*
D16*
X95250000Y-58737500D03*
D14*
X92095001Y-55467500D03*
D15*
X91440000Y-56197500D02*
X92750002Y-54737500D01*
D14*
X97790000Y-53657500D03*
X97770000Y-53947500D03*
D15*
X97750000Y-54237500D02*
X97790000Y-53657500D01*
G04 #@! TD*
D14*
G04 #@! TO.C,K_SHIFT1*
X57288750Y-72997500D03*
D15*
X57268750Y-73287500D02*
X57308750Y-72707500D01*
D14*
X57308750Y-72707500D03*
X51613751Y-74517500D03*
D15*
X50958750Y-75247500D02*
X52268752Y-73787500D01*
D16*
X54768750Y-77787500D03*
D14*
X52268750Y-73787500D03*
D17*
X53498750Y-82867500D03*
D18*
X56038750Y-82867500D03*
D19*
X49688750Y-77787500D03*
X59848750Y-77787500D03*
D20*
X42830750Y-70802500D03*
X66706750Y-70802500D03*
D16*
X42830750Y-86042500D03*
X66706750Y-86042500D03*
G04 #@! TD*
D14*
G04 #@! TO.C,K_SHIFT2*
X47763750Y-72997500D03*
D15*
X47743750Y-73287500D02*
X47783750Y-72707500D01*
D14*
X47783750Y-72707500D03*
X42088751Y-74517500D03*
D15*
X41433750Y-75247500D02*
X42743752Y-73787500D01*
D16*
X45243750Y-77787500D03*
D14*
X42743750Y-73787500D03*
D17*
X43973750Y-82867500D03*
D18*
X46513750Y-82867500D03*
D19*
X40163750Y-77787500D03*
X50323750Y-77787500D03*
G04 #@! TD*
G04 #@! TO.C,K_SHIFT3*
X71755000Y-77787500D03*
X61595000Y-77787500D03*
D18*
X67945000Y-82867500D03*
D17*
X65405000Y-82867500D03*
D14*
X64175000Y-73787500D03*
D16*
X66675000Y-77787500D03*
D14*
X63520001Y-74517500D03*
D15*
X62865000Y-75247500D02*
X64175002Y-73787500D01*
D14*
X69215000Y-72707500D03*
X69195000Y-72997500D03*
D15*
X69175000Y-73287500D02*
X69215000Y-72707500D01*
G04 #@! TD*
D19*
G04 #@! TO.C,K_SPACE3*
X157480000Y-96837500D03*
X147320000Y-96837500D03*
D18*
X153670000Y-101917500D03*
D17*
X151130000Y-101917500D03*
D14*
X149900000Y-92837500D03*
D16*
X152400000Y-96837500D03*
D14*
X149245001Y-93567500D03*
D15*
X148590000Y-94297500D02*
X149900002Y-92837500D01*
D14*
X154940000Y-91757500D03*
X154920000Y-92047500D03*
D15*
X154900000Y-92337500D02*
X154940000Y-91757500D01*
G04 #@! TD*
D14*
G04 #@! TO.C,K_T1*
X150157500Y-34897500D03*
D15*
X150137500Y-35187500D02*
X150177500Y-34607500D01*
D14*
X150177500Y-34607500D03*
X144482501Y-36417500D03*
D15*
X143827500Y-37147500D02*
X145137502Y-35687500D01*
D16*
X147637500Y-39687500D03*
D14*
X145137500Y-35687500D03*
D17*
X146367500Y-44767500D03*
D18*
X148907500Y-44767500D03*
D19*
X142557500Y-39687500D03*
X152717500Y-39687500D03*
G04 #@! TD*
D14*
G04 #@! TO.C,K_TAB1*
X50145000Y-34897500D03*
D15*
X50125000Y-35187500D02*
X50165000Y-34607500D01*
D14*
X50165000Y-34607500D03*
X44470001Y-36417500D03*
D15*
X43815000Y-37147500D02*
X45125002Y-35687500D01*
D16*
X47625000Y-39687500D03*
D14*
X45125000Y-35687500D03*
D17*
X46355000Y-44767500D03*
D18*
X48895000Y-44767500D03*
D19*
X42545000Y-39687500D03*
X52705000Y-39687500D03*
G04 #@! TD*
G04 #@! TO.C,K_U1*
X190817500Y-39687500D03*
X180657500Y-39687500D03*
D18*
X187007500Y-44767500D03*
D17*
X184467500Y-44767500D03*
D14*
X183237500Y-35687500D03*
D16*
X185737500Y-39687500D03*
D14*
X182582501Y-36417500D03*
D15*
X181927500Y-37147500D02*
X183237502Y-35687500D01*
D14*
X188277500Y-34607500D03*
X188257500Y-34897500D03*
D15*
X188237500Y-35187500D02*
X188277500Y-34607500D01*
G04 #@! TD*
D14*
G04 #@! TO.C,K_V1*
X145395000Y-72997500D03*
D15*
X145375000Y-73287500D02*
X145415000Y-72707500D01*
D14*
X145415000Y-72707500D03*
X139720001Y-74517500D03*
D15*
X139065000Y-75247500D02*
X140375002Y-73787500D01*
D16*
X142875000Y-77787500D03*
D14*
X140375000Y-73787500D03*
D17*
X141605000Y-82867500D03*
D18*
X144145000Y-82867500D03*
D19*
X137795000Y-77787500D03*
X147955000Y-77787500D03*
G04 #@! TD*
D14*
G04 #@! TO.C,K_W1*
X93007500Y-34897500D03*
D15*
X92987500Y-35187500D02*
X93027500Y-34607500D01*
D14*
X93027500Y-34607500D03*
X87332501Y-36417500D03*
D15*
X86677500Y-37147500D02*
X87987502Y-35687500D01*
D16*
X90487500Y-39687500D03*
D14*
X87987500Y-35687500D03*
D17*
X89217500Y-44767500D03*
D18*
X91757500Y-44767500D03*
D19*
X85407500Y-39687500D03*
X95567500Y-39687500D03*
G04 #@! TD*
G04 #@! TO.C,K_WIN1*
X71755000Y-96837500D03*
X61595000Y-96837500D03*
D18*
X67945000Y-101917500D03*
D17*
X65405000Y-101917500D03*
D14*
X64175000Y-92837500D03*
D16*
X66675000Y-96837500D03*
D14*
X63520001Y-93567500D03*
D15*
X62865000Y-94297500D02*
X64175002Y-92837500D01*
D14*
X69215000Y-91757500D03*
X69195000Y-92047500D03*
D15*
X69175000Y-92337500D02*
X69215000Y-91757500D01*
G04 #@! TD*
D14*
G04 #@! TO.C,K_X1*
X107295000Y-72997500D03*
D15*
X107275000Y-73287500D02*
X107315000Y-72707500D01*
D14*
X107315000Y-72707500D03*
X101620001Y-74517500D03*
D15*
X100965000Y-75247500D02*
X102275002Y-73787500D01*
D16*
X104775000Y-77787500D03*
D14*
X102275000Y-73787500D03*
D17*
X103505000Y-82867500D03*
D18*
X106045000Y-82867500D03*
D19*
X99695000Y-77787500D03*
X109855000Y-77787500D03*
G04 #@! TD*
G04 #@! TO.C,K_Y1*
X171767500Y-39687500D03*
X161607500Y-39687500D03*
D18*
X167957500Y-44767500D03*
D17*
X165417500Y-44767500D03*
D14*
X164187500Y-35687500D03*
D16*
X166687500Y-39687500D03*
D14*
X163532501Y-36417500D03*
D15*
X162877500Y-37147500D02*
X164187502Y-35687500D01*
D14*
X169227500Y-34607500D03*
X169207500Y-34897500D03*
D15*
X169187500Y-35187500D02*
X169227500Y-34607500D01*
G04 #@! TD*
D14*
G04 #@! TO.C,K_Z1*
X88245000Y-72997500D03*
D15*
X88225000Y-73287500D02*
X88265000Y-72707500D01*
D14*
X88265000Y-72707500D03*
X82570001Y-74517500D03*
D15*
X81915000Y-75247500D02*
X83225002Y-73787500D01*
D16*
X85725000Y-77787500D03*
D14*
X83225000Y-73787500D03*
D17*
X84455000Y-82867500D03*
D18*
X86995000Y-82867500D03*
D19*
X80645000Y-77787500D03*
X90805000Y-77787500D03*
G04 #@! TD*
D21*
G04 #@! TO.C,Q1*
X81756250Y-50212500D03*
X82706250Y-48212500D03*
X80806250Y-48212500D03*
G04 #@! TD*
D22*
G04 #@! TO.C,R1*
X234156250Y-103343750D03*
X234156250Y-101443750D03*
G04 #@! TD*
G04 #@! TO.C,R16*
X39687500Y-44293750D03*
X39687500Y-46193750D03*
G04 #@! TD*
G04 #@! TO.C,R17*
X79375000Y-44293750D03*
X79375000Y-46193750D03*
G04 #@! TD*
G04 #@! TO.C,R18*
X98425000Y-46193750D03*
X98425000Y-44293750D03*
G04 #@! TD*
G04 #@! TO.C,R19*
X117475000Y-44293750D03*
X117475000Y-46193750D03*
G04 #@! TD*
G04 #@! TO.C,R20*
X136525000Y-44606250D03*
X136525000Y-42706250D03*
G04 #@! TD*
G04 #@! TO.C,R21*
X155575000Y-46193750D03*
X155575000Y-44293750D03*
G04 #@! TD*
G04 #@! TO.C,R22*
X174625000Y-44293750D03*
X174625000Y-46193750D03*
G04 #@! TD*
G04 #@! TO.C,R23*
X193675000Y-46193750D03*
X193675000Y-44293750D03*
G04 #@! TD*
G04 #@! TO.C,R24*
X212725000Y-46193750D03*
X212725000Y-44293750D03*
G04 #@! TD*
G04 #@! TO.C,R25*
X231775000Y-44293750D03*
X231775000Y-46193750D03*
G04 #@! TD*
G04 #@! TO.C,R26*
X250825000Y-42706250D03*
X250825000Y-44606250D03*
G04 #@! TD*
G04 #@! TO.C,R27*
X254000000Y-44606250D03*
X254000000Y-42706250D03*
G04 #@! TD*
G04 #@! TO.C,R31*
X37306250Y-65243750D03*
X37306250Y-63343750D03*
G04 #@! TD*
G04 #@! TO.C,R32*
X84137500Y-63343750D03*
X84137500Y-65243750D03*
G04 #@! TD*
G04 #@! TO.C,R33*
X103187500Y-63343750D03*
X103187500Y-65243750D03*
G04 #@! TD*
G04 #@! TO.C,R34*
X122237500Y-65243750D03*
X122237500Y-63343750D03*
G04 #@! TD*
G04 #@! TO.C,R35*
X141287500Y-65243750D03*
X141287500Y-63343750D03*
G04 #@! TD*
G04 #@! TO.C,R36*
X160337500Y-63343750D03*
X160337500Y-65243750D03*
G04 #@! TD*
G04 #@! TO.C,R37*
X179387500Y-65243750D03*
X179387500Y-63343750D03*
G04 #@! TD*
G04 #@! TO.C,R38*
X198437500Y-63343750D03*
X198437500Y-65243750D03*
G04 #@! TD*
G04 #@! TO.C,R39*
X217487500Y-65243750D03*
X217487500Y-63343750D03*
G04 #@! TD*
G04 #@! TO.C,R40*
X220662500Y-63343750D03*
X220662500Y-65243750D03*
G04 #@! TD*
G04 #@! TO.C,R41*
X239712500Y-65243750D03*
X239712500Y-63343750D03*
G04 #@! TD*
G04 #@! TO.C,R42*
X236537500Y-65243750D03*
X236537500Y-63343750D03*
G04 #@! TD*
G04 #@! TO.C,R44*
X74612500Y-82393750D03*
X74612500Y-84293750D03*
G04 #@! TD*
G04 #@! TO.C,R45*
X77787500Y-82393750D03*
X77787500Y-84293750D03*
G04 #@! TD*
G04 #@! TO.C,R46*
X93662500Y-82706250D03*
X93662500Y-80806250D03*
G04 #@! TD*
G04 #@! TO.C,R47*
X112712500Y-84293750D03*
X112712500Y-82393750D03*
G04 #@! TD*
G04 #@! TO.C,R48*
X131762500Y-80806250D03*
X131762500Y-82706250D03*
G04 #@! TD*
G04 #@! TO.C,R49*
X150812500Y-82393750D03*
X150812500Y-84293750D03*
G04 #@! TD*
G04 #@! TO.C,R50*
X169862500Y-82706250D03*
X169862500Y-80806250D03*
G04 #@! TD*
G04 #@! TO.C,R51*
X188912500Y-84293750D03*
X188912500Y-82393750D03*
G04 #@! TD*
G04 #@! TO.C,R52*
X207962500Y-80806250D03*
X207962500Y-82706250D03*
G04 #@! TD*
G04 #@! TO.C,R53*
X211137500Y-80806250D03*
X211137500Y-82706250D03*
G04 #@! TD*
G04 #@! TO.C,R54*
X230187500Y-82393750D03*
X230187500Y-84293750D03*
G04 #@! TD*
G04 #@! TO.C,R55*
X227012500Y-82393750D03*
X227012500Y-84293750D03*
G04 #@! TD*
G04 #@! TO.C,R58*
X138112500Y-97787500D03*
X138112500Y-95887500D03*
G04 #@! TD*
G04 #@! TO.C,R59*
X53181250Y-101443750D03*
X53181250Y-103343750D03*
G04 #@! TD*
G04 #@! TO.C,R60*
X74612500Y-103343750D03*
X74612500Y-101443750D03*
G04 #@! TD*
G04 #@! TO.C,R61*
X178593750Y-97787500D03*
X178593750Y-95887500D03*
G04 #@! TD*
G04 #@! TO.C,R62*
X204787500Y-95887500D03*
X204787500Y-97787500D03*
G04 #@! TD*
G04 #@! TO.C,R63*
X255587500Y-103343750D03*
X255587500Y-101443750D03*
G04 #@! TD*
G04 #@! TO.C,R64*
X261143750Y-101443750D03*
X261143750Y-103343750D03*
G04 #@! TD*
G04 #@! TO.C,R67*
X57943750Y-44606250D03*
X57943750Y-42706250D03*
G04 #@! TD*
G04 #@! TO.C,R68*
X61118750Y-42706250D03*
X61118750Y-44606250D03*
G04 #@! TD*
G04 #@! TO.C,R69*
X77787500Y-48262500D03*
X77787500Y-50162500D03*
G04 #@! TD*
D23*
G04 #@! TO.C,R70*
X59687500Y-63103125D03*
X57787500Y-63103125D03*
G04 #@! TD*
D22*
G04 #@! TO.C,R71*
X70739000Y-50162500D03*
X70739000Y-48262500D03*
G04 #@! TD*
G04 #@! TO.C,R72*
X96043750Y-101443750D03*
X96043750Y-103343750D03*
G04 #@! TD*
G04 #@! TO.C,R73*
X55165625Y-37943750D03*
X55165625Y-39843750D03*
G04 #@! TD*
G04 #@! TO.C,R74*
X63896875Y-39843750D03*
X63896875Y-37943750D03*
G04 #@! TD*
D24*
G04 #@! TO.C,SW1*
X55637500Y-69318750D03*
X61837500Y-65618750D03*
X55637500Y-65618750D03*
X61837500Y-69318750D03*
G04 #@! TD*
D25*
G04 #@! TO.C,U2*
X60531250Y-38143750D03*
D26*
X58531250Y-37943750D03*
X60531250Y-39843750D03*
X58531250Y-39843750D03*
G04 #@! TD*
D27*
G04 #@! TO.C,USB1*
X63851250Y-29587500D03*
X55211250Y-29587500D03*
D28*
X63851250Y-33767500D03*
X55211250Y-33767500D03*
D29*
X56641250Y-33237500D03*
X62421250Y-33237500D03*
D30*
X59281250Y-34682500D03*
X59781250Y-34682500D03*
X60281250Y-34682500D03*
X58781250Y-34682500D03*
X60781250Y-34682500D03*
X58281250Y-34682500D03*
X61281250Y-34682500D03*
X57781250Y-34682500D03*
D31*
X57081250Y-34682500D03*
X61981250Y-34682500D03*
X56306250Y-34682500D03*
X62756250Y-34682500D03*
G04 #@! TD*
D32*
G04 #@! TO.C,Y1*
X61701500Y-52316750D03*
X63901500Y-52316750D03*
X63901500Y-50616750D03*
X61701500Y-50616750D03*
G04 #@! TD*
D14*
G04 #@! TO.C,K_ENTER1*
X262076250Y-53947500D03*
D15*
X262056250Y-54237500D02*
X262096250Y-53657500D01*
D14*
X262096250Y-53657500D03*
X256401251Y-55467500D03*
D15*
X255746250Y-56197500D02*
X257056252Y-54737500D01*
D16*
X259556250Y-58737500D03*
D14*
X257056250Y-54737500D03*
D17*
X258286250Y-63817500D03*
D18*
X260826250Y-63817500D03*
D19*
X254476250Y-58737500D03*
X264636250Y-58737500D03*
D20*
X247618250Y-51752500D03*
X271494250Y-51752500D03*
D16*
X247618250Y-66992500D03*
X271494250Y-66992500D03*
G04 #@! TD*
D14*
G04 #@! TO.C,K_ENTER2*
X271601250Y-53947500D03*
D15*
X271581250Y-54237500D02*
X271621250Y-53657500D01*
D14*
X271621250Y-53657500D03*
X265926251Y-55467500D03*
D15*
X265271250Y-56197500D02*
X266581252Y-54737500D01*
D16*
X269081250Y-58737500D03*
D14*
X266581250Y-54737500D03*
D17*
X267811250Y-63817500D03*
D18*
X270351250Y-63817500D03*
D19*
X264001250Y-58737500D03*
X274161250Y-58737500D03*
G04 #@! TD*
D14*
G04 #@! TO.C,K_ENTER3*
X273871250Y-51732499D03*
D15*
X273581250Y-51712500D02*
X274161250Y-51752498D01*
D14*
X274161250Y-51752500D03*
X272351254Y-46057495D03*
D15*
X271621250Y-45402500D02*
X273081258Y-46712490D01*
D16*
X269081250Y-49212500D03*
D14*
X273081250Y-46712500D03*
D18*
X264001250Y-50482500D03*
D17*
X264001250Y-47942500D03*
D33*
X269081250Y-44132500D03*
X269081250Y-54292500D03*
D14*
X271581250Y-53212500D03*
X266581250Y-53712500D03*
D20*
X276066250Y-61150500D03*
X276066250Y-37274500D03*
D16*
X260826250Y-61150500D03*
X260826250Y-37274500D03*
G04 #@! TD*
D19*
G04 #@! TO.C,K_RSHIFT1*
X269398750Y-77787500D03*
X259238750Y-77787500D03*
D18*
X265588750Y-82867500D03*
D17*
X263048750Y-82867500D03*
D14*
X261818750Y-73787500D03*
D16*
X264318750Y-77787500D03*
D14*
X261163751Y-74517500D03*
D15*
X260508750Y-75247500D02*
X261818752Y-73787500D01*
D14*
X266858750Y-72707500D03*
X266838750Y-72997500D03*
D15*
X266818750Y-73287500D02*
X266858750Y-72707500D01*
G04 #@! TD*
D14*
G04 #@! TO.C,K_RSHIFT2*
X247788750Y-72997500D03*
D15*
X247768750Y-73287500D02*
X247808750Y-72707500D01*
D14*
X247808750Y-72707500D03*
X242113751Y-74517500D03*
D15*
X241458750Y-75247500D02*
X242768752Y-73787500D01*
D16*
X245268750Y-77787500D03*
D14*
X242768750Y-73787500D03*
D17*
X243998750Y-82867500D03*
D18*
X246538750Y-82867500D03*
D19*
X240188750Y-77787500D03*
X250348750Y-77787500D03*
G04 #@! TD*
D14*
G04 #@! TO.C,K_RSHIFT3*
X273982500Y-72997500D03*
D15*
X273962500Y-73287500D02*
X274002500Y-72707500D01*
D14*
X274002500Y-72707500D03*
X268307501Y-74517500D03*
D15*
X267652500Y-75247500D02*
X268962502Y-73787500D01*
D16*
X271462500Y-77787500D03*
D14*
X268962500Y-73787500D03*
D17*
X270192500Y-82867500D03*
D18*
X272732500Y-82867500D03*
D19*
X266382500Y-77787500D03*
X276542500Y-77787500D03*
G04 #@! TD*
D14*
G04 #@! TO.C,K_RSHIFT4*
X257313750Y-72997500D03*
D15*
X257293750Y-73287500D02*
X257333750Y-72707500D01*
D14*
X257333750Y-72707500D03*
X251638751Y-74517500D03*
D15*
X250983750Y-75247500D02*
X252293752Y-73787500D01*
D16*
X254793750Y-77787500D03*
D14*
X252293750Y-73787500D03*
D17*
X253523750Y-82867500D03*
D18*
X256063750Y-82867500D03*
D19*
X249713750Y-77787500D03*
X259873750Y-77787500D03*
D20*
X242855750Y-70802500D03*
X266731750Y-70802500D03*
D16*
X242855750Y-86042500D03*
X266731750Y-86042500D03*
G04 #@! TD*
D14*
G04 #@! TO.C,K_SPACE2*
X169207500Y-92047500D03*
D15*
X169187500Y-92337500D02*
X169227500Y-91757500D01*
D14*
X169227500Y-91757500D03*
X163532501Y-93567500D03*
D15*
X162877500Y-94297500D02*
X164187502Y-92837500D01*
D16*
X166687500Y-96837500D03*
D14*
X164187500Y-92837500D03*
D17*
X165417500Y-101917500D03*
D18*
X167957500Y-101917500D03*
D19*
X161607500Y-96837500D03*
X171767500Y-96837500D03*
D20*
X109537500Y-103822500D03*
X204787500Y-103822500D03*
D16*
X109537500Y-88582500D03*
X204787500Y-88582500D03*
G04 #@! TD*
D34*
G04 #@! TO.C,U1*
X63431250Y-57875000D03*
X65156250Y-57875000D03*
X63431250Y-59600000D03*
X65156250Y-59600000D03*
D35*
X61893750Y-56987500D03*
X61893750Y-57487500D03*
X61893750Y-57987500D03*
X61893750Y-58487500D03*
X61893750Y-58987500D03*
X61893750Y-59487500D03*
X61893750Y-59987500D03*
X61893750Y-60487500D03*
D36*
X62543750Y-61137500D03*
X63043750Y-61137500D03*
X63543750Y-61137500D03*
X64043750Y-61137500D03*
X64543750Y-61137500D03*
X65043750Y-61137500D03*
X65543750Y-61137500D03*
X66043750Y-61137500D03*
D35*
X66693750Y-60487500D03*
X66693750Y-59987500D03*
X66693750Y-59487500D03*
X66693750Y-58987500D03*
X66693750Y-58487500D03*
X66693750Y-57987500D03*
X66693750Y-57487500D03*
X66693750Y-56987500D03*
D36*
X66043750Y-56337500D03*
X65543750Y-56337500D03*
X65043750Y-56337500D03*
X64543750Y-56337500D03*
X64043750Y-56337500D03*
X63543750Y-56337500D03*
X63043750Y-56337500D03*
X62543750Y-56337500D03*
G04 #@! TD*
D14*
G04 #@! TO.C,K_SPACE4*
X164445000Y-92047500D03*
D15*
X164425000Y-92337500D02*
X164465000Y-91757500D01*
D14*
X164465000Y-91757500D03*
X158770001Y-93567500D03*
D15*
X158115000Y-94297500D02*
X159425002Y-92837500D01*
D16*
X161925000Y-96837500D03*
D14*
X159425000Y-92837500D03*
D17*
X163195000Y-101917500D03*
D18*
X160655000Y-101917500D03*
D19*
X156845000Y-96837500D03*
X167005000Y-96837500D03*
G04 #@! TD*
D14*
G04 #@! TO.C,K_LSPACE2*
X128726250Y-92047500D03*
D15*
X128706250Y-92337500D02*
X128746250Y-91757500D01*
D14*
X128746250Y-91757500D03*
X123051251Y-93567500D03*
D15*
X122396250Y-94297500D02*
X123706252Y-92837500D01*
D16*
X126206250Y-96837500D03*
D14*
X123706250Y-92837500D03*
D17*
X127476250Y-101917500D03*
D18*
X124936250Y-101917500D03*
D19*
X121126250Y-96837500D03*
X131286250Y-96837500D03*
D20*
X114268250Y-103822500D03*
X138144250Y-103822500D03*
D16*
X114268250Y-88582500D03*
X138144250Y-88582500D03*
G04 #@! TD*
D14*
G04 #@! TO.C,K_RSPACE2*
X195401250Y-92047500D03*
D15*
X195381250Y-92337500D02*
X195421250Y-91757500D01*
D14*
X195421250Y-91757500D03*
X189726251Y-93567500D03*
D15*
X189071250Y-94297500D02*
X190381252Y-92837500D01*
D16*
X192881250Y-96837500D03*
D14*
X190381250Y-92837500D03*
D17*
X194151250Y-101917500D03*
D18*
X191611250Y-101917500D03*
D19*
X187801250Y-96837500D03*
X197961250Y-96837500D03*
D20*
X180943250Y-103822500D03*
X204819250Y-103822500D03*
D16*
X180943250Y-88582500D03*
X204819250Y-88582500D03*
G04 #@! TD*
D11*
G04 #@! TO.C,C1*
X42068750Y-49962500D03*
X42068750Y-48462500D03*
G04 #@! TD*
G04 #@! TO.C,C5*
X95250000Y-48462500D03*
X95250000Y-49962500D03*
G04 #@! TD*
G04 #@! TO.C,C9*
X128587500Y-49962500D03*
X128587500Y-48462500D03*
G04 #@! TD*
G04 #@! TO.C,C10*
X174625000Y-48462500D03*
X174625000Y-49962500D03*
G04 #@! TD*
G04 #@! TO.C,C11*
X212725000Y-49962500D03*
X212725000Y-48462500D03*
G04 #@! TD*
G04 #@! TO.C,C12*
X250825000Y-48462500D03*
X250825000Y-49962500D03*
G04 #@! TD*
G04 #@! TO.C,C13*
X54768750Y-86562500D03*
X54768750Y-88062500D03*
G04 #@! TD*
G04 #@! TO.C,C14*
X82550000Y-88062500D03*
X82550000Y-86562500D03*
G04 #@! TD*
G04 #@! TO.C,C15*
X121443750Y-86562500D03*
X121443750Y-88062500D03*
G04 #@! TD*
G04 #@! TO.C,C16*
X164306250Y-88062500D03*
X164306250Y-86562500D03*
G04 #@! TD*
G04 #@! TO.C,C17*
X209550000Y-86562500D03*
X209550000Y-88062500D03*
G04 #@! TD*
G04 #@! TO.C,C18*
X254793750Y-88062500D03*
X254793750Y-86562500D03*
G04 #@! TD*
D37*
G04 #@! TO.C,RGB1*
X45125000Y-50812500D03*
X45125000Y-47612500D03*
X50125000Y-50812500D03*
X50125000Y-47612500D03*
G04 #@! TD*
G04 #@! TO.C,RGB2*
X257850000Y-88912500D03*
X257850000Y-85712500D03*
X262850000Y-88912500D03*
X262850000Y-85712500D03*
G04 #@! TD*
G04 #@! TO.C,RGB3*
X87193750Y-50812500D03*
X87193750Y-47612500D03*
X92193750Y-50812500D03*
X92193750Y-47612500D03*
G04 #@! TD*
G04 #@! TO.C,RGB4*
X217606250Y-85712500D03*
X217606250Y-88912500D03*
X212606250Y-85712500D03*
X212606250Y-88912500D03*
G04 #@! TD*
G04 #@! TO.C,RGB5*
X131643750Y-50812500D03*
X131643750Y-47612500D03*
X136643750Y-50812500D03*
X136643750Y-47612500D03*
G04 #@! TD*
G04 #@! TO.C,RGB6*
X172362500Y-85712500D03*
X172362500Y-88912500D03*
X167362500Y-85712500D03*
X167362500Y-88912500D03*
G04 #@! TD*
G04 #@! TO.C,RGB7*
X182681250Y-47612500D03*
X182681250Y-50812500D03*
X177681250Y-47612500D03*
X177681250Y-50812500D03*
G04 #@! TD*
G04 #@! TO.C,RGB8*
X129500000Y-85712500D03*
X129500000Y-88912500D03*
X124500000Y-85712500D03*
X124500000Y-88912500D03*
G04 #@! TD*
G04 #@! TO.C,RGB9*
X215781250Y-50812500D03*
X215781250Y-47612500D03*
X220781250Y-50812500D03*
X220781250Y-47612500D03*
G04 #@! TD*
G04 #@! TO.C,RGB10*
X85606250Y-88912500D03*
X85606250Y-85712500D03*
X90606250Y-88912500D03*
X90606250Y-85712500D03*
G04 #@! TD*
G04 #@! TO.C,RGB11*
X258881250Y-48406250D03*
X258881250Y-51606250D03*
X253881250Y-48406250D03*
X253881250Y-51606250D03*
G04 #@! TD*
G04 #@! TO.C,RGB12*
X51712500Y-85712500D03*
X51712500Y-88912500D03*
X46712500Y-85712500D03*
X46712500Y-88912500D03*
G04 #@! TD*
M02*
