M48
;DRILL file {KiCad (5.0.2)-1} date 4/16/2019 2:19:50 AM
;FORMAT={-:-/ absolute / inch / decimal}
FMAT,2
INCH,TZ
T1C0.0157
T2C0.0236
T3C0.0409
T4C0.0579
%
G90
G05
T1
X1.505Y-1.745
X1.525Y-2.495
X1.61Y-1.965
X1.735Y-1.79
X1.97Y-3.375
X2.Y-1.655
X2.Y-1.695
X2.Y-1.73
X2.055Y-2.775
X2.125Y-1.815
X2.125Y-2.73
X2.135Y-2.43
X2.175Y-1.43
X2.205Y-3.475
X2.225Y-1.755
X2.235Y-2.275
X2.235Y-2.31
X2.235Y-2.375
X2.235Y-2.485
X2.24Y-1.5
X2.24Y-2.195
X2.26Y-1.46
X2.3Y-1.43
X2.34Y-2.145
X2.35Y-1.755
X2.4Y-1.43
X2.425Y-1.46
X2.435Y-2.47
X2.45Y-1.5
X2.515Y-1.43
X2.515Y-2.47
X2.615Y-1.655
X2.615Y-1.695
X2.615Y-1.73
X2.64Y-2.185
X2.69Y-2.33
X2.72Y-1.95
X2.72Y-2.055
X2.78Y-2.02
X2.8Y-2.415
X2.815Y-2.045
X2.895Y-1.995
X2.925Y-1.65
X3.005Y-3.11
X3.015Y-3.9
X3.085Y-3.44
X3.13Y-3.235
X3.15Y-3.39
X3.195Y-3.435
X3.21Y-3.955
X3.245Y-1.82
X3.3Y-1.9
X3.33Y-1.705
X3.345Y-1.97
X3.38Y-2.215
X3.395Y-3.565
X3.415Y-2.215
X3.505Y-2.455
X3.75Y-2.015
X4.715Y-3.355
X4.715Y-3.415
X4.795Y-3.515
X4.93Y-1.91
X4.93Y-1.96
X4.995Y-1.88
X5.53Y-3.355
X5.53Y-3.415
X6.29Y-3.44
X6.765Y-1.91
X6.765Y-1.965
X6.83Y-1.95
X8.2Y-3.47
X8.265Y-1.905
X8.265Y-1.965
X8.33Y-1.95
X8.375Y-3.23
X9.0975Y-2.835
X9.255Y-2.605
X9.265Y-2.435
X9.665Y-2.415
X9.83Y-1.96
X9.98Y-3.465
X10.055Y-2.765
X10.06Y-1.905
X10.29Y-3.5
T3
X6.7Y-2.5125
X6.8Y-2.5125
X4.7313Y-4.0125
X4.8312Y-4.0125
X10.6375Y-3.2625
X10.7375Y-3.2625
X3.4187Y-4.0125
X3.5187Y-4.0125
X4.825Y-3.2625
X4.925Y-3.2625
X5.7625Y-1.7625
X5.8625Y-1.7625
X1.825Y-1.7625
X1.925Y-1.7625
X8.2Y-2.5125
X8.3Y-2.5125
X3.7Y-2.5125
X3.8Y-2.5125
X10.5437Y-4.0125
X10.6437Y-4.0125
X9.9812Y-3.2625
X10.0812Y-3.2625
X10.5437Y-2.5125
X10.6437Y-2.5125
X2.95Y-2.5125
X3.05Y-2.5125
X9.6062Y-3.2625
X9.7062Y-3.2625
X3.5125Y-1.7625
X3.6125Y-1.7625
X5.575Y-3.2625
X5.675Y-3.2625
X7.45Y-2.5125
X7.55Y-2.5125
X2.7625Y-1.7625
X2.8625Y-1.7625
X8.0125Y-1.7625
X8.1125Y-1.7625
X5.2Y-2.5125
X5.3Y-2.5125
X1.7312Y-3.2625
X1.8313Y-3.2625
X3.325Y-3.2625
X3.425Y-3.2625
X7.075Y-3.2625
X7.175Y-3.2625
X5.95Y-2.5125
X6.05Y-2.5125
X8.8562Y-4.0125
X8.9562Y-4.0125
X10.3562Y-3.2625
X10.4562Y-3.2625
X9.7Y-2.5125
X9.8Y-2.5125
X7.5438Y-4.0125
X7.6437Y-4.0125
X4.2625Y-1.7625
X4.3625Y-1.7625
X5.95Y-4.0125
X6.05Y-4.0125
X7.2625Y-1.7625
X7.3625Y-1.7625
X9.5125Y-1.7625
X9.6125Y-1.7625
X9.7Y-4.0125
X9.8Y-4.0125
X5.0125Y-1.7625
X5.1125Y-1.7625
X6.325Y-4.0125
X6.425Y-4.0125
X1.7312Y-2.5125
X1.8313Y-2.5125
X9.325Y-3.2625
X9.425Y-3.2625
X6.5125Y-4.0125
X6.6125Y-4.0125
X1.7312Y-4.0125
X1.8313Y-4.0125
X2.575Y-3.2625
X2.675Y-3.2625
X4.075Y-3.2625
X4.175Y-3.2625
X8.95Y-2.5125
X9.05Y-2.5125
X8.7625Y-1.7625
X8.8625Y-1.7625
X10.3937Y-1.8875
X10.3937Y-1.9875
X1.9187Y-2.5125
X2.0187Y-2.5125
X8.575Y-3.2625
X8.675Y-3.2625
X4.9188Y-4.0125
X5.0187Y-4.0125
X10.45Y-1.7625
X10.55Y-1.7625
X2.1062Y-3.2625
X2.2062Y-3.2625
X6.5125Y-1.7625
X6.6125Y-1.7625
X7.825Y-3.2625
X7.925Y-3.2625
X7.3563Y-4.0125
X7.4562Y-4.0125
X10.1687Y-2.5125
X10.2687Y-2.5125
X6.325Y-3.2625
X6.425Y-3.2625
X4.45Y-2.5125
X4.55Y-2.5125
X2.575Y-4.0125
X2.675Y-4.0125
T4
X8.1Y-2.2125
X8.1516Y-2.155
X8.3484Y-2.1353
X8.35Y-2.1125
X3.6Y-2.2125
X3.6516Y-2.155
X3.8484Y-2.1353
X3.85Y-2.1125
X10.4437Y-3.7125
X10.4953Y-3.655
X10.6922Y-3.6353
X10.6937Y-3.6125
X9.8812Y-2.9625
X9.9328Y-2.905
X10.1297Y-2.8853
X10.1312Y-2.8625
X10.4437Y-2.2125
X10.4953Y-2.155
X10.6922Y-2.1353
X10.6937Y-2.1125
X2.85Y-2.2125
X2.9016Y-2.155
X3.0984Y-2.1353
X3.1Y-2.1125
X9.5062Y-2.9625
X9.5578Y-2.905
X9.7547Y-2.8853
X9.7562Y-2.8625
X3.4125Y-1.4625
X3.4641Y-1.405
X3.6609Y-1.3853
X3.6625Y-1.3625
X5.475Y-2.9625
X5.5266Y-2.905
X5.7234Y-2.8853
X5.725Y-2.8625
X7.35Y-2.2125
X7.4016Y-2.155
X7.5984Y-2.1353
X7.6Y-2.1125
X2.6625Y-1.4625
X2.7141Y-1.405
X2.9109Y-1.3853
X2.9125Y-1.3625
X7.9125Y-1.4625
X7.9641Y-1.405
X8.1609Y-1.3853
X8.1625Y-1.3625
X5.1Y-2.2125
X5.1516Y-2.155
X5.3484Y-2.1353
X5.35Y-2.1125
X1.6312Y-2.9625
X1.6828Y-2.905
X1.8797Y-2.8853
X1.8812Y-2.8625
X3.225Y-2.9625
X3.2766Y-2.905
X3.4734Y-2.8853
X3.475Y-2.8625
X6.975Y-2.9625
X7.0266Y-2.905
X7.2234Y-2.8853
X7.225Y-2.8625
X5.85Y-2.2125
X5.9016Y-2.155
X6.0984Y-2.1353
X6.1Y-2.1125
X8.7562Y-3.7125
X8.8078Y-3.655
X9.0047Y-3.6353
X9.0062Y-3.6125
X10.2562Y-2.9625
X10.3078Y-2.905
X10.5047Y-2.8853
X10.5062Y-2.8625
X9.6Y-2.2125
X9.6516Y-2.155
X9.8484Y-2.1353
X9.85Y-2.1125
X7.4437Y-3.7125
X7.4953Y-3.655
X7.6922Y-3.6353
X7.6937Y-3.6125
X4.1625Y-1.4625
X4.2141Y-1.405
X4.4109Y-1.3853
X4.4125Y-1.3625
X5.85Y-3.7125
X5.9016Y-3.655
X6.0984Y-3.6353
X6.1Y-3.6125
X7.1625Y-1.4625
X7.2141Y-1.405
X7.4109Y-1.3853
X7.4125Y-1.3625
X9.4125Y-1.4625
X9.4641Y-1.405
X9.6609Y-1.3853
X9.6625Y-1.3625
X9.6Y-3.7125
X9.6516Y-3.655
X9.8484Y-3.6353
X9.85Y-3.6125
X4.9125Y-1.4625
X4.9641Y-1.405
X5.1609Y-1.3853
X5.1625Y-1.3625
X6.225Y-3.7125
X6.2766Y-3.655
X6.4734Y-3.6353
X6.475Y-3.6125
X1.6312Y-2.2125
X1.6828Y-2.155
X1.8797Y-2.1353
X1.8812Y-2.1125
X9.225Y-2.9625
X9.2766Y-2.905
X9.4734Y-2.8853
X9.475Y-2.8625
X6.4125Y-3.7125
X6.4641Y-3.655
X6.6609Y-3.6353
X6.6625Y-3.6125
X1.6312Y-3.7125
X1.6828Y-3.655
X1.8797Y-3.6353
X1.8812Y-3.6125
X2.475Y-2.9625
X2.5266Y-2.905
X2.7234Y-2.8853
X2.725Y-2.8625
X3.975Y-2.9625
X4.0266Y-2.905
X4.2234Y-2.8853
X4.225Y-2.8625
X8.85Y-2.2125
X8.9016Y-2.155
X9.0984Y-2.1353
X9.1Y-2.1125
X8.6625Y-1.4625
X8.7141Y-1.405
X8.9109Y-1.3853
X8.9125Y-1.3625
X10.4953Y-2.1147
X10.6922Y-2.095
X10.6937Y-1.7875
X10.7512Y-1.8391
X10.7709Y-2.0359
X10.7937Y-2.0375
X1.8187Y-2.2125
X1.8703Y-2.155
X2.0672Y-2.1353
X2.0688Y-2.1125
X8.475Y-2.9625
X8.5266Y-2.905
X8.7234Y-2.8853
X8.725Y-2.8625
X4.8187Y-3.7125
X4.8703Y-3.655
X5.0672Y-3.6353
X5.0687Y-3.6125
X10.35Y-1.4625
X10.4016Y-1.405
X10.5984Y-1.3853
X10.6Y-1.3625
X2.0063Y-2.9625
X2.0578Y-2.905
X2.2547Y-2.8853
X2.2563Y-2.8625
X6.4125Y-1.4625
X6.4641Y-1.405
X6.6609Y-1.3853
X6.6625Y-1.3625
X7.725Y-2.9625
X7.7766Y-2.905
X7.9734Y-2.8853
X7.975Y-2.8625
X7.2562Y-3.7125
X7.3078Y-3.655
X7.5047Y-3.6353
X7.5062Y-3.6125
X10.0687Y-2.2125
X10.1203Y-2.155
X10.3172Y-2.1353
X10.3187Y-2.1125
X6.225Y-2.9625
X6.2766Y-2.905
X6.4734Y-2.8853
X6.475Y-2.8625
X4.35Y-2.2125
X4.4016Y-2.155
X4.5984Y-2.1353
X4.6Y-2.1125
X2.475Y-3.7125
X2.5266Y-3.655
X2.7234Y-3.6353
X2.725Y-3.6125
X6.6Y-2.2125
X6.6516Y-2.155
X6.8484Y-2.1353
X6.85Y-2.1125
X4.6312Y-3.7125
X4.6828Y-3.655
X4.8797Y-3.6353
X4.8812Y-3.6125
X10.5375Y-2.9625
X10.5891Y-2.905
X10.7859Y-2.8853
X10.7875Y-2.8625
X3.3188Y-3.7125
X3.3703Y-3.655
X3.5672Y-3.6353
X3.5688Y-3.6125
X4.725Y-2.9625
X4.7766Y-2.905
X4.9734Y-2.8853
X4.975Y-2.8625
X5.6625Y-1.4625
X5.7141Y-1.405
X5.9109Y-1.3853
X5.9125Y-1.3625
X1.725Y-1.4625
X1.7766Y-1.405
X1.9734Y-1.3853
X1.975Y-1.3625
T2
X2.1737Y-1.1531G85X2.1737Y-1.1767
G05
X2.1737Y-1.3078G85X2.1737Y-1.3511
G05
X2.5138Y-1.1531G85X2.5138Y-1.1767
G05
X2.5138Y-1.3078G85X2.5138Y-1.3511
G05
T0
M30
