G04 #@! TF.GenerationSoftware,KiCad,Pcbnew,(5.0.2)-1*
G04 #@! TF.CreationDate,2019-04-16T02:19:49-07:00*
G04 #@! TF.ProjectId,Voyager40,566f7961-6765-4723-9430-2e6b69636164,rev?*
G04 #@! TF.SameCoordinates,Original*
G04 #@! TF.FileFunction,Soldermask,Top*
G04 #@! TF.FilePolarity,Negative*
%FSLAX46Y46*%
G04 Gerber Fmt 4.6, Leading zero omitted, Abs format (unit mm)*
G04 Created by KiCad (PCBNEW (5.0.2)-1) date 4/16/2019 2:19:49 AM*
%MOMM*%
%LPD*%
G01*
G04 APERTURE LIST*
%ADD10C,0.100000*%
G04 APERTURE END LIST*
D10*
G36*
X110040372Y-102164752D02*
X110354119Y-102294710D01*
X110636489Y-102483384D01*
X110876616Y-102723511D01*
X111065290Y-103005881D01*
X111195248Y-103319628D01*
X111261500Y-103652699D01*
X111261500Y-103992301D01*
X111195248Y-104325372D01*
X111065290Y-104639119D01*
X110876616Y-104921489D01*
X110636489Y-105161616D01*
X110354119Y-105350290D01*
X110040372Y-105480248D01*
X109707301Y-105546500D01*
X109335949Y-105546500D01*
X109002878Y-105480248D01*
X108689131Y-105350290D01*
X108406761Y-105161616D01*
X108166634Y-104921489D01*
X107977960Y-104639119D01*
X107848002Y-104325372D01*
X107781750Y-103992301D01*
X107781750Y-103652699D01*
X107848002Y-103319628D01*
X107977960Y-103005881D01*
X108166634Y-102723511D01*
X108406761Y-102483384D01*
X108689131Y-102294710D01*
X109002878Y-102164752D01*
X109335949Y-102098500D01*
X109707301Y-102098500D01*
X110040372Y-102164752D01*
X110040372Y-102164752D01*
G37*
G36*
X205322122Y-102164752D02*
X205635869Y-102294710D01*
X205918239Y-102483384D01*
X206158366Y-102723511D01*
X206347040Y-103005881D01*
X206476998Y-103319628D01*
X206543250Y-103652699D01*
X206543250Y-103992301D01*
X206476998Y-104325372D01*
X206347040Y-104639119D01*
X206158366Y-104921489D01*
X205918239Y-105161616D01*
X205635869Y-105350290D01*
X205322122Y-105480248D01*
X204989051Y-105546500D01*
X204617699Y-105546500D01*
X204284628Y-105480248D01*
X203970881Y-105350290D01*
X203688511Y-105161616D01*
X203448384Y-104921489D01*
X203259710Y-104639119D01*
X203129752Y-104325372D01*
X203063500Y-103992301D01*
X203063500Y-103652699D01*
X203129752Y-103319628D01*
X203259710Y-103005881D01*
X203448384Y-102723511D01*
X203688511Y-102483384D01*
X203970881Y-102294710D01*
X204284628Y-102164752D01*
X204617699Y-102098500D01*
X204989051Y-102098500D01*
X205322122Y-102164752D01*
X205322122Y-102164752D01*
G37*
G36*
X114771122Y-102164752D02*
X115084869Y-102294710D01*
X115367239Y-102483384D01*
X115607366Y-102723511D01*
X115796040Y-103005881D01*
X115925998Y-103319628D01*
X115992250Y-103652699D01*
X115992250Y-103992301D01*
X115925998Y-104325372D01*
X115796040Y-104639119D01*
X115607366Y-104921489D01*
X115367239Y-105161616D01*
X115084869Y-105350290D01*
X114771122Y-105480248D01*
X114438051Y-105546500D01*
X114098449Y-105546500D01*
X113765378Y-105480248D01*
X113451631Y-105350290D01*
X113169261Y-105161616D01*
X112929134Y-104921489D01*
X112740460Y-104639119D01*
X112610502Y-104325372D01*
X112544250Y-103992301D01*
X112544250Y-103652699D01*
X112610502Y-103319628D01*
X112740460Y-103005881D01*
X112929134Y-102723511D01*
X113169261Y-102483384D01*
X113451631Y-102294710D01*
X113765378Y-102164752D01*
X114098449Y-102098500D01*
X114438051Y-102098500D01*
X114771122Y-102164752D01*
X114771122Y-102164752D01*
G37*
G36*
X138647122Y-102164752D02*
X138960869Y-102294710D01*
X139243239Y-102483384D01*
X139483366Y-102723511D01*
X139672040Y-103005881D01*
X139801998Y-103319628D01*
X139868250Y-103652699D01*
X139868250Y-103992301D01*
X139801998Y-104325372D01*
X139672040Y-104639119D01*
X139483366Y-104921489D01*
X139243239Y-105161616D01*
X138960869Y-105350290D01*
X138647122Y-105480248D01*
X138314051Y-105546500D01*
X137974449Y-105546500D01*
X137641378Y-105480248D01*
X137327631Y-105350290D01*
X137045261Y-105161616D01*
X136805134Y-104921489D01*
X136616460Y-104639119D01*
X136486502Y-104325372D01*
X136420250Y-103992301D01*
X136420250Y-103652699D01*
X136486502Y-103319628D01*
X136616460Y-103005881D01*
X136805134Y-102723511D01*
X137045261Y-102483384D01*
X137327631Y-102294710D01*
X137641378Y-102164752D01*
X137974449Y-102098500D01*
X138314051Y-102098500D01*
X138647122Y-102164752D01*
X138647122Y-102164752D01*
G37*
G36*
X181446122Y-102164752D02*
X181759869Y-102294710D01*
X182042239Y-102483384D01*
X182282366Y-102723511D01*
X182471040Y-103005881D01*
X182600998Y-103319628D01*
X182667250Y-103652699D01*
X182667250Y-103992301D01*
X182600998Y-104325372D01*
X182471040Y-104639119D01*
X182282366Y-104921489D01*
X182042239Y-105161616D01*
X181759869Y-105350290D01*
X181446122Y-105480248D01*
X181113051Y-105546500D01*
X180773449Y-105546500D01*
X180440378Y-105480248D01*
X180126631Y-105350290D01*
X179844261Y-105161616D01*
X179604134Y-104921489D01*
X179415460Y-104639119D01*
X179285502Y-104325372D01*
X179219250Y-103992301D01*
X179219250Y-103652699D01*
X179285502Y-103319628D01*
X179415460Y-103005881D01*
X179604134Y-102723511D01*
X179844261Y-102483384D01*
X180126631Y-102294710D01*
X180440378Y-102164752D01*
X180773449Y-102098500D01*
X181113051Y-102098500D01*
X181446122Y-102164752D01*
X181446122Y-102164752D01*
G37*
G36*
X176683622Y-102164752D02*
X176997369Y-102294710D01*
X177279739Y-102483384D01*
X177519866Y-102723511D01*
X177708540Y-103005881D01*
X177838498Y-103319628D01*
X177904750Y-103652699D01*
X177904750Y-103992301D01*
X177838498Y-104325372D01*
X177708540Y-104639119D01*
X177519866Y-104921489D01*
X177279739Y-105161616D01*
X176997369Y-105350290D01*
X176683622Y-105480248D01*
X176350551Y-105546500D01*
X176010949Y-105546500D01*
X175677878Y-105480248D01*
X175364131Y-105350290D01*
X175081761Y-105161616D01*
X174841634Y-104921489D01*
X174652960Y-104639119D01*
X174523002Y-104325372D01*
X174456750Y-103992301D01*
X174456750Y-103652699D01*
X174523002Y-103319628D01*
X174652960Y-103005881D01*
X174841634Y-102723511D01*
X175081761Y-102483384D01*
X175364131Y-102294710D01*
X175677878Y-102164752D01*
X176010949Y-102098500D01*
X176350551Y-102098500D01*
X176683622Y-102164752D01*
X176683622Y-102164752D01*
G37*
G36*
X133884622Y-102164752D02*
X134198369Y-102294710D01*
X134480739Y-102483384D01*
X134720866Y-102723511D01*
X134909540Y-103005881D01*
X135039498Y-103319628D01*
X135105750Y-103652699D01*
X135105750Y-103992301D01*
X135039498Y-104325372D01*
X134909540Y-104639119D01*
X134720866Y-104921489D01*
X134480739Y-105161616D01*
X134198369Y-105350290D01*
X133884622Y-105480248D01*
X133551551Y-105546500D01*
X133211949Y-105546500D01*
X132878878Y-105480248D01*
X132565131Y-105350290D01*
X132282761Y-105161616D01*
X132042634Y-104921489D01*
X131853960Y-104639119D01*
X131724002Y-104325372D01*
X131657750Y-103992301D01*
X131657750Y-103652699D01*
X131724002Y-103319628D01*
X131853960Y-103005881D01*
X132042634Y-102723511D01*
X132282761Y-102483384D01*
X132565131Y-102294710D01*
X132878878Y-102164752D01*
X133211949Y-102098500D01*
X133551551Y-102098500D01*
X133884622Y-102164752D01*
X133884622Y-102164752D01*
G37*
G36*
X200559622Y-102164752D02*
X200873369Y-102294710D01*
X201155739Y-102483384D01*
X201395866Y-102723511D01*
X201584540Y-103005881D01*
X201714498Y-103319628D01*
X201780750Y-103652699D01*
X201780750Y-103992301D01*
X201714498Y-104325372D01*
X201584540Y-104639119D01*
X201395866Y-104921489D01*
X201155739Y-105161616D01*
X200873369Y-105350290D01*
X200559622Y-105480248D01*
X200226551Y-105546500D01*
X199886949Y-105546500D01*
X199553878Y-105480248D01*
X199240131Y-105350290D01*
X198957761Y-105161616D01*
X198717634Y-104921489D01*
X198528960Y-104639119D01*
X198399002Y-104325372D01*
X198332750Y-103992301D01*
X198332750Y-103652699D01*
X198399002Y-103319628D01*
X198528960Y-103005881D01*
X198717634Y-102723511D01*
X198957761Y-102483384D01*
X199240131Y-102294710D01*
X199553878Y-102164752D01*
X199886949Y-102098500D01*
X200226551Y-102098500D01*
X200559622Y-102164752D01*
X200559622Y-102164752D01*
G37*
G36*
X67314934Y-94727910D02*
X67314936Y-94727911D01*
X67314937Y-94727911D01*
X67714201Y-94893291D01*
X68073530Y-95133387D01*
X68379113Y-95438970D01*
X68619209Y-95798299D01*
X68784589Y-96197563D01*
X68868900Y-96621420D01*
X68868900Y-97053580D01*
X68784589Y-97477437D01*
X68619209Y-97876701D01*
X68379113Y-98236030D01*
X68073530Y-98541613D01*
X67714201Y-98781709D01*
X67314937Y-98947089D01*
X67314936Y-98947089D01*
X67314934Y-98947090D01*
X66891082Y-99031400D01*
X66458918Y-99031400D01*
X66035066Y-98947090D01*
X66035064Y-98947089D01*
X66035063Y-98947089D01*
X65635799Y-98781709D01*
X65276470Y-98541613D01*
X64970887Y-98236030D01*
X64730791Y-97876701D01*
X64565411Y-97477437D01*
X64481100Y-97053580D01*
X64481100Y-96621420D01*
X64565411Y-96197563D01*
X64730791Y-95798299D01*
X64970887Y-95438970D01*
X65276470Y-95133387D01*
X65635799Y-94893291D01*
X66035063Y-94727911D01*
X66035064Y-94727911D01*
X66035066Y-94727910D01*
X66458918Y-94643600D01*
X66891082Y-94643600D01*
X67314934Y-94727910D01*
X67314934Y-94727910D01*
G37*
G36*
X122083684Y-94727910D02*
X122083686Y-94727911D01*
X122083687Y-94727911D01*
X122482951Y-94893291D01*
X122842280Y-95133387D01*
X123147863Y-95438970D01*
X123387959Y-95798299D01*
X123553339Y-96197563D01*
X123637650Y-96621420D01*
X123637650Y-97053580D01*
X123553339Y-97477437D01*
X123387959Y-97876701D01*
X123147863Y-98236030D01*
X122842280Y-98541613D01*
X122482951Y-98781709D01*
X122083687Y-98947089D01*
X122083686Y-98947089D01*
X122083684Y-98947090D01*
X121659832Y-99031400D01*
X121227668Y-99031400D01*
X120803816Y-98947090D01*
X120803814Y-98947089D01*
X120803813Y-98947089D01*
X120404549Y-98781709D01*
X120045220Y-98541613D01*
X119739637Y-98236030D01*
X119499541Y-97876701D01*
X119334161Y-97477437D01*
X119249850Y-97053580D01*
X119249850Y-96621420D01*
X119334161Y-96197563D01*
X119499541Y-95798299D01*
X119739637Y-95438970D01*
X120045220Y-95133387D01*
X120404549Y-94893291D01*
X120803813Y-94727911D01*
X120803814Y-94727911D01*
X120803816Y-94727910D01*
X121227668Y-94643600D01*
X121659832Y-94643600D01*
X122083684Y-94727910D01*
X122083684Y-94727910D01*
G37*
G36*
X88746184Y-94727910D02*
X88746186Y-94727911D01*
X88746187Y-94727911D01*
X89145451Y-94893291D01*
X89504780Y-95133387D01*
X89810363Y-95438970D01*
X90050459Y-95798299D01*
X90215839Y-96197563D01*
X90300150Y-96621420D01*
X90300150Y-97053580D01*
X90215839Y-97477437D01*
X90050459Y-97876701D01*
X89810363Y-98236030D01*
X89504780Y-98541613D01*
X89145451Y-98781709D01*
X88746187Y-98947089D01*
X88746186Y-98947089D01*
X88746184Y-98947090D01*
X88322332Y-99031400D01*
X87890168Y-99031400D01*
X87466316Y-98947090D01*
X87466314Y-98947089D01*
X87466313Y-98947089D01*
X87067049Y-98781709D01*
X86707720Y-98541613D01*
X86402137Y-98236030D01*
X86162041Y-97876701D01*
X85996661Y-97477437D01*
X85912350Y-97053580D01*
X85912350Y-96621420D01*
X85996661Y-96197563D01*
X86162041Y-95798299D01*
X86402137Y-95438970D01*
X86707720Y-95133387D01*
X87067049Y-94893291D01*
X87466313Y-94727911D01*
X87466314Y-94727911D01*
X87466316Y-94727910D01*
X87890168Y-94643600D01*
X88322332Y-94643600D01*
X88746184Y-94727910D01*
X88746184Y-94727910D01*
G37*
G36*
X45883684Y-94727910D02*
X45883686Y-94727911D01*
X45883687Y-94727911D01*
X46282951Y-94893291D01*
X46642280Y-95133387D01*
X46947863Y-95438970D01*
X47187959Y-95798299D01*
X47353339Y-96197563D01*
X47437650Y-96621420D01*
X47437650Y-97053580D01*
X47353339Y-97477437D01*
X47187959Y-97876701D01*
X46947863Y-98236030D01*
X46642280Y-98541613D01*
X46282951Y-98781709D01*
X45883687Y-98947089D01*
X45883686Y-98947089D01*
X45883684Y-98947090D01*
X45459832Y-99031400D01*
X45027668Y-99031400D01*
X44603816Y-98947090D01*
X44603814Y-98947089D01*
X44603813Y-98947089D01*
X44204549Y-98781709D01*
X43845220Y-98541613D01*
X43539637Y-98236030D01*
X43299541Y-97876701D01*
X43134161Y-97477437D01*
X43049850Y-97053580D01*
X43049850Y-96621420D01*
X43134161Y-96197563D01*
X43299541Y-95798299D01*
X43539637Y-95438970D01*
X43845220Y-95133387D01*
X44204549Y-94893291D01*
X44603813Y-94727911D01*
X44603814Y-94727911D01*
X44603816Y-94727910D01*
X45027668Y-94643600D01*
X45459832Y-94643600D01*
X45883684Y-94727910D01*
X45883684Y-94727910D01*
G37*
G36*
X162564934Y-94727910D02*
X162564936Y-94727911D01*
X162564937Y-94727911D01*
X162964201Y-94893291D01*
X163323530Y-95133387D01*
X163629113Y-95438970D01*
X163869209Y-95798299D01*
X164034589Y-96197563D01*
X164118900Y-96621420D01*
X164118900Y-97053580D01*
X164034589Y-97477437D01*
X163869209Y-97876701D01*
X163629113Y-98236030D01*
X163323530Y-98541613D01*
X162964201Y-98781709D01*
X162564937Y-98947089D01*
X162564936Y-98947089D01*
X162564934Y-98947090D01*
X162141082Y-99031400D01*
X161708918Y-99031400D01*
X161285066Y-98947090D01*
X161285064Y-98947089D01*
X161285063Y-98947089D01*
X160885799Y-98781709D01*
X160526470Y-98541613D01*
X160220887Y-98236030D01*
X159980791Y-97876701D01*
X159815411Y-97477437D01*
X159731100Y-97053580D01*
X159731100Y-96621420D01*
X159815411Y-96197563D01*
X159980791Y-95798299D01*
X160220887Y-95438970D01*
X160526470Y-95133387D01*
X160885799Y-94893291D01*
X161285063Y-94727911D01*
X161285064Y-94727911D01*
X161285066Y-94727910D01*
X161708918Y-94643600D01*
X162141082Y-94643600D01*
X162564934Y-94727910D01*
X162564934Y-94727910D01*
G37*
G36*
X126846184Y-94727910D02*
X126846186Y-94727911D01*
X126846187Y-94727911D01*
X127245451Y-94893291D01*
X127604780Y-95133387D01*
X127910363Y-95438970D01*
X128150459Y-95798299D01*
X128315839Y-96197563D01*
X128400150Y-96621420D01*
X128400150Y-97053580D01*
X128315839Y-97477437D01*
X128150459Y-97876701D01*
X127910363Y-98236030D01*
X127604780Y-98541613D01*
X127245451Y-98781709D01*
X126846187Y-98947089D01*
X126846186Y-98947089D01*
X126846184Y-98947090D01*
X126422332Y-99031400D01*
X125990168Y-99031400D01*
X125566316Y-98947090D01*
X125566314Y-98947089D01*
X125566313Y-98947089D01*
X125167049Y-98781709D01*
X124807720Y-98541613D01*
X124502137Y-98236030D01*
X124262041Y-97876701D01*
X124096661Y-97477437D01*
X124012350Y-97053580D01*
X124012350Y-96621420D01*
X124096661Y-96197563D01*
X124262041Y-95798299D01*
X124502137Y-95438970D01*
X124807720Y-95133387D01*
X125167049Y-94893291D01*
X125566313Y-94727911D01*
X125566314Y-94727911D01*
X125566316Y-94727910D01*
X125990168Y-94643600D01*
X126422332Y-94643600D01*
X126846184Y-94727910D01*
X126846184Y-94727910D01*
G37*
G36*
X193521184Y-94727910D02*
X193521186Y-94727911D01*
X193521187Y-94727911D01*
X193920451Y-94893291D01*
X194279780Y-95133387D01*
X194585363Y-95438970D01*
X194825459Y-95798299D01*
X194990839Y-96197563D01*
X195075150Y-96621420D01*
X195075150Y-97053580D01*
X194990839Y-97477437D01*
X194825459Y-97876701D01*
X194585363Y-98236030D01*
X194279780Y-98541613D01*
X193920451Y-98781709D01*
X193521187Y-98947089D01*
X193521186Y-98947089D01*
X193521184Y-98947090D01*
X193097332Y-99031400D01*
X192665168Y-99031400D01*
X192241316Y-98947090D01*
X192241314Y-98947089D01*
X192241313Y-98947089D01*
X191842049Y-98781709D01*
X191482720Y-98541613D01*
X191177137Y-98236030D01*
X190937041Y-97876701D01*
X190771661Y-97477437D01*
X190687350Y-97053580D01*
X190687350Y-96621420D01*
X190771661Y-96197563D01*
X190937041Y-95798299D01*
X191177137Y-95438970D01*
X191482720Y-95133387D01*
X191842049Y-94893291D01*
X192241313Y-94727911D01*
X192241314Y-94727911D01*
X192241316Y-94727910D01*
X192665168Y-94643600D01*
X193097332Y-94643600D01*
X193521184Y-94727910D01*
X193521184Y-94727910D01*
G37*
G36*
X153039934Y-94727910D02*
X153039936Y-94727911D01*
X153039937Y-94727911D01*
X153439201Y-94893291D01*
X153798530Y-95133387D01*
X154104113Y-95438970D01*
X154344209Y-95798299D01*
X154509589Y-96197563D01*
X154593900Y-96621420D01*
X154593900Y-97053580D01*
X154509589Y-97477437D01*
X154344209Y-97876701D01*
X154104113Y-98236030D01*
X153798530Y-98541613D01*
X153439201Y-98781709D01*
X153039937Y-98947089D01*
X153039936Y-98947089D01*
X153039934Y-98947090D01*
X152616082Y-99031400D01*
X152183918Y-99031400D01*
X151760066Y-98947090D01*
X151760064Y-98947089D01*
X151760063Y-98947089D01*
X151360799Y-98781709D01*
X151001470Y-98541613D01*
X150695887Y-98236030D01*
X150455791Y-97876701D01*
X150290411Y-97477437D01*
X150206100Y-97053580D01*
X150206100Y-96621420D01*
X150290411Y-96197563D01*
X150455791Y-95798299D01*
X150695887Y-95438970D01*
X151001470Y-95133387D01*
X151360799Y-94893291D01*
X151760063Y-94727911D01*
X151760064Y-94727911D01*
X151760066Y-94727910D01*
X152183918Y-94643600D01*
X152616082Y-94643600D01*
X153039934Y-94727910D01*
X153039934Y-94727910D01*
G37*
G36*
X188758684Y-94727910D02*
X188758686Y-94727911D01*
X188758687Y-94727911D01*
X189157951Y-94893291D01*
X189517280Y-95133387D01*
X189822863Y-95438970D01*
X190062959Y-95798299D01*
X190228339Y-96197563D01*
X190312650Y-96621420D01*
X190312650Y-97053580D01*
X190228339Y-97477437D01*
X190062959Y-97876701D01*
X189822863Y-98236030D01*
X189517280Y-98541613D01*
X189157951Y-98781709D01*
X188758687Y-98947089D01*
X188758686Y-98947089D01*
X188758684Y-98947090D01*
X188334832Y-99031400D01*
X187902668Y-99031400D01*
X187478816Y-98947090D01*
X187478814Y-98947089D01*
X187478813Y-98947089D01*
X187079549Y-98781709D01*
X186720220Y-98541613D01*
X186414637Y-98236030D01*
X186174541Y-97876701D01*
X186009161Y-97477437D01*
X185924850Y-97053580D01*
X185924850Y-96621420D01*
X186009161Y-96197563D01*
X186174541Y-95798299D01*
X186414637Y-95438970D01*
X186720220Y-95133387D01*
X187079549Y-94893291D01*
X187478813Y-94727911D01*
X187478814Y-94727911D01*
X187478816Y-94727910D01*
X187902668Y-94643600D01*
X188334832Y-94643600D01*
X188758684Y-94727910D01*
X188758684Y-94727910D01*
G37*
G36*
X248289934Y-94727910D02*
X248289936Y-94727911D01*
X248289937Y-94727911D01*
X248689201Y-94893291D01*
X249048530Y-95133387D01*
X249354113Y-95438970D01*
X249594209Y-95798299D01*
X249759589Y-96197563D01*
X249843900Y-96621420D01*
X249843900Y-97053580D01*
X249759589Y-97477437D01*
X249594209Y-97876701D01*
X249354113Y-98236030D01*
X249048530Y-98541613D01*
X248689201Y-98781709D01*
X248289937Y-98947089D01*
X248289936Y-98947089D01*
X248289934Y-98947090D01*
X247866082Y-99031400D01*
X247433918Y-99031400D01*
X247010066Y-98947090D01*
X247010064Y-98947089D01*
X247010063Y-98947089D01*
X246610799Y-98781709D01*
X246251470Y-98541613D01*
X245945887Y-98236030D01*
X245705791Y-97876701D01*
X245540411Y-97477437D01*
X245456100Y-97053580D01*
X245456100Y-96621420D01*
X245540411Y-96197563D01*
X245705791Y-95798299D01*
X245945887Y-95438970D01*
X246251470Y-95133387D01*
X246610799Y-94893291D01*
X247010063Y-94727911D01*
X247010064Y-94727911D01*
X247010066Y-94727910D01*
X247433918Y-94643600D01*
X247866082Y-94643600D01*
X248289934Y-94727910D01*
X248289934Y-94727910D01*
G37*
G36*
X269721184Y-94727910D02*
X269721186Y-94727911D01*
X269721187Y-94727911D01*
X270120451Y-94893291D01*
X270479780Y-95133387D01*
X270785363Y-95438970D01*
X271025459Y-95798299D01*
X271190839Y-96197563D01*
X271275150Y-96621420D01*
X271275150Y-97053580D01*
X271190839Y-97477437D01*
X271025459Y-97876701D01*
X270785363Y-98236030D01*
X270479780Y-98541613D01*
X270120451Y-98781709D01*
X269721187Y-98947089D01*
X269721186Y-98947089D01*
X269721184Y-98947090D01*
X269297332Y-99031400D01*
X268865168Y-99031400D01*
X268441316Y-98947090D01*
X268441314Y-98947089D01*
X268441313Y-98947089D01*
X268042049Y-98781709D01*
X267682720Y-98541613D01*
X267377137Y-98236030D01*
X267137041Y-97876701D01*
X266971661Y-97477437D01*
X266887350Y-97053580D01*
X266887350Y-96621420D01*
X266971661Y-96197563D01*
X267137041Y-95798299D01*
X267377137Y-95438970D01*
X267682720Y-95133387D01*
X268042049Y-94893291D01*
X268441313Y-94727911D01*
X268441314Y-94727911D01*
X268441316Y-94727910D01*
X268865168Y-94643600D01*
X269297332Y-94643600D01*
X269721184Y-94727910D01*
X269721184Y-94727910D01*
G37*
G36*
X167327434Y-94727910D02*
X167327436Y-94727911D01*
X167327437Y-94727911D01*
X167726701Y-94893291D01*
X168086030Y-95133387D01*
X168391613Y-95438970D01*
X168631709Y-95798299D01*
X168797089Y-96197563D01*
X168881400Y-96621420D01*
X168881400Y-97053580D01*
X168797089Y-97477437D01*
X168631709Y-97876701D01*
X168391613Y-98236030D01*
X168086030Y-98541613D01*
X167726701Y-98781709D01*
X167327437Y-98947089D01*
X167327436Y-98947089D01*
X167327434Y-98947090D01*
X166903582Y-99031400D01*
X166471418Y-99031400D01*
X166047566Y-98947090D01*
X166047564Y-98947089D01*
X166047563Y-98947089D01*
X165648299Y-98781709D01*
X165288970Y-98541613D01*
X164983387Y-98236030D01*
X164743291Y-97876701D01*
X164577911Y-97477437D01*
X164493600Y-97053580D01*
X164493600Y-96621420D01*
X164577911Y-96197563D01*
X164743291Y-95798299D01*
X164983387Y-95438970D01*
X165288970Y-95133387D01*
X165648299Y-94893291D01*
X166047563Y-94727911D01*
X166047564Y-94727911D01*
X166047566Y-94727910D01*
X166471418Y-94643600D01*
X166903582Y-94643600D01*
X167327434Y-94727910D01*
X167327434Y-94727910D01*
G37*
G36*
X226858684Y-94727910D02*
X226858686Y-94727911D01*
X226858687Y-94727911D01*
X227257951Y-94893291D01*
X227617280Y-95133387D01*
X227922863Y-95438970D01*
X228162959Y-95798299D01*
X228328339Y-96197563D01*
X228412650Y-96621420D01*
X228412650Y-97053580D01*
X228328339Y-97477437D01*
X228162959Y-97876701D01*
X227922863Y-98236030D01*
X227617280Y-98541613D01*
X227257951Y-98781709D01*
X226858687Y-98947089D01*
X226858686Y-98947089D01*
X226858684Y-98947090D01*
X226434832Y-99031400D01*
X226002668Y-99031400D01*
X225578816Y-98947090D01*
X225578814Y-98947089D01*
X225578813Y-98947089D01*
X225179549Y-98781709D01*
X224820220Y-98541613D01*
X224514637Y-98236030D01*
X224274541Y-97876701D01*
X224109161Y-97477437D01*
X224024850Y-97053580D01*
X224024850Y-96621420D01*
X224109161Y-96197563D01*
X224274541Y-95798299D01*
X224514637Y-95438970D01*
X224820220Y-95133387D01*
X225179549Y-94893291D01*
X225578813Y-94727911D01*
X225578814Y-94727911D01*
X225578816Y-94727910D01*
X226002668Y-94643600D01*
X226434832Y-94643600D01*
X226858684Y-94727910D01*
X226858684Y-94727910D01*
G37*
G36*
X253043566Y-95803812D02*
X253239203Y-95884847D01*
X253415275Y-96002495D01*
X253565005Y-96152225D01*
X253682653Y-96328297D01*
X253763688Y-96523934D01*
X253805000Y-96731622D01*
X253805000Y-96943378D01*
X253763688Y-97151066D01*
X253682653Y-97346703D01*
X253565005Y-97522775D01*
X253415275Y-97672505D01*
X253239203Y-97790153D01*
X253043566Y-97871188D01*
X252835878Y-97912500D01*
X252624122Y-97912500D01*
X252416434Y-97871188D01*
X252220797Y-97790153D01*
X252044725Y-97672505D01*
X251894995Y-97522775D01*
X251777347Y-97346703D01*
X251696312Y-97151066D01*
X251655000Y-96943378D01*
X251655000Y-96731622D01*
X251696312Y-96523934D01*
X251777347Y-96328297D01*
X251894995Y-96152225D01*
X252044725Y-96002495D01*
X252220797Y-95884847D01*
X252416434Y-95803812D01*
X252624122Y-95762500D01*
X252835878Y-95762500D01*
X253043566Y-95803812D01*
X253043566Y-95803812D01*
G37*
G36*
X50637316Y-95803812D02*
X50832953Y-95884847D01*
X51009025Y-96002495D01*
X51158755Y-96152225D01*
X51276403Y-96328297D01*
X51357438Y-96523934D01*
X51398750Y-96731622D01*
X51398750Y-96943378D01*
X51357438Y-97151066D01*
X51276403Y-97346703D01*
X51158755Y-97522775D01*
X51009025Y-97672505D01*
X50832953Y-97790153D01*
X50637316Y-97871188D01*
X50429628Y-97912500D01*
X50217872Y-97912500D01*
X50010184Y-97871188D01*
X49814547Y-97790153D01*
X49638475Y-97672505D01*
X49488745Y-97522775D01*
X49371097Y-97346703D01*
X49290062Y-97151066D01*
X49248750Y-96943378D01*
X49248750Y-96731622D01*
X49290062Y-96523934D01*
X49371097Y-96328297D01*
X49488745Y-96152225D01*
X49638475Y-96002495D01*
X49814547Y-95884847D01*
X50010184Y-95803812D01*
X50217872Y-95762500D01*
X50429628Y-95762500D01*
X50637316Y-95803812D01*
X50637316Y-95803812D01*
G37*
G36*
X183352316Y-95803812D02*
X183547953Y-95884847D01*
X183724025Y-96002495D01*
X183873755Y-96152225D01*
X183991403Y-96328297D01*
X184072438Y-96523934D01*
X184113750Y-96731622D01*
X184113750Y-96943378D01*
X184072438Y-97151066D01*
X183991403Y-97346703D01*
X183873755Y-97522775D01*
X183724025Y-97672505D01*
X183547953Y-97790153D01*
X183352316Y-97871188D01*
X183144628Y-97912500D01*
X182932872Y-97912500D01*
X182725184Y-97871188D01*
X182529547Y-97790153D01*
X182353475Y-97672505D01*
X182203745Y-97522775D01*
X182086097Y-97346703D01*
X182005062Y-97151066D01*
X181963750Y-96943378D01*
X181963750Y-96731622D01*
X182005062Y-96523934D01*
X182086097Y-96328297D01*
X182203745Y-96152225D01*
X182353475Y-96002495D01*
X182529547Y-95884847D01*
X182725184Y-95803812D01*
X182932872Y-95762500D01*
X183144628Y-95762500D01*
X183352316Y-95803812D01*
X183352316Y-95803812D01*
G37*
G36*
X116677316Y-95803812D02*
X116872953Y-95884847D01*
X117049025Y-96002495D01*
X117198755Y-96152225D01*
X117316403Y-96328297D01*
X117397438Y-96523934D01*
X117438750Y-96731622D01*
X117438750Y-96943378D01*
X117397438Y-97151066D01*
X117316403Y-97346703D01*
X117198755Y-97522775D01*
X117049025Y-97672505D01*
X116872953Y-97790153D01*
X116677316Y-97871188D01*
X116469628Y-97912500D01*
X116257872Y-97912500D01*
X116050184Y-97871188D01*
X115854547Y-97790153D01*
X115678475Y-97672505D01*
X115528745Y-97522775D01*
X115411097Y-97346703D01*
X115330062Y-97151066D01*
X115288750Y-96943378D01*
X115288750Y-96731622D01*
X115330062Y-96523934D01*
X115411097Y-96328297D01*
X115528745Y-96152225D01*
X115678475Y-96002495D01*
X115854547Y-95884847D01*
X116050184Y-95803812D01*
X116257872Y-95762500D01*
X116469628Y-95762500D01*
X116677316Y-95803812D01*
X116677316Y-95803812D01*
G37*
G36*
X274474816Y-95803812D02*
X274670453Y-95884847D01*
X274846525Y-96002495D01*
X274996255Y-96152225D01*
X275113903Y-96328297D01*
X275194938Y-96523934D01*
X275236250Y-96731622D01*
X275236250Y-96943378D01*
X275194938Y-97151066D01*
X275113903Y-97346703D01*
X274996255Y-97522775D01*
X274846525Y-97672505D01*
X274670453Y-97790153D01*
X274474816Y-97871188D01*
X274267128Y-97912500D01*
X274055372Y-97912500D01*
X273847684Y-97871188D01*
X273652047Y-97790153D01*
X273475975Y-97672505D01*
X273326245Y-97522775D01*
X273208597Y-97346703D01*
X273127562Y-97151066D01*
X273086250Y-96943378D01*
X273086250Y-96731622D01*
X273127562Y-96523934D01*
X273208597Y-96328297D01*
X273326245Y-96152225D01*
X273475975Y-96002495D01*
X273652047Y-95884847D01*
X273847684Y-95803812D01*
X274055372Y-95762500D01*
X274267128Y-95762500D01*
X274474816Y-95803812D01*
X274474816Y-95803812D01*
G37*
G36*
X264314816Y-95803812D02*
X264510453Y-95884847D01*
X264686525Y-96002495D01*
X264836255Y-96152225D01*
X264953903Y-96328297D01*
X265034938Y-96523934D01*
X265076250Y-96731622D01*
X265076250Y-96943378D01*
X265034938Y-97151066D01*
X264953903Y-97346703D01*
X264836255Y-97522775D01*
X264686525Y-97672505D01*
X264510453Y-97790153D01*
X264314816Y-97871188D01*
X264107128Y-97912500D01*
X263895372Y-97912500D01*
X263687684Y-97871188D01*
X263492047Y-97790153D01*
X263315975Y-97672505D01*
X263166245Y-97522775D01*
X263048597Y-97346703D01*
X262967562Y-97151066D01*
X262926250Y-96943378D01*
X262926250Y-96731622D01*
X262967562Y-96523934D01*
X263048597Y-96328297D01*
X263166245Y-96152225D01*
X263315975Y-96002495D01*
X263492047Y-95884847D01*
X263687684Y-95803812D01*
X263895372Y-95762500D01*
X264107128Y-95762500D01*
X264314816Y-95803812D01*
X264314816Y-95803812D01*
G37*
G36*
X221452316Y-95803812D02*
X221647953Y-95884847D01*
X221824025Y-96002495D01*
X221973755Y-96152225D01*
X222091403Y-96328297D01*
X222172438Y-96523934D01*
X222213750Y-96731622D01*
X222213750Y-96943378D01*
X222172438Y-97151066D01*
X222091403Y-97346703D01*
X221973755Y-97522775D01*
X221824025Y-97672505D01*
X221647953Y-97790153D01*
X221452316Y-97871188D01*
X221244628Y-97912500D01*
X221032872Y-97912500D01*
X220825184Y-97871188D01*
X220629547Y-97790153D01*
X220453475Y-97672505D01*
X220303745Y-97522775D01*
X220186097Y-97346703D01*
X220105062Y-97151066D01*
X220063750Y-96943378D01*
X220063750Y-96731622D01*
X220105062Y-96523934D01*
X220186097Y-96328297D01*
X220303745Y-96152225D01*
X220453475Y-96002495D01*
X220629547Y-95884847D01*
X220825184Y-95803812D01*
X221032872Y-95762500D01*
X221244628Y-95762500D01*
X221452316Y-95803812D01*
X221452316Y-95803812D01*
G37*
G36*
X172081066Y-95803812D02*
X172276703Y-95884847D01*
X172452775Y-96002495D01*
X172602505Y-96152225D01*
X172720153Y-96328297D01*
X172801188Y-96523934D01*
X172842500Y-96731622D01*
X172842500Y-96943378D01*
X172801188Y-97151066D01*
X172720153Y-97346703D01*
X172602505Y-97522775D01*
X172452775Y-97672505D01*
X172276703Y-97790153D01*
X172081066Y-97871188D01*
X171873378Y-97912500D01*
X171661622Y-97912500D01*
X171453934Y-97871188D01*
X171258297Y-97790153D01*
X171082225Y-97672505D01*
X170932495Y-97522775D01*
X170814847Y-97346703D01*
X170733812Y-97151066D01*
X170692500Y-96943378D01*
X170692500Y-96731622D01*
X170733812Y-96523934D01*
X170814847Y-96328297D01*
X170932495Y-96152225D01*
X171082225Y-96002495D01*
X171258297Y-95884847D01*
X171453934Y-95803812D01*
X171661622Y-95762500D01*
X171873378Y-95762500D01*
X172081066Y-95803812D01*
X172081066Y-95803812D01*
G37*
G36*
X198274816Y-95803812D02*
X198470453Y-95884847D01*
X198646525Y-96002495D01*
X198796255Y-96152225D01*
X198913903Y-96328297D01*
X198994938Y-96523934D01*
X199036250Y-96731622D01*
X199036250Y-96943378D01*
X198994938Y-97151066D01*
X198913903Y-97346703D01*
X198796255Y-97522775D01*
X198646525Y-97672505D01*
X198470453Y-97790153D01*
X198274816Y-97871188D01*
X198067128Y-97912500D01*
X197855372Y-97912500D01*
X197647684Y-97871188D01*
X197452047Y-97790153D01*
X197275975Y-97672505D01*
X197126245Y-97522775D01*
X197008597Y-97346703D01*
X196927562Y-97151066D01*
X196886250Y-96943378D01*
X196886250Y-96731622D01*
X196927562Y-96523934D01*
X197008597Y-96328297D01*
X197126245Y-96152225D01*
X197275975Y-96002495D01*
X197452047Y-95884847D01*
X197647684Y-95803812D01*
X197855372Y-95762500D01*
X198067128Y-95762500D01*
X198274816Y-95803812D01*
X198274816Y-95803812D01*
G37*
G36*
X131599816Y-95803812D02*
X131795453Y-95884847D01*
X131971525Y-96002495D01*
X132121255Y-96152225D01*
X132238903Y-96328297D01*
X132319938Y-96523934D01*
X132361250Y-96731622D01*
X132361250Y-96943378D01*
X132319938Y-97151066D01*
X132238903Y-97346703D01*
X132121255Y-97522775D01*
X131971525Y-97672505D01*
X131795453Y-97790153D01*
X131599816Y-97871188D01*
X131392128Y-97912500D01*
X131180372Y-97912500D01*
X130972684Y-97871188D01*
X130777047Y-97790153D01*
X130600975Y-97672505D01*
X130451245Y-97522775D01*
X130333597Y-97346703D01*
X130252562Y-97151066D01*
X130211250Y-96943378D01*
X130211250Y-96731622D01*
X130252562Y-96523934D01*
X130333597Y-96328297D01*
X130451245Y-96152225D01*
X130600975Y-96002495D01*
X130777047Y-95884847D01*
X130972684Y-95803812D01*
X131180372Y-95762500D01*
X131392128Y-95762500D01*
X131599816Y-95803812D01*
X131599816Y-95803812D01*
G37*
G36*
X72068566Y-95803812D02*
X72264203Y-95884847D01*
X72440275Y-96002495D01*
X72590005Y-96152225D01*
X72707653Y-96328297D01*
X72788688Y-96523934D01*
X72830000Y-96731622D01*
X72830000Y-96943378D01*
X72788688Y-97151066D01*
X72707653Y-97346703D01*
X72590005Y-97522775D01*
X72440275Y-97672505D01*
X72264203Y-97790153D01*
X72068566Y-97871188D01*
X71860878Y-97912500D01*
X71649122Y-97912500D01*
X71441434Y-97871188D01*
X71245797Y-97790153D01*
X71069725Y-97672505D01*
X70919995Y-97522775D01*
X70802347Y-97346703D01*
X70721312Y-97151066D01*
X70680000Y-96943378D01*
X70680000Y-96731622D01*
X70721312Y-96523934D01*
X70802347Y-96328297D01*
X70919995Y-96152225D01*
X71069725Y-96002495D01*
X71245797Y-95884847D01*
X71441434Y-95803812D01*
X71649122Y-95762500D01*
X71860878Y-95762500D01*
X72068566Y-95803812D01*
X72068566Y-95803812D01*
G37*
G36*
X40477316Y-95803812D02*
X40672953Y-95884847D01*
X40849025Y-96002495D01*
X40998755Y-96152225D01*
X41116403Y-96328297D01*
X41197438Y-96523934D01*
X41238750Y-96731622D01*
X41238750Y-96943378D01*
X41197438Y-97151066D01*
X41116403Y-97346703D01*
X40998755Y-97522775D01*
X40849025Y-97672505D01*
X40672953Y-97790153D01*
X40477316Y-97871188D01*
X40269628Y-97912500D01*
X40057872Y-97912500D01*
X39850184Y-97871188D01*
X39654547Y-97790153D01*
X39478475Y-97672505D01*
X39328745Y-97522775D01*
X39211097Y-97346703D01*
X39130062Y-97151066D01*
X39088750Y-96943378D01*
X39088750Y-96731622D01*
X39130062Y-96523934D01*
X39211097Y-96328297D01*
X39328745Y-96152225D01*
X39478475Y-96002495D01*
X39654547Y-95884847D01*
X39850184Y-95803812D01*
X40057872Y-95762500D01*
X40269628Y-95762500D01*
X40477316Y-95803812D01*
X40477316Y-95803812D01*
G37*
G36*
X242883566Y-95803812D02*
X243079203Y-95884847D01*
X243255275Y-96002495D01*
X243405005Y-96152225D01*
X243522653Y-96328297D01*
X243603688Y-96523934D01*
X243645000Y-96731622D01*
X243645000Y-96943378D01*
X243603688Y-97151066D01*
X243522653Y-97346703D01*
X243405005Y-97522775D01*
X243255275Y-97672505D01*
X243079203Y-97790153D01*
X242883566Y-97871188D01*
X242675878Y-97912500D01*
X242464122Y-97912500D01*
X242256434Y-97871188D01*
X242060797Y-97790153D01*
X241884725Y-97672505D01*
X241734995Y-97522775D01*
X241617347Y-97346703D01*
X241536312Y-97151066D01*
X241495000Y-96943378D01*
X241495000Y-96731622D01*
X241536312Y-96523934D01*
X241617347Y-96328297D01*
X241734995Y-96152225D01*
X241884725Y-96002495D01*
X242060797Y-95884847D01*
X242256434Y-95803812D01*
X242464122Y-95762500D01*
X242675878Y-95762500D01*
X242883566Y-95803812D01*
X242883566Y-95803812D01*
G37*
G36*
X83339816Y-95803812D02*
X83535453Y-95884847D01*
X83711525Y-96002495D01*
X83861255Y-96152225D01*
X83978903Y-96328297D01*
X84059938Y-96523934D01*
X84101250Y-96731622D01*
X84101250Y-96943378D01*
X84059938Y-97151066D01*
X83978903Y-97346703D01*
X83861255Y-97522775D01*
X83711525Y-97672505D01*
X83535453Y-97790153D01*
X83339816Y-97871188D01*
X83132128Y-97912500D01*
X82920372Y-97912500D01*
X82712684Y-97871188D01*
X82517047Y-97790153D01*
X82340975Y-97672505D01*
X82191245Y-97522775D01*
X82073597Y-97346703D01*
X81992562Y-97151066D01*
X81951250Y-96943378D01*
X81951250Y-96731622D01*
X81992562Y-96523934D01*
X82073597Y-96328297D01*
X82191245Y-96152225D01*
X82340975Y-96002495D01*
X82517047Y-95884847D01*
X82712684Y-95803812D01*
X82920372Y-95762500D01*
X83132128Y-95762500D01*
X83339816Y-95803812D01*
X83339816Y-95803812D01*
G37*
G36*
X157138117Y-95799744D02*
X157162500Y-95802146D01*
X157186883Y-95799744D01*
X157374122Y-95762500D01*
X157585878Y-95762500D01*
X157793566Y-95803812D01*
X157989203Y-95884847D01*
X158165275Y-96002495D01*
X158315005Y-96152225D01*
X158432653Y-96328297D01*
X158513688Y-96523934D01*
X158555000Y-96731622D01*
X158555000Y-96943378D01*
X158513688Y-97151066D01*
X158432653Y-97346703D01*
X158315005Y-97522775D01*
X158165275Y-97672505D01*
X157989203Y-97790153D01*
X157793566Y-97871188D01*
X157585878Y-97912500D01*
X157374122Y-97912500D01*
X157186883Y-97875256D01*
X157162500Y-97872854D01*
X157138117Y-97875256D01*
X156950878Y-97912500D01*
X156739122Y-97912500D01*
X156531434Y-97871188D01*
X156335797Y-97790153D01*
X156159725Y-97672505D01*
X156009995Y-97522775D01*
X155892347Y-97346703D01*
X155811312Y-97151066D01*
X155770000Y-96943378D01*
X155770000Y-96731622D01*
X155811312Y-96523934D01*
X155892347Y-96328297D01*
X156009995Y-96152225D01*
X156159725Y-96002495D01*
X156335797Y-95884847D01*
X156531434Y-95803812D01*
X156739122Y-95762500D01*
X156950878Y-95762500D01*
X157138117Y-95799744D01*
X157138117Y-95799744D01*
G37*
G36*
X231612316Y-95803812D02*
X231807953Y-95884847D01*
X231984025Y-96002495D01*
X232133755Y-96152225D01*
X232251403Y-96328297D01*
X232332438Y-96523934D01*
X232373750Y-96731622D01*
X232373750Y-96943378D01*
X232332438Y-97151066D01*
X232251403Y-97346703D01*
X232133755Y-97522775D01*
X231984025Y-97672505D01*
X231807953Y-97790153D01*
X231612316Y-97871188D01*
X231404628Y-97912500D01*
X231192872Y-97912500D01*
X230985184Y-97871188D01*
X230789547Y-97790153D01*
X230613475Y-97672505D01*
X230463745Y-97522775D01*
X230346097Y-97346703D01*
X230265062Y-97151066D01*
X230223750Y-96943378D01*
X230223750Y-96731622D01*
X230265062Y-96523934D01*
X230346097Y-96328297D01*
X230463745Y-96152225D01*
X230613475Y-96002495D01*
X230789547Y-95884847D01*
X230985184Y-95803812D01*
X231192872Y-95762500D01*
X231404628Y-95762500D01*
X231612316Y-95803812D01*
X231612316Y-95803812D01*
G37*
G36*
X93499816Y-95803812D02*
X93695453Y-95884847D01*
X93871525Y-96002495D01*
X94021255Y-96152225D01*
X94138903Y-96328297D01*
X94219938Y-96523934D01*
X94261250Y-96731622D01*
X94261250Y-96943378D01*
X94219938Y-97151066D01*
X94138903Y-97346703D01*
X94021255Y-97522775D01*
X93871525Y-97672505D01*
X93695453Y-97790153D01*
X93499816Y-97871188D01*
X93292128Y-97912500D01*
X93080372Y-97912500D01*
X92872684Y-97871188D01*
X92677047Y-97790153D01*
X92500975Y-97672505D01*
X92351245Y-97522775D01*
X92233597Y-97346703D01*
X92152562Y-97151066D01*
X92111250Y-96943378D01*
X92111250Y-96731622D01*
X92152562Y-96523934D01*
X92233597Y-96328297D01*
X92351245Y-96152225D01*
X92500975Y-96002495D01*
X92677047Y-95884847D01*
X92872684Y-95803812D01*
X93080372Y-95762500D01*
X93292128Y-95762500D01*
X93499816Y-95803812D01*
X93499816Y-95803812D01*
G37*
G36*
X147633566Y-95803812D02*
X147829203Y-95884847D01*
X148005275Y-96002495D01*
X148155005Y-96152225D01*
X148272653Y-96328297D01*
X148353688Y-96523934D01*
X148395000Y-96731622D01*
X148395000Y-96943378D01*
X148353688Y-97151066D01*
X148272653Y-97346703D01*
X148155005Y-97522775D01*
X148005275Y-97672505D01*
X147829203Y-97790153D01*
X147633566Y-97871188D01*
X147425878Y-97912500D01*
X147214122Y-97912500D01*
X147006434Y-97871188D01*
X146810797Y-97790153D01*
X146634725Y-97672505D01*
X146484995Y-97522775D01*
X146367347Y-97346703D01*
X146286312Y-97151066D01*
X146245000Y-96943378D01*
X146245000Y-96731622D01*
X146286312Y-96523934D01*
X146367347Y-96328297D01*
X146484995Y-96152225D01*
X146634725Y-96002495D01*
X146810797Y-95884847D01*
X147006434Y-95803812D01*
X147214122Y-95762500D01*
X147425878Y-95762500D01*
X147633566Y-95803812D01*
X147633566Y-95803812D01*
G37*
G36*
X61908566Y-95803812D02*
X62104203Y-95884847D01*
X62280275Y-96002495D01*
X62430005Y-96152225D01*
X62547653Y-96328297D01*
X62628688Y-96523934D01*
X62670000Y-96731622D01*
X62670000Y-96943378D01*
X62628688Y-97151066D01*
X62547653Y-97346703D01*
X62430005Y-97522775D01*
X62280275Y-97672505D01*
X62104203Y-97790153D01*
X61908566Y-97871188D01*
X61700878Y-97912500D01*
X61489122Y-97912500D01*
X61281434Y-97871188D01*
X61085797Y-97790153D01*
X60909725Y-97672505D01*
X60759995Y-97522775D01*
X60642347Y-97346703D01*
X60561312Y-97151066D01*
X60520000Y-96943378D01*
X60520000Y-96731622D01*
X60561312Y-96523934D01*
X60642347Y-96328297D01*
X60759995Y-96152225D01*
X60909725Y-96002495D01*
X61085797Y-95884847D01*
X61281434Y-95803812D01*
X61489122Y-95762500D01*
X61700878Y-95762500D01*
X61908566Y-95803812D01*
X61908566Y-95803812D01*
G37*
G36*
X205459184Y-86472910D02*
X205459186Y-86472911D01*
X205459187Y-86472911D01*
X205858451Y-86638291D01*
X206217780Y-86878387D01*
X206523363Y-87183970D01*
X206763459Y-87543299D01*
X206847673Y-87746611D01*
X206928840Y-87942566D01*
X207013150Y-88366418D01*
X207013150Y-88798580D01*
X206928839Y-89222437D01*
X206763459Y-89621701D01*
X206523363Y-89981030D01*
X206217780Y-90286613D01*
X205858451Y-90526709D01*
X205459187Y-90692089D01*
X205459186Y-90692089D01*
X205459184Y-90692090D01*
X205035332Y-90776400D01*
X204571418Y-90776400D01*
X204147566Y-90692090D01*
X204147564Y-90692089D01*
X204147563Y-90692089D01*
X203748299Y-90526709D01*
X203388970Y-90286613D01*
X203083387Y-89981030D01*
X202843291Y-89621701D01*
X202677911Y-89222437D01*
X202593600Y-88798580D01*
X202593600Y-88366418D01*
X202677910Y-87942566D01*
X202759077Y-87746611D01*
X202843291Y-87543299D01*
X203083387Y-87183970D01*
X203388970Y-86878387D01*
X203748299Y-86638291D01*
X204147563Y-86472911D01*
X204147564Y-86472911D01*
X204147566Y-86472910D01*
X204571418Y-86388600D01*
X205035332Y-86388600D01*
X205459184Y-86472910D01*
X205459184Y-86472910D01*
G37*
G36*
X114908184Y-86472910D02*
X114908186Y-86472911D01*
X114908187Y-86472911D01*
X115307451Y-86638291D01*
X115666780Y-86878387D01*
X115972363Y-87183970D01*
X116212459Y-87543299D01*
X116296673Y-87746611D01*
X116377840Y-87942566D01*
X116462150Y-88366418D01*
X116462150Y-88798580D01*
X116377839Y-89222437D01*
X116212459Y-89621701D01*
X115972363Y-89981030D01*
X115666780Y-90286613D01*
X115307451Y-90526709D01*
X114908187Y-90692089D01*
X114908186Y-90692089D01*
X114908184Y-90692090D01*
X114484332Y-90776400D01*
X114052168Y-90776400D01*
X113628316Y-90692090D01*
X113628314Y-90692089D01*
X113628313Y-90692089D01*
X113229049Y-90526709D01*
X112869720Y-90286613D01*
X112564137Y-89981030D01*
X112324041Y-89621701D01*
X112158661Y-89222437D01*
X112074350Y-88798580D01*
X112074350Y-88366418D01*
X112158660Y-87942566D01*
X112239827Y-87746611D01*
X112324041Y-87543299D01*
X112564137Y-87183970D01*
X112869720Y-86878387D01*
X113229049Y-86638291D01*
X113628313Y-86472911D01*
X113628314Y-86472911D01*
X113628316Y-86472910D01*
X114052168Y-86388600D01*
X114484332Y-86388600D01*
X114908184Y-86472910D01*
X114908184Y-86472910D01*
G37*
G36*
X138784184Y-86472910D02*
X138784186Y-86472911D01*
X138784187Y-86472911D01*
X139183451Y-86638291D01*
X139542780Y-86878387D01*
X139848363Y-87183970D01*
X140088459Y-87543299D01*
X140172673Y-87746611D01*
X140253840Y-87942566D01*
X140338150Y-88366418D01*
X140338150Y-88798580D01*
X140253839Y-89222437D01*
X140088459Y-89621701D01*
X139848363Y-89981030D01*
X139542780Y-90286613D01*
X139183451Y-90526709D01*
X138784187Y-90692089D01*
X138784186Y-90692089D01*
X138784184Y-90692090D01*
X138360332Y-90776400D01*
X137928168Y-90776400D01*
X137504316Y-90692090D01*
X137504314Y-90692089D01*
X137504313Y-90692089D01*
X137105049Y-90526709D01*
X136745720Y-90286613D01*
X136440137Y-89981030D01*
X136200041Y-89621701D01*
X136034661Y-89222437D01*
X135950350Y-88798580D01*
X135950350Y-88366418D01*
X136034660Y-87942566D01*
X136115827Y-87746611D01*
X136200041Y-87543299D01*
X136440137Y-87183970D01*
X136745720Y-86878387D01*
X137105049Y-86638291D01*
X137504313Y-86472911D01*
X137504314Y-86472911D01*
X137504316Y-86472910D01*
X137928168Y-86388600D01*
X138360332Y-86388600D01*
X138784184Y-86472910D01*
X138784184Y-86472910D01*
G37*
G36*
X181583184Y-86472910D02*
X181583186Y-86472911D01*
X181583187Y-86472911D01*
X181982451Y-86638291D01*
X182341780Y-86878387D01*
X182647363Y-87183970D01*
X182887459Y-87543299D01*
X182971673Y-87746611D01*
X183052840Y-87942566D01*
X183137150Y-88366418D01*
X183137150Y-88798580D01*
X183052839Y-89222437D01*
X182887459Y-89621701D01*
X182647363Y-89981030D01*
X182341780Y-90286613D01*
X181982451Y-90526709D01*
X181583187Y-90692089D01*
X181583186Y-90692089D01*
X181583184Y-90692090D01*
X181159332Y-90776400D01*
X180727168Y-90776400D01*
X180303316Y-90692090D01*
X180303314Y-90692089D01*
X180303313Y-90692089D01*
X179904049Y-90526709D01*
X179544720Y-90286613D01*
X179239137Y-89981030D01*
X178999041Y-89621701D01*
X178833661Y-89222437D01*
X178749350Y-88798580D01*
X178749350Y-88366418D01*
X178833660Y-87942566D01*
X178914827Y-87746611D01*
X178999041Y-87543299D01*
X179239137Y-87183970D01*
X179544720Y-86878387D01*
X179904049Y-86638291D01*
X180303313Y-86472911D01*
X180303314Y-86472911D01*
X180303316Y-86472910D01*
X180727168Y-86388600D01*
X181159332Y-86388600D01*
X181583184Y-86472910D01*
X181583184Y-86472910D01*
G37*
G36*
X200696684Y-86472910D02*
X200696686Y-86472911D01*
X200696687Y-86472911D01*
X201095951Y-86638291D01*
X201455280Y-86878387D01*
X201760863Y-87183970D01*
X202000959Y-87543299D01*
X202085173Y-87746611D01*
X202166340Y-87942566D01*
X202250650Y-88366418D01*
X202250650Y-88798580D01*
X202166339Y-89222437D01*
X202000959Y-89621701D01*
X201760863Y-89981030D01*
X201455280Y-90286613D01*
X201095951Y-90526709D01*
X200696687Y-90692089D01*
X200696686Y-90692089D01*
X200696684Y-90692090D01*
X200272832Y-90776400D01*
X199840668Y-90776400D01*
X199416816Y-90692090D01*
X199416814Y-90692089D01*
X199416813Y-90692089D01*
X199017549Y-90526709D01*
X198658220Y-90286613D01*
X198352637Y-89981030D01*
X198112541Y-89621701D01*
X197947161Y-89222437D01*
X197862850Y-88798580D01*
X197862850Y-88366418D01*
X197947160Y-87942566D01*
X198028327Y-87746611D01*
X198112541Y-87543299D01*
X198352637Y-87183970D01*
X198658220Y-86878387D01*
X199017549Y-86638291D01*
X199416813Y-86472911D01*
X199416814Y-86472911D01*
X199416816Y-86472910D01*
X199840668Y-86388600D01*
X200272832Y-86388600D01*
X200696684Y-86472910D01*
X200696684Y-86472910D01*
G37*
G36*
X134021684Y-86472910D02*
X134021686Y-86472911D01*
X134021687Y-86472911D01*
X134420951Y-86638291D01*
X134780280Y-86878387D01*
X135085863Y-87183970D01*
X135325959Y-87543299D01*
X135410173Y-87746611D01*
X135491340Y-87942566D01*
X135575650Y-88366418D01*
X135575650Y-88798580D01*
X135491339Y-89222437D01*
X135325959Y-89621701D01*
X135085863Y-89981030D01*
X134780280Y-90286613D01*
X134420951Y-90526709D01*
X134021687Y-90692089D01*
X134021686Y-90692089D01*
X134021684Y-90692090D01*
X133597832Y-90776400D01*
X133165668Y-90776400D01*
X132741816Y-90692090D01*
X132741814Y-90692089D01*
X132741813Y-90692089D01*
X132342549Y-90526709D01*
X131983220Y-90286613D01*
X131677637Y-89981030D01*
X131437541Y-89621701D01*
X131272161Y-89222437D01*
X131187850Y-88798580D01*
X131187850Y-88366418D01*
X131272160Y-87942566D01*
X131353327Y-87746611D01*
X131437541Y-87543299D01*
X131677637Y-87183970D01*
X131983220Y-86878387D01*
X132342549Y-86638291D01*
X132741813Y-86472911D01*
X132741814Y-86472911D01*
X132741816Y-86472910D01*
X133165668Y-86388600D01*
X133597832Y-86388600D01*
X134021684Y-86472910D01*
X134021684Y-86472910D01*
G37*
G36*
X110177434Y-86472910D02*
X110177436Y-86472911D01*
X110177437Y-86472911D01*
X110576701Y-86638291D01*
X110936030Y-86878387D01*
X111241613Y-87183970D01*
X111481709Y-87543299D01*
X111565923Y-87746611D01*
X111647090Y-87942566D01*
X111731400Y-88366418D01*
X111731400Y-88798580D01*
X111647089Y-89222437D01*
X111481709Y-89621701D01*
X111241613Y-89981030D01*
X110936030Y-90286613D01*
X110576701Y-90526709D01*
X110177437Y-90692089D01*
X110177436Y-90692089D01*
X110177434Y-90692090D01*
X109753582Y-90776400D01*
X109289668Y-90776400D01*
X108865816Y-90692090D01*
X108865814Y-90692089D01*
X108865813Y-90692089D01*
X108466549Y-90526709D01*
X108107220Y-90286613D01*
X107801637Y-89981030D01*
X107561541Y-89621701D01*
X107396161Y-89222437D01*
X107311850Y-88798580D01*
X107311850Y-88366418D01*
X107396160Y-87942566D01*
X107477327Y-87746611D01*
X107561541Y-87543299D01*
X107801637Y-87183970D01*
X108107220Y-86878387D01*
X108466549Y-86638291D01*
X108865813Y-86472911D01*
X108865814Y-86472911D01*
X108865816Y-86472910D01*
X109289668Y-86388600D01*
X109753582Y-86388600D01*
X110177434Y-86472910D01*
X110177434Y-86472910D01*
G37*
G36*
X176820684Y-86472910D02*
X176820686Y-86472911D01*
X176820687Y-86472911D01*
X177219951Y-86638291D01*
X177579280Y-86878387D01*
X177884863Y-87183970D01*
X178124959Y-87543299D01*
X178209173Y-87746611D01*
X178290340Y-87942566D01*
X178374650Y-88366418D01*
X178374650Y-88798580D01*
X178290339Y-89222437D01*
X178124959Y-89621701D01*
X177884863Y-89981030D01*
X177579280Y-90286613D01*
X177219951Y-90526709D01*
X176820687Y-90692089D01*
X176820686Y-90692089D01*
X176820684Y-90692090D01*
X176396832Y-90776400D01*
X175964668Y-90776400D01*
X175540816Y-90692090D01*
X175540814Y-90692089D01*
X175540813Y-90692089D01*
X175141549Y-90526709D01*
X174782220Y-90286613D01*
X174476637Y-89981030D01*
X174236541Y-89621701D01*
X174071161Y-89222437D01*
X173986850Y-88798580D01*
X173986850Y-88366418D01*
X174071160Y-87942566D01*
X174152327Y-87746611D01*
X174236541Y-87543299D01*
X174476637Y-87183970D01*
X174782220Y-86878387D01*
X175141549Y-86638291D01*
X175540813Y-86472911D01*
X175540814Y-86472911D01*
X175540816Y-86472910D01*
X175964668Y-86388600D01*
X176396832Y-86388600D01*
X176820684Y-86472910D01*
X176820684Y-86472910D01*
G37*
G36*
X43470684Y-83932910D02*
X43470686Y-83932911D01*
X43470687Y-83932911D01*
X43869951Y-84098291D01*
X44229280Y-84338387D01*
X44534863Y-84643970D01*
X44774959Y-85003299D01*
X44940339Y-85402563D01*
X44940340Y-85402566D01*
X45024650Y-85826418D01*
X45024650Y-86258582D01*
X44949121Y-86638291D01*
X44940339Y-86682437D01*
X44774959Y-87081701D01*
X44534863Y-87441030D01*
X44229280Y-87746613D01*
X43869951Y-87986709D01*
X43470687Y-88152089D01*
X43470686Y-88152089D01*
X43470684Y-88152090D01*
X43046832Y-88236400D01*
X42614668Y-88236400D01*
X42190816Y-88152090D01*
X42190814Y-88152089D01*
X42190813Y-88152089D01*
X41791549Y-87986709D01*
X41432220Y-87746613D01*
X41126637Y-87441030D01*
X40886541Y-87081701D01*
X40721161Y-86682437D01*
X40712380Y-86638291D01*
X40636850Y-86258582D01*
X40636850Y-85826418D01*
X40721160Y-85402566D01*
X40721161Y-85402563D01*
X40886541Y-85003299D01*
X41126637Y-84643970D01*
X41432220Y-84338387D01*
X41791549Y-84098291D01*
X42190813Y-83932911D01*
X42190814Y-83932911D01*
X42190816Y-83932910D01*
X42614668Y-83848600D01*
X43046832Y-83848600D01*
X43470684Y-83932910D01*
X43470684Y-83932910D01*
G37*
G36*
X267371684Y-83932910D02*
X267371686Y-83932911D01*
X267371687Y-83932911D01*
X267770951Y-84098291D01*
X268130280Y-84338387D01*
X268435863Y-84643970D01*
X268675959Y-85003299D01*
X268841339Y-85402563D01*
X268841340Y-85402566D01*
X268925650Y-85826418D01*
X268925650Y-86258582D01*
X268850121Y-86638291D01*
X268841339Y-86682437D01*
X268675959Y-87081701D01*
X268435863Y-87441030D01*
X268130280Y-87746613D01*
X267770951Y-87986709D01*
X267371687Y-88152089D01*
X267371686Y-88152089D01*
X267371684Y-88152090D01*
X266947832Y-88236400D01*
X266515668Y-88236400D01*
X266091816Y-88152090D01*
X266091814Y-88152089D01*
X266091813Y-88152089D01*
X265692549Y-87986709D01*
X265333220Y-87746613D01*
X265027637Y-87441030D01*
X264787541Y-87081701D01*
X264622161Y-86682437D01*
X264613380Y-86638291D01*
X264537850Y-86258582D01*
X264537850Y-85826418D01*
X264622160Y-85402566D01*
X264622161Y-85402563D01*
X264787541Y-85003299D01*
X265027637Y-84643970D01*
X265333220Y-84338387D01*
X265692549Y-84098291D01*
X266091813Y-83932911D01*
X266091814Y-83932911D01*
X266091816Y-83932910D01*
X266515668Y-83848600D01*
X266947832Y-83848600D01*
X267371684Y-83932910D01*
X267371684Y-83932910D01*
G37*
G36*
X243495684Y-83932910D02*
X243495686Y-83932911D01*
X243495687Y-83932911D01*
X243894951Y-84098291D01*
X244254280Y-84338387D01*
X244559863Y-84643970D01*
X244799959Y-85003299D01*
X244965339Y-85402563D01*
X244965340Y-85402566D01*
X245049650Y-85826418D01*
X245049650Y-86258582D01*
X244974121Y-86638291D01*
X244965339Y-86682437D01*
X244799959Y-87081701D01*
X244559863Y-87441030D01*
X244254280Y-87746613D01*
X243894951Y-87986709D01*
X243495687Y-88152089D01*
X243495686Y-88152089D01*
X243495684Y-88152090D01*
X243071832Y-88236400D01*
X242639668Y-88236400D01*
X242215816Y-88152090D01*
X242215814Y-88152089D01*
X242215813Y-88152089D01*
X241816549Y-87986709D01*
X241457220Y-87746613D01*
X241151637Y-87441030D01*
X240911541Y-87081701D01*
X240746161Y-86682437D01*
X240737380Y-86638291D01*
X240661850Y-86258582D01*
X240661850Y-85826418D01*
X240746160Y-85402566D01*
X240746161Y-85402563D01*
X240911541Y-85003299D01*
X241151637Y-84643970D01*
X241457220Y-84338387D01*
X241816549Y-84098291D01*
X242215813Y-83932911D01*
X242215814Y-83932911D01*
X242215816Y-83932910D01*
X242639668Y-83848600D01*
X243071832Y-83848600D01*
X243495684Y-83932910D01*
X243495684Y-83932910D01*
G37*
G36*
X67346684Y-83932910D02*
X67346686Y-83932911D01*
X67346687Y-83932911D01*
X67745951Y-84098291D01*
X68105280Y-84338387D01*
X68410863Y-84643970D01*
X68650959Y-85003299D01*
X68816339Y-85402563D01*
X68816340Y-85402566D01*
X68900650Y-85826418D01*
X68900650Y-86258582D01*
X68825121Y-86638291D01*
X68816339Y-86682437D01*
X68650959Y-87081701D01*
X68410863Y-87441030D01*
X68105280Y-87746613D01*
X67745951Y-87986709D01*
X67346687Y-88152089D01*
X67346686Y-88152089D01*
X67346684Y-88152090D01*
X66922832Y-88236400D01*
X66490668Y-88236400D01*
X66066816Y-88152090D01*
X66066814Y-88152089D01*
X66066813Y-88152089D01*
X65667549Y-87986709D01*
X65308220Y-87746613D01*
X65002637Y-87441030D01*
X64762541Y-87081701D01*
X64597161Y-86682437D01*
X64588380Y-86638291D01*
X64512850Y-86258582D01*
X64512850Y-85826418D01*
X64597160Y-85402566D01*
X64597161Y-85402563D01*
X64762541Y-85003299D01*
X65002637Y-84643970D01*
X65308220Y-84338387D01*
X65667549Y-84098291D01*
X66066813Y-83932911D01*
X66066814Y-83932911D01*
X66066816Y-83932910D01*
X66490668Y-83848600D01*
X66922832Y-83848600D01*
X67346684Y-83932910D01*
X67346684Y-83932910D01*
G37*
G36*
X219714934Y-75677910D02*
X219714936Y-75677911D01*
X219714937Y-75677911D01*
X220114201Y-75843291D01*
X220473530Y-76083387D01*
X220779113Y-76388970D01*
X221019209Y-76748299D01*
X221184589Y-77147563D01*
X221268900Y-77571420D01*
X221268900Y-78003580D01*
X221184589Y-78427437D01*
X221019209Y-78826701D01*
X220779113Y-79186030D01*
X220473530Y-79491613D01*
X220114201Y-79731709D01*
X219714937Y-79897089D01*
X219714936Y-79897089D01*
X219714934Y-79897090D01*
X219291082Y-79981400D01*
X218858918Y-79981400D01*
X218435066Y-79897090D01*
X218435064Y-79897089D01*
X218435063Y-79897089D01*
X218035799Y-79731709D01*
X217676470Y-79491613D01*
X217370887Y-79186030D01*
X217130791Y-78826701D01*
X216965411Y-78427437D01*
X216881100Y-78003580D01*
X216881100Y-77571420D01*
X216965411Y-77147563D01*
X217130791Y-76748299D01*
X217370887Y-76388970D01*
X217676470Y-76083387D01*
X218035799Y-75843291D01*
X218435063Y-75677911D01*
X218435064Y-75677911D01*
X218435066Y-75677910D01*
X218858918Y-75593600D01*
X219291082Y-75593600D01*
X219714934Y-75677910D01*
X219714934Y-75677910D01*
G37*
G36*
X255433684Y-75677910D02*
X255433686Y-75677911D01*
X255433687Y-75677911D01*
X255832951Y-75843291D01*
X256192280Y-76083387D01*
X256497863Y-76388970D01*
X256737959Y-76748299D01*
X256903339Y-77147563D01*
X256987650Y-77571420D01*
X256987650Y-78003580D01*
X256903339Y-78427437D01*
X256737959Y-78826701D01*
X256497863Y-79186030D01*
X256192280Y-79491613D01*
X255832951Y-79731709D01*
X255433687Y-79897089D01*
X255433686Y-79897089D01*
X255433684Y-79897090D01*
X255009832Y-79981400D01*
X254577668Y-79981400D01*
X254153816Y-79897090D01*
X254153814Y-79897089D01*
X254153813Y-79897089D01*
X253754549Y-79731709D01*
X253395220Y-79491613D01*
X253089637Y-79186030D01*
X252849541Y-78826701D01*
X252684161Y-78427437D01*
X252599850Y-78003580D01*
X252599850Y-77571420D01*
X252684161Y-77147563D01*
X252849541Y-76748299D01*
X253089637Y-76388970D01*
X253395220Y-76083387D01*
X253754549Y-75843291D01*
X254153813Y-75677911D01*
X254153814Y-75677911D01*
X254153816Y-75677910D01*
X254577668Y-75593600D01*
X255009832Y-75593600D01*
X255433684Y-75677910D01*
X255433684Y-75677910D01*
G37*
G36*
X162564934Y-75677910D02*
X162564936Y-75677911D01*
X162564937Y-75677911D01*
X162964201Y-75843291D01*
X163323530Y-76083387D01*
X163629113Y-76388970D01*
X163869209Y-76748299D01*
X164034589Y-77147563D01*
X164118900Y-77571420D01*
X164118900Y-78003580D01*
X164034589Y-78427437D01*
X163869209Y-78826701D01*
X163629113Y-79186030D01*
X163323530Y-79491613D01*
X162964201Y-79731709D01*
X162564937Y-79897089D01*
X162564936Y-79897089D01*
X162564934Y-79897090D01*
X162141082Y-79981400D01*
X161708918Y-79981400D01*
X161285066Y-79897090D01*
X161285064Y-79897089D01*
X161285063Y-79897089D01*
X160885799Y-79731709D01*
X160526470Y-79491613D01*
X160220887Y-79186030D01*
X159980791Y-78826701D01*
X159815411Y-78427437D01*
X159731100Y-78003580D01*
X159731100Y-77571420D01*
X159815411Y-77147563D01*
X159980791Y-76748299D01*
X160220887Y-76388970D01*
X160526470Y-76083387D01*
X160885799Y-75843291D01*
X161285063Y-75677911D01*
X161285064Y-75677911D01*
X161285066Y-75677910D01*
X161708918Y-75593600D01*
X162141082Y-75593600D01*
X162564934Y-75677910D01*
X162564934Y-75677910D01*
G37*
G36*
X67314934Y-75677910D02*
X67314936Y-75677911D01*
X67314937Y-75677911D01*
X67714201Y-75843291D01*
X68073530Y-76083387D01*
X68379113Y-76388970D01*
X68619209Y-76748299D01*
X68784589Y-77147563D01*
X68868900Y-77571420D01*
X68868900Y-78003580D01*
X68784589Y-78427437D01*
X68619209Y-78826701D01*
X68379113Y-79186030D01*
X68073530Y-79491613D01*
X67714201Y-79731709D01*
X67314937Y-79897089D01*
X67314936Y-79897089D01*
X67314934Y-79897090D01*
X66891082Y-79981400D01*
X66458918Y-79981400D01*
X66035066Y-79897090D01*
X66035064Y-79897089D01*
X66035063Y-79897089D01*
X65635799Y-79731709D01*
X65276470Y-79491613D01*
X64970887Y-79186030D01*
X64730791Y-78826701D01*
X64565411Y-78427437D01*
X64481100Y-78003580D01*
X64481100Y-77571420D01*
X64565411Y-77147563D01*
X64730791Y-76748299D01*
X64970887Y-76388970D01*
X65276470Y-76083387D01*
X65635799Y-75843291D01*
X66035063Y-75677911D01*
X66035064Y-75677911D01*
X66035066Y-75677910D01*
X66458918Y-75593600D01*
X66891082Y-75593600D01*
X67314934Y-75677910D01*
X67314934Y-75677910D01*
G37*
G36*
X181614934Y-75677910D02*
X181614936Y-75677911D01*
X181614937Y-75677911D01*
X182014201Y-75843291D01*
X182373530Y-76083387D01*
X182679113Y-76388970D01*
X182919209Y-76748299D01*
X183084589Y-77147563D01*
X183168900Y-77571420D01*
X183168900Y-78003580D01*
X183084589Y-78427437D01*
X182919209Y-78826701D01*
X182679113Y-79186030D01*
X182373530Y-79491613D01*
X182014201Y-79731709D01*
X181614937Y-79897089D01*
X181614936Y-79897089D01*
X181614934Y-79897090D01*
X181191082Y-79981400D01*
X180758918Y-79981400D01*
X180335066Y-79897090D01*
X180335064Y-79897089D01*
X180335063Y-79897089D01*
X179935799Y-79731709D01*
X179576470Y-79491613D01*
X179270887Y-79186030D01*
X179030791Y-78826701D01*
X178865411Y-78427437D01*
X178781100Y-78003580D01*
X178781100Y-77571420D01*
X178865411Y-77147563D01*
X179030791Y-76748299D01*
X179270887Y-76388970D01*
X179576470Y-76083387D01*
X179935799Y-75843291D01*
X180335063Y-75677911D01*
X180335064Y-75677911D01*
X180335066Y-75677910D01*
X180758918Y-75593600D01*
X181191082Y-75593600D01*
X181614934Y-75677910D01*
X181614934Y-75677910D01*
G37*
G36*
X86364934Y-75677910D02*
X86364936Y-75677911D01*
X86364937Y-75677911D01*
X86764201Y-75843291D01*
X87123530Y-76083387D01*
X87429113Y-76388970D01*
X87669209Y-76748299D01*
X87834589Y-77147563D01*
X87918900Y-77571420D01*
X87918900Y-78003580D01*
X87834589Y-78427437D01*
X87669209Y-78826701D01*
X87429113Y-79186030D01*
X87123530Y-79491613D01*
X86764201Y-79731709D01*
X86364937Y-79897089D01*
X86364936Y-79897089D01*
X86364934Y-79897090D01*
X85941082Y-79981400D01*
X85508918Y-79981400D01*
X85085066Y-79897090D01*
X85085064Y-79897089D01*
X85085063Y-79897089D01*
X84685799Y-79731709D01*
X84326470Y-79491613D01*
X84020887Y-79186030D01*
X83780791Y-78826701D01*
X83615411Y-78427437D01*
X83531100Y-78003580D01*
X83531100Y-77571420D01*
X83615411Y-77147563D01*
X83780791Y-76748299D01*
X84020887Y-76388970D01*
X84326470Y-76083387D01*
X84685799Y-75843291D01*
X85085063Y-75677911D01*
X85085064Y-75677911D01*
X85085066Y-75677910D01*
X85508918Y-75593600D01*
X85941082Y-75593600D01*
X86364934Y-75677910D01*
X86364934Y-75677910D01*
G37*
G36*
X55408684Y-75677910D02*
X55408686Y-75677911D01*
X55408687Y-75677911D01*
X55807951Y-75843291D01*
X56167280Y-76083387D01*
X56472863Y-76388970D01*
X56712959Y-76748299D01*
X56878339Y-77147563D01*
X56962650Y-77571420D01*
X56962650Y-78003580D01*
X56878339Y-78427437D01*
X56712959Y-78826701D01*
X56472863Y-79186030D01*
X56167280Y-79491613D01*
X55807951Y-79731709D01*
X55408687Y-79897089D01*
X55408686Y-79897089D01*
X55408684Y-79897090D01*
X54984832Y-79981400D01*
X54552668Y-79981400D01*
X54128816Y-79897090D01*
X54128814Y-79897089D01*
X54128813Y-79897089D01*
X53729549Y-79731709D01*
X53370220Y-79491613D01*
X53064637Y-79186030D01*
X52824541Y-78826701D01*
X52659161Y-78427437D01*
X52574850Y-78003580D01*
X52574850Y-77571420D01*
X52659161Y-77147563D01*
X52824541Y-76748299D01*
X53064637Y-76388970D01*
X53370220Y-76083387D01*
X53729549Y-75843291D01*
X54128813Y-75677911D01*
X54128814Y-75677911D01*
X54128816Y-75677910D01*
X54552668Y-75593600D01*
X54984832Y-75593600D01*
X55408684Y-75677910D01*
X55408684Y-75677910D01*
G37*
G36*
X238764934Y-75677910D02*
X238764936Y-75677911D01*
X238764937Y-75677911D01*
X239164201Y-75843291D01*
X239523530Y-76083387D01*
X239829113Y-76388970D01*
X240008173Y-76656952D01*
X240023714Y-76675888D01*
X240042656Y-76691434D01*
X240064266Y-76702985D01*
X240087716Y-76710098D01*
X240112102Y-76712500D01*
X240294628Y-76712500D01*
X240502316Y-76753812D01*
X240697953Y-76834847D01*
X240874025Y-76952495D01*
X241023755Y-77102225D01*
X241141403Y-77278297D01*
X241222438Y-77473934D01*
X241263750Y-77681622D01*
X241263750Y-77893378D01*
X241222438Y-78101066D01*
X241141403Y-78296703D01*
X241023755Y-78472775D01*
X240874025Y-78622505D01*
X240697953Y-78740153D01*
X240502316Y-78821188D01*
X240294628Y-78862500D01*
X240112102Y-78862500D01*
X240087716Y-78864902D01*
X240064267Y-78872015D01*
X240042656Y-78883566D01*
X240023714Y-78899112D01*
X240008173Y-78918048D01*
X239829113Y-79186030D01*
X239523530Y-79491613D01*
X239164201Y-79731709D01*
X238764937Y-79897089D01*
X238764936Y-79897089D01*
X238764934Y-79897090D01*
X238341082Y-79981400D01*
X237908918Y-79981400D01*
X237485066Y-79897090D01*
X237485064Y-79897089D01*
X237485063Y-79897089D01*
X237085799Y-79731709D01*
X236726470Y-79491613D01*
X236420887Y-79186030D01*
X236180791Y-78826701D01*
X236015411Y-78427437D01*
X235931100Y-78003580D01*
X235931100Y-77571420D01*
X236015411Y-77147563D01*
X236180791Y-76748299D01*
X236420887Y-76388970D01*
X236726470Y-76083387D01*
X237085799Y-75843291D01*
X237485063Y-75677911D01*
X237485064Y-75677911D01*
X237485066Y-75677910D01*
X237908918Y-75593600D01*
X238341082Y-75593600D01*
X238764934Y-75677910D01*
X238764934Y-75677910D01*
G37*
G36*
X264958684Y-75677910D02*
X264958686Y-75677911D01*
X264958687Y-75677911D01*
X265357951Y-75843291D01*
X265717280Y-76083387D01*
X266022863Y-76388970D01*
X266201923Y-76656952D01*
X266217464Y-76675888D01*
X266236406Y-76691434D01*
X266258016Y-76702985D01*
X266281466Y-76710098D01*
X266305852Y-76712500D01*
X266488378Y-76712500D01*
X266696066Y-76753812D01*
X266891703Y-76834847D01*
X267067775Y-76952495D01*
X267217505Y-77102225D01*
X267335153Y-77278297D01*
X267416188Y-77473934D01*
X267457500Y-77681622D01*
X267457500Y-77893378D01*
X267416188Y-78101066D01*
X267335153Y-78296703D01*
X267217505Y-78472775D01*
X267067775Y-78622505D01*
X266891703Y-78740153D01*
X266696066Y-78821188D01*
X266488378Y-78862500D01*
X266305852Y-78862500D01*
X266281466Y-78864902D01*
X266258017Y-78872015D01*
X266236406Y-78883566D01*
X266217464Y-78899112D01*
X266201923Y-78918048D01*
X266022863Y-79186030D01*
X265717280Y-79491613D01*
X265357951Y-79731709D01*
X264958687Y-79897089D01*
X264958686Y-79897089D01*
X264958684Y-79897090D01*
X264534832Y-79981400D01*
X264102668Y-79981400D01*
X263678816Y-79897090D01*
X263678814Y-79897089D01*
X263678813Y-79897089D01*
X263279549Y-79731709D01*
X262920220Y-79491613D01*
X262614637Y-79186030D01*
X262374541Y-78826701D01*
X262209161Y-78427437D01*
X262124850Y-78003580D01*
X262124850Y-77571420D01*
X262209161Y-77147563D01*
X262374541Y-76748299D01*
X262614637Y-76388970D01*
X262920220Y-76083387D01*
X263279549Y-75843291D01*
X263678813Y-75677911D01*
X263678814Y-75677911D01*
X263678816Y-75677910D01*
X264102668Y-75593600D01*
X264534832Y-75593600D01*
X264958684Y-75677910D01*
X264958684Y-75677910D01*
G37*
G36*
X245908684Y-75677910D02*
X245908686Y-75677911D01*
X245908687Y-75677911D01*
X246307951Y-75843291D01*
X246667280Y-76083387D01*
X246972863Y-76388970D01*
X247212959Y-76748299D01*
X247378339Y-77147563D01*
X247462650Y-77571420D01*
X247462650Y-78003580D01*
X247378339Y-78427437D01*
X247212959Y-78826701D01*
X246972863Y-79186030D01*
X246667280Y-79491613D01*
X246307951Y-79731709D01*
X245908687Y-79897089D01*
X245908686Y-79897089D01*
X245908684Y-79897090D01*
X245484832Y-79981400D01*
X245052668Y-79981400D01*
X244628816Y-79897090D01*
X244628814Y-79897089D01*
X244628813Y-79897089D01*
X244229549Y-79731709D01*
X243870220Y-79491613D01*
X243564637Y-79186030D01*
X243385577Y-78918048D01*
X243370036Y-78899112D01*
X243351094Y-78883566D01*
X243329484Y-78872015D01*
X243306034Y-78864902D01*
X243281648Y-78862500D01*
X243099122Y-78862500D01*
X242891434Y-78821188D01*
X242695797Y-78740153D01*
X242519725Y-78622505D01*
X242369995Y-78472775D01*
X242252347Y-78296703D01*
X242171312Y-78101066D01*
X242130000Y-77893378D01*
X242130000Y-77681622D01*
X242171312Y-77473934D01*
X242252347Y-77278297D01*
X242369995Y-77102225D01*
X242519725Y-76952495D01*
X242695797Y-76834847D01*
X242891434Y-76753812D01*
X243099122Y-76712500D01*
X243281648Y-76712500D01*
X243306034Y-76710098D01*
X243329483Y-76702985D01*
X243351094Y-76691434D01*
X243370036Y-76675888D01*
X243385577Y-76656952D01*
X243564637Y-76388970D01*
X243870220Y-76083387D01*
X244229549Y-75843291D01*
X244628813Y-75677911D01*
X244628814Y-75677911D01*
X244628816Y-75677910D01*
X245052668Y-75593600D01*
X245484832Y-75593600D01*
X245908684Y-75677910D01*
X245908684Y-75677910D01*
G37*
G36*
X45883684Y-75677910D02*
X45883686Y-75677911D01*
X45883687Y-75677911D01*
X46282951Y-75843291D01*
X46642280Y-76083387D01*
X46947863Y-76388970D01*
X47187959Y-76748299D01*
X47353339Y-77147563D01*
X47437650Y-77571420D01*
X47437650Y-78003580D01*
X47353339Y-78427437D01*
X47187959Y-78826701D01*
X46947863Y-79186030D01*
X46642280Y-79491613D01*
X46282951Y-79731709D01*
X45883687Y-79897089D01*
X45883686Y-79897089D01*
X45883684Y-79897090D01*
X45459832Y-79981400D01*
X45027668Y-79981400D01*
X44603816Y-79897090D01*
X44603814Y-79897089D01*
X44603813Y-79897089D01*
X44204549Y-79731709D01*
X43845220Y-79491613D01*
X43539637Y-79186030D01*
X43299541Y-78826701D01*
X43134161Y-78427437D01*
X43049850Y-78003580D01*
X43049850Y-77571420D01*
X43134161Y-77147563D01*
X43299541Y-76748299D01*
X43539637Y-76388970D01*
X43845220Y-76083387D01*
X44204549Y-75843291D01*
X44603813Y-75677911D01*
X44603814Y-75677911D01*
X44603816Y-75677910D01*
X45027668Y-75593600D01*
X45459832Y-75593600D01*
X45883684Y-75677910D01*
X45883684Y-75677910D01*
G37*
G36*
X105414934Y-75677910D02*
X105414936Y-75677911D01*
X105414937Y-75677911D01*
X105814201Y-75843291D01*
X106173530Y-76083387D01*
X106479113Y-76388970D01*
X106719209Y-76748299D01*
X106884589Y-77147563D01*
X106968900Y-77571420D01*
X106968900Y-78003580D01*
X106884589Y-78427437D01*
X106719209Y-78826701D01*
X106479113Y-79186030D01*
X106173530Y-79491613D01*
X105814201Y-79731709D01*
X105414937Y-79897089D01*
X105414936Y-79897089D01*
X105414934Y-79897090D01*
X104991082Y-79981400D01*
X104558918Y-79981400D01*
X104135066Y-79897090D01*
X104135064Y-79897089D01*
X104135063Y-79897089D01*
X103735799Y-79731709D01*
X103376470Y-79491613D01*
X103070887Y-79186030D01*
X102830791Y-78826701D01*
X102665411Y-78427437D01*
X102581100Y-78003580D01*
X102581100Y-77571420D01*
X102665411Y-77147563D01*
X102830791Y-76748299D01*
X103070887Y-76388970D01*
X103376470Y-76083387D01*
X103735799Y-75843291D01*
X104135063Y-75677911D01*
X104135064Y-75677911D01*
X104135066Y-75677910D01*
X104558918Y-75593600D01*
X104991082Y-75593600D01*
X105414934Y-75677910D01*
X105414934Y-75677910D01*
G37*
G36*
X124464934Y-75677910D02*
X124464936Y-75677911D01*
X124464937Y-75677911D01*
X124864201Y-75843291D01*
X125223530Y-76083387D01*
X125529113Y-76388970D01*
X125769209Y-76748299D01*
X125934589Y-77147563D01*
X126018900Y-77571420D01*
X126018900Y-78003580D01*
X125934589Y-78427437D01*
X125769209Y-78826701D01*
X125529113Y-79186030D01*
X125223530Y-79491613D01*
X124864201Y-79731709D01*
X124464937Y-79897089D01*
X124464936Y-79897089D01*
X124464934Y-79897090D01*
X124041082Y-79981400D01*
X123608918Y-79981400D01*
X123185066Y-79897090D01*
X123185064Y-79897089D01*
X123185063Y-79897089D01*
X122785799Y-79731709D01*
X122426470Y-79491613D01*
X122120887Y-79186030D01*
X121880791Y-78826701D01*
X121715411Y-78427437D01*
X121631100Y-78003580D01*
X121631100Y-77571420D01*
X121715411Y-77147563D01*
X121880791Y-76748299D01*
X122120887Y-76388970D01*
X122426470Y-76083387D01*
X122785799Y-75843291D01*
X123185063Y-75677911D01*
X123185064Y-75677911D01*
X123185066Y-75677910D01*
X123608918Y-75593600D01*
X124041082Y-75593600D01*
X124464934Y-75677910D01*
X124464934Y-75677910D01*
G37*
G36*
X272102434Y-75677910D02*
X272102436Y-75677911D01*
X272102437Y-75677911D01*
X272501701Y-75843291D01*
X272861030Y-76083387D01*
X273166613Y-76388970D01*
X273406709Y-76748299D01*
X273572089Y-77147563D01*
X273656400Y-77571420D01*
X273656400Y-78003580D01*
X273572089Y-78427437D01*
X273406709Y-78826701D01*
X273166613Y-79186030D01*
X272861030Y-79491613D01*
X272501701Y-79731709D01*
X272102437Y-79897089D01*
X272102436Y-79897089D01*
X272102434Y-79897090D01*
X271678582Y-79981400D01*
X271246418Y-79981400D01*
X270822566Y-79897090D01*
X270822564Y-79897089D01*
X270822563Y-79897089D01*
X270423299Y-79731709D01*
X270063970Y-79491613D01*
X269758387Y-79186030D01*
X269579327Y-78918048D01*
X269563786Y-78899112D01*
X269544844Y-78883566D01*
X269523234Y-78872015D01*
X269499784Y-78864902D01*
X269475398Y-78862500D01*
X269292872Y-78862500D01*
X269085184Y-78821188D01*
X268889547Y-78740153D01*
X268713475Y-78622505D01*
X268563745Y-78472775D01*
X268446097Y-78296703D01*
X268365062Y-78101066D01*
X268323750Y-77893378D01*
X268323750Y-77681622D01*
X268365062Y-77473934D01*
X268446097Y-77278297D01*
X268563745Y-77102225D01*
X268713475Y-76952495D01*
X268889547Y-76834847D01*
X269085184Y-76753812D01*
X269292872Y-76712500D01*
X269475398Y-76712500D01*
X269499784Y-76710098D01*
X269523233Y-76702985D01*
X269544844Y-76691434D01*
X269563786Y-76675888D01*
X269579327Y-76656952D01*
X269758387Y-76388970D01*
X270063970Y-76083387D01*
X270423299Y-75843291D01*
X270822563Y-75677911D01*
X270822564Y-75677911D01*
X270822566Y-75677910D01*
X271246418Y-75593600D01*
X271678582Y-75593600D01*
X272102434Y-75677910D01*
X272102434Y-75677910D01*
G37*
G36*
X200664934Y-75677910D02*
X200664936Y-75677911D01*
X200664937Y-75677911D01*
X201064201Y-75843291D01*
X201423530Y-76083387D01*
X201729113Y-76388970D01*
X201969209Y-76748299D01*
X202134589Y-77147563D01*
X202218900Y-77571420D01*
X202218900Y-78003580D01*
X202134589Y-78427437D01*
X201969209Y-78826701D01*
X201729113Y-79186030D01*
X201423530Y-79491613D01*
X201064201Y-79731709D01*
X200664937Y-79897089D01*
X200664936Y-79897089D01*
X200664934Y-79897090D01*
X200241082Y-79981400D01*
X199808918Y-79981400D01*
X199385066Y-79897090D01*
X199385064Y-79897089D01*
X199385063Y-79897089D01*
X198985799Y-79731709D01*
X198626470Y-79491613D01*
X198320887Y-79186030D01*
X198080791Y-78826701D01*
X197915411Y-78427437D01*
X197831100Y-78003580D01*
X197831100Y-77571420D01*
X197915411Y-77147563D01*
X198080791Y-76748299D01*
X198320887Y-76388970D01*
X198626470Y-76083387D01*
X198985799Y-75843291D01*
X199385063Y-75677911D01*
X199385064Y-75677911D01*
X199385066Y-75677910D01*
X199808918Y-75593600D01*
X200241082Y-75593600D01*
X200664934Y-75677910D01*
X200664934Y-75677910D01*
G37*
G36*
X143514934Y-75677910D02*
X143514936Y-75677911D01*
X143514937Y-75677911D01*
X143914201Y-75843291D01*
X144273530Y-76083387D01*
X144579113Y-76388970D01*
X144819209Y-76748299D01*
X144984589Y-77147563D01*
X145068900Y-77571420D01*
X145068900Y-78003580D01*
X144984589Y-78427437D01*
X144819209Y-78826701D01*
X144579113Y-79186030D01*
X144273530Y-79491613D01*
X143914201Y-79731709D01*
X143514937Y-79897089D01*
X143514936Y-79897089D01*
X143514934Y-79897090D01*
X143091082Y-79981400D01*
X142658918Y-79981400D01*
X142235066Y-79897090D01*
X142235064Y-79897089D01*
X142235063Y-79897089D01*
X141835799Y-79731709D01*
X141476470Y-79491613D01*
X141170887Y-79186030D01*
X140930791Y-78826701D01*
X140765411Y-78427437D01*
X140681100Y-78003580D01*
X140681100Y-77571420D01*
X140765411Y-77147563D01*
X140930791Y-76748299D01*
X141170887Y-76388970D01*
X141476470Y-76083387D01*
X141835799Y-75843291D01*
X142235063Y-75677911D01*
X142235064Y-75677911D01*
X142235066Y-75677910D01*
X142658918Y-75593600D01*
X143091082Y-75593600D01*
X143514934Y-75677910D01*
X143514934Y-75677910D01*
G37*
G36*
X119058566Y-76753812D02*
X119254203Y-76834847D01*
X119430275Y-76952495D01*
X119580005Y-77102225D01*
X119697653Y-77278297D01*
X119778688Y-77473934D01*
X119820000Y-77681622D01*
X119820000Y-77893378D01*
X119778688Y-78101066D01*
X119697653Y-78296703D01*
X119580005Y-78472775D01*
X119430275Y-78622505D01*
X119254203Y-78740153D01*
X119058566Y-78821188D01*
X118850878Y-78862500D01*
X118639122Y-78862500D01*
X118431434Y-78821188D01*
X118235797Y-78740153D01*
X118059725Y-78622505D01*
X117909995Y-78472775D01*
X117792347Y-78296703D01*
X117711312Y-78101066D01*
X117670000Y-77893378D01*
X117670000Y-77681622D01*
X117711312Y-77473934D01*
X117792347Y-77278297D01*
X117909995Y-77102225D01*
X118059725Y-76952495D01*
X118235797Y-76834847D01*
X118431434Y-76753812D01*
X118639122Y-76712500D01*
X118850878Y-76712500D01*
X119058566Y-76753812D01*
X119058566Y-76753812D01*
G37*
G36*
X233358566Y-76753812D02*
X233554203Y-76834847D01*
X233730275Y-76952495D01*
X233880005Y-77102225D01*
X233997653Y-77278297D01*
X234078688Y-77473934D01*
X234120000Y-77681622D01*
X234120000Y-77893378D01*
X234078688Y-78101066D01*
X233997653Y-78296703D01*
X233880005Y-78472775D01*
X233730275Y-78622505D01*
X233554203Y-78740153D01*
X233358566Y-78821188D01*
X233150878Y-78862500D01*
X232939122Y-78862500D01*
X232731434Y-78821188D01*
X232535797Y-78740153D01*
X232359725Y-78622505D01*
X232209995Y-78472775D01*
X232092347Y-78296703D01*
X232011312Y-78101066D01*
X231970000Y-77893378D01*
X231970000Y-77681622D01*
X232011312Y-77473934D01*
X232092347Y-77278297D01*
X232209995Y-77102225D01*
X232359725Y-76952495D01*
X232535797Y-76834847D01*
X232731434Y-76753812D01*
X232939122Y-76712500D01*
X233150878Y-76712500D01*
X233358566Y-76753812D01*
X233358566Y-76753812D01*
G37*
G36*
X214308566Y-76753812D02*
X214504203Y-76834847D01*
X214680275Y-76952495D01*
X214830005Y-77102225D01*
X214947653Y-77278297D01*
X215028688Y-77473934D01*
X215070000Y-77681622D01*
X215070000Y-77893378D01*
X215028688Y-78101066D01*
X214947653Y-78296703D01*
X214830005Y-78472775D01*
X214680275Y-78622505D01*
X214504203Y-78740153D01*
X214308566Y-78821188D01*
X214100878Y-78862500D01*
X213889122Y-78862500D01*
X213681434Y-78821188D01*
X213485797Y-78740153D01*
X213309725Y-78622505D01*
X213159995Y-78472775D01*
X213042347Y-78296703D01*
X212961312Y-78101066D01*
X212920000Y-77893378D01*
X212920000Y-77681622D01*
X212961312Y-77473934D01*
X213042347Y-77278297D01*
X213159995Y-77102225D01*
X213309725Y-76952495D01*
X213485797Y-76834847D01*
X213681434Y-76753812D01*
X213889122Y-76712500D01*
X214100878Y-76712500D01*
X214308566Y-76753812D01*
X214308566Y-76753812D01*
G37*
G36*
X72068566Y-76753812D02*
X72264203Y-76834847D01*
X72440275Y-76952495D01*
X72590005Y-77102225D01*
X72707653Y-77278297D01*
X72788688Y-77473934D01*
X72830000Y-77681622D01*
X72830000Y-77893378D01*
X72788688Y-78101066D01*
X72707653Y-78296703D01*
X72590005Y-78472775D01*
X72440275Y-78622505D01*
X72264203Y-78740153D01*
X72068566Y-78821188D01*
X71860878Y-78862500D01*
X71649122Y-78862500D01*
X71441434Y-78821188D01*
X71245797Y-78740153D01*
X71069725Y-78622505D01*
X70919995Y-78472775D01*
X70802347Y-78296703D01*
X70721312Y-78101066D01*
X70680000Y-77893378D01*
X70680000Y-77681622D01*
X70721312Y-77473934D01*
X70802347Y-77278297D01*
X70919995Y-77102225D01*
X71069725Y-76952495D01*
X71245797Y-76834847D01*
X71441434Y-76753812D01*
X71649122Y-76712500D01*
X71860878Y-76712500D01*
X72068566Y-76753812D01*
X72068566Y-76753812D01*
G37*
G36*
X80958566Y-76753812D02*
X81154203Y-76834847D01*
X81330275Y-76952495D01*
X81480005Y-77102225D01*
X81597653Y-77278297D01*
X81678688Y-77473934D01*
X81720000Y-77681622D01*
X81720000Y-77893378D01*
X81678688Y-78101066D01*
X81597653Y-78296703D01*
X81480005Y-78472775D01*
X81330275Y-78622505D01*
X81154203Y-78740153D01*
X80958566Y-78821188D01*
X80750878Y-78862500D01*
X80539122Y-78862500D01*
X80331434Y-78821188D01*
X80135797Y-78740153D01*
X79959725Y-78622505D01*
X79809995Y-78472775D01*
X79692347Y-78296703D01*
X79611312Y-78101066D01*
X79570000Y-77893378D01*
X79570000Y-77681622D01*
X79611312Y-77473934D01*
X79692347Y-77278297D01*
X79809995Y-77102225D01*
X79959725Y-76952495D01*
X80135797Y-76834847D01*
X80331434Y-76753812D01*
X80539122Y-76712500D01*
X80750878Y-76712500D01*
X80958566Y-76753812D01*
X80958566Y-76753812D01*
G37*
G36*
X91118566Y-76753812D02*
X91314203Y-76834847D01*
X91490275Y-76952495D01*
X91640005Y-77102225D01*
X91757653Y-77278297D01*
X91838688Y-77473934D01*
X91880000Y-77681622D01*
X91880000Y-77893378D01*
X91838688Y-78101066D01*
X91757653Y-78296703D01*
X91640005Y-78472775D01*
X91490275Y-78622505D01*
X91314203Y-78740153D01*
X91118566Y-78821188D01*
X90910878Y-78862500D01*
X90699122Y-78862500D01*
X90491434Y-78821188D01*
X90295797Y-78740153D01*
X90119725Y-78622505D01*
X89969995Y-78472775D01*
X89852347Y-78296703D01*
X89771312Y-78101066D01*
X89730000Y-77893378D01*
X89730000Y-77681622D01*
X89771312Y-77473934D01*
X89852347Y-77278297D01*
X89969995Y-77102225D01*
X90119725Y-76952495D01*
X90295797Y-76834847D01*
X90491434Y-76753812D01*
X90699122Y-76712500D01*
X90910878Y-76712500D01*
X91118566Y-76753812D01*
X91118566Y-76753812D01*
G37*
G36*
X100008566Y-76753812D02*
X100204203Y-76834847D01*
X100380275Y-76952495D01*
X100530005Y-77102225D01*
X100647653Y-77278297D01*
X100728688Y-77473934D01*
X100770000Y-77681622D01*
X100770000Y-77893378D01*
X100728688Y-78101066D01*
X100647653Y-78296703D01*
X100530005Y-78472775D01*
X100380275Y-78622505D01*
X100204203Y-78740153D01*
X100008566Y-78821188D01*
X99800878Y-78862500D01*
X99589122Y-78862500D01*
X99381434Y-78821188D01*
X99185797Y-78740153D01*
X99009725Y-78622505D01*
X98859995Y-78472775D01*
X98742347Y-78296703D01*
X98661312Y-78101066D01*
X98620000Y-77893378D01*
X98620000Y-77681622D01*
X98661312Y-77473934D01*
X98742347Y-77278297D01*
X98859995Y-77102225D01*
X99009725Y-76952495D01*
X99185797Y-76834847D01*
X99381434Y-76753812D01*
X99589122Y-76712500D01*
X99800878Y-76712500D01*
X100008566Y-76753812D01*
X100008566Y-76753812D01*
G37*
G36*
X110168566Y-76753812D02*
X110364203Y-76834847D01*
X110540275Y-76952495D01*
X110690005Y-77102225D01*
X110807653Y-77278297D01*
X110888688Y-77473934D01*
X110930000Y-77681622D01*
X110930000Y-77893378D01*
X110888688Y-78101066D01*
X110807653Y-78296703D01*
X110690005Y-78472775D01*
X110540275Y-78622505D01*
X110364203Y-78740153D01*
X110168566Y-78821188D01*
X109960878Y-78862500D01*
X109749122Y-78862500D01*
X109541434Y-78821188D01*
X109345797Y-78740153D01*
X109169725Y-78622505D01*
X109019995Y-78472775D01*
X108902347Y-78296703D01*
X108821312Y-78101066D01*
X108780000Y-77893378D01*
X108780000Y-77681622D01*
X108821312Y-77473934D01*
X108902347Y-77278297D01*
X109019995Y-77102225D01*
X109169725Y-76952495D01*
X109345797Y-76834847D01*
X109541434Y-76753812D01*
X109749122Y-76712500D01*
X109960878Y-76712500D01*
X110168566Y-76753812D01*
X110168566Y-76753812D01*
G37*
G36*
X259531867Y-76749744D02*
X259556250Y-76752146D01*
X259580633Y-76749744D01*
X259767872Y-76712500D01*
X259979628Y-76712500D01*
X260187316Y-76753812D01*
X260382953Y-76834847D01*
X260559025Y-76952495D01*
X260708755Y-77102225D01*
X260826403Y-77278297D01*
X260907438Y-77473934D01*
X260948750Y-77681622D01*
X260948750Y-77893378D01*
X260907438Y-78101066D01*
X260826403Y-78296703D01*
X260708755Y-78472775D01*
X260559025Y-78622505D01*
X260382953Y-78740153D01*
X260187316Y-78821188D01*
X259979628Y-78862500D01*
X259767872Y-78862500D01*
X259580633Y-78825256D01*
X259556250Y-78822854D01*
X259531867Y-78825256D01*
X259344628Y-78862500D01*
X259132872Y-78862500D01*
X258925184Y-78821188D01*
X258729547Y-78740153D01*
X258553475Y-78622505D01*
X258403745Y-78472775D01*
X258286097Y-78296703D01*
X258205062Y-78101066D01*
X258163750Y-77893378D01*
X258163750Y-77681622D01*
X258205062Y-77473934D01*
X258286097Y-77278297D01*
X258403745Y-77102225D01*
X258553475Y-76952495D01*
X258729547Y-76834847D01*
X258925184Y-76753812D01*
X259132872Y-76712500D01*
X259344628Y-76712500D01*
X259531867Y-76749744D01*
X259531867Y-76749744D01*
G37*
G36*
X276856066Y-76753812D02*
X277051703Y-76834847D01*
X277227775Y-76952495D01*
X277377505Y-77102225D01*
X277495153Y-77278297D01*
X277576188Y-77473934D01*
X277617500Y-77681622D01*
X277617500Y-77893378D01*
X277576188Y-78101066D01*
X277495153Y-78296703D01*
X277377505Y-78472775D01*
X277227775Y-78622505D01*
X277051703Y-78740153D01*
X276856066Y-78821188D01*
X276648378Y-78862500D01*
X276436622Y-78862500D01*
X276228934Y-78821188D01*
X276033297Y-78740153D01*
X275857225Y-78622505D01*
X275707495Y-78472775D01*
X275589847Y-78296703D01*
X275508812Y-78101066D01*
X275467500Y-77893378D01*
X275467500Y-77681622D01*
X275508812Y-77473934D01*
X275589847Y-77278297D01*
X275707495Y-77102225D01*
X275857225Y-76952495D01*
X276033297Y-76834847D01*
X276228934Y-76753812D01*
X276436622Y-76712500D01*
X276648378Y-76712500D01*
X276856066Y-76753812D01*
X276856066Y-76753812D01*
G37*
G36*
X250006867Y-76749744D02*
X250031250Y-76752146D01*
X250055633Y-76749744D01*
X250242872Y-76712500D01*
X250454628Y-76712500D01*
X250662316Y-76753812D01*
X250857953Y-76834847D01*
X251034025Y-76952495D01*
X251183755Y-77102225D01*
X251301403Y-77278297D01*
X251382438Y-77473934D01*
X251423750Y-77681622D01*
X251423750Y-77893378D01*
X251382438Y-78101066D01*
X251301403Y-78296703D01*
X251183755Y-78472775D01*
X251034025Y-78622505D01*
X250857953Y-78740153D01*
X250662316Y-78821188D01*
X250454628Y-78862500D01*
X250242872Y-78862500D01*
X250055633Y-78825256D01*
X250031250Y-78822854D01*
X250006867Y-78825256D01*
X249819628Y-78862500D01*
X249607872Y-78862500D01*
X249400184Y-78821188D01*
X249204547Y-78740153D01*
X249028475Y-78622505D01*
X248878745Y-78472775D01*
X248761097Y-78296703D01*
X248680062Y-78101066D01*
X248638750Y-77893378D01*
X248638750Y-77681622D01*
X248680062Y-77473934D01*
X248761097Y-77278297D01*
X248878745Y-77102225D01*
X249028475Y-76952495D01*
X249204547Y-76834847D01*
X249400184Y-76753812D01*
X249607872Y-76712500D01*
X249819628Y-76712500D01*
X250006867Y-76749744D01*
X250006867Y-76749744D01*
G37*
G36*
X40477316Y-76753812D02*
X40672953Y-76834847D01*
X40849025Y-76952495D01*
X40998755Y-77102225D01*
X41116403Y-77278297D01*
X41197438Y-77473934D01*
X41238750Y-77681622D01*
X41238750Y-77893378D01*
X41197438Y-78101066D01*
X41116403Y-78296703D01*
X40998755Y-78472775D01*
X40849025Y-78622505D01*
X40672953Y-78740153D01*
X40477316Y-78821188D01*
X40269628Y-78862500D01*
X40057872Y-78862500D01*
X39850184Y-78821188D01*
X39654547Y-78740153D01*
X39478475Y-78622505D01*
X39328745Y-78472775D01*
X39211097Y-78296703D01*
X39130062Y-78101066D01*
X39088750Y-77893378D01*
X39088750Y-77681622D01*
X39130062Y-77473934D01*
X39211097Y-77278297D01*
X39328745Y-77102225D01*
X39478475Y-76952495D01*
X39654547Y-76834847D01*
X39850184Y-76753812D01*
X40057872Y-76712500D01*
X40269628Y-76712500D01*
X40477316Y-76753812D01*
X40477316Y-76753812D01*
G37*
G36*
X49981867Y-76749744D02*
X50006250Y-76752146D01*
X50030633Y-76749744D01*
X50217872Y-76712500D01*
X50429628Y-76712500D01*
X50637316Y-76753812D01*
X50832953Y-76834847D01*
X51009025Y-76952495D01*
X51158755Y-77102225D01*
X51276403Y-77278297D01*
X51357438Y-77473934D01*
X51398750Y-77681622D01*
X51398750Y-77893378D01*
X51357438Y-78101066D01*
X51276403Y-78296703D01*
X51158755Y-78472775D01*
X51009025Y-78622505D01*
X50832953Y-78740153D01*
X50637316Y-78821188D01*
X50429628Y-78862500D01*
X50217872Y-78862500D01*
X50030633Y-78825256D01*
X50006250Y-78822854D01*
X49981867Y-78825256D01*
X49794628Y-78862500D01*
X49582872Y-78862500D01*
X49375184Y-78821188D01*
X49179547Y-78740153D01*
X49003475Y-78622505D01*
X48853745Y-78472775D01*
X48736097Y-78296703D01*
X48655062Y-78101066D01*
X48613750Y-77893378D01*
X48613750Y-77681622D01*
X48655062Y-77473934D01*
X48736097Y-77278297D01*
X48853745Y-77102225D01*
X49003475Y-76952495D01*
X49179547Y-76834847D01*
X49375184Y-76753812D01*
X49582872Y-76712500D01*
X49794628Y-76712500D01*
X49981867Y-76749744D01*
X49981867Y-76749744D01*
G37*
G36*
X224468566Y-76753812D02*
X224664203Y-76834847D01*
X224840275Y-76952495D01*
X224990005Y-77102225D01*
X225107653Y-77278297D01*
X225188688Y-77473934D01*
X225230000Y-77681622D01*
X225230000Y-77893378D01*
X225188688Y-78101066D01*
X225107653Y-78296703D01*
X224990005Y-78472775D01*
X224840275Y-78622505D01*
X224664203Y-78740153D01*
X224468566Y-78821188D01*
X224260878Y-78862500D01*
X224049122Y-78862500D01*
X223841434Y-78821188D01*
X223645797Y-78740153D01*
X223469725Y-78622505D01*
X223319995Y-78472775D01*
X223202347Y-78296703D01*
X223121312Y-78101066D01*
X223080000Y-77893378D01*
X223080000Y-77681622D01*
X223121312Y-77473934D01*
X223202347Y-77278297D01*
X223319995Y-77102225D01*
X223469725Y-76952495D01*
X223645797Y-76834847D01*
X223841434Y-76753812D01*
X224049122Y-76712500D01*
X224260878Y-76712500D01*
X224468566Y-76753812D01*
X224468566Y-76753812D01*
G37*
G36*
X60162316Y-76753812D02*
X60357953Y-76834847D01*
X60534025Y-76952495D01*
X60633487Y-77051957D01*
X60652429Y-77067503D01*
X60674040Y-77079054D01*
X60697489Y-77086167D01*
X60721875Y-77088569D01*
X60746261Y-77086167D01*
X60769710Y-77079054D01*
X60791321Y-77067503D01*
X60810263Y-77051957D01*
X60909725Y-76952495D01*
X61085797Y-76834847D01*
X61281434Y-76753812D01*
X61489122Y-76712500D01*
X61700878Y-76712500D01*
X61908566Y-76753812D01*
X62104203Y-76834847D01*
X62280275Y-76952495D01*
X62430005Y-77102225D01*
X62547653Y-77278297D01*
X62628688Y-77473934D01*
X62670000Y-77681622D01*
X62670000Y-77893378D01*
X62628688Y-78101066D01*
X62547653Y-78296703D01*
X62430005Y-78472775D01*
X62280275Y-78622505D01*
X62104203Y-78740153D01*
X61908566Y-78821188D01*
X61700878Y-78862500D01*
X61489122Y-78862500D01*
X61281434Y-78821188D01*
X61085797Y-78740153D01*
X60909725Y-78622505D01*
X60810263Y-78523043D01*
X60791321Y-78507497D01*
X60769710Y-78495946D01*
X60746261Y-78488833D01*
X60721875Y-78486431D01*
X60697489Y-78488833D01*
X60674040Y-78495946D01*
X60652429Y-78507497D01*
X60633487Y-78523043D01*
X60534025Y-78622505D01*
X60357953Y-78740153D01*
X60162316Y-78821188D01*
X59954628Y-78862500D01*
X59742872Y-78862500D01*
X59535184Y-78821188D01*
X59339547Y-78740153D01*
X59163475Y-78622505D01*
X59013745Y-78472775D01*
X58896097Y-78296703D01*
X58815062Y-78101066D01*
X58773750Y-77893378D01*
X58773750Y-77681622D01*
X58815062Y-77473934D01*
X58896097Y-77278297D01*
X59013745Y-77102225D01*
X59163475Y-76952495D01*
X59339547Y-76834847D01*
X59535184Y-76753812D01*
X59742872Y-76712500D01*
X59954628Y-76712500D01*
X60162316Y-76753812D01*
X60162316Y-76753812D01*
G37*
G36*
X157158566Y-76753812D02*
X157354203Y-76834847D01*
X157530275Y-76952495D01*
X157680005Y-77102225D01*
X157797653Y-77278297D01*
X157878688Y-77473934D01*
X157920000Y-77681622D01*
X157920000Y-77893378D01*
X157878688Y-78101066D01*
X157797653Y-78296703D01*
X157680005Y-78472775D01*
X157530275Y-78622505D01*
X157354203Y-78740153D01*
X157158566Y-78821188D01*
X156950878Y-78862500D01*
X156739122Y-78862500D01*
X156531434Y-78821188D01*
X156335797Y-78740153D01*
X156159725Y-78622505D01*
X156009995Y-78472775D01*
X155892347Y-78296703D01*
X155811312Y-78101066D01*
X155770000Y-77893378D01*
X155770000Y-77681622D01*
X155811312Y-77473934D01*
X155892347Y-77278297D01*
X156009995Y-77102225D01*
X156159725Y-76952495D01*
X156335797Y-76834847D01*
X156531434Y-76753812D01*
X156739122Y-76712500D01*
X156950878Y-76712500D01*
X157158566Y-76753812D01*
X157158566Y-76753812D01*
G37*
G36*
X148268566Y-76753812D02*
X148464203Y-76834847D01*
X148640275Y-76952495D01*
X148790005Y-77102225D01*
X148907653Y-77278297D01*
X148988688Y-77473934D01*
X149030000Y-77681622D01*
X149030000Y-77893378D01*
X148988688Y-78101066D01*
X148907653Y-78296703D01*
X148790005Y-78472775D01*
X148640275Y-78622505D01*
X148464203Y-78740153D01*
X148268566Y-78821188D01*
X148060878Y-78862500D01*
X147849122Y-78862500D01*
X147641434Y-78821188D01*
X147445797Y-78740153D01*
X147269725Y-78622505D01*
X147119995Y-78472775D01*
X147002347Y-78296703D01*
X146921312Y-78101066D01*
X146880000Y-77893378D01*
X146880000Y-77681622D01*
X146921312Y-77473934D01*
X147002347Y-77278297D01*
X147119995Y-77102225D01*
X147269725Y-76952495D01*
X147445797Y-76834847D01*
X147641434Y-76753812D01*
X147849122Y-76712500D01*
X148060878Y-76712500D01*
X148268566Y-76753812D01*
X148268566Y-76753812D01*
G37*
G36*
X138108566Y-76753812D02*
X138304203Y-76834847D01*
X138480275Y-76952495D01*
X138630005Y-77102225D01*
X138747653Y-77278297D01*
X138828688Y-77473934D01*
X138870000Y-77681622D01*
X138870000Y-77893378D01*
X138828688Y-78101066D01*
X138747653Y-78296703D01*
X138630005Y-78472775D01*
X138480275Y-78622505D01*
X138304203Y-78740153D01*
X138108566Y-78821188D01*
X137900878Y-78862500D01*
X137689122Y-78862500D01*
X137481434Y-78821188D01*
X137285797Y-78740153D01*
X137109725Y-78622505D01*
X136959995Y-78472775D01*
X136842347Y-78296703D01*
X136761312Y-78101066D01*
X136720000Y-77893378D01*
X136720000Y-77681622D01*
X136761312Y-77473934D01*
X136842347Y-77278297D01*
X136959995Y-77102225D01*
X137109725Y-76952495D01*
X137285797Y-76834847D01*
X137481434Y-76753812D01*
X137689122Y-76712500D01*
X137900878Y-76712500D01*
X138108566Y-76753812D01*
X138108566Y-76753812D01*
G37*
G36*
X186368566Y-76753812D02*
X186564203Y-76834847D01*
X186740275Y-76952495D01*
X186890005Y-77102225D01*
X187007653Y-77278297D01*
X187088688Y-77473934D01*
X187130000Y-77681622D01*
X187130000Y-77893378D01*
X187088688Y-78101066D01*
X187007653Y-78296703D01*
X186890005Y-78472775D01*
X186740275Y-78622505D01*
X186564203Y-78740153D01*
X186368566Y-78821188D01*
X186160878Y-78862500D01*
X185949122Y-78862500D01*
X185741434Y-78821188D01*
X185545797Y-78740153D01*
X185369725Y-78622505D01*
X185219995Y-78472775D01*
X185102347Y-78296703D01*
X185021312Y-78101066D01*
X184980000Y-77893378D01*
X184980000Y-77681622D01*
X185021312Y-77473934D01*
X185102347Y-77278297D01*
X185219995Y-77102225D01*
X185369725Y-76952495D01*
X185545797Y-76834847D01*
X185741434Y-76753812D01*
X185949122Y-76712500D01*
X186160878Y-76712500D01*
X186368566Y-76753812D01*
X186368566Y-76753812D01*
G37*
G36*
X176208566Y-76753812D02*
X176404203Y-76834847D01*
X176580275Y-76952495D01*
X176730005Y-77102225D01*
X176847653Y-77278297D01*
X176928688Y-77473934D01*
X176970000Y-77681622D01*
X176970000Y-77893378D01*
X176928688Y-78101066D01*
X176847653Y-78296703D01*
X176730005Y-78472775D01*
X176580275Y-78622505D01*
X176404203Y-78740153D01*
X176208566Y-78821188D01*
X176000878Y-78862500D01*
X175789122Y-78862500D01*
X175581434Y-78821188D01*
X175385797Y-78740153D01*
X175209725Y-78622505D01*
X175059995Y-78472775D01*
X174942347Y-78296703D01*
X174861312Y-78101066D01*
X174820000Y-77893378D01*
X174820000Y-77681622D01*
X174861312Y-77473934D01*
X174942347Y-77278297D01*
X175059995Y-77102225D01*
X175209725Y-76952495D01*
X175385797Y-76834847D01*
X175581434Y-76753812D01*
X175789122Y-76712500D01*
X176000878Y-76712500D01*
X176208566Y-76753812D01*
X176208566Y-76753812D01*
G37*
G36*
X129218566Y-76753812D02*
X129414203Y-76834847D01*
X129590275Y-76952495D01*
X129740005Y-77102225D01*
X129857653Y-77278297D01*
X129938688Y-77473934D01*
X129980000Y-77681622D01*
X129980000Y-77893378D01*
X129938688Y-78101066D01*
X129857653Y-78296703D01*
X129740005Y-78472775D01*
X129590275Y-78622505D01*
X129414203Y-78740153D01*
X129218566Y-78821188D01*
X129010878Y-78862500D01*
X128799122Y-78862500D01*
X128591434Y-78821188D01*
X128395797Y-78740153D01*
X128219725Y-78622505D01*
X128069995Y-78472775D01*
X127952347Y-78296703D01*
X127871312Y-78101066D01*
X127830000Y-77893378D01*
X127830000Y-77681622D01*
X127871312Y-77473934D01*
X127952347Y-77278297D01*
X128069995Y-77102225D01*
X128219725Y-76952495D01*
X128395797Y-76834847D01*
X128591434Y-76753812D01*
X128799122Y-76712500D01*
X129010878Y-76712500D01*
X129218566Y-76753812D01*
X129218566Y-76753812D01*
G37*
G36*
X205418566Y-76753812D02*
X205614203Y-76834847D01*
X205790275Y-76952495D01*
X205940005Y-77102225D01*
X206057653Y-77278297D01*
X206138688Y-77473934D01*
X206180000Y-77681622D01*
X206180000Y-77893378D01*
X206138688Y-78101066D01*
X206057653Y-78296703D01*
X205940005Y-78472775D01*
X205790275Y-78622505D01*
X205614203Y-78740153D01*
X205418566Y-78821188D01*
X205210878Y-78862500D01*
X204999122Y-78862500D01*
X204791434Y-78821188D01*
X204595797Y-78740153D01*
X204419725Y-78622505D01*
X204269995Y-78472775D01*
X204152347Y-78296703D01*
X204071312Y-78101066D01*
X204030000Y-77893378D01*
X204030000Y-77681622D01*
X204071312Y-77473934D01*
X204152347Y-77278297D01*
X204269995Y-77102225D01*
X204419725Y-76952495D01*
X204595797Y-76834847D01*
X204791434Y-76753812D01*
X204999122Y-76712500D01*
X205210878Y-76712500D01*
X205418566Y-76753812D01*
X205418566Y-76753812D01*
G37*
G36*
X167318566Y-76753812D02*
X167514203Y-76834847D01*
X167690275Y-76952495D01*
X167840005Y-77102225D01*
X167957653Y-77278297D01*
X168038688Y-77473934D01*
X168080000Y-77681622D01*
X168080000Y-77893378D01*
X168038688Y-78101066D01*
X167957653Y-78296703D01*
X167840005Y-78472775D01*
X167690275Y-78622505D01*
X167514203Y-78740153D01*
X167318566Y-78821188D01*
X167110878Y-78862500D01*
X166899122Y-78862500D01*
X166691434Y-78821188D01*
X166495797Y-78740153D01*
X166319725Y-78622505D01*
X166169995Y-78472775D01*
X166052347Y-78296703D01*
X165971312Y-78101066D01*
X165930000Y-77893378D01*
X165930000Y-77681622D01*
X165971312Y-77473934D01*
X166052347Y-77278297D01*
X166169995Y-77102225D01*
X166319725Y-76952495D01*
X166495797Y-76834847D01*
X166691434Y-76753812D01*
X166899122Y-76712500D01*
X167110878Y-76712500D01*
X167318566Y-76753812D01*
X167318566Y-76753812D01*
G37*
G36*
X195258566Y-76753812D02*
X195454203Y-76834847D01*
X195630275Y-76952495D01*
X195780005Y-77102225D01*
X195897653Y-77278297D01*
X195978688Y-77473934D01*
X196020000Y-77681622D01*
X196020000Y-77893378D01*
X195978688Y-78101066D01*
X195897653Y-78296703D01*
X195780005Y-78472775D01*
X195630275Y-78622505D01*
X195454203Y-78740153D01*
X195258566Y-78821188D01*
X195050878Y-78862500D01*
X194839122Y-78862500D01*
X194631434Y-78821188D01*
X194435797Y-78740153D01*
X194259725Y-78622505D01*
X194109995Y-78472775D01*
X193992347Y-78296703D01*
X193911312Y-78101066D01*
X193870000Y-77893378D01*
X193870000Y-77681622D01*
X193911312Y-77473934D01*
X193992347Y-77278297D01*
X194109995Y-77102225D01*
X194259725Y-76952495D01*
X194435797Y-76834847D01*
X194631434Y-76753812D01*
X194839122Y-76712500D01*
X195050878Y-76712500D01*
X195258566Y-76753812D01*
X195258566Y-76753812D01*
G37*
G36*
X43333622Y-69144752D02*
X43647369Y-69274710D01*
X43929739Y-69463384D01*
X44169866Y-69703511D01*
X44358540Y-69985881D01*
X44488498Y-70299628D01*
X44554750Y-70632699D01*
X44554750Y-70972301D01*
X44488498Y-71305372D01*
X44358540Y-71619119D01*
X44169866Y-71901489D01*
X43929739Y-72141616D01*
X43647369Y-72330290D01*
X43333622Y-72460248D01*
X43000551Y-72526500D01*
X42660949Y-72526500D01*
X42327878Y-72460248D01*
X42014131Y-72330290D01*
X41731761Y-72141616D01*
X41491634Y-71901489D01*
X41302960Y-71619119D01*
X41173002Y-71305372D01*
X41106750Y-70972301D01*
X41106750Y-70632699D01*
X41173002Y-70299628D01*
X41302960Y-69985881D01*
X41491634Y-69703511D01*
X41731761Y-69463384D01*
X42014131Y-69274710D01*
X42327878Y-69144752D01*
X42660949Y-69078500D01*
X43000551Y-69078500D01*
X43333622Y-69144752D01*
X43333622Y-69144752D01*
G37*
G36*
X243358622Y-69144752D02*
X243672369Y-69274710D01*
X243954739Y-69463384D01*
X244194866Y-69703511D01*
X244383540Y-69985881D01*
X244513498Y-70299628D01*
X244579750Y-70632699D01*
X244579750Y-70972301D01*
X244513498Y-71305372D01*
X244383540Y-71619119D01*
X244194866Y-71901489D01*
X243954739Y-72141616D01*
X243672369Y-72330290D01*
X243358622Y-72460248D01*
X243025551Y-72526500D01*
X242685949Y-72526500D01*
X242352878Y-72460248D01*
X242039131Y-72330290D01*
X241756761Y-72141616D01*
X241516634Y-71901489D01*
X241327960Y-71619119D01*
X241198002Y-71305372D01*
X241131750Y-70972301D01*
X241131750Y-70632699D01*
X241198002Y-70299628D01*
X241327960Y-69985881D01*
X241516634Y-69703511D01*
X241756761Y-69463384D01*
X242039131Y-69274710D01*
X242352878Y-69144752D01*
X242685949Y-69078500D01*
X243025551Y-69078500D01*
X243358622Y-69144752D01*
X243358622Y-69144752D01*
G37*
G36*
X67209622Y-69144752D02*
X67523369Y-69274710D01*
X67805739Y-69463384D01*
X68045866Y-69703511D01*
X68234540Y-69985881D01*
X68364498Y-70299628D01*
X68430750Y-70632699D01*
X68430750Y-70972301D01*
X68364498Y-71305372D01*
X68234540Y-71619119D01*
X68045866Y-71901489D01*
X67805739Y-72141616D01*
X67523369Y-72330290D01*
X67209622Y-72460248D01*
X66876551Y-72526500D01*
X66536949Y-72526500D01*
X66203878Y-72460248D01*
X65890131Y-72330290D01*
X65607761Y-72141616D01*
X65367634Y-71901489D01*
X65178960Y-71619119D01*
X65049002Y-71305372D01*
X64982750Y-70972301D01*
X64982750Y-70632699D01*
X65049002Y-70299628D01*
X65178960Y-69985881D01*
X65367634Y-69703511D01*
X65607761Y-69463384D01*
X65890131Y-69274710D01*
X66203878Y-69144752D01*
X66536949Y-69078500D01*
X66876551Y-69078500D01*
X67209622Y-69144752D01*
X67209622Y-69144752D01*
G37*
G36*
X267234622Y-69144752D02*
X267548369Y-69274710D01*
X267830739Y-69463384D01*
X268070866Y-69703511D01*
X268259540Y-69985881D01*
X268389498Y-70299628D01*
X268455750Y-70632699D01*
X268455750Y-70972301D01*
X268389498Y-71305372D01*
X268259540Y-71619119D01*
X268070866Y-71901489D01*
X267830739Y-72141616D01*
X267548369Y-72330290D01*
X267234622Y-72460248D01*
X266901551Y-72526500D01*
X266561949Y-72526500D01*
X266228878Y-72460248D01*
X265915131Y-72330290D01*
X265632761Y-72141616D01*
X265392634Y-71901489D01*
X265203960Y-71619119D01*
X265074002Y-71305372D01*
X265007750Y-70972301D01*
X265007750Y-70632699D01*
X265074002Y-70299628D01*
X265203960Y-69985881D01*
X265392634Y-69703511D01*
X265632761Y-69463384D01*
X265915131Y-69274710D01*
X266228878Y-69144752D01*
X266561949Y-69078500D01*
X266901551Y-69078500D01*
X267234622Y-69144752D01*
X267234622Y-69144752D01*
G37*
G36*
X272134184Y-64882910D02*
X272134186Y-64882911D01*
X272134187Y-64882911D01*
X272533451Y-65048291D01*
X272892780Y-65288387D01*
X273198363Y-65593970D01*
X273438459Y-65953299D01*
X273603839Y-66352563D01*
X273688150Y-66776420D01*
X273688150Y-67208580D01*
X273603839Y-67632437D01*
X273438459Y-68031701D01*
X273198363Y-68391030D01*
X272892780Y-68696613D01*
X272533451Y-68936709D01*
X272134187Y-69102089D01*
X272134186Y-69102089D01*
X272134184Y-69102090D01*
X271710332Y-69186400D01*
X271278168Y-69186400D01*
X270854316Y-69102090D01*
X270854314Y-69102089D01*
X270854313Y-69102089D01*
X270455049Y-68936709D01*
X270095720Y-68696613D01*
X269790137Y-68391030D01*
X269550041Y-68031701D01*
X269384661Y-67632437D01*
X269300350Y-67208580D01*
X269300350Y-66776420D01*
X269384661Y-66352563D01*
X269550041Y-65953299D01*
X269790137Y-65593970D01*
X270095720Y-65288387D01*
X270455049Y-65048291D01*
X270854313Y-64882911D01*
X270854314Y-64882911D01*
X270854316Y-64882910D01*
X271278168Y-64798600D01*
X271710332Y-64798600D01*
X272134184Y-64882910D01*
X272134184Y-64882910D01*
G37*
G36*
X248258184Y-64882910D02*
X248258186Y-64882911D01*
X248258187Y-64882911D01*
X248657451Y-65048291D01*
X249016780Y-65288387D01*
X249322363Y-65593970D01*
X249562459Y-65953299D01*
X249727839Y-66352563D01*
X249812150Y-66776420D01*
X249812150Y-67208580D01*
X249727839Y-67632437D01*
X249562459Y-68031701D01*
X249322363Y-68391030D01*
X249016780Y-68696613D01*
X248657451Y-68936709D01*
X248258187Y-69102089D01*
X248258186Y-69102089D01*
X248258184Y-69102090D01*
X247834332Y-69186400D01*
X247402168Y-69186400D01*
X246978316Y-69102090D01*
X246978314Y-69102089D01*
X246978313Y-69102089D01*
X246579049Y-68936709D01*
X246219720Y-68696613D01*
X245914137Y-68391030D01*
X245674041Y-68031701D01*
X245508661Y-67632437D01*
X245424350Y-67208580D01*
X245424350Y-66776420D01*
X245508661Y-66352563D01*
X245674041Y-65953299D01*
X245914137Y-65593970D01*
X246219720Y-65288387D01*
X246579049Y-65048291D01*
X246978313Y-64882911D01*
X246978314Y-64882911D01*
X246978316Y-64882910D01*
X247402168Y-64798600D01*
X247834332Y-64798600D01*
X248258184Y-64882910D01*
X248258184Y-64882910D01*
G37*
G36*
X260196184Y-56627910D02*
X260196186Y-56627911D01*
X260196187Y-56627911D01*
X260595451Y-56793291D01*
X260954780Y-57033387D01*
X261260363Y-57338970D01*
X261500459Y-57698299D01*
X261665839Y-58097563D01*
X261665840Y-58097566D01*
X261750150Y-58521418D01*
X261750150Y-58953581D01*
X261732499Y-59042317D01*
X261730097Y-59066704D01*
X261732499Y-59091090D01*
X261739612Y-59114539D01*
X261751163Y-59136150D01*
X261766708Y-59155092D01*
X261785650Y-59170638D01*
X261807257Y-59182186D01*
X261865451Y-59206291D01*
X262224780Y-59446387D01*
X262530363Y-59751970D01*
X262770459Y-60111299D01*
X262862655Y-60333881D01*
X262935840Y-60510566D01*
X263020150Y-60934418D01*
X263020150Y-61366582D01*
X262963104Y-61653372D01*
X262935839Y-61790437D01*
X262770459Y-62189701D01*
X262530363Y-62549030D01*
X262224780Y-62854613D01*
X261865451Y-63094709D01*
X261466187Y-63260089D01*
X261466186Y-63260089D01*
X261466184Y-63260090D01*
X261042332Y-63344400D01*
X260610168Y-63344400D01*
X260186316Y-63260090D01*
X260186314Y-63260089D01*
X260186313Y-63260089D01*
X259787049Y-63094709D01*
X259427720Y-62854613D01*
X259122137Y-62549030D01*
X258882041Y-62189701D01*
X258716661Y-61790437D01*
X258689397Y-61653372D01*
X258632350Y-61366582D01*
X258632350Y-60934419D01*
X258650001Y-60845683D01*
X258652403Y-60821296D01*
X258650001Y-60796910D01*
X258642888Y-60773461D01*
X258631337Y-60751850D01*
X258615792Y-60732908D01*
X258596850Y-60717362D01*
X258575243Y-60705814D01*
X258517049Y-60681709D01*
X258157720Y-60441613D01*
X257852137Y-60136030D01*
X257612041Y-59776701D01*
X257446661Y-59377437D01*
X257412618Y-59206291D01*
X257362350Y-58953582D01*
X257362350Y-58521418D01*
X257446660Y-58097566D01*
X257446661Y-58097563D01*
X257612041Y-57698299D01*
X257852137Y-57338970D01*
X258157720Y-57033387D01*
X258517049Y-56793291D01*
X258916313Y-56627911D01*
X258916314Y-56627911D01*
X258916316Y-56627910D01*
X259340168Y-56543600D01*
X259772332Y-56543600D01*
X260196184Y-56627910D01*
X260196184Y-56627910D01*
G37*
G36*
X276569122Y-59492752D02*
X276882869Y-59622710D01*
X277165239Y-59811384D01*
X277405366Y-60051511D01*
X277594040Y-60333881D01*
X277723998Y-60647628D01*
X277790250Y-60980699D01*
X277790250Y-61320301D01*
X277723998Y-61653372D01*
X277594040Y-61967119D01*
X277405366Y-62249489D01*
X277165239Y-62489616D01*
X276882869Y-62678290D01*
X276569122Y-62808248D01*
X276236051Y-62874500D01*
X275896449Y-62874500D01*
X275563378Y-62808248D01*
X275249631Y-62678290D01*
X274967261Y-62489616D01*
X274727134Y-62249489D01*
X274538460Y-61967119D01*
X274408502Y-61653372D01*
X274342250Y-61320301D01*
X274342250Y-60980699D01*
X274408502Y-60647628D01*
X274538460Y-60333881D01*
X274727134Y-60051511D01*
X274967261Y-59811384D01*
X275249631Y-59622710D01*
X275563378Y-59492752D01*
X275896449Y-59426500D01*
X276236051Y-59426500D01*
X276569122Y-59492752D01*
X276569122Y-59492752D01*
G37*
G36*
X45883684Y-56627910D02*
X45883686Y-56627911D01*
X45883687Y-56627911D01*
X46282951Y-56793291D01*
X46642280Y-57033387D01*
X46947863Y-57338970D01*
X47187959Y-57698299D01*
X47353339Y-58097563D01*
X47353340Y-58097566D01*
X47437650Y-58521418D01*
X47437650Y-58953582D01*
X47387383Y-59206291D01*
X47353339Y-59377437D01*
X47187959Y-59776701D01*
X46947863Y-60136030D01*
X46642280Y-60441613D01*
X46282951Y-60681709D01*
X45883687Y-60847089D01*
X45883686Y-60847089D01*
X45883684Y-60847090D01*
X45459832Y-60931400D01*
X45027668Y-60931400D01*
X44603816Y-60847090D01*
X44603814Y-60847089D01*
X44603813Y-60847089D01*
X44204549Y-60681709D01*
X43845220Y-60441613D01*
X43539637Y-60136030D01*
X43299541Y-59776701D01*
X43134161Y-59377437D01*
X43100118Y-59206291D01*
X43049850Y-58953582D01*
X43049850Y-58521418D01*
X43134160Y-58097566D01*
X43134161Y-58097563D01*
X43299541Y-57698299D01*
X43539637Y-57338970D01*
X43845220Y-57033387D01*
X44204549Y-56793291D01*
X44603813Y-56627911D01*
X44603814Y-56627911D01*
X44603816Y-56627910D01*
X45027668Y-56543600D01*
X45459832Y-56543600D01*
X45883684Y-56627910D01*
X45883684Y-56627910D01*
G37*
G36*
X133989934Y-56627910D02*
X133989936Y-56627911D01*
X133989937Y-56627911D01*
X134389201Y-56793291D01*
X134748530Y-57033387D01*
X135054113Y-57338970D01*
X135294209Y-57698299D01*
X135459589Y-58097563D01*
X135459590Y-58097566D01*
X135543900Y-58521418D01*
X135543900Y-58953582D01*
X135493633Y-59206291D01*
X135459589Y-59377437D01*
X135294209Y-59776701D01*
X135054113Y-60136030D01*
X134748530Y-60441613D01*
X134389201Y-60681709D01*
X133989937Y-60847089D01*
X133989936Y-60847089D01*
X133989934Y-60847090D01*
X133566082Y-60931400D01*
X133133918Y-60931400D01*
X132710066Y-60847090D01*
X132710064Y-60847089D01*
X132710063Y-60847089D01*
X132310799Y-60681709D01*
X131951470Y-60441613D01*
X131645887Y-60136030D01*
X131405791Y-59776701D01*
X131240411Y-59377437D01*
X131206368Y-59206291D01*
X131156100Y-58953582D01*
X131156100Y-58521418D01*
X131240410Y-58097566D01*
X131240411Y-58097563D01*
X131405791Y-57698299D01*
X131645887Y-57338970D01*
X131951470Y-57033387D01*
X132310799Y-56793291D01*
X132710063Y-56627911D01*
X132710064Y-56627911D01*
X132710066Y-56627910D01*
X133133918Y-56543600D01*
X133566082Y-56543600D01*
X133989934Y-56627910D01*
X133989934Y-56627910D01*
G37*
G36*
X114939934Y-56627910D02*
X114939936Y-56627911D01*
X114939937Y-56627911D01*
X115339201Y-56793291D01*
X115698530Y-57033387D01*
X116004113Y-57338970D01*
X116244209Y-57698299D01*
X116409589Y-58097563D01*
X116409590Y-58097566D01*
X116493900Y-58521418D01*
X116493900Y-58953582D01*
X116443633Y-59206291D01*
X116409589Y-59377437D01*
X116244209Y-59776701D01*
X116004113Y-60136030D01*
X115698530Y-60441613D01*
X115339201Y-60681709D01*
X114939937Y-60847089D01*
X114939936Y-60847089D01*
X114939934Y-60847090D01*
X114516082Y-60931400D01*
X114083918Y-60931400D01*
X113660066Y-60847090D01*
X113660064Y-60847089D01*
X113660063Y-60847089D01*
X113260799Y-60681709D01*
X112901470Y-60441613D01*
X112595887Y-60136030D01*
X112355791Y-59776701D01*
X112190411Y-59377437D01*
X112156368Y-59206291D01*
X112106100Y-58953582D01*
X112106100Y-58521418D01*
X112190410Y-58097566D01*
X112190411Y-58097563D01*
X112355791Y-57698299D01*
X112595887Y-57338970D01*
X112901470Y-57033387D01*
X113260799Y-56793291D01*
X113660063Y-56627911D01*
X113660064Y-56627911D01*
X113660066Y-56627910D01*
X114083918Y-56543600D01*
X114516082Y-56543600D01*
X114939934Y-56627910D01*
X114939934Y-56627910D01*
G37*
G36*
X248289934Y-56627910D02*
X248289936Y-56627911D01*
X248289937Y-56627911D01*
X248689201Y-56793291D01*
X249048530Y-57033387D01*
X249354113Y-57338970D01*
X249594209Y-57698299D01*
X249759589Y-58097563D01*
X249759590Y-58097566D01*
X249843900Y-58521418D01*
X249843900Y-58953582D01*
X249793633Y-59206291D01*
X249759589Y-59377437D01*
X249594209Y-59776701D01*
X249354113Y-60136030D01*
X249048530Y-60441613D01*
X248689201Y-60681709D01*
X248289937Y-60847089D01*
X248289936Y-60847089D01*
X248289934Y-60847090D01*
X247866082Y-60931400D01*
X247433918Y-60931400D01*
X247010066Y-60847090D01*
X247010064Y-60847089D01*
X247010063Y-60847089D01*
X246610799Y-60681709D01*
X246251470Y-60441613D01*
X245945887Y-60136030D01*
X245705791Y-59776701D01*
X245540411Y-59377437D01*
X245506368Y-59206291D01*
X245456100Y-58953582D01*
X245456100Y-58521418D01*
X245540410Y-58097566D01*
X245540411Y-58097563D01*
X245705791Y-57698299D01*
X245945887Y-57338970D01*
X246251470Y-57033387D01*
X246610799Y-56793291D01*
X247010063Y-56627911D01*
X247010064Y-56627911D01*
X247010066Y-56627910D01*
X247433918Y-56543600D01*
X247866082Y-56543600D01*
X248289934Y-56627910D01*
X248289934Y-56627910D01*
G37*
G36*
X153039934Y-56627910D02*
X153039936Y-56627911D01*
X153039937Y-56627911D01*
X153439201Y-56793291D01*
X153798530Y-57033387D01*
X154104113Y-57338970D01*
X154344209Y-57698299D01*
X154509589Y-58097563D01*
X154509590Y-58097566D01*
X154593900Y-58521418D01*
X154593900Y-58953582D01*
X154543633Y-59206291D01*
X154509589Y-59377437D01*
X154344209Y-59776701D01*
X154104113Y-60136030D01*
X153798530Y-60441613D01*
X153439201Y-60681709D01*
X153039937Y-60847089D01*
X153039936Y-60847089D01*
X153039934Y-60847090D01*
X152616082Y-60931400D01*
X152183918Y-60931400D01*
X151760066Y-60847090D01*
X151760064Y-60847089D01*
X151760063Y-60847089D01*
X151360799Y-60681709D01*
X151001470Y-60441613D01*
X150695887Y-60136030D01*
X150455791Y-59776701D01*
X150290411Y-59377437D01*
X150256368Y-59206291D01*
X150206100Y-58953582D01*
X150206100Y-58521418D01*
X150290410Y-58097566D01*
X150290411Y-58097563D01*
X150455791Y-57698299D01*
X150695887Y-57338970D01*
X151001470Y-57033387D01*
X151360799Y-56793291D01*
X151760063Y-56627911D01*
X151760064Y-56627911D01*
X151760066Y-56627910D01*
X152183918Y-56543600D01*
X152616082Y-56543600D01*
X153039934Y-56627910D01*
X153039934Y-56627910D01*
G37*
G36*
X95889934Y-56627910D02*
X95889936Y-56627911D01*
X95889937Y-56627911D01*
X96289201Y-56793291D01*
X96648530Y-57033387D01*
X96954113Y-57338970D01*
X97194209Y-57698299D01*
X97359589Y-58097563D01*
X97359590Y-58097566D01*
X97443900Y-58521418D01*
X97443900Y-58953582D01*
X97393633Y-59206291D01*
X97359589Y-59377437D01*
X97194209Y-59776701D01*
X96954113Y-60136030D01*
X96648530Y-60441613D01*
X96289201Y-60681709D01*
X95889937Y-60847089D01*
X95889936Y-60847089D01*
X95889934Y-60847090D01*
X95466082Y-60931400D01*
X95033918Y-60931400D01*
X94610066Y-60847090D01*
X94610064Y-60847089D01*
X94610063Y-60847089D01*
X94210799Y-60681709D01*
X93851470Y-60441613D01*
X93545887Y-60136030D01*
X93305791Y-59776701D01*
X93140411Y-59377437D01*
X93106368Y-59206291D01*
X93056100Y-58953582D01*
X93056100Y-58521418D01*
X93140410Y-58097566D01*
X93140411Y-58097563D01*
X93305791Y-57698299D01*
X93545887Y-57338970D01*
X93851470Y-57033387D01*
X94210799Y-56793291D01*
X94610063Y-56627911D01*
X94610064Y-56627911D01*
X94610066Y-56627910D01*
X95033918Y-56543600D01*
X95466082Y-56543600D01*
X95889934Y-56627910D01*
X95889934Y-56627910D01*
G37*
G36*
X172089934Y-56627910D02*
X172089936Y-56627911D01*
X172089937Y-56627911D01*
X172489201Y-56793291D01*
X172848530Y-57033387D01*
X173154113Y-57338970D01*
X173394209Y-57698299D01*
X173559589Y-58097563D01*
X173559590Y-58097566D01*
X173643900Y-58521418D01*
X173643900Y-58953582D01*
X173593633Y-59206291D01*
X173559589Y-59377437D01*
X173394209Y-59776701D01*
X173154113Y-60136030D01*
X172848530Y-60441613D01*
X172489201Y-60681709D01*
X172089937Y-60847089D01*
X172089936Y-60847089D01*
X172089934Y-60847090D01*
X171666082Y-60931400D01*
X171233918Y-60931400D01*
X170810066Y-60847090D01*
X170810064Y-60847089D01*
X170810063Y-60847089D01*
X170410799Y-60681709D01*
X170051470Y-60441613D01*
X169745887Y-60136030D01*
X169505791Y-59776701D01*
X169340411Y-59377437D01*
X169306368Y-59206291D01*
X169256100Y-58953582D01*
X169256100Y-58521418D01*
X169340410Y-58097566D01*
X169340411Y-58097563D01*
X169505791Y-57698299D01*
X169745887Y-57338970D01*
X170051470Y-57033387D01*
X170410799Y-56793291D01*
X170810063Y-56627911D01*
X170810064Y-56627911D01*
X170810066Y-56627910D01*
X171233918Y-56543600D01*
X171666082Y-56543600D01*
X172089934Y-56627910D01*
X172089934Y-56627910D01*
G37*
G36*
X210189934Y-56627910D02*
X210189936Y-56627911D01*
X210189937Y-56627911D01*
X210589201Y-56793291D01*
X210948530Y-57033387D01*
X211254113Y-57338970D01*
X211494209Y-57698299D01*
X211659589Y-58097563D01*
X211659590Y-58097566D01*
X211743900Y-58521418D01*
X211743900Y-58953582D01*
X211693633Y-59206291D01*
X211659589Y-59377437D01*
X211494209Y-59776701D01*
X211254113Y-60136030D01*
X210948530Y-60441613D01*
X210589201Y-60681709D01*
X210189937Y-60847089D01*
X210189936Y-60847089D01*
X210189934Y-60847090D01*
X209766082Y-60931400D01*
X209333918Y-60931400D01*
X208910066Y-60847090D01*
X208910064Y-60847089D01*
X208910063Y-60847089D01*
X208510799Y-60681709D01*
X208151470Y-60441613D01*
X207845887Y-60136030D01*
X207605791Y-59776701D01*
X207440411Y-59377437D01*
X207406368Y-59206291D01*
X207356100Y-58953582D01*
X207356100Y-58521418D01*
X207440410Y-58097566D01*
X207440411Y-58097563D01*
X207605791Y-57698299D01*
X207845887Y-57338970D01*
X208151470Y-57033387D01*
X208510799Y-56793291D01*
X208910063Y-56627911D01*
X208910064Y-56627911D01*
X208910066Y-56627910D01*
X209333918Y-56543600D01*
X209766082Y-56543600D01*
X210189934Y-56627910D01*
X210189934Y-56627910D01*
G37*
G36*
X229239934Y-56627910D02*
X229239936Y-56627911D01*
X229239937Y-56627911D01*
X229639201Y-56793291D01*
X229998530Y-57033387D01*
X230304113Y-57338970D01*
X230544209Y-57698299D01*
X230709589Y-58097563D01*
X230709590Y-58097566D01*
X230793900Y-58521418D01*
X230793900Y-58953582D01*
X230743633Y-59206291D01*
X230709589Y-59377437D01*
X230544209Y-59776701D01*
X230304113Y-60136030D01*
X229998530Y-60441613D01*
X229639201Y-60681709D01*
X229239937Y-60847089D01*
X229239936Y-60847089D01*
X229239934Y-60847090D01*
X228816082Y-60931400D01*
X228383918Y-60931400D01*
X227960066Y-60847090D01*
X227960064Y-60847089D01*
X227960063Y-60847089D01*
X227560799Y-60681709D01*
X227201470Y-60441613D01*
X226895887Y-60136030D01*
X226655791Y-59776701D01*
X226490411Y-59377437D01*
X226456368Y-59206291D01*
X226406100Y-58953582D01*
X226406100Y-58521418D01*
X226490410Y-58097566D01*
X226490411Y-58097563D01*
X226655791Y-57698299D01*
X226895887Y-57338970D01*
X227201470Y-57033387D01*
X227560799Y-56793291D01*
X227960063Y-56627911D01*
X227960064Y-56627911D01*
X227960066Y-56627910D01*
X228383918Y-56543600D01*
X228816082Y-56543600D01*
X229239934Y-56627910D01*
X229239934Y-56627910D01*
G37*
G36*
X50646184Y-56627910D02*
X50646186Y-56627911D01*
X50646187Y-56627911D01*
X51045451Y-56793291D01*
X51404780Y-57033387D01*
X51710363Y-57338970D01*
X51950459Y-57698299D01*
X52115839Y-58097563D01*
X52115840Y-58097566D01*
X52200150Y-58521418D01*
X52200150Y-58953582D01*
X52149883Y-59206291D01*
X52115839Y-59377437D01*
X51950459Y-59776701D01*
X51710363Y-60136030D01*
X51404780Y-60441613D01*
X51045451Y-60681709D01*
X50646187Y-60847089D01*
X50646186Y-60847089D01*
X50646184Y-60847090D01*
X50222332Y-60931400D01*
X49790168Y-60931400D01*
X49366316Y-60847090D01*
X49366314Y-60847089D01*
X49366313Y-60847089D01*
X48967049Y-60681709D01*
X48607720Y-60441613D01*
X48302137Y-60136030D01*
X48062041Y-59776701D01*
X47896661Y-59377437D01*
X47862618Y-59206291D01*
X47812350Y-58953582D01*
X47812350Y-58521418D01*
X47896660Y-58097566D01*
X47896661Y-58097563D01*
X48062041Y-57698299D01*
X48302137Y-57338970D01*
X48607720Y-57033387D01*
X48967049Y-56793291D01*
X49366313Y-56627911D01*
X49366314Y-56627911D01*
X49366316Y-56627910D01*
X49790168Y-56543600D01*
X50222332Y-56543600D01*
X50646184Y-56627910D01*
X50646184Y-56627910D01*
G37*
G36*
X269721184Y-56627910D02*
X269721186Y-56627911D01*
X269721187Y-56627911D01*
X270120451Y-56793291D01*
X270479780Y-57033387D01*
X270785363Y-57338970D01*
X271025459Y-57698299D01*
X271190839Y-58097563D01*
X271190840Y-58097566D01*
X271275150Y-58521418D01*
X271275150Y-58953582D01*
X271224883Y-59206291D01*
X271190839Y-59377437D01*
X271025459Y-59776701D01*
X270785363Y-60136030D01*
X270479780Y-60441613D01*
X270120451Y-60681709D01*
X269721187Y-60847089D01*
X269721186Y-60847089D01*
X269721184Y-60847090D01*
X269297332Y-60931400D01*
X268865168Y-60931400D01*
X268441316Y-60847090D01*
X268441314Y-60847089D01*
X268441313Y-60847089D01*
X268042049Y-60681709D01*
X267682720Y-60441613D01*
X267377137Y-60136030D01*
X267137041Y-59776701D01*
X266971661Y-59377437D01*
X266937618Y-59206291D01*
X266887350Y-58953582D01*
X266887350Y-58521418D01*
X266971660Y-58097566D01*
X266971661Y-58097563D01*
X267137041Y-57698299D01*
X267377137Y-57338970D01*
X267682720Y-57033387D01*
X268042049Y-56793291D01*
X268441313Y-56627911D01*
X268441314Y-56627911D01*
X268441316Y-56627910D01*
X268865168Y-56543600D01*
X269297332Y-56543600D01*
X269721184Y-56627910D01*
X269721184Y-56627910D01*
G37*
G36*
X76839934Y-56627910D02*
X76839936Y-56627911D01*
X76839937Y-56627911D01*
X77239201Y-56793291D01*
X77598530Y-57033387D01*
X77904113Y-57338970D01*
X78144209Y-57698299D01*
X78309589Y-58097563D01*
X78309590Y-58097566D01*
X78393900Y-58521418D01*
X78393900Y-58953582D01*
X78343633Y-59206291D01*
X78309589Y-59377437D01*
X78144209Y-59776701D01*
X77904113Y-60136030D01*
X77598530Y-60441613D01*
X77239201Y-60681709D01*
X76839937Y-60847089D01*
X76839936Y-60847089D01*
X76839934Y-60847090D01*
X76416082Y-60931400D01*
X75983918Y-60931400D01*
X75560066Y-60847090D01*
X75560064Y-60847089D01*
X75560063Y-60847089D01*
X75160799Y-60681709D01*
X74801470Y-60441613D01*
X74495887Y-60136030D01*
X74255791Y-59776701D01*
X74090411Y-59377437D01*
X74056368Y-59206291D01*
X74006100Y-58953582D01*
X74006100Y-58521418D01*
X74090410Y-58097566D01*
X74090411Y-58097563D01*
X74255791Y-57698299D01*
X74495887Y-57338970D01*
X74801470Y-57033387D01*
X75160799Y-56793291D01*
X75560063Y-56627911D01*
X75560064Y-56627911D01*
X75560066Y-56627910D01*
X75983918Y-56543600D01*
X76416082Y-56543600D01*
X76839934Y-56627910D01*
X76839934Y-56627910D01*
G37*
G36*
X191139934Y-56627910D02*
X191139936Y-56627911D01*
X191139937Y-56627911D01*
X191539201Y-56793291D01*
X191898530Y-57033387D01*
X192204113Y-57338970D01*
X192444209Y-57698299D01*
X192609589Y-58097563D01*
X192609590Y-58097566D01*
X192693900Y-58521418D01*
X192693900Y-58953582D01*
X192643633Y-59206291D01*
X192609589Y-59377437D01*
X192444209Y-59776701D01*
X192204113Y-60136030D01*
X191898530Y-60441613D01*
X191539201Y-60681709D01*
X191139937Y-60847089D01*
X191139936Y-60847089D01*
X191139934Y-60847090D01*
X190716082Y-60931400D01*
X190283918Y-60931400D01*
X189860066Y-60847090D01*
X189860064Y-60847089D01*
X189860063Y-60847089D01*
X189460799Y-60681709D01*
X189101470Y-60441613D01*
X188795887Y-60136030D01*
X188555791Y-59776701D01*
X188390411Y-59377437D01*
X188356368Y-59206291D01*
X188306100Y-58953582D01*
X188306100Y-58521418D01*
X188390410Y-58097566D01*
X188390411Y-58097563D01*
X188555791Y-57698299D01*
X188795887Y-57338970D01*
X189101470Y-57033387D01*
X189460799Y-56793291D01*
X189860063Y-56627911D01*
X189860064Y-56627911D01*
X189860066Y-56627910D01*
X190283918Y-56543600D01*
X190716082Y-56543600D01*
X191139934Y-56627910D01*
X191139934Y-56627910D01*
G37*
G36*
X204783566Y-57703812D02*
X204979203Y-57784847D01*
X205155275Y-57902495D01*
X205305005Y-58052225D01*
X205422653Y-58228297D01*
X205503688Y-58423934D01*
X205545000Y-58631622D01*
X205545000Y-58843378D01*
X205503688Y-59051066D01*
X205422653Y-59246703D01*
X205305005Y-59422775D01*
X205155275Y-59572505D01*
X204979203Y-59690153D01*
X204783566Y-59771188D01*
X204575878Y-59812500D01*
X204364122Y-59812500D01*
X204156434Y-59771188D01*
X203960797Y-59690153D01*
X203784725Y-59572505D01*
X203634995Y-59422775D01*
X203517347Y-59246703D01*
X203436312Y-59051066D01*
X203395000Y-58843378D01*
X203395000Y-58631622D01*
X203436312Y-58423934D01*
X203517347Y-58228297D01*
X203634995Y-58052225D01*
X203784725Y-57902495D01*
X203960797Y-57784847D01*
X204156434Y-57703812D01*
X204364122Y-57662500D01*
X204575878Y-57662500D01*
X204783566Y-57703812D01*
X204783566Y-57703812D01*
G37*
G36*
X274474816Y-57703812D02*
X274670453Y-57784847D01*
X274846525Y-57902495D01*
X274996255Y-58052225D01*
X275113903Y-58228297D01*
X275194938Y-58423934D01*
X275236250Y-58631622D01*
X275236250Y-58843378D01*
X275194938Y-59051066D01*
X275113903Y-59246703D01*
X274996255Y-59422775D01*
X274846525Y-59572505D01*
X274670453Y-59690153D01*
X274474816Y-59771188D01*
X274267128Y-59812500D01*
X274055372Y-59812500D01*
X273847684Y-59771188D01*
X273652047Y-59690153D01*
X273475975Y-59572505D01*
X273326245Y-59422775D01*
X273208597Y-59246703D01*
X273127562Y-59051066D01*
X273086250Y-58843378D01*
X273086250Y-58631622D01*
X273127562Y-58423934D01*
X273208597Y-58228297D01*
X273326245Y-58052225D01*
X273475975Y-57902495D01*
X273652047Y-57784847D01*
X273847684Y-57703812D01*
X274055372Y-57662500D01*
X274267128Y-57662500D01*
X274474816Y-57703812D01*
X274474816Y-57703812D01*
G37*
G36*
X242883566Y-57703812D02*
X243079203Y-57784847D01*
X243255275Y-57902495D01*
X243405005Y-58052225D01*
X243522653Y-58228297D01*
X243603688Y-58423934D01*
X243645000Y-58631622D01*
X243645000Y-58843378D01*
X243603688Y-59051066D01*
X243522653Y-59246703D01*
X243405005Y-59422775D01*
X243255275Y-59572505D01*
X243079203Y-59690153D01*
X242883566Y-59771188D01*
X242675878Y-59812500D01*
X242464122Y-59812500D01*
X242256434Y-59771188D01*
X242060797Y-59690153D01*
X241884725Y-59572505D01*
X241734995Y-59422775D01*
X241617347Y-59246703D01*
X241536312Y-59051066D01*
X241495000Y-58843378D01*
X241495000Y-58631622D01*
X241536312Y-58423934D01*
X241617347Y-58228297D01*
X241734995Y-58052225D01*
X241884725Y-57902495D01*
X242060797Y-57784847D01*
X242256434Y-57703812D01*
X242464122Y-57662500D01*
X242675878Y-57662500D01*
X242883566Y-57703812D01*
X242883566Y-57703812D01*
G37*
G36*
X233993566Y-57703812D02*
X234189203Y-57784847D01*
X234365275Y-57902495D01*
X234515005Y-58052225D01*
X234632653Y-58228297D01*
X234713688Y-58423934D01*
X234755000Y-58631622D01*
X234755000Y-58843378D01*
X234713688Y-59051066D01*
X234632653Y-59246703D01*
X234515005Y-59422775D01*
X234365275Y-59572505D01*
X234189203Y-59690153D01*
X233993566Y-59771188D01*
X233785878Y-59812500D01*
X233574122Y-59812500D01*
X233366434Y-59771188D01*
X233170797Y-59690153D01*
X232994725Y-59572505D01*
X232844995Y-59422775D01*
X232727347Y-59246703D01*
X232646312Y-59051066D01*
X232605000Y-58843378D01*
X232605000Y-58631622D01*
X232646312Y-58423934D01*
X232727347Y-58228297D01*
X232844995Y-58052225D01*
X232994725Y-57902495D01*
X233170797Y-57784847D01*
X233366434Y-57703812D01*
X233574122Y-57662500D01*
X233785878Y-57662500D01*
X233993566Y-57703812D01*
X233993566Y-57703812D01*
G37*
G36*
X223833566Y-57703812D02*
X224029203Y-57784847D01*
X224205275Y-57902495D01*
X224355005Y-58052225D01*
X224472653Y-58228297D01*
X224553688Y-58423934D01*
X224595000Y-58631622D01*
X224595000Y-58843378D01*
X224553688Y-59051066D01*
X224472653Y-59246703D01*
X224355005Y-59422775D01*
X224205275Y-59572505D01*
X224029203Y-59690153D01*
X223833566Y-59771188D01*
X223625878Y-59812500D01*
X223414122Y-59812500D01*
X223206434Y-59771188D01*
X223010797Y-59690153D01*
X222834725Y-59572505D01*
X222684995Y-59422775D01*
X222567347Y-59246703D01*
X222486312Y-59051066D01*
X222445000Y-58843378D01*
X222445000Y-58631622D01*
X222486312Y-58423934D01*
X222567347Y-58228297D01*
X222684995Y-58052225D01*
X222834725Y-57902495D01*
X223010797Y-57784847D01*
X223206434Y-57703812D01*
X223414122Y-57662500D01*
X223625878Y-57662500D01*
X223833566Y-57703812D01*
X223833566Y-57703812D01*
G37*
G36*
X214943566Y-57703812D02*
X215139203Y-57784847D01*
X215315275Y-57902495D01*
X215465005Y-58052225D01*
X215582653Y-58228297D01*
X215663688Y-58423934D01*
X215705000Y-58631622D01*
X215705000Y-58843378D01*
X215663688Y-59051066D01*
X215582653Y-59246703D01*
X215465005Y-59422775D01*
X215315275Y-59572505D01*
X215139203Y-59690153D01*
X214943566Y-59771188D01*
X214735878Y-59812500D01*
X214524122Y-59812500D01*
X214316434Y-59771188D01*
X214120797Y-59690153D01*
X213944725Y-59572505D01*
X213794995Y-59422775D01*
X213677347Y-59246703D01*
X213596312Y-59051066D01*
X213555000Y-58843378D01*
X213555000Y-58631622D01*
X213596312Y-58423934D01*
X213677347Y-58228297D01*
X213794995Y-58052225D01*
X213944725Y-57902495D01*
X214120797Y-57784847D01*
X214316434Y-57703812D01*
X214524122Y-57662500D01*
X214735878Y-57662500D01*
X214943566Y-57703812D01*
X214943566Y-57703812D01*
G37*
G36*
X195893566Y-57703812D02*
X196089203Y-57784847D01*
X196265275Y-57902495D01*
X196415005Y-58052225D01*
X196532653Y-58228297D01*
X196613688Y-58423934D01*
X196655000Y-58631622D01*
X196655000Y-58843378D01*
X196613688Y-59051066D01*
X196532653Y-59246703D01*
X196415005Y-59422775D01*
X196265275Y-59572505D01*
X196089203Y-59690153D01*
X195893566Y-59771188D01*
X195685878Y-59812500D01*
X195474122Y-59812500D01*
X195266434Y-59771188D01*
X195070797Y-59690153D01*
X194894725Y-59572505D01*
X194744995Y-59422775D01*
X194627347Y-59246703D01*
X194546312Y-59051066D01*
X194505000Y-58843378D01*
X194505000Y-58631622D01*
X194546312Y-58423934D01*
X194627347Y-58228297D01*
X194744995Y-58052225D01*
X194894725Y-57902495D01*
X195070797Y-57784847D01*
X195266434Y-57703812D01*
X195474122Y-57662500D01*
X195685878Y-57662500D01*
X195893566Y-57703812D01*
X195893566Y-57703812D01*
G37*
G36*
X185733566Y-57703812D02*
X185929203Y-57784847D01*
X186105275Y-57902495D01*
X186255005Y-58052225D01*
X186372653Y-58228297D01*
X186453688Y-58423934D01*
X186495000Y-58631622D01*
X186495000Y-58843378D01*
X186453688Y-59051066D01*
X186372653Y-59246703D01*
X186255005Y-59422775D01*
X186105275Y-59572505D01*
X185929203Y-59690153D01*
X185733566Y-59771188D01*
X185525878Y-59812500D01*
X185314122Y-59812500D01*
X185106434Y-59771188D01*
X184910797Y-59690153D01*
X184734725Y-59572505D01*
X184584995Y-59422775D01*
X184467347Y-59246703D01*
X184386312Y-59051066D01*
X184345000Y-58843378D01*
X184345000Y-58631622D01*
X184386312Y-58423934D01*
X184467347Y-58228297D01*
X184584995Y-58052225D01*
X184734725Y-57902495D01*
X184910797Y-57784847D01*
X185106434Y-57703812D01*
X185314122Y-57662500D01*
X185525878Y-57662500D01*
X185733566Y-57703812D01*
X185733566Y-57703812D01*
G37*
G36*
X176843566Y-57703812D02*
X177039203Y-57784847D01*
X177215275Y-57902495D01*
X177365005Y-58052225D01*
X177482653Y-58228297D01*
X177563688Y-58423934D01*
X177605000Y-58631622D01*
X177605000Y-58843378D01*
X177563688Y-59051066D01*
X177482653Y-59246703D01*
X177365005Y-59422775D01*
X177215275Y-59572505D01*
X177039203Y-59690153D01*
X176843566Y-59771188D01*
X176635878Y-59812500D01*
X176424122Y-59812500D01*
X176216434Y-59771188D01*
X176020797Y-59690153D01*
X175844725Y-59572505D01*
X175694995Y-59422775D01*
X175577347Y-59246703D01*
X175496312Y-59051066D01*
X175455000Y-58843378D01*
X175455000Y-58631622D01*
X175496312Y-58423934D01*
X175577347Y-58228297D01*
X175694995Y-58052225D01*
X175844725Y-57902495D01*
X176020797Y-57784847D01*
X176216434Y-57703812D01*
X176424122Y-57662500D01*
X176635878Y-57662500D01*
X176843566Y-57703812D01*
X176843566Y-57703812D01*
G37*
G36*
X166683566Y-57703812D02*
X166879203Y-57784847D01*
X167055275Y-57902495D01*
X167205005Y-58052225D01*
X167322653Y-58228297D01*
X167403688Y-58423934D01*
X167445000Y-58631622D01*
X167445000Y-58843378D01*
X167403688Y-59051066D01*
X167322653Y-59246703D01*
X167205005Y-59422775D01*
X167055275Y-59572505D01*
X166879203Y-59690153D01*
X166683566Y-59771188D01*
X166475878Y-59812500D01*
X166264122Y-59812500D01*
X166056434Y-59771188D01*
X165860797Y-59690153D01*
X165684725Y-59572505D01*
X165534995Y-59422775D01*
X165417347Y-59246703D01*
X165336312Y-59051066D01*
X165295000Y-58843378D01*
X165295000Y-58631622D01*
X165336312Y-58423934D01*
X165417347Y-58228297D01*
X165534995Y-58052225D01*
X165684725Y-57902495D01*
X165860797Y-57784847D01*
X166056434Y-57703812D01*
X166264122Y-57662500D01*
X166475878Y-57662500D01*
X166683566Y-57703812D01*
X166683566Y-57703812D01*
G37*
G36*
X157793566Y-57703812D02*
X157989203Y-57784847D01*
X158165275Y-57902495D01*
X158315005Y-58052225D01*
X158432653Y-58228297D01*
X158513688Y-58423934D01*
X158555000Y-58631622D01*
X158555000Y-58843378D01*
X158513688Y-59051066D01*
X158432653Y-59246703D01*
X158315005Y-59422775D01*
X158165275Y-59572505D01*
X157989203Y-59690153D01*
X157793566Y-59771188D01*
X157585878Y-59812500D01*
X157374122Y-59812500D01*
X157166434Y-59771188D01*
X156970797Y-59690153D01*
X156794725Y-59572505D01*
X156644995Y-59422775D01*
X156527347Y-59246703D01*
X156446312Y-59051066D01*
X156405000Y-58843378D01*
X156405000Y-58631622D01*
X156446312Y-58423934D01*
X156527347Y-58228297D01*
X156644995Y-58052225D01*
X156794725Y-57902495D01*
X156970797Y-57784847D01*
X157166434Y-57703812D01*
X157374122Y-57662500D01*
X157585878Y-57662500D01*
X157793566Y-57703812D01*
X157793566Y-57703812D01*
G37*
G36*
X147633566Y-57703812D02*
X147829203Y-57784847D01*
X148005275Y-57902495D01*
X148155005Y-58052225D01*
X148272653Y-58228297D01*
X148353688Y-58423934D01*
X148395000Y-58631622D01*
X148395000Y-58843378D01*
X148353688Y-59051066D01*
X148272653Y-59246703D01*
X148155005Y-59422775D01*
X148005275Y-59572505D01*
X147829203Y-59690153D01*
X147633566Y-59771188D01*
X147425878Y-59812500D01*
X147214122Y-59812500D01*
X147006434Y-59771188D01*
X146810797Y-59690153D01*
X146634725Y-59572505D01*
X146484995Y-59422775D01*
X146367347Y-59246703D01*
X146286312Y-59051066D01*
X146245000Y-58843378D01*
X146245000Y-58631622D01*
X146286312Y-58423934D01*
X146367347Y-58228297D01*
X146484995Y-58052225D01*
X146634725Y-57902495D01*
X146810797Y-57784847D01*
X147006434Y-57703812D01*
X147214122Y-57662500D01*
X147425878Y-57662500D01*
X147633566Y-57703812D01*
X147633566Y-57703812D01*
G37*
G36*
X138743566Y-57703812D02*
X138939203Y-57784847D01*
X139115275Y-57902495D01*
X139265005Y-58052225D01*
X139382653Y-58228297D01*
X139463688Y-58423934D01*
X139505000Y-58631622D01*
X139505000Y-58843378D01*
X139463688Y-59051066D01*
X139382653Y-59246703D01*
X139265005Y-59422775D01*
X139115275Y-59572505D01*
X138939203Y-59690153D01*
X138743566Y-59771188D01*
X138535878Y-59812500D01*
X138324122Y-59812500D01*
X138116434Y-59771188D01*
X137920797Y-59690153D01*
X137744725Y-59572505D01*
X137594995Y-59422775D01*
X137477347Y-59246703D01*
X137396312Y-59051066D01*
X137355000Y-58843378D01*
X137355000Y-58631622D01*
X137396312Y-58423934D01*
X137477347Y-58228297D01*
X137594995Y-58052225D01*
X137744725Y-57902495D01*
X137920797Y-57784847D01*
X138116434Y-57703812D01*
X138324122Y-57662500D01*
X138535878Y-57662500D01*
X138743566Y-57703812D01*
X138743566Y-57703812D01*
G37*
G36*
X128583566Y-57703812D02*
X128779203Y-57784847D01*
X128955275Y-57902495D01*
X129105005Y-58052225D01*
X129222653Y-58228297D01*
X129303688Y-58423934D01*
X129345000Y-58631622D01*
X129345000Y-58843378D01*
X129303688Y-59051066D01*
X129222653Y-59246703D01*
X129105005Y-59422775D01*
X128955275Y-59572505D01*
X128779203Y-59690153D01*
X128583566Y-59771188D01*
X128375878Y-59812500D01*
X128164122Y-59812500D01*
X127956434Y-59771188D01*
X127760797Y-59690153D01*
X127584725Y-59572505D01*
X127434995Y-59422775D01*
X127317347Y-59246703D01*
X127236312Y-59051066D01*
X127195000Y-58843378D01*
X127195000Y-58631622D01*
X127236312Y-58423934D01*
X127317347Y-58228297D01*
X127434995Y-58052225D01*
X127584725Y-57902495D01*
X127760797Y-57784847D01*
X127956434Y-57703812D01*
X128164122Y-57662500D01*
X128375878Y-57662500D01*
X128583566Y-57703812D01*
X128583566Y-57703812D01*
G37*
G36*
X55399816Y-57703812D02*
X55595453Y-57784847D01*
X55771525Y-57902495D01*
X55921255Y-58052225D01*
X56038903Y-58228297D01*
X56119938Y-58423934D01*
X56161250Y-58631622D01*
X56161250Y-58843378D01*
X56119938Y-59051066D01*
X56038903Y-59246703D01*
X55921255Y-59422775D01*
X55771525Y-59572505D01*
X55595453Y-59690153D01*
X55399816Y-59771188D01*
X55192128Y-59812500D01*
X54980372Y-59812500D01*
X54772684Y-59771188D01*
X54577047Y-59690153D01*
X54400975Y-59572505D01*
X54251245Y-59422775D01*
X54133597Y-59246703D01*
X54052562Y-59051066D01*
X54011250Y-58843378D01*
X54011250Y-58631622D01*
X54052562Y-58423934D01*
X54133597Y-58228297D01*
X54251245Y-58052225D01*
X54400975Y-57902495D01*
X54577047Y-57784847D01*
X54772684Y-57703812D01*
X54980372Y-57662500D01*
X55192128Y-57662500D01*
X55399816Y-57703812D01*
X55399816Y-57703812D01*
G37*
G36*
X40477316Y-57703812D02*
X40672953Y-57784847D01*
X40849025Y-57902495D01*
X40998755Y-58052225D01*
X41116403Y-58228297D01*
X41197438Y-58423934D01*
X41238750Y-58631622D01*
X41238750Y-58843378D01*
X41197438Y-59051066D01*
X41116403Y-59246703D01*
X40998755Y-59422775D01*
X40849025Y-59572505D01*
X40672953Y-59690153D01*
X40477316Y-59771188D01*
X40269628Y-59812500D01*
X40057872Y-59812500D01*
X39850184Y-59771188D01*
X39654547Y-59690153D01*
X39478475Y-59572505D01*
X39328745Y-59422775D01*
X39211097Y-59246703D01*
X39130062Y-59051066D01*
X39088750Y-58843378D01*
X39088750Y-58631622D01*
X39130062Y-58423934D01*
X39211097Y-58228297D01*
X39328745Y-58052225D01*
X39478475Y-57902495D01*
X39654547Y-57784847D01*
X39850184Y-57703812D01*
X40057872Y-57662500D01*
X40269628Y-57662500D01*
X40477316Y-57703812D01*
X40477316Y-57703812D01*
G37*
G36*
X264294367Y-57699744D02*
X264318750Y-57702146D01*
X264343133Y-57699744D01*
X264530372Y-57662500D01*
X264742128Y-57662500D01*
X264949816Y-57703812D01*
X265145453Y-57784847D01*
X265321525Y-57902495D01*
X265471255Y-58052225D01*
X265588903Y-58228297D01*
X265669938Y-58423934D01*
X265711250Y-58631622D01*
X265711250Y-58843378D01*
X265669938Y-59051066D01*
X265588903Y-59246703D01*
X265471255Y-59422775D01*
X265321525Y-59572505D01*
X265145453Y-59690153D01*
X264949816Y-59771188D01*
X264742128Y-59812500D01*
X264530372Y-59812500D01*
X264343133Y-59775256D01*
X264318750Y-59772854D01*
X264294367Y-59775256D01*
X264107128Y-59812500D01*
X263895372Y-59812500D01*
X263687684Y-59771188D01*
X263492047Y-59690153D01*
X263315975Y-59572505D01*
X263166245Y-59422775D01*
X263048597Y-59246703D01*
X262967562Y-59051066D01*
X262926250Y-58843378D01*
X262926250Y-58631622D01*
X262967562Y-58423934D01*
X263048597Y-58228297D01*
X263166245Y-58052225D01*
X263315975Y-57902495D01*
X263492047Y-57784847D01*
X263687684Y-57703812D01*
X263895372Y-57662500D01*
X264107128Y-57662500D01*
X264294367Y-57699744D01*
X264294367Y-57699744D01*
G37*
G36*
X100643566Y-57703812D02*
X100839203Y-57784847D01*
X101015275Y-57902495D01*
X101165005Y-58052225D01*
X101282653Y-58228297D01*
X101363688Y-58423934D01*
X101405000Y-58631622D01*
X101405000Y-58843378D01*
X101363688Y-59051066D01*
X101282653Y-59246703D01*
X101165005Y-59422775D01*
X101015275Y-59572505D01*
X100839203Y-59690153D01*
X100643566Y-59771188D01*
X100435878Y-59812500D01*
X100224122Y-59812500D01*
X100016434Y-59771188D01*
X99820797Y-59690153D01*
X99644725Y-59572505D01*
X99494995Y-59422775D01*
X99377347Y-59246703D01*
X99296312Y-59051066D01*
X99255000Y-58843378D01*
X99255000Y-58631622D01*
X99296312Y-58423934D01*
X99377347Y-58228297D01*
X99494995Y-58052225D01*
X99644725Y-57902495D01*
X99820797Y-57784847D01*
X100016434Y-57703812D01*
X100224122Y-57662500D01*
X100435878Y-57662500D01*
X100643566Y-57703812D01*
X100643566Y-57703812D01*
G37*
G36*
X253043566Y-57703812D02*
X253239203Y-57784847D01*
X253415275Y-57902495D01*
X253514737Y-58001957D01*
X253533679Y-58017503D01*
X253555290Y-58029054D01*
X253578739Y-58036167D01*
X253603125Y-58038569D01*
X253627511Y-58036167D01*
X253650960Y-58029054D01*
X253672571Y-58017503D01*
X253691513Y-58001957D01*
X253790975Y-57902495D01*
X253967047Y-57784847D01*
X254162684Y-57703812D01*
X254370372Y-57662500D01*
X254582128Y-57662500D01*
X254789816Y-57703812D01*
X254985453Y-57784847D01*
X255161525Y-57902495D01*
X255311255Y-58052225D01*
X255428903Y-58228297D01*
X255509938Y-58423934D01*
X255551250Y-58631622D01*
X255551250Y-58843378D01*
X255509938Y-59051066D01*
X255428903Y-59246703D01*
X255311255Y-59422775D01*
X255161525Y-59572505D01*
X254985453Y-59690153D01*
X254789816Y-59771188D01*
X254582128Y-59812500D01*
X254370372Y-59812500D01*
X254162684Y-59771188D01*
X253967047Y-59690153D01*
X253790975Y-59572505D01*
X253691513Y-59473043D01*
X253672571Y-59457497D01*
X253650960Y-59445946D01*
X253627511Y-59438833D01*
X253603125Y-59436431D01*
X253578739Y-59438833D01*
X253555290Y-59445946D01*
X253533679Y-59457497D01*
X253514737Y-59473043D01*
X253415275Y-59572505D01*
X253239203Y-59690153D01*
X253043566Y-59771188D01*
X252835878Y-59812500D01*
X252624122Y-59812500D01*
X252416434Y-59771188D01*
X252220797Y-59690153D01*
X252044725Y-59572505D01*
X251894995Y-59422775D01*
X251777347Y-59246703D01*
X251696312Y-59051066D01*
X251655000Y-58843378D01*
X251655000Y-58631622D01*
X251696312Y-58423934D01*
X251777347Y-58228297D01*
X251894995Y-58052225D01*
X252044725Y-57902495D01*
X252220797Y-57784847D01*
X252416434Y-57703812D01*
X252624122Y-57662500D01*
X252835878Y-57662500D01*
X253043566Y-57703812D01*
X253043566Y-57703812D01*
G37*
G36*
X109533566Y-57703812D02*
X109729203Y-57784847D01*
X109905275Y-57902495D01*
X110055005Y-58052225D01*
X110172653Y-58228297D01*
X110253688Y-58423934D01*
X110295000Y-58631622D01*
X110295000Y-58843378D01*
X110253688Y-59051066D01*
X110172653Y-59246703D01*
X110055005Y-59422775D01*
X109905275Y-59572505D01*
X109729203Y-59690153D01*
X109533566Y-59771188D01*
X109325878Y-59812500D01*
X109114122Y-59812500D01*
X108906434Y-59771188D01*
X108710797Y-59690153D01*
X108534725Y-59572505D01*
X108384995Y-59422775D01*
X108267347Y-59246703D01*
X108186312Y-59051066D01*
X108145000Y-58843378D01*
X108145000Y-58631622D01*
X108186312Y-58423934D01*
X108267347Y-58228297D01*
X108384995Y-58052225D01*
X108534725Y-57902495D01*
X108710797Y-57784847D01*
X108906434Y-57703812D01*
X109114122Y-57662500D01*
X109325878Y-57662500D01*
X109533566Y-57703812D01*
X109533566Y-57703812D01*
G37*
G36*
X90483566Y-57703812D02*
X90679203Y-57784847D01*
X90855275Y-57902495D01*
X91005005Y-58052225D01*
X91122653Y-58228297D01*
X91203688Y-58423934D01*
X91245000Y-58631622D01*
X91245000Y-58843378D01*
X91203688Y-59051066D01*
X91122653Y-59246703D01*
X91005005Y-59422775D01*
X90855275Y-59572505D01*
X90679203Y-59690153D01*
X90483566Y-59771188D01*
X90275878Y-59812500D01*
X90064122Y-59812500D01*
X89856434Y-59771188D01*
X89660797Y-59690153D01*
X89484725Y-59572505D01*
X89334995Y-59422775D01*
X89217347Y-59246703D01*
X89136312Y-59051066D01*
X89095000Y-58843378D01*
X89095000Y-58631622D01*
X89136312Y-58423934D01*
X89217347Y-58228297D01*
X89334995Y-58052225D01*
X89484725Y-57902495D01*
X89660797Y-57784847D01*
X89856434Y-57703812D01*
X90064122Y-57662500D01*
X90275878Y-57662500D01*
X90483566Y-57703812D01*
X90483566Y-57703812D01*
G37*
G36*
X81593566Y-57703812D02*
X81789203Y-57784847D01*
X81965275Y-57902495D01*
X82115005Y-58052225D01*
X82232653Y-58228297D01*
X82313688Y-58423934D01*
X82355000Y-58631622D01*
X82355000Y-58843378D01*
X82313688Y-59051066D01*
X82232653Y-59246703D01*
X82115005Y-59422775D01*
X81965275Y-59572505D01*
X81789203Y-59690153D01*
X81593566Y-59771188D01*
X81385878Y-59812500D01*
X81174122Y-59812500D01*
X80966434Y-59771188D01*
X80770797Y-59690153D01*
X80594725Y-59572505D01*
X80444995Y-59422775D01*
X80327347Y-59246703D01*
X80246312Y-59051066D01*
X80205000Y-58843378D01*
X80205000Y-58631622D01*
X80246312Y-58423934D01*
X80327347Y-58228297D01*
X80444995Y-58052225D01*
X80594725Y-57902495D01*
X80770797Y-57784847D01*
X80966434Y-57703812D01*
X81174122Y-57662500D01*
X81385878Y-57662500D01*
X81593566Y-57703812D01*
X81593566Y-57703812D01*
G37*
G36*
X71433566Y-57703812D02*
X71629203Y-57784847D01*
X71805275Y-57902495D01*
X71955005Y-58052225D01*
X72072653Y-58228297D01*
X72153688Y-58423934D01*
X72195000Y-58631622D01*
X72195000Y-58843378D01*
X72153688Y-59051066D01*
X72072653Y-59246703D01*
X71955005Y-59422775D01*
X71805275Y-59572505D01*
X71629203Y-59690153D01*
X71433566Y-59771188D01*
X71225878Y-59812500D01*
X71014122Y-59812500D01*
X70806434Y-59771188D01*
X70610797Y-59690153D01*
X70434725Y-59572505D01*
X70284995Y-59422775D01*
X70167347Y-59246703D01*
X70086312Y-59051066D01*
X70045000Y-58843378D01*
X70045000Y-58631622D01*
X70086312Y-58423934D01*
X70167347Y-58228297D01*
X70284995Y-58052225D01*
X70434725Y-57902495D01*
X70610797Y-57784847D01*
X70806434Y-57703812D01*
X71014122Y-57662500D01*
X71225878Y-57662500D01*
X71433566Y-57703812D01*
X71433566Y-57703812D01*
G37*
G36*
X119693566Y-57703812D02*
X119889203Y-57784847D01*
X120065275Y-57902495D01*
X120215005Y-58052225D01*
X120332653Y-58228297D01*
X120413688Y-58423934D01*
X120455000Y-58631622D01*
X120455000Y-58843378D01*
X120413688Y-59051066D01*
X120332653Y-59246703D01*
X120215005Y-59422775D01*
X120065275Y-59572505D01*
X119889203Y-59690153D01*
X119693566Y-59771188D01*
X119485878Y-59812500D01*
X119274122Y-59812500D01*
X119066434Y-59771188D01*
X118870797Y-59690153D01*
X118694725Y-59572505D01*
X118544995Y-59422775D01*
X118427347Y-59246703D01*
X118346312Y-59051066D01*
X118305000Y-58843378D01*
X118305000Y-58631622D01*
X118346312Y-58423934D01*
X118427347Y-58228297D01*
X118544995Y-58052225D01*
X118694725Y-57902495D01*
X118870797Y-57784847D01*
X119066434Y-57703812D01*
X119274122Y-57662500D01*
X119485878Y-57662500D01*
X119693566Y-57703812D01*
X119693566Y-57703812D01*
G37*
G36*
X269286271Y-53261793D02*
X269387786Y-53281985D01*
X269579038Y-53361204D01*
X269749999Y-53475437D01*
X269751163Y-53476215D01*
X269897535Y-53622587D01*
X269897537Y-53622590D01*
X270012546Y-53794712D01*
X270091765Y-53985964D01*
X270132150Y-54188995D01*
X270132150Y-54396005D01*
X270091765Y-54599036D01*
X270012546Y-54790288D01*
X269898313Y-54961249D01*
X269897535Y-54962413D01*
X269751163Y-55108785D01*
X269751160Y-55108787D01*
X269579038Y-55223796D01*
X269387786Y-55303015D01*
X269286270Y-55323208D01*
X269184756Y-55343400D01*
X268977744Y-55343400D01*
X268876230Y-55323208D01*
X268774714Y-55303015D01*
X268583462Y-55223796D01*
X268411340Y-55108787D01*
X268411337Y-55108785D01*
X268264965Y-54962413D01*
X268264187Y-54961249D01*
X268149954Y-54790288D01*
X268070735Y-54599036D01*
X268030350Y-54396005D01*
X268030350Y-54188995D01*
X268070735Y-53985964D01*
X268149954Y-53794712D01*
X268264963Y-53622590D01*
X268264965Y-53622587D01*
X268411337Y-53476215D01*
X268412501Y-53475437D01*
X268583462Y-53361204D01*
X268774714Y-53281985D01*
X268876230Y-53261792D01*
X268977744Y-53241600D01*
X269184756Y-53241600D01*
X269286271Y-53261793D01*
X269286271Y-53261793D01*
G37*
G36*
X269721184Y-47102910D02*
X269721186Y-47102911D01*
X269721187Y-47102911D01*
X270120451Y-47268291D01*
X270479780Y-47508387D01*
X270785363Y-47813970D01*
X271025459Y-48173299D01*
X271190839Y-48572563D01*
X271190840Y-48572566D01*
X271275150Y-48996418D01*
X271275150Y-49428582D01*
X271190840Y-49852437D01*
X271188860Y-49857217D01*
X271181747Y-49880666D01*
X271179346Y-49905052D01*
X271181748Y-49929439D01*
X271188862Y-49952888D01*
X271200414Y-49974498D01*
X271215959Y-49993440D01*
X271234902Y-50008985D01*
X271256513Y-50020536D01*
X271279962Y-50027649D01*
X271304348Y-50030050D01*
X271320088Y-50028500D01*
X271664051Y-50028500D01*
X271997122Y-50094752D01*
X272310869Y-50224710D01*
X272593239Y-50413384D01*
X272833366Y-50653511D01*
X273022040Y-50935881D01*
X273151998Y-51249628D01*
X273218250Y-51582699D01*
X273218250Y-51922301D01*
X273151998Y-52255372D01*
X273022040Y-52569119D01*
X272833366Y-52851489D01*
X272593239Y-53091616D01*
X272310869Y-53280290D01*
X271997122Y-53410248D01*
X271664051Y-53476500D01*
X271324449Y-53476500D01*
X270991378Y-53410248D01*
X270677631Y-53280290D01*
X270395261Y-53091616D01*
X270155134Y-52851489D01*
X269966460Y-52569119D01*
X269836502Y-52255372D01*
X269770250Y-51922301D01*
X269770250Y-51582701D01*
X269789749Y-51484674D01*
X269792151Y-51460287D01*
X269789749Y-51435901D01*
X269782636Y-51412452D01*
X269771085Y-51390841D01*
X269755540Y-51371899D01*
X269736598Y-51356354D01*
X269714987Y-51344802D01*
X269691538Y-51337689D01*
X269667151Y-51335287D01*
X269642765Y-51337689D01*
X269297332Y-51406400D01*
X268865168Y-51406400D01*
X268441316Y-51322090D01*
X268441314Y-51322089D01*
X268441313Y-51322089D01*
X268042049Y-51156709D01*
X267682720Y-50916613D01*
X267377137Y-50611030D01*
X267137041Y-50251701D01*
X266971661Y-49852437D01*
X266887350Y-49428580D01*
X266887350Y-48996420D01*
X266971661Y-48572563D01*
X267137041Y-48173299D01*
X267377137Y-47813970D01*
X267682720Y-47508387D01*
X268042049Y-47268291D01*
X268441313Y-47102911D01*
X268441314Y-47102911D01*
X268441316Y-47102910D01*
X268865168Y-47018600D01*
X269297332Y-47018600D01*
X269721184Y-47102910D01*
X269721184Y-47102910D01*
G37*
G36*
X248121122Y-50094752D02*
X248434869Y-50224710D01*
X248717239Y-50413384D01*
X248957366Y-50653511D01*
X249146040Y-50935881D01*
X249275998Y-51249628D01*
X249342250Y-51582699D01*
X249342250Y-51922301D01*
X249275998Y-52255372D01*
X249146040Y-52569119D01*
X248957366Y-52851489D01*
X248717239Y-53091616D01*
X248434869Y-53280290D01*
X248121122Y-53410248D01*
X247788051Y-53476500D01*
X247448449Y-53476500D01*
X247115378Y-53410248D01*
X246801631Y-53280290D01*
X246519261Y-53091616D01*
X246279134Y-52851489D01*
X246090460Y-52569119D01*
X245960502Y-52255372D01*
X245894250Y-51922301D01*
X245894250Y-51582699D01*
X245960502Y-51249628D01*
X246090460Y-50935881D01*
X246279134Y-50653511D01*
X246519261Y-50413384D01*
X246801631Y-50224710D01*
X247115378Y-50094752D01*
X247448449Y-50028500D01*
X247788051Y-50028500D01*
X248121122Y-50094752D01*
X248121122Y-50094752D01*
G37*
G36*
X269286270Y-43101792D02*
X269387786Y-43121985D01*
X269579038Y-43201204D01*
X269749999Y-43315437D01*
X269751163Y-43316215D01*
X269897535Y-43462587D01*
X269897537Y-43462590D01*
X270012546Y-43634712D01*
X270091765Y-43825964D01*
X270132150Y-44028995D01*
X270132150Y-44236005D01*
X270091765Y-44439036D01*
X270012546Y-44630288D01*
X269898313Y-44801249D01*
X269897535Y-44802413D01*
X269751163Y-44948785D01*
X269751160Y-44948787D01*
X269579038Y-45063796D01*
X269387786Y-45143015D01*
X269286270Y-45163208D01*
X269184756Y-45183400D01*
X268977744Y-45183400D01*
X268876230Y-45163208D01*
X268774714Y-45143015D01*
X268583462Y-45063796D01*
X268411340Y-44948787D01*
X268411337Y-44948785D01*
X268264965Y-44802413D01*
X268264187Y-44801249D01*
X268149954Y-44630288D01*
X268070735Y-44439036D01*
X268030350Y-44236005D01*
X268030350Y-44028995D01*
X268070735Y-43825964D01*
X268149954Y-43634712D01*
X268264963Y-43462590D01*
X268264965Y-43462587D01*
X268411337Y-43316215D01*
X268412501Y-43315437D01*
X268583462Y-43201204D01*
X268774714Y-43121985D01*
X268876230Y-43101792D01*
X268977744Y-43081600D01*
X269184756Y-43081600D01*
X269286270Y-43101792D01*
X269286270Y-43101792D01*
G37*
G36*
X167327434Y-37577910D02*
X167327436Y-37577911D01*
X167327437Y-37577911D01*
X167726701Y-37743291D01*
X168086030Y-37983387D01*
X168391613Y-38288970D01*
X168631709Y-38648299D01*
X168797089Y-39047563D01*
X168797090Y-39047566D01*
X168881130Y-39470063D01*
X168881400Y-39471420D01*
X168881400Y-39903580D01*
X168797089Y-40327437D01*
X168631709Y-40726701D01*
X168391613Y-41086030D01*
X168086030Y-41391613D01*
X167726701Y-41631709D01*
X167327437Y-41797089D01*
X167327436Y-41797089D01*
X167327434Y-41797090D01*
X166903582Y-41881400D01*
X166471418Y-41881400D01*
X166047566Y-41797090D01*
X166047564Y-41797089D01*
X166047563Y-41797089D01*
X165648299Y-41631709D01*
X165288970Y-41391613D01*
X164983387Y-41086030D01*
X164743291Y-40726701D01*
X164577911Y-40327437D01*
X164493600Y-39903580D01*
X164493600Y-39471420D01*
X164493870Y-39470063D01*
X164577910Y-39047566D01*
X164577911Y-39047563D01*
X164743291Y-38648299D01*
X164983387Y-38288970D01*
X165288970Y-37983387D01*
X165648299Y-37743291D01*
X166047563Y-37577911D01*
X166047564Y-37577911D01*
X166047566Y-37577910D01*
X166471418Y-37493600D01*
X166903582Y-37493600D01*
X167327434Y-37577910D01*
X167327434Y-37577910D01*
G37*
G36*
X48264934Y-37577910D02*
X48264936Y-37577911D01*
X48264937Y-37577911D01*
X48664201Y-37743291D01*
X49023530Y-37983387D01*
X49329113Y-38288970D01*
X49569209Y-38648299D01*
X49734589Y-39047563D01*
X49734590Y-39047566D01*
X49818630Y-39470063D01*
X49818900Y-39471420D01*
X49818900Y-39903580D01*
X49734589Y-40327437D01*
X49569209Y-40726701D01*
X49329113Y-41086030D01*
X49023530Y-41391613D01*
X48664201Y-41631709D01*
X48264937Y-41797089D01*
X48264936Y-41797089D01*
X48264934Y-41797090D01*
X47841082Y-41881400D01*
X47408918Y-41881400D01*
X46985066Y-41797090D01*
X46985064Y-41797089D01*
X46985063Y-41797089D01*
X46585799Y-41631709D01*
X46226470Y-41391613D01*
X45920887Y-41086030D01*
X45680791Y-40726701D01*
X45515411Y-40327437D01*
X45431100Y-39903580D01*
X45431100Y-39471420D01*
X45431370Y-39470063D01*
X45515410Y-39047566D01*
X45515411Y-39047563D01*
X45680791Y-38648299D01*
X45920887Y-38288970D01*
X46226470Y-37983387D01*
X46585799Y-37743291D01*
X46985063Y-37577911D01*
X46985064Y-37577911D01*
X46985066Y-37577910D01*
X47408918Y-37493600D01*
X47841082Y-37493600D01*
X48264934Y-37577910D01*
X48264934Y-37577910D01*
G37*
G36*
X205427434Y-37577910D02*
X205427436Y-37577911D01*
X205427437Y-37577911D01*
X205826701Y-37743291D01*
X206186030Y-37983387D01*
X206491613Y-38288970D01*
X206731709Y-38648299D01*
X206897089Y-39047563D01*
X206897090Y-39047566D01*
X206981130Y-39470063D01*
X206981400Y-39471420D01*
X206981400Y-39903580D01*
X206897089Y-40327437D01*
X206731709Y-40726701D01*
X206491613Y-41086030D01*
X206186030Y-41391613D01*
X205826701Y-41631709D01*
X205427437Y-41797089D01*
X205427436Y-41797089D01*
X205427434Y-41797090D01*
X205003582Y-41881400D01*
X204571418Y-41881400D01*
X204147566Y-41797090D01*
X204147564Y-41797089D01*
X204147563Y-41797089D01*
X203748299Y-41631709D01*
X203388970Y-41391613D01*
X203083387Y-41086030D01*
X202843291Y-40726701D01*
X202677911Y-40327437D01*
X202593600Y-39903580D01*
X202593600Y-39471420D01*
X202593870Y-39470063D01*
X202677910Y-39047566D01*
X202677911Y-39047563D01*
X202843291Y-38648299D01*
X203083387Y-38288970D01*
X203388970Y-37983387D01*
X203748299Y-37743291D01*
X204147563Y-37577911D01*
X204147564Y-37577911D01*
X204147566Y-37577910D01*
X204571418Y-37493600D01*
X205003582Y-37493600D01*
X205427434Y-37577910D01*
X205427434Y-37577910D01*
G37*
G36*
X186377434Y-37577910D02*
X186377436Y-37577911D01*
X186377437Y-37577911D01*
X186776701Y-37743291D01*
X187136030Y-37983387D01*
X187441613Y-38288970D01*
X187681709Y-38648299D01*
X187847089Y-39047563D01*
X187847090Y-39047566D01*
X187931130Y-39470063D01*
X187931400Y-39471420D01*
X187931400Y-39903580D01*
X187847089Y-40327437D01*
X187681709Y-40726701D01*
X187441613Y-41086030D01*
X187136030Y-41391613D01*
X186776701Y-41631709D01*
X186377437Y-41797089D01*
X186377436Y-41797089D01*
X186377434Y-41797090D01*
X185953582Y-41881400D01*
X185521418Y-41881400D01*
X185097566Y-41797090D01*
X185097564Y-41797089D01*
X185097563Y-41797089D01*
X184698299Y-41631709D01*
X184338970Y-41391613D01*
X184033387Y-41086030D01*
X183793291Y-40726701D01*
X183627911Y-40327437D01*
X183543600Y-39903580D01*
X183543600Y-39471420D01*
X183543870Y-39470063D01*
X183627910Y-39047566D01*
X183627911Y-39047563D01*
X183793291Y-38648299D01*
X184033387Y-38288970D01*
X184338970Y-37983387D01*
X184698299Y-37743291D01*
X185097563Y-37577911D01*
X185097564Y-37577911D01*
X185097566Y-37577910D01*
X185521418Y-37493600D01*
X185953582Y-37493600D01*
X186377434Y-37577910D01*
X186377434Y-37577910D01*
G37*
G36*
X148277434Y-37577910D02*
X148277436Y-37577911D01*
X148277437Y-37577911D01*
X148676701Y-37743291D01*
X149036030Y-37983387D01*
X149341613Y-38288970D01*
X149581709Y-38648299D01*
X149747089Y-39047563D01*
X149747090Y-39047566D01*
X149831130Y-39470063D01*
X149831400Y-39471420D01*
X149831400Y-39903580D01*
X149747089Y-40327437D01*
X149581709Y-40726701D01*
X149341613Y-41086030D01*
X149036030Y-41391613D01*
X148676701Y-41631709D01*
X148277437Y-41797089D01*
X148277436Y-41797089D01*
X148277434Y-41797090D01*
X147853582Y-41881400D01*
X147421418Y-41881400D01*
X146997566Y-41797090D01*
X146997564Y-41797089D01*
X146997563Y-41797089D01*
X146598299Y-41631709D01*
X146238970Y-41391613D01*
X145933387Y-41086030D01*
X145693291Y-40726701D01*
X145527911Y-40327437D01*
X145443600Y-39903580D01*
X145443600Y-39471420D01*
X145443870Y-39470063D01*
X145527910Y-39047566D01*
X145527911Y-39047563D01*
X145693291Y-38648299D01*
X145933387Y-38288970D01*
X146238970Y-37983387D01*
X146598299Y-37743291D01*
X146997563Y-37577911D01*
X146997564Y-37577911D01*
X146997566Y-37577910D01*
X147421418Y-37493600D01*
X147853582Y-37493600D01*
X148277434Y-37577910D01*
X148277434Y-37577910D01*
G37*
G36*
X224477434Y-37577910D02*
X224477436Y-37577911D01*
X224477437Y-37577911D01*
X224876701Y-37743291D01*
X225236030Y-37983387D01*
X225541613Y-38288970D01*
X225781709Y-38648299D01*
X225947089Y-39047563D01*
X225947090Y-39047566D01*
X226031130Y-39470063D01*
X226031400Y-39471420D01*
X226031400Y-39903580D01*
X225947089Y-40327437D01*
X225781709Y-40726701D01*
X225541613Y-41086030D01*
X225236030Y-41391613D01*
X224876701Y-41631709D01*
X224477437Y-41797089D01*
X224477436Y-41797089D01*
X224477434Y-41797090D01*
X224053582Y-41881400D01*
X223621418Y-41881400D01*
X223197566Y-41797090D01*
X223197564Y-41797089D01*
X223197563Y-41797089D01*
X222798299Y-41631709D01*
X222438970Y-41391613D01*
X222133387Y-41086030D01*
X221893291Y-40726701D01*
X221727911Y-40327437D01*
X221643600Y-39903580D01*
X221643600Y-39471420D01*
X221643870Y-39470063D01*
X221727910Y-39047566D01*
X221727911Y-39047563D01*
X221893291Y-38648299D01*
X222133387Y-38288970D01*
X222438970Y-37983387D01*
X222798299Y-37743291D01*
X223197563Y-37577911D01*
X223197564Y-37577911D01*
X223197566Y-37577910D01*
X223621418Y-37493600D01*
X224053582Y-37493600D01*
X224477434Y-37577910D01*
X224477434Y-37577910D01*
G37*
G36*
X110177434Y-37577910D02*
X110177436Y-37577911D01*
X110177437Y-37577911D01*
X110576701Y-37743291D01*
X110936030Y-37983387D01*
X111241613Y-38288970D01*
X111481709Y-38648299D01*
X111647089Y-39047563D01*
X111647090Y-39047566D01*
X111731130Y-39470063D01*
X111731400Y-39471420D01*
X111731400Y-39903580D01*
X111647089Y-40327437D01*
X111481709Y-40726701D01*
X111241613Y-41086030D01*
X110936030Y-41391613D01*
X110576701Y-41631709D01*
X110177437Y-41797089D01*
X110177436Y-41797089D01*
X110177434Y-41797090D01*
X109753582Y-41881400D01*
X109321418Y-41881400D01*
X108897566Y-41797090D01*
X108897564Y-41797089D01*
X108897563Y-41797089D01*
X108498299Y-41631709D01*
X108138970Y-41391613D01*
X107833387Y-41086030D01*
X107593291Y-40726701D01*
X107427911Y-40327437D01*
X107343600Y-39903580D01*
X107343600Y-39471420D01*
X107343870Y-39470063D01*
X107427910Y-39047566D01*
X107427911Y-39047563D01*
X107593291Y-38648299D01*
X107833387Y-38288970D01*
X108138970Y-37983387D01*
X108498299Y-37743291D01*
X108897563Y-37577911D01*
X108897564Y-37577911D01*
X108897566Y-37577910D01*
X109321418Y-37493600D01*
X109753582Y-37493600D01*
X110177434Y-37577910D01*
X110177434Y-37577910D01*
G37*
G36*
X129227434Y-37577910D02*
X129227436Y-37577911D01*
X129227437Y-37577911D01*
X129626701Y-37743291D01*
X129986030Y-37983387D01*
X130291613Y-38288970D01*
X130531709Y-38648299D01*
X130697089Y-39047563D01*
X130697090Y-39047566D01*
X130781130Y-39470063D01*
X130781400Y-39471420D01*
X130781400Y-39903580D01*
X130697089Y-40327437D01*
X130531709Y-40726701D01*
X130291613Y-41086030D01*
X129986030Y-41391613D01*
X129626701Y-41631709D01*
X129227437Y-41797089D01*
X129227436Y-41797089D01*
X129227434Y-41797090D01*
X128803582Y-41881400D01*
X128371418Y-41881400D01*
X127947566Y-41797090D01*
X127947564Y-41797089D01*
X127947563Y-41797089D01*
X127548299Y-41631709D01*
X127188970Y-41391613D01*
X126883387Y-41086030D01*
X126643291Y-40726701D01*
X126477911Y-40327437D01*
X126393600Y-39903580D01*
X126393600Y-39471420D01*
X126393870Y-39470063D01*
X126477910Y-39047566D01*
X126477911Y-39047563D01*
X126643291Y-38648299D01*
X126883387Y-38288970D01*
X127188970Y-37983387D01*
X127548299Y-37743291D01*
X127947563Y-37577911D01*
X127947564Y-37577911D01*
X127947566Y-37577910D01*
X128371418Y-37493600D01*
X128803582Y-37493600D01*
X129227434Y-37577910D01*
X129227434Y-37577910D01*
G37*
G36*
X72077434Y-37577910D02*
X72077436Y-37577911D01*
X72077437Y-37577911D01*
X72476701Y-37743291D01*
X72836030Y-37983387D01*
X73141613Y-38288970D01*
X73381709Y-38648299D01*
X73547089Y-39047563D01*
X73547090Y-39047566D01*
X73631130Y-39470063D01*
X73631400Y-39471420D01*
X73631400Y-39903580D01*
X73547089Y-40327437D01*
X73381709Y-40726701D01*
X73141613Y-41086030D01*
X72836030Y-41391613D01*
X72476701Y-41631709D01*
X72077437Y-41797089D01*
X72077436Y-41797089D01*
X72077434Y-41797090D01*
X71653582Y-41881400D01*
X71221418Y-41881400D01*
X70797566Y-41797090D01*
X70797564Y-41797089D01*
X70797563Y-41797089D01*
X70398299Y-41631709D01*
X70038970Y-41391613D01*
X69733387Y-41086030D01*
X69493291Y-40726701D01*
X69327911Y-40327437D01*
X69243600Y-39903580D01*
X69243600Y-39471420D01*
X69243870Y-39470063D01*
X69327910Y-39047566D01*
X69327911Y-39047563D01*
X69493291Y-38648299D01*
X69733387Y-38288970D01*
X70038970Y-37983387D01*
X70398299Y-37743291D01*
X70797563Y-37577911D01*
X70797564Y-37577911D01*
X70797566Y-37577910D01*
X71221418Y-37493600D01*
X71653582Y-37493600D01*
X72077434Y-37577910D01*
X72077434Y-37577910D01*
G37*
G36*
X91127434Y-37577910D02*
X91127436Y-37577911D01*
X91127437Y-37577911D01*
X91526701Y-37743291D01*
X91886030Y-37983387D01*
X92191613Y-38288970D01*
X92431709Y-38648299D01*
X92597089Y-39047563D01*
X92597090Y-39047566D01*
X92681130Y-39470063D01*
X92681400Y-39471420D01*
X92681400Y-39903580D01*
X92597089Y-40327437D01*
X92431709Y-40726701D01*
X92191613Y-41086030D01*
X91886030Y-41391613D01*
X91526701Y-41631709D01*
X91127437Y-41797089D01*
X91127436Y-41797089D01*
X91127434Y-41797090D01*
X90703582Y-41881400D01*
X90271418Y-41881400D01*
X89847566Y-41797090D01*
X89847564Y-41797089D01*
X89847563Y-41797089D01*
X89448299Y-41631709D01*
X89088970Y-41391613D01*
X88783387Y-41086030D01*
X88543291Y-40726701D01*
X88377911Y-40327437D01*
X88293600Y-39903580D01*
X88293600Y-39471420D01*
X88293870Y-39470063D01*
X88377910Y-39047566D01*
X88377911Y-39047563D01*
X88543291Y-38648299D01*
X88783387Y-38288970D01*
X89088970Y-37983387D01*
X89448299Y-37743291D01*
X89847563Y-37577911D01*
X89847564Y-37577911D01*
X89847566Y-37577910D01*
X90271418Y-37493600D01*
X90703582Y-37493600D01*
X91127434Y-37577910D01*
X91127434Y-37577910D01*
G37*
G36*
X267339934Y-37577910D02*
X267339936Y-37577911D01*
X267339937Y-37577911D01*
X267739201Y-37743291D01*
X268098530Y-37983387D01*
X268404113Y-38288970D01*
X268644209Y-38648299D01*
X268809589Y-39047563D01*
X268809590Y-39047566D01*
X268893630Y-39470063D01*
X268893900Y-39471420D01*
X268893900Y-39903580D01*
X268809589Y-40327437D01*
X268644209Y-40726701D01*
X268404113Y-41086030D01*
X268098530Y-41391613D01*
X267739201Y-41631709D01*
X267339937Y-41797089D01*
X267339936Y-41797089D01*
X267339934Y-41797090D01*
X266916082Y-41881400D01*
X266483918Y-41881400D01*
X266060066Y-41797090D01*
X266060064Y-41797089D01*
X266060063Y-41797089D01*
X265660799Y-41631709D01*
X265301470Y-41391613D01*
X264995887Y-41086030D01*
X264755791Y-40726701D01*
X264590411Y-40327437D01*
X264506100Y-39903580D01*
X264506100Y-39471420D01*
X264506370Y-39470063D01*
X264590410Y-39047566D01*
X264590411Y-39047563D01*
X264755791Y-38648299D01*
X264995887Y-38288970D01*
X265301470Y-37983387D01*
X265660799Y-37743291D01*
X266060063Y-37577911D01*
X266060064Y-37577911D01*
X266060066Y-37577910D01*
X266483918Y-37493600D01*
X266916082Y-37493600D01*
X267339934Y-37577910D01*
X267339934Y-37577910D01*
G37*
G36*
X243527434Y-37577910D02*
X243527436Y-37577911D01*
X243527437Y-37577911D01*
X243926701Y-37743291D01*
X244286030Y-37983387D01*
X244591613Y-38288970D01*
X244831709Y-38648299D01*
X244997089Y-39047563D01*
X244997090Y-39047566D01*
X245081130Y-39470063D01*
X245081400Y-39471420D01*
X245081400Y-39903580D01*
X244997089Y-40327437D01*
X244831709Y-40726701D01*
X244591613Y-41086030D01*
X244286030Y-41391613D01*
X243926701Y-41631709D01*
X243527437Y-41797089D01*
X243527436Y-41797089D01*
X243527434Y-41797090D01*
X243103582Y-41881400D01*
X242671418Y-41881400D01*
X242247566Y-41797090D01*
X242247564Y-41797089D01*
X242247563Y-41797089D01*
X241848299Y-41631709D01*
X241488970Y-41391613D01*
X241183387Y-41086030D01*
X240943291Y-40726701D01*
X240777911Y-40327437D01*
X240693600Y-39903580D01*
X240693600Y-39471420D01*
X240693870Y-39470063D01*
X240777910Y-39047566D01*
X240777911Y-39047563D01*
X240943291Y-38648299D01*
X241183387Y-38288970D01*
X241488970Y-37983387D01*
X241848299Y-37743291D01*
X242247563Y-37577911D01*
X242247564Y-37577911D01*
X242247566Y-37577910D01*
X242671418Y-37493600D01*
X243103582Y-37493600D01*
X243527434Y-37577910D01*
X243527434Y-37577910D01*
G37*
G36*
X238121066Y-38653812D02*
X238316703Y-38734847D01*
X238492775Y-38852495D01*
X238642505Y-39002225D01*
X238760153Y-39178297D01*
X238841188Y-39373934D01*
X238882500Y-39581622D01*
X238882500Y-39793378D01*
X238841188Y-40001066D01*
X238760153Y-40196703D01*
X238642505Y-40372775D01*
X238492775Y-40522505D01*
X238316703Y-40640153D01*
X238121066Y-40721188D01*
X237913378Y-40762500D01*
X237701622Y-40762500D01*
X237493934Y-40721188D01*
X237298297Y-40640153D01*
X237122225Y-40522505D01*
X236972495Y-40372775D01*
X236854847Y-40196703D01*
X236773812Y-40001066D01*
X236732500Y-39793378D01*
X236732500Y-39581622D01*
X236773812Y-39373934D01*
X236854847Y-39178297D01*
X236972495Y-39002225D01*
X237122225Y-38852495D01*
X237298297Y-38734847D01*
X237493934Y-38653812D01*
X237701622Y-38612500D01*
X237913378Y-38612500D01*
X238121066Y-38653812D01*
X238121066Y-38653812D01*
G37*
G36*
X219071066Y-38653812D02*
X219266703Y-38734847D01*
X219442775Y-38852495D01*
X219592505Y-39002225D01*
X219710153Y-39178297D01*
X219791188Y-39373934D01*
X219832500Y-39581622D01*
X219832500Y-39793378D01*
X219791188Y-40001066D01*
X219710153Y-40196703D01*
X219592505Y-40372775D01*
X219442775Y-40522505D01*
X219266703Y-40640153D01*
X219071066Y-40721188D01*
X218863378Y-40762500D01*
X218651622Y-40762500D01*
X218443934Y-40721188D01*
X218248297Y-40640153D01*
X218072225Y-40522505D01*
X217922495Y-40372775D01*
X217804847Y-40196703D01*
X217723812Y-40001066D01*
X217682500Y-39793378D01*
X217682500Y-39581622D01*
X217723812Y-39373934D01*
X217804847Y-39178297D01*
X217922495Y-39002225D01*
X218072225Y-38852495D01*
X218248297Y-38734847D01*
X218443934Y-38653812D01*
X218651622Y-38612500D01*
X218863378Y-38612500D01*
X219071066Y-38653812D01*
X219071066Y-38653812D01*
G37*
G36*
X191131066Y-38653812D02*
X191326703Y-38734847D01*
X191502775Y-38852495D01*
X191652505Y-39002225D01*
X191770153Y-39178297D01*
X191851188Y-39373934D01*
X191892500Y-39581622D01*
X191892500Y-39793378D01*
X191851188Y-40001066D01*
X191770153Y-40196703D01*
X191652505Y-40372775D01*
X191502775Y-40522505D01*
X191326703Y-40640153D01*
X191131066Y-40721188D01*
X190923378Y-40762500D01*
X190711622Y-40762500D01*
X190503934Y-40721188D01*
X190308297Y-40640153D01*
X190132225Y-40522505D01*
X189982495Y-40372775D01*
X189864847Y-40196703D01*
X189783812Y-40001066D01*
X189742500Y-39793378D01*
X189742500Y-39581622D01*
X189783812Y-39373934D01*
X189864847Y-39178297D01*
X189982495Y-39002225D01*
X190132225Y-38852495D01*
X190308297Y-38734847D01*
X190503934Y-38653812D01*
X190711622Y-38612500D01*
X190923378Y-38612500D01*
X191131066Y-38653812D01*
X191131066Y-38653812D01*
G37*
G36*
X153031066Y-38653812D02*
X153226703Y-38734847D01*
X153402775Y-38852495D01*
X153552505Y-39002225D01*
X153670153Y-39178297D01*
X153751188Y-39373934D01*
X153792500Y-39581622D01*
X153792500Y-39793378D01*
X153751188Y-40001066D01*
X153670153Y-40196703D01*
X153552505Y-40372775D01*
X153402775Y-40522505D01*
X153226703Y-40640153D01*
X153031066Y-40721188D01*
X152823378Y-40762500D01*
X152611622Y-40762500D01*
X152403934Y-40721188D01*
X152208297Y-40640153D01*
X152032225Y-40522505D01*
X151882495Y-40372775D01*
X151764847Y-40196703D01*
X151683812Y-40001066D01*
X151642500Y-39793378D01*
X151642500Y-39581622D01*
X151683812Y-39373934D01*
X151764847Y-39178297D01*
X151882495Y-39002225D01*
X152032225Y-38852495D01*
X152208297Y-38734847D01*
X152403934Y-38653812D01*
X152611622Y-38612500D01*
X152823378Y-38612500D01*
X153031066Y-38653812D01*
X153031066Y-38653812D01*
G37*
G36*
X142871066Y-38653812D02*
X143066703Y-38734847D01*
X143242775Y-38852495D01*
X143392505Y-39002225D01*
X143510153Y-39178297D01*
X143591188Y-39373934D01*
X143632500Y-39581622D01*
X143632500Y-39793378D01*
X143591188Y-40001066D01*
X143510153Y-40196703D01*
X143392505Y-40372775D01*
X143242775Y-40522505D01*
X143066703Y-40640153D01*
X142871066Y-40721188D01*
X142663378Y-40762500D01*
X142451622Y-40762500D01*
X142243934Y-40721188D01*
X142048297Y-40640153D01*
X141872225Y-40522505D01*
X141722495Y-40372775D01*
X141604847Y-40196703D01*
X141523812Y-40001066D01*
X141482500Y-39793378D01*
X141482500Y-39581622D01*
X141523812Y-39373934D01*
X141604847Y-39178297D01*
X141722495Y-39002225D01*
X141872225Y-38852495D01*
X142048297Y-38734847D01*
X142243934Y-38653812D01*
X142451622Y-38612500D01*
X142663378Y-38612500D01*
X142871066Y-38653812D01*
X142871066Y-38653812D01*
G37*
G36*
X248281066Y-38653812D02*
X248476703Y-38734847D01*
X248652775Y-38852495D01*
X248802505Y-39002225D01*
X248920153Y-39178297D01*
X249001188Y-39373934D01*
X249042500Y-39581622D01*
X249042500Y-39793378D01*
X249001188Y-40001066D01*
X248920153Y-40196703D01*
X248802505Y-40372775D01*
X248652775Y-40522505D01*
X248476703Y-40640153D01*
X248281066Y-40721188D01*
X248073378Y-40762500D01*
X247861622Y-40762500D01*
X247653934Y-40721188D01*
X247458297Y-40640153D01*
X247282225Y-40522505D01*
X247132495Y-40372775D01*
X247014847Y-40196703D01*
X246933812Y-40001066D01*
X246892500Y-39793378D01*
X246892500Y-39581622D01*
X246933812Y-39373934D01*
X247014847Y-39178297D01*
X247132495Y-39002225D01*
X247282225Y-38852495D01*
X247458297Y-38734847D01*
X247653934Y-38653812D01*
X247861622Y-38612500D01*
X248073378Y-38612500D01*
X248281066Y-38653812D01*
X248281066Y-38653812D01*
G37*
G36*
X180971066Y-38653812D02*
X181166703Y-38734847D01*
X181342775Y-38852495D01*
X181492505Y-39002225D01*
X181610153Y-39178297D01*
X181691188Y-39373934D01*
X181732500Y-39581622D01*
X181732500Y-39793378D01*
X181691188Y-40001066D01*
X181610153Y-40196703D01*
X181492505Y-40372775D01*
X181342775Y-40522505D01*
X181166703Y-40640153D01*
X180971066Y-40721188D01*
X180763378Y-40762500D01*
X180551622Y-40762500D01*
X180343934Y-40721188D01*
X180148297Y-40640153D01*
X179972225Y-40522505D01*
X179822495Y-40372775D01*
X179704847Y-40196703D01*
X179623812Y-40001066D01*
X179582500Y-39793378D01*
X179582500Y-39581622D01*
X179623812Y-39373934D01*
X179704847Y-39178297D01*
X179822495Y-39002225D01*
X179972225Y-38852495D01*
X180148297Y-38734847D01*
X180343934Y-38653812D01*
X180551622Y-38612500D01*
X180763378Y-38612500D01*
X180971066Y-38653812D01*
X180971066Y-38653812D01*
G37*
G36*
X229231066Y-38653812D02*
X229426703Y-38734847D01*
X229602775Y-38852495D01*
X229752505Y-39002225D01*
X229870153Y-39178297D01*
X229951188Y-39373934D01*
X229992500Y-39581622D01*
X229992500Y-39793378D01*
X229951188Y-40001066D01*
X229870153Y-40196703D01*
X229752505Y-40372775D01*
X229602775Y-40522505D01*
X229426703Y-40640153D01*
X229231066Y-40721188D01*
X229023378Y-40762500D01*
X228811622Y-40762500D01*
X228603934Y-40721188D01*
X228408297Y-40640153D01*
X228232225Y-40522505D01*
X228082495Y-40372775D01*
X227964847Y-40196703D01*
X227883812Y-40001066D01*
X227842500Y-39793378D01*
X227842500Y-39581622D01*
X227883812Y-39373934D01*
X227964847Y-39178297D01*
X228082495Y-39002225D01*
X228232225Y-38852495D01*
X228408297Y-38734847D01*
X228603934Y-38653812D01*
X228811622Y-38612500D01*
X229023378Y-38612500D01*
X229231066Y-38653812D01*
X229231066Y-38653812D01*
G37*
G36*
X172081066Y-38653812D02*
X172276703Y-38734847D01*
X172452775Y-38852495D01*
X172602505Y-39002225D01*
X172720153Y-39178297D01*
X172801188Y-39373934D01*
X172842500Y-39581622D01*
X172842500Y-39793378D01*
X172801188Y-40001066D01*
X172720153Y-40196703D01*
X172602505Y-40372775D01*
X172452775Y-40522505D01*
X172276703Y-40640153D01*
X172081066Y-40721188D01*
X171873378Y-40762500D01*
X171661622Y-40762500D01*
X171453934Y-40721188D01*
X171258297Y-40640153D01*
X171082225Y-40522505D01*
X170932495Y-40372775D01*
X170814847Y-40196703D01*
X170733812Y-40001066D01*
X170692500Y-39793378D01*
X170692500Y-39581622D01*
X170733812Y-39373934D01*
X170814847Y-39178297D01*
X170932495Y-39002225D01*
X171082225Y-38852495D01*
X171258297Y-38734847D01*
X171453934Y-38653812D01*
X171661622Y-38612500D01*
X171873378Y-38612500D01*
X172081066Y-38653812D01*
X172081066Y-38653812D01*
G37*
G36*
X161921066Y-38653812D02*
X162116703Y-38734847D01*
X162292775Y-38852495D01*
X162442505Y-39002225D01*
X162560153Y-39178297D01*
X162641188Y-39373934D01*
X162682500Y-39581622D01*
X162682500Y-39793378D01*
X162641188Y-40001066D01*
X162560153Y-40196703D01*
X162442505Y-40372775D01*
X162292775Y-40522505D01*
X162116703Y-40640153D01*
X161921066Y-40721188D01*
X161713378Y-40762500D01*
X161501622Y-40762500D01*
X161293934Y-40721188D01*
X161098297Y-40640153D01*
X160922225Y-40522505D01*
X160772495Y-40372775D01*
X160654847Y-40196703D01*
X160573812Y-40001066D01*
X160532500Y-39793378D01*
X160532500Y-39581622D01*
X160573812Y-39373934D01*
X160654847Y-39178297D01*
X160772495Y-39002225D01*
X160922225Y-38852495D01*
X161098297Y-38734847D01*
X161293934Y-38653812D01*
X161501622Y-38612500D01*
X161713378Y-38612500D01*
X161921066Y-38653812D01*
X161921066Y-38653812D01*
G37*
G36*
X123821066Y-38653812D02*
X124016703Y-38734847D01*
X124192775Y-38852495D01*
X124342505Y-39002225D01*
X124460153Y-39178297D01*
X124541188Y-39373934D01*
X124582500Y-39581622D01*
X124582500Y-39793378D01*
X124541188Y-40001066D01*
X124460153Y-40196703D01*
X124342505Y-40372775D01*
X124192775Y-40522505D01*
X124016703Y-40640153D01*
X123821066Y-40721188D01*
X123613378Y-40762500D01*
X123401622Y-40762500D01*
X123193934Y-40721188D01*
X122998297Y-40640153D01*
X122822225Y-40522505D01*
X122672495Y-40372775D01*
X122554847Y-40196703D01*
X122473812Y-40001066D01*
X122432500Y-39793378D01*
X122432500Y-39581622D01*
X122473812Y-39373934D01*
X122554847Y-39178297D01*
X122672495Y-39002225D01*
X122822225Y-38852495D01*
X122998297Y-38734847D01*
X123193934Y-38653812D01*
X123401622Y-38612500D01*
X123613378Y-38612500D01*
X123821066Y-38653812D01*
X123821066Y-38653812D01*
G37*
G36*
X210181066Y-38653812D02*
X210376703Y-38734847D01*
X210552775Y-38852495D01*
X210702505Y-39002225D01*
X210820153Y-39178297D01*
X210901188Y-39373934D01*
X210942500Y-39581622D01*
X210942500Y-39793378D01*
X210901188Y-40001066D01*
X210820153Y-40196703D01*
X210702505Y-40372775D01*
X210552775Y-40522505D01*
X210376703Y-40640153D01*
X210181066Y-40721188D01*
X209973378Y-40762500D01*
X209761622Y-40762500D01*
X209553934Y-40721188D01*
X209358297Y-40640153D01*
X209182225Y-40522505D01*
X209032495Y-40372775D01*
X208914847Y-40196703D01*
X208833812Y-40001066D01*
X208792500Y-39793378D01*
X208792500Y-39581622D01*
X208833812Y-39373934D01*
X208914847Y-39178297D01*
X209032495Y-39002225D01*
X209182225Y-38852495D01*
X209358297Y-38734847D01*
X209553934Y-38653812D01*
X209761622Y-38612500D01*
X209973378Y-38612500D01*
X210181066Y-38653812D01*
X210181066Y-38653812D01*
G37*
G36*
X261466184Y-35164910D02*
X261466186Y-35164911D01*
X261466187Y-35164911D01*
X261865451Y-35330291D01*
X262224780Y-35570387D01*
X262530363Y-35875970D01*
X262770459Y-36235299D01*
X262862655Y-36457881D01*
X262935840Y-36634566D01*
X263020150Y-37058418D01*
X263020150Y-37490582D01*
X262963104Y-37777372D01*
X262935839Y-37914437D01*
X262770459Y-38313701D01*
X262530363Y-38673030D01*
X262416474Y-38786919D01*
X262400929Y-38805861D01*
X262389378Y-38827472D01*
X262382265Y-38850921D01*
X262379863Y-38875308D01*
X262382265Y-38899694D01*
X262389378Y-38923143D01*
X262400930Y-38944754D01*
X262416475Y-38963695D01*
X262455005Y-39002225D01*
X262572653Y-39178297D01*
X262653688Y-39373934D01*
X262695000Y-39581622D01*
X262695000Y-39793378D01*
X262653688Y-40001066D01*
X262572653Y-40196703D01*
X262455005Y-40372775D01*
X262305275Y-40522505D01*
X262129203Y-40640153D01*
X261933566Y-40721188D01*
X261725878Y-40762500D01*
X261514122Y-40762500D01*
X261306434Y-40721188D01*
X261110797Y-40640153D01*
X260934725Y-40522505D01*
X260784995Y-40372775D01*
X260667347Y-40196703D01*
X260586312Y-40001066D01*
X260545000Y-39793378D01*
X260545000Y-39580380D01*
X260547160Y-39558451D01*
X260544758Y-39534065D01*
X260537645Y-39510616D01*
X260526094Y-39489005D01*
X260510548Y-39470063D01*
X260491606Y-39454517D01*
X260469996Y-39442966D01*
X260446546Y-39435853D01*
X260186316Y-39384090D01*
X260186314Y-39384089D01*
X260186313Y-39384089D01*
X259787049Y-39218709D01*
X259427720Y-38978613D01*
X259122137Y-38673030D01*
X258882041Y-38313701D01*
X258716661Y-37914437D01*
X258689397Y-37777372D01*
X258632350Y-37490582D01*
X258632350Y-37058418D01*
X258716660Y-36634566D01*
X258789845Y-36457881D01*
X258882041Y-36235299D01*
X259122137Y-35875970D01*
X259427720Y-35570387D01*
X259787049Y-35330291D01*
X260186313Y-35164911D01*
X260186314Y-35164911D01*
X260186316Y-35164910D01*
X260610168Y-35080600D01*
X261042332Y-35080600D01*
X261466184Y-35164910D01*
X261466184Y-35164910D01*
G37*
G36*
X200021066Y-38653812D02*
X200216703Y-38734847D01*
X200392775Y-38852495D01*
X200542505Y-39002225D01*
X200660153Y-39178297D01*
X200741188Y-39373934D01*
X200782500Y-39581622D01*
X200782500Y-39793378D01*
X200741188Y-40001066D01*
X200660153Y-40196703D01*
X200542505Y-40372775D01*
X200392775Y-40522505D01*
X200216703Y-40640153D01*
X200021066Y-40721188D01*
X199813378Y-40762500D01*
X199601622Y-40762500D01*
X199393934Y-40721188D01*
X199198297Y-40640153D01*
X199022225Y-40522505D01*
X198872495Y-40372775D01*
X198754847Y-40196703D01*
X198673812Y-40001066D01*
X198632500Y-39793378D01*
X198632500Y-39581622D01*
X198673812Y-39373934D01*
X198754847Y-39178297D01*
X198872495Y-39002225D01*
X199022225Y-38852495D01*
X199198297Y-38734847D01*
X199393934Y-38653812D01*
X199601622Y-38612500D01*
X199813378Y-38612500D01*
X200021066Y-38653812D01*
X200021066Y-38653812D01*
G37*
G36*
X95881066Y-38653812D02*
X96076703Y-38734847D01*
X96252775Y-38852495D01*
X96402505Y-39002225D01*
X96520153Y-39178297D01*
X96601188Y-39373934D01*
X96642500Y-39581622D01*
X96642500Y-39793378D01*
X96601188Y-40001066D01*
X96520153Y-40196703D01*
X96402505Y-40372775D01*
X96252775Y-40522505D01*
X96076703Y-40640153D01*
X95881066Y-40721188D01*
X95673378Y-40762500D01*
X95461622Y-40762500D01*
X95253934Y-40721188D01*
X95058297Y-40640153D01*
X94882225Y-40522505D01*
X94732495Y-40372775D01*
X94614847Y-40196703D01*
X94533812Y-40001066D01*
X94492500Y-39793378D01*
X94492500Y-39581622D01*
X94533812Y-39373934D01*
X94614847Y-39178297D01*
X94732495Y-39002225D01*
X94882225Y-38852495D01*
X95058297Y-38734847D01*
X95253934Y-38653812D01*
X95461622Y-38612500D01*
X95673378Y-38612500D01*
X95881066Y-38653812D01*
X95881066Y-38653812D01*
G37*
G36*
X85721066Y-38653812D02*
X85916703Y-38734847D01*
X86092775Y-38852495D01*
X86242505Y-39002225D01*
X86360153Y-39178297D01*
X86441188Y-39373934D01*
X86482500Y-39581622D01*
X86482500Y-39793378D01*
X86441188Y-40001066D01*
X86360153Y-40196703D01*
X86242505Y-40372775D01*
X86092775Y-40522505D01*
X85916703Y-40640153D01*
X85721066Y-40721188D01*
X85513378Y-40762500D01*
X85301622Y-40762500D01*
X85093934Y-40721188D01*
X84898297Y-40640153D01*
X84722225Y-40522505D01*
X84572495Y-40372775D01*
X84454847Y-40196703D01*
X84373812Y-40001066D01*
X84332500Y-39793378D01*
X84332500Y-39581622D01*
X84373812Y-39373934D01*
X84454847Y-39178297D01*
X84572495Y-39002225D01*
X84722225Y-38852495D01*
X84898297Y-38734847D01*
X85093934Y-38653812D01*
X85301622Y-38612500D01*
X85513378Y-38612500D01*
X85721066Y-38653812D01*
X85721066Y-38653812D01*
G37*
G36*
X76831066Y-38653812D02*
X77026703Y-38734847D01*
X77202775Y-38852495D01*
X77352505Y-39002225D01*
X77470153Y-39178297D01*
X77551188Y-39373934D01*
X77592500Y-39581622D01*
X77592500Y-39793378D01*
X77551188Y-40001066D01*
X77470153Y-40196703D01*
X77352505Y-40372775D01*
X77202775Y-40522505D01*
X77026703Y-40640153D01*
X76831066Y-40721188D01*
X76623378Y-40762500D01*
X76411622Y-40762500D01*
X76203934Y-40721188D01*
X76008297Y-40640153D01*
X75832225Y-40522505D01*
X75682495Y-40372775D01*
X75564847Y-40196703D01*
X75483812Y-40001066D01*
X75442500Y-39793378D01*
X75442500Y-39581622D01*
X75483812Y-39373934D01*
X75564847Y-39178297D01*
X75682495Y-39002225D01*
X75832225Y-38852495D01*
X76008297Y-38734847D01*
X76203934Y-38653812D01*
X76411622Y-38612500D01*
X76623378Y-38612500D01*
X76831066Y-38653812D01*
X76831066Y-38653812D01*
G37*
G36*
X66671066Y-38653812D02*
X66866703Y-38734847D01*
X67042775Y-38852495D01*
X67192505Y-39002225D01*
X67310153Y-39178297D01*
X67391188Y-39373934D01*
X67432500Y-39581622D01*
X67432500Y-39793378D01*
X67391188Y-40001066D01*
X67310153Y-40196703D01*
X67192505Y-40372775D01*
X67042775Y-40522505D01*
X66866703Y-40640153D01*
X66671066Y-40721188D01*
X66463378Y-40762500D01*
X66251622Y-40762500D01*
X66043934Y-40721188D01*
X65848297Y-40640153D01*
X65672225Y-40522505D01*
X65522495Y-40372775D01*
X65404847Y-40196703D01*
X65323812Y-40001066D01*
X65282500Y-39793378D01*
X65282500Y-39581622D01*
X65323812Y-39373934D01*
X65404847Y-39178297D01*
X65522495Y-39002225D01*
X65672225Y-38852495D01*
X65848297Y-38734847D01*
X66043934Y-38653812D01*
X66251622Y-38612500D01*
X66463378Y-38612500D01*
X66671066Y-38653812D01*
X66671066Y-38653812D01*
G37*
G36*
X53018566Y-38653812D02*
X53214203Y-38734847D01*
X53390275Y-38852495D01*
X53540005Y-39002225D01*
X53657653Y-39178297D01*
X53738688Y-39373934D01*
X53780000Y-39581622D01*
X53780000Y-39793378D01*
X53738688Y-40001066D01*
X53657653Y-40196703D01*
X53540005Y-40372775D01*
X53390275Y-40522505D01*
X53214203Y-40640153D01*
X53018566Y-40721188D01*
X52810878Y-40762500D01*
X52599122Y-40762500D01*
X52391434Y-40721188D01*
X52195797Y-40640153D01*
X52019725Y-40522505D01*
X51869995Y-40372775D01*
X51752347Y-40196703D01*
X51671312Y-40001066D01*
X51630000Y-39793378D01*
X51630000Y-39581622D01*
X51671312Y-39373934D01*
X51752347Y-39178297D01*
X51869995Y-39002225D01*
X52019725Y-38852495D01*
X52195797Y-38734847D01*
X52391434Y-38653812D01*
X52599122Y-38612500D01*
X52810878Y-38612500D01*
X53018566Y-38653812D01*
X53018566Y-38653812D01*
G37*
G36*
X114931066Y-38653812D02*
X115126703Y-38734847D01*
X115302775Y-38852495D01*
X115452505Y-39002225D01*
X115570153Y-39178297D01*
X115651188Y-39373934D01*
X115692500Y-39581622D01*
X115692500Y-39793378D01*
X115651188Y-40001066D01*
X115570153Y-40196703D01*
X115452505Y-40372775D01*
X115302775Y-40522505D01*
X115126703Y-40640153D01*
X114931066Y-40721188D01*
X114723378Y-40762500D01*
X114511622Y-40762500D01*
X114303934Y-40721188D01*
X114108297Y-40640153D01*
X113932225Y-40522505D01*
X113782495Y-40372775D01*
X113664847Y-40196703D01*
X113583812Y-40001066D01*
X113542500Y-39793378D01*
X113542500Y-39581622D01*
X113583812Y-39373934D01*
X113664847Y-39178297D01*
X113782495Y-39002225D01*
X113932225Y-38852495D01*
X114108297Y-38734847D01*
X114303934Y-38653812D01*
X114511622Y-38612500D01*
X114723378Y-38612500D01*
X114931066Y-38653812D01*
X114931066Y-38653812D01*
G37*
G36*
X42858566Y-38653812D02*
X43054203Y-38734847D01*
X43230275Y-38852495D01*
X43380005Y-39002225D01*
X43497653Y-39178297D01*
X43578688Y-39373934D01*
X43620000Y-39581622D01*
X43620000Y-39793378D01*
X43578688Y-40001066D01*
X43497653Y-40196703D01*
X43380005Y-40372775D01*
X43230275Y-40522505D01*
X43054203Y-40640153D01*
X42858566Y-40721188D01*
X42650878Y-40762500D01*
X42439122Y-40762500D01*
X42231434Y-40721188D01*
X42035797Y-40640153D01*
X41859725Y-40522505D01*
X41709995Y-40372775D01*
X41592347Y-40196703D01*
X41511312Y-40001066D01*
X41470000Y-39793378D01*
X41470000Y-39581622D01*
X41511312Y-39373934D01*
X41592347Y-39178297D01*
X41709995Y-39002225D01*
X41859725Y-38852495D01*
X42035797Y-38734847D01*
X42231434Y-38653812D01*
X42439122Y-38612500D01*
X42650878Y-38612500D01*
X42858566Y-38653812D01*
X42858566Y-38653812D01*
G37*
G36*
X133981066Y-38653812D02*
X134176703Y-38734847D01*
X134352775Y-38852495D01*
X134502505Y-39002225D01*
X134620153Y-39178297D01*
X134701188Y-39373934D01*
X134742500Y-39581622D01*
X134742500Y-39793378D01*
X134701188Y-40001066D01*
X134620153Y-40196703D01*
X134502505Y-40372775D01*
X134352775Y-40522505D01*
X134176703Y-40640153D01*
X133981066Y-40721188D01*
X133773378Y-40762500D01*
X133561622Y-40762500D01*
X133353934Y-40721188D01*
X133158297Y-40640153D01*
X132982225Y-40522505D01*
X132832495Y-40372775D01*
X132714847Y-40196703D01*
X132633812Y-40001066D01*
X132592500Y-39793378D01*
X132592500Y-39581622D01*
X132633812Y-39373934D01*
X132714847Y-39178297D01*
X132832495Y-39002225D01*
X132982225Y-38852495D01*
X133158297Y-38734847D01*
X133353934Y-38653812D01*
X133561622Y-38612500D01*
X133773378Y-38612500D01*
X133981066Y-38653812D01*
X133981066Y-38653812D01*
G37*
G36*
X104771066Y-38653812D02*
X104966703Y-38734847D01*
X105142775Y-38852495D01*
X105292505Y-39002225D01*
X105410153Y-39178297D01*
X105491188Y-39373934D01*
X105532500Y-39581622D01*
X105532500Y-39793378D01*
X105491188Y-40001066D01*
X105410153Y-40196703D01*
X105292505Y-40372775D01*
X105142775Y-40522505D01*
X104966703Y-40640153D01*
X104771066Y-40721188D01*
X104563378Y-40762500D01*
X104351622Y-40762500D01*
X104143934Y-40721188D01*
X103948297Y-40640153D01*
X103772225Y-40522505D01*
X103622495Y-40372775D01*
X103504847Y-40196703D01*
X103423812Y-40001066D01*
X103382500Y-39793378D01*
X103382500Y-39581622D01*
X103423812Y-39373934D01*
X103504847Y-39178297D01*
X103622495Y-39002225D01*
X103772225Y-38852495D01*
X103948297Y-38734847D01*
X104143934Y-38653812D01*
X104351622Y-38612500D01*
X104563378Y-38612500D01*
X104771066Y-38653812D01*
X104771066Y-38653812D01*
G37*
G36*
X272093566Y-38653812D02*
X272289203Y-38734847D01*
X272465275Y-38852495D01*
X272615005Y-39002225D01*
X272732653Y-39178297D01*
X272813688Y-39373934D01*
X272855000Y-39581622D01*
X272855000Y-39793378D01*
X272813688Y-40001066D01*
X272732653Y-40196703D01*
X272615005Y-40372775D01*
X272465275Y-40522505D01*
X272289203Y-40640153D01*
X272093566Y-40721188D01*
X271885878Y-40762500D01*
X271674122Y-40762500D01*
X271466434Y-40721188D01*
X271270797Y-40640153D01*
X271094725Y-40522505D01*
X270944995Y-40372775D01*
X270827347Y-40196703D01*
X270746312Y-40001066D01*
X270705000Y-39793378D01*
X270705000Y-39581622D01*
X270746312Y-39373934D01*
X270827347Y-39178297D01*
X270944995Y-39002225D01*
X271094725Y-38852495D01*
X271270797Y-38734847D01*
X271466434Y-38653812D01*
X271674122Y-38612500D01*
X271885878Y-38612500D01*
X272093566Y-38653812D01*
X272093566Y-38653812D01*
G37*
G36*
X276569122Y-35616752D02*
X276882869Y-35746710D01*
X277165239Y-35935384D01*
X277405366Y-36175511D01*
X277594040Y-36457881D01*
X277723998Y-36771628D01*
X277790250Y-37104699D01*
X277790250Y-37444301D01*
X277723998Y-37777372D01*
X277594040Y-38091119D01*
X277405366Y-38373489D01*
X277165239Y-38613616D01*
X276882869Y-38802290D01*
X276569122Y-38932248D01*
X276236051Y-38998500D01*
X275896449Y-38998500D01*
X275563378Y-38932248D01*
X275249631Y-38802290D01*
X274967261Y-38613616D01*
X274727134Y-38373489D01*
X274538460Y-38091119D01*
X274408502Y-37777372D01*
X274342250Y-37444301D01*
X274342250Y-37104699D01*
X274408502Y-36771628D01*
X274538460Y-36457881D01*
X274727134Y-36175511D01*
X274967261Y-35935384D01*
X275249631Y-35746710D01*
X275563378Y-35616752D01*
X275896449Y-35550500D01*
X276236051Y-35550500D01*
X276569122Y-35616752D01*
X276569122Y-35616752D01*
G37*
G36*
X63988473Y-32527628D02*
X64120424Y-32567655D01*
X64242030Y-32632655D01*
X64348619Y-32720130D01*
X64436095Y-32826719D01*
X64501095Y-32948325D01*
X64541122Y-33080276D01*
X64551250Y-33183110D01*
X64551250Y-34351890D01*
X64541122Y-34454724D01*
X64501095Y-34586675D01*
X64436095Y-34708281D01*
X64348620Y-34814870D01*
X64242031Y-34902345D01*
X64120425Y-34967345D01*
X63988474Y-35007372D01*
X63851250Y-35020887D01*
X63714027Y-35007372D01*
X63582076Y-34967345D01*
X63460470Y-34902345D01*
X63353881Y-34814870D01*
X63266406Y-34708281D01*
X63201406Y-34586675D01*
X63161379Y-34454724D01*
X63151251Y-34351890D01*
X63151250Y-33475432D01*
X63148848Y-33451046D01*
X63141735Y-33427596D01*
X63130184Y-33405986D01*
X63114638Y-33387044D01*
X63095696Y-33371498D01*
X63074085Y-33359947D01*
X63050636Y-33352834D01*
X63026250Y-33350432D01*
X63001864Y-33352834D01*
X62978414Y-33359947D01*
X62956804Y-33371498D01*
X62937862Y-33387044D01*
X62922316Y-33405986D01*
X62910766Y-33427593D01*
X62886499Y-33486181D01*
X62829302Y-33571782D01*
X62829042Y-33572171D01*
X62755921Y-33645292D01*
X62755918Y-33645294D01*
X62669931Y-33702749D01*
X62574387Y-33742324D01*
X62574386Y-33742324D01*
X62574384Y-33742325D01*
X62472959Y-33762500D01*
X62369541Y-33762500D01*
X62268116Y-33742325D01*
X62268114Y-33742324D01*
X62268113Y-33742324D01*
X62172569Y-33702749D01*
X62086582Y-33645294D01*
X62086579Y-33645292D01*
X62013458Y-33572171D01*
X62013198Y-33571782D01*
X61956001Y-33486181D01*
X61916426Y-33390637D01*
X61908429Y-33350432D01*
X61896250Y-33289209D01*
X61896250Y-33185791D01*
X61916425Y-33084366D01*
X61918118Y-33080278D01*
X61956001Y-32988819D01*
X62013456Y-32902832D01*
X62013458Y-32902829D01*
X62086579Y-32829708D01*
X62091052Y-32826719D01*
X62172569Y-32772251D01*
X62268113Y-32732676D01*
X62268114Y-32732676D01*
X62268116Y-32732675D01*
X62369541Y-32712500D01*
X62472959Y-32712500D01*
X62574384Y-32732675D01*
X62574386Y-32732676D01*
X62574387Y-32732676D01*
X62669931Y-32772251D01*
X62751448Y-32826719D01*
X62755921Y-32829708D01*
X62829042Y-32902829D01*
X62829044Y-32902832D01*
X62886499Y-32988819D01*
X62924382Y-33080278D01*
X62927498Y-33087801D01*
X62939050Y-33109412D01*
X62954595Y-33128354D01*
X62973537Y-33143899D01*
X62995148Y-33155450D01*
X63018597Y-33162563D01*
X63042983Y-33164965D01*
X63067370Y-33162563D01*
X63090819Y-33155450D01*
X63112430Y-33143898D01*
X63131372Y-33128353D01*
X63146917Y-33109411D01*
X63162596Y-33076261D01*
X63201405Y-32948326D01*
X63266405Y-32826720D01*
X63353880Y-32720131D01*
X63460469Y-32632655D01*
X63582075Y-32567655D01*
X63714026Y-32527628D01*
X63851250Y-32514113D01*
X63988473Y-32527628D01*
X63988473Y-32527628D01*
G37*
G36*
X55348473Y-32527628D02*
X55480424Y-32567655D01*
X55602030Y-32632655D01*
X55708619Y-32720130D01*
X55796095Y-32826719D01*
X55861095Y-32948325D01*
X55899905Y-33076266D01*
X55909277Y-33098889D01*
X55922891Y-33119263D01*
X55940218Y-33136590D01*
X55960592Y-33150204D01*
X55983231Y-33159582D01*
X56007265Y-33164362D01*
X56031769Y-33164362D01*
X56055803Y-33159582D01*
X56078442Y-33150204D01*
X56098816Y-33136590D01*
X56116143Y-33119263D01*
X56135002Y-33087800D01*
X56146082Y-33061052D01*
X56176001Y-32988819D01*
X56233456Y-32902832D01*
X56233458Y-32902829D01*
X56306579Y-32829708D01*
X56311052Y-32826719D01*
X56392569Y-32772251D01*
X56488113Y-32732676D01*
X56488114Y-32732676D01*
X56488116Y-32732675D01*
X56589541Y-32712500D01*
X56692959Y-32712500D01*
X56794384Y-32732675D01*
X56794386Y-32732676D01*
X56794387Y-32732676D01*
X56889931Y-32772251D01*
X56971448Y-32826719D01*
X56975921Y-32829708D01*
X57049042Y-32902829D01*
X57049044Y-32902832D01*
X57106499Y-32988819D01*
X57144382Y-33080278D01*
X57146075Y-33084366D01*
X57166250Y-33185791D01*
X57166250Y-33289209D01*
X57154072Y-33350432D01*
X57146074Y-33390637D01*
X57106499Y-33486181D01*
X57049302Y-33571782D01*
X57049042Y-33572171D01*
X56975921Y-33645292D01*
X56975918Y-33645294D01*
X56889931Y-33702749D01*
X56794387Y-33742324D01*
X56794386Y-33742324D01*
X56794384Y-33742325D01*
X56692959Y-33762500D01*
X56589541Y-33762500D01*
X56488116Y-33742325D01*
X56488114Y-33742324D01*
X56488113Y-33742324D01*
X56392569Y-33702749D01*
X56306582Y-33645294D01*
X56306579Y-33645292D01*
X56233458Y-33572171D01*
X56233198Y-33571782D01*
X56176001Y-33486181D01*
X56151734Y-33427593D01*
X56140183Y-33405985D01*
X56124638Y-33387043D01*
X56105696Y-33371498D01*
X56084085Y-33359947D01*
X56060636Y-33352834D01*
X56036249Y-33350432D01*
X56011863Y-33352834D01*
X55988414Y-33359947D01*
X55966803Y-33371499D01*
X55947861Y-33387044D01*
X55932316Y-33405986D01*
X55920765Y-33427597D01*
X55913652Y-33451046D01*
X55911250Y-33475432D01*
X55911250Y-34351890D01*
X55901122Y-34454724D01*
X55861095Y-34586675D01*
X55796095Y-34708281D01*
X55708620Y-34814870D01*
X55602031Y-34902345D01*
X55480425Y-34967345D01*
X55348474Y-35007372D01*
X55211250Y-35020887D01*
X55074027Y-35007372D01*
X54942076Y-34967345D01*
X54820470Y-34902345D01*
X54713881Y-34814870D01*
X54626406Y-34708281D01*
X54561406Y-34586675D01*
X54521379Y-34454724D01*
X54511251Y-34351890D01*
X54511250Y-33183111D01*
X54521378Y-33080277D01*
X54561405Y-32948326D01*
X54626405Y-32826720D01*
X54713880Y-32720131D01*
X54820469Y-32632655D01*
X54942075Y-32567655D01*
X55074026Y-32527628D01*
X55211250Y-32514113D01*
X55348473Y-32527628D01*
X55348473Y-32527628D01*
G37*
G36*
X63988473Y-28597628D02*
X64120424Y-28637655D01*
X64242030Y-28702655D01*
X64348619Y-28790130D01*
X64436095Y-28896719D01*
X64501095Y-29018325D01*
X64541122Y-29150276D01*
X64551250Y-29253110D01*
X64551250Y-29921890D01*
X64541122Y-30024724D01*
X64501095Y-30156675D01*
X64436095Y-30278281D01*
X64348620Y-30384870D01*
X64242031Y-30472345D01*
X64120425Y-30537345D01*
X63988474Y-30577372D01*
X63851250Y-30590887D01*
X63714027Y-30577372D01*
X63582076Y-30537345D01*
X63460470Y-30472345D01*
X63353881Y-30384870D01*
X63266406Y-30278281D01*
X63201405Y-30156675D01*
X63161378Y-30024724D01*
X63151250Y-29921890D01*
X63151250Y-29253111D01*
X63161378Y-29150277D01*
X63201405Y-29018326D01*
X63266405Y-28896720D01*
X63353880Y-28790131D01*
X63460469Y-28702655D01*
X63582075Y-28637655D01*
X63714026Y-28597628D01*
X63851250Y-28584113D01*
X63988473Y-28597628D01*
X63988473Y-28597628D01*
G37*
G36*
X55348473Y-28597628D02*
X55480424Y-28637655D01*
X55602030Y-28702655D01*
X55708619Y-28790130D01*
X55796095Y-28896719D01*
X55861095Y-29018325D01*
X55901122Y-29150276D01*
X55911250Y-29253110D01*
X55911250Y-29921890D01*
X55901122Y-30024724D01*
X55861095Y-30156675D01*
X55796095Y-30278281D01*
X55708620Y-30384870D01*
X55602031Y-30472345D01*
X55480425Y-30537345D01*
X55348474Y-30577372D01*
X55211250Y-30590887D01*
X55074027Y-30577372D01*
X54942076Y-30537345D01*
X54820470Y-30472345D01*
X54713881Y-30384870D01*
X54626406Y-30278281D01*
X54561405Y-30156675D01*
X54521378Y-30024724D01*
X54511250Y-29921890D01*
X54511250Y-29253111D01*
X54521378Y-29150277D01*
X54561405Y-29018326D01*
X54626405Y-28896720D01*
X54713880Y-28790131D01*
X54820469Y-28702655D01*
X54942075Y-28637655D01*
X55074026Y-28597628D01*
X55211250Y-28584113D01*
X55348473Y-28597628D01*
X55348473Y-28597628D01*
G37*
M02*
