G04 #@! TF.GenerationSoftware,KiCad,Pcbnew,(5.0.0)*
G04 #@! TF.CreationDate,2019-02-17T19:36:41-08:00*
G04 #@! TF.ProjectId,Voyager40,566F796167657234302E6B696361645F,rev?*
G04 #@! TF.SameCoordinates,Original*
G04 #@! TF.FileFunction,Copper,L1,Top,Signal*
G04 #@! TF.FilePolarity,Positive*
%FSLAX46Y46*%
G04 Gerber Fmt 4.6, Leading zero omitted, Abs format (unit mm)*
G04 Created by KiCad (PCBNEW (5.0.0)) date 02/17/19 19:36:41*
%MOMM*%
%LPD*%
G01*
G04 APERTURE LIST*
G04 #@! TA.AperFunction,ComponentPad*
%ADD10C,2.250000*%
G04 #@! TD*
G04 #@! TA.AperFunction,Conductor*
%ADD11C,2.250000*%
G04 #@! TD*
G04 #@! TA.AperFunction,ComponentPad*
%ADD12C,1.905000*%
G04 #@! TD*
G04 #@! TA.AperFunction,ComponentPad*
%ADD13R,1.905000X1.905000*%
G04 #@! TD*
G04 #@! TA.AperFunction,ComponentPad*
%ADD14O,1.000000X1.600000*%
G04 #@! TD*
G04 #@! TA.AperFunction,ComponentPad*
%ADD15O,1.000000X2.100000*%
G04 #@! TD*
G04 #@! TA.AperFunction,ViaPad*
%ADD16C,0.600000*%
G04 #@! TD*
G04 #@! TA.AperFunction,Conductor*
%ADD17C,0.381000*%
G04 #@! TD*
G04 #@! TA.AperFunction,Conductor*
%ADD18C,0.254000*%
G04 #@! TD*
G04 APERTURE END LIST*
D10*
G04 #@! TO.P,K_O1,2*
G04 #@! TO.N,Net-(D25-Pad2)*
X226357500Y-34897500D03*
D11*
G04 #@! TD*
G04 #@! TO.N,Net-(D25-Pad2)*
G04 #@! TO.C,K_O1*
X226337500Y-35187500D02*
X226377500Y-34607500D01*
D10*
G04 #@! TO.P,K_O1,2*
G04 #@! TO.N,Net-(D25-Pad2)*
X226377500Y-34607500D03*
G04 #@! TO.P,K_O1,1*
G04 #@! TO.N,COL9*
X220682501Y-36417500D03*
D11*
G04 #@! TD*
G04 #@! TO.N,COL9*
G04 #@! TO.C,K_O1*
X220027500Y-37147500D02*
X221337502Y-35687500D01*
D10*
G04 #@! TO.P,K_O1,1*
G04 #@! TO.N,COL9*
X221337500Y-35687500D03*
D12*
G04 #@! TO.P,K_O1,3*
G04 #@! TO.N,+5V*
X222567500Y-44767500D03*
D13*
G04 #@! TO.P,K_O1,4*
G04 #@! TO.N,Net-(K_O1-Pad4)*
X225107500Y-44767500D03*
G04 #@! TD*
D10*
G04 #@! TO.P,K_A1,2*
G04 #@! TO.N,Net-(D32-Pad2)*
X78720000Y-53947500D03*
D11*
G04 #@! TD*
G04 #@! TO.N,Net-(D32-Pad2)*
G04 #@! TO.C,K_A1*
X78700000Y-54237500D02*
X78740000Y-53657500D01*
D10*
G04 #@! TO.P,K_A1,2*
G04 #@! TO.N,Net-(D32-Pad2)*
X78740000Y-53657500D03*
G04 #@! TO.P,K_A1,1*
G04 #@! TO.N,COL1*
X73045001Y-55467500D03*
D11*
G04 #@! TD*
G04 #@! TO.N,COL1*
G04 #@! TO.C,K_A1*
X72390000Y-56197500D02*
X73700002Y-54737500D01*
D10*
G04 #@! TO.P,K_A1,1*
G04 #@! TO.N,COL1*
X73700000Y-54737500D03*
D12*
G04 #@! TO.P,K_A1,3*
G04 #@! TO.N,+5V*
X74930000Y-63817500D03*
D13*
G04 #@! TO.P,K_A1,4*
G04 #@! TO.N,Net-(K_A1-Pad4)*
X77470000Y-63817500D03*
G04 #@! TD*
D10*
G04 #@! TO.P,K_\002C1,2*
G04 #@! TO.N,Net-(D53-Pad2)*
X221595000Y-72997500D03*
D11*
G04 #@! TD*
G04 #@! TO.N,Net-(D53-Pad2)*
G04 #@! TO.C,K_\002C1*
X221575000Y-73287500D02*
X221615000Y-72707500D01*
D10*
G04 #@! TO.P,K_\002C1,2*
G04 #@! TO.N,Net-(D53-Pad2)*
X221615000Y-72707500D03*
G04 #@! TO.P,K_\002C1,1*
G04 #@! TO.N,COL9*
X215920001Y-74517500D03*
D11*
G04 #@! TD*
G04 #@! TO.N,COL9*
G04 #@! TO.C,K_\002C1*
X215265000Y-75247500D02*
X216575002Y-73787500D01*
D10*
G04 #@! TO.P,K_\002C1,1*
G04 #@! TO.N,COL9*
X216575000Y-73787500D03*
D12*
G04 #@! TO.P,K_\002C1,3*
G04 #@! TO.N,+5V*
X217805000Y-82867500D03*
D13*
G04 #@! TO.P,K_\002C1,4*
G04 #@! TO.N,Net-(K_\002C1-Pad4)*
X220345000Y-82867500D03*
G04 #@! TD*
D10*
G04 #@! TO.P,K_.1,2*
G04 #@! TO.N,.-ROW*
X240645000Y-72997500D03*
D11*
G04 #@! TD*
G04 #@! TO.N,.-ROW*
G04 #@! TO.C,K_.1*
X240625000Y-73287500D02*
X240665000Y-72707500D01*
D10*
G04 #@! TO.P,K_.1,2*
G04 #@! TO.N,.-ROW*
X240665000Y-72707500D03*
G04 #@! TO.P,K_.1,1*
G04 #@! TO.N,.-COL*
X234970001Y-74517500D03*
D11*
G04 #@! TD*
G04 #@! TO.N,.-COL*
G04 #@! TO.C,K_.1*
X234315000Y-75247500D02*
X235625002Y-73787500D01*
D10*
G04 #@! TO.P,K_.1,1*
G04 #@! TO.N,.-COL*
X235625000Y-73787500D03*
D12*
G04 #@! TO.P,K_.1,3*
G04 #@! TO.N,+5V*
X236855000Y-82867500D03*
D13*
G04 #@! TO.P,K_.1,4*
G04 #@! TO.N,.-LEDGND*
X239395000Y-82867500D03*
G04 #@! TD*
D10*
G04 #@! TO.P,K_;1,2*
G04 #@! TO.N,Net-(D41-Pad2)*
X250170000Y-53947500D03*
D11*
G04 #@! TD*
G04 #@! TO.N,Net-(D41-Pad2)*
G04 #@! TO.C,K_;1*
X250150000Y-54237500D02*
X250190000Y-53657500D01*
D10*
G04 #@! TO.P,K_;1,2*
G04 #@! TO.N,Net-(D41-Pad2)*
X250190000Y-53657500D03*
G04 #@! TO.P,K_;1,1*
G04 #@! TO.N,.-COL*
X244495001Y-55467500D03*
D11*
G04 #@! TD*
G04 #@! TO.N,.-COL*
G04 #@! TO.C,K_;1*
X243840000Y-56197500D02*
X245150002Y-54737500D01*
D10*
G04 #@! TO.P,K_;1,1*
G04 #@! TO.N,.-COL*
X245150000Y-54737500D03*
D12*
G04 #@! TO.P,K_;1,3*
G04 #@! TO.N,+5V*
X246380000Y-63817500D03*
D13*
G04 #@! TO.P,K_;1,4*
G04 #@! TO.N,Net-(K_;1-Pad4)*
X248920000Y-63817500D03*
G04 #@! TD*
G04 #@! TO.P,K_\005C1,4*
G04 #@! TO.N,Net-(K_\005C1-Pad4)*
X267970000Y-44767500D03*
D12*
G04 #@! TO.P,K_\005C1,3*
G04 #@! TO.N,+5V*
X265430000Y-44767500D03*
D10*
G04 #@! TO.P,K_\005C1,1*
G04 #@! TO.N,COL11*
X264200000Y-35687500D03*
X263545001Y-36417500D03*
D11*
G04 #@! TD*
G04 #@! TO.N,COL11*
G04 #@! TO.C,K_\005C1*
X262890000Y-37147500D02*
X264200002Y-35687500D01*
D10*
G04 #@! TO.P,K_\005C1,2*
G04 #@! TO.N,Net-(D27-Pad2)*
X269240000Y-34607500D03*
X269220000Y-34897500D03*
D11*
G04 #@! TD*
G04 #@! TO.N,Net-(D27-Pad2)*
G04 #@! TO.C,K_\005C1*
X269200000Y-35187500D02*
X269240000Y-34607500D01*
D13*
G04 #@! TO.P,K_ALT1,4*
G04 #@! TO.N,Net-(K_ALT1-Pad4)*
X89376250Y-101917500D03*
D12*
G04 #@! TO.P,K_ALT1,3*
G04 #@! TO.N,+5V*
X86836250Y-101917500D03*
D10*
G04 #@! TO.P,K_ALT1,1*
G04 #@! TO.N,COL2*
X85606250Y-92837500D03*
X84951251Y-93567500D03*
D11*
G04 #@! TD*
G04 #@! TO.N,COL2*
G04 #@! TO.C,K_ALT1*
X84296250Y-94297500D02*
X85606252Y-92837500D01*
D10*
G04 #@! TO.P,K_ALT1,2*
G04 #@! TO.N,Net-(D67-Pad2)*
X90646250Y-91757500D03*
X90626250Y-92047500D03*
D11*
G04 #@! TD*
G04 #@! TO.N,Net-(D67-Pad2)*
G04 #@! TO.C,K_ALT1*
X90606250Y-92337500D02*
X90646250Y-91757500D01*
D13*
G04 #@! TO.P,K_B1,4*
G04 #@! TO.N,Net-(K_B1-Pad4)*
X163195000Y-82867500D03*
D12*
G04 #@! TO.P,K_B1,3*
G04 #@! TO.N,+5V*
X160655000Y-82867500D03*
D10*
G04 #@! TO.P,K_B1,1*
G04 #@! TO.N,COL6*
X159425000Y-73787500D03*
X158770001Y-74517500D03*
D11*
G04 #@! TD*
G04 #@! TO.N,COL6*
G04 #@! TO.C,K_B1*
X158115000Y-75247500D02*
X159425002Y-73787500D01*
D10*
G04 #@! TO.P,K_B1,2*
G04 #@! TO.N,Net-(D50-Pad2)*
X164465000Y-72707500D03*
X164445000Y-72997500D03*
D11*
G04 #@! TD*
G04 #@! TO.N,Net-(D50-Pad2)*
G04 #@! TO.C,K_B1*
X164425000Y-73287500D02*
X164465000Y-72707500D01*
D13*
G04 #@! TO.P,K_C1,4*
G04 #@! TO.N,Net-(K_C1-Pad4)*
X125095000Y-82867500D03*
D12*
G04 #@! TO.P,K_C1,3*
G04 #@! TO.N,+5V*
X122555000Y-82867500D03*
D10*
G04 #@! TO.P,K_C1,1*
G04 #@! TO.N,COL4*
X121325000Y-73787500D03*
X120670001Y-74517500D03*
D11*
G04 #@! TD*
G04 #@! TO.N,COL4*
G04 #@! TO.C,K_C1*
X120015000Y-75247500D02*
X121325002Y-73787500D01*
D10*
G04 #@! TO.P,K_C1,2*
G04 #@! TO.N,Net-(D48-Pad2)*
X126365000Y-72707500D03*
X126345000Y-72997500D03*
D11*
G04 #@! TD*
G04 #@! TO.N,Net-(D48-Pad2)*
G04 #@! TO.C,K_C1*
X126325000Y-73287500D02*
X126365000Y-72707500D01*
D10*
G04 #@! TO.P,K_CAPS1,2*
G04 #@! TO.N,Net-(D31-Pad2)*
X52526250Y-53947500D03*
D11*
G04 #@! TD*
G04 #@! TO.N,Net-(D31-Pad2)*
G04 #@! TO.C,K_CAPS1*
X52506250Y-54237500D02*
X52546250Y-53657500D01*
D10*
G04 #@! TO.P,K_CAPS1,2*
G04 #@! TO.N,Net-(D31-Pad2)*
X52546250Y-53657500D03*
G04 #@! TO.P,K_CAPS1,1*
G04 #@! TO.N,COL0*
X46851251Y-55467500D03*
D11*
G04 #@! TD*
G04 #@! TO.N,COL0*
G04 #@! TO.C,K_CAPS1*
X46196250Y-56197500D02*
X47506252Y-54737500D01*
D10*
G04 #@! TO.P,K_CAPS1,1*
G04 #@! TO.N,COL0*
X47506250Y-54737500D03*
D12*
G04 #@! TO.P,K_CAPS1,3*
G04 #@! TO.N,+5V*
X48736250Y-63817500D03*
D13*
G04 #@! TO.P,K_CAPS1,4*
G04 #@! TO.N,Net-(K_CAPS1-Pad4)*
X51276250Y-63817500D03*
G04 #@! TD*
D10*
G04 #@! TO.P,K_CAPS2,2*
G04 #@! TO.N,COL0*
X47763750Y-53947500D03*
D11*
G04 #@! TD*
G04 #@! TO.N,COL0*
G04 #@! TO.C,K_CAPS2*
X47743750Y-54237500D02*
X47783750Y-53657500D01*
D10*
G04 #@! TO.P,K_CAPS2,2*
G04 #@! TO.N,COL0*
X47783750Y-53657500D03*
G04 #@! TO.P,K_CAPS2,1*
G04 #@! TO.N,Net-(D31-Pad2)*
X42088751Y-55467500D03*
D11*
G04 #@! TD*
G04 #@! TO.N,Net-(D31-Pad2)*
G04 #@! TO.C,K_CAPS2*
X41433750Y-56197500D02*
X42743752Y-54737500D01*
D10*
G04 #@! TO.P,K_CAPS2,1*
G04 #@! TO.N,Net-(D31-Pad2)*
X42743750Y-54737500D03*
D12*
G04 #@! TO.P,K_CAPS2,3*
G04 #@! TO.N,+5V*
X46513750Y-63817500D03*
D13*
G04 #@! TO.P,K_CAPS2,4*
G04 #@! TO.N,Net-(K_CAPS1-Pad4)*
X43973750Y-63817500D03*
G04 #@! TD*
D10*
G04 #@! TO.P,K_CTRL1,2*
G04 #@! TO.N,Net-(D59-Pad2)*
X47763750Y-92047500D03*
D11*
G04 #@! TD*
G04 #@! TO.N,Net-(D59-Pad2)*
G04 #@! TO.C,K_CTRL1*
X47743750Y-92337500D02*
X47783750Y-91757500D01*
D10*
G04 #@! TO.P,K_CTRL1,2*
G04 #@! TO.N,Net-(D59-Pad2)*
X47783750Y-91757500D03*
G04 #@! TO.P,K_CTRL1,1*
G04 #@! TO.N,COL0*
X42088751Y-93567500D03*
D11*
G04 #@! TD*
G04 #@! TO.N,COL0*
G04 #@! TO.C,K_CTRL1*
X41433750Y-94297500D02*
X42743752Y-92837500D01*
D10*
G04 #@! TO.P,K_CTRL1,1*
G04 #@! TO.N,COL0*
X42743750Y-92837500D03*
D12*
G04 #@! TO.P,K_CTRL1,3*
G04 #@! TO.N,+5V*
X43973750Y-101917500D03*
D13*
G04 #@! TO.P,K_CTRL1,4*
G04 #@! TO.N,Net-(K_CTRL1-Pad4)*
X46513750Y-101917500D03*
G04 #@! TD*
G04 #@! TO.P,K_D1,4*
G04 #@! TO.N,Net-(K_D1-Pad4)*
X115570000Y-63817500D03*
D12*
G04 #@! TO.P,K_D1,3*
G04 #@! TO.N,+5V*
X113030000Y-63817500D03*
D10*
G04 #@! TO.P,K_D1,1*
G04 #@! TO.N,COL3*
X111800000Y-54737500D03*
X111145001Y-55467500D03*
D11*
G04 #@! TD*
G04 #@! TO.N,COL3*
G04 #@! TO.C,K_D1*
X110490000Y-56197500D02*
X111800002Y-54737500D01*
D10*
G04 #@! TO.P,K_D1,2*
G04 #@! TO.N,Net-(D34-Pad2)*
X116840000Y-53657500D03*
X116820000Y-53947500D03*
D11*
G04 #@! TD*
G04 #@! TO.N,Net-(D34-Pad2)*
G04 #@! TO.C,K_D1*
X116800000Y-54237500D02*
X116840000Y-53657500D01*
D13*
G04 #@! TO.P,K_E1,4*
G04 #@! TO.N,Net-(K_E1-Pad4)*
X110807500Y-44767500D03*
D12*
G04 #@! TO.P,K_E1,3*
G04 #@! TO.N,+5V*
X108267500Y-44767500D03*
D10*
G04 #@! TO.P,K_E1,1*
G04 #@! TO.N,COL3*
X107037500Y-35687500D03*
X106382501Y-36417500D03*
D11*
G04 #@! TD*
G04 #@! TO.N,COL3*
G04 #@! TO.C,K_E1*
X105727500Y-37147500D02*
X107037502Y-35687500D01*
D10*
G04 #@! TO.P,K_E1,2*
G04 #@! TO.N,Net-(D19-Pad2)*
X112077500Y-34607500D03*
X112057500Y-34897500D03*
D11*
G04 #@! TD*
G04 #@! TO.N,Net-(D19-Pad2)*
G04 #@! TO.C,K_E1*
X112037500Y-35187500D02*
X112077500Y-34607500D01*
D10*
G04 #@! TO.P,K_F1,2*
G04 #@! TO.N,Net-(D35-Pad2)*
X135870000Y-53947500D03*
D11*
G04 #@! TD*
G04 #@! TO.N,Net-(D35-Pad2)*
G04 #@! TO.C,K_F1*
X135850000Y-54237500D02*
X135890000Y-53657500D01*
D10*
G04 #@! TO.P,K_F1,2*
G04 #@! TO.N,Net-(D35-Pad2)*
X135890000Y-53657500D03*
G04 #@! TO.P,K_F1,1*
G04 #@! TO.N,COL4*
X130195001Y-55467500D03*
D11*
G04 #@! TD*
G04 #@! TO.N,COL4*
G04 #@! TO.C,K_F1*
X129540000Y-56197500D02*
X130850002Y-54737500D01*
D10*
G04 #@! TO.P,K_F1,1*
G04 #@! TO.N,COL4*
X130850000Y-54737500D03*
D12*
G04 #@! TO.P,K_F1,3*
G04 #@! TO.N,+5V*
X132080000Y-63817500D03*
D13*
G04 #@! TO.P,K_F1,4*
G04 #@! TO.N,Net-(K_F1-Pad4)*
X134620000Y-63817500D03*
G04 #@! TD*
G04 #@! TO.P,K_G1,4*
G04 #@! TO.N,Net-(K_G1-Pad4)*
X153670000Y-63817500D03*
D12*
G04 #@! TO.P,K_G1,3*
G04 #@! TO.N,+5V*
X151130000Y-63817500D03*
D10*
G04 #@! TO.P,K_G1,1*
G04 #@! TO.N,COL5*
X149900000Y-54737500D03*
X149245001Y-55467500D03*
D11*
G04 #@! TD*
G04 #@! TO.N,COL5*
G04 #@! TO.C,K_G1*
X148590000Y-56197500D02*
X149900002Y-54737500D01*
D10*
G04 #@! TO.P,K_G1,2*
G04 #@! TO.N,Net-(D36-Pad2)*
X154940000Y-53657500D03*
X154920000Y-53947500D03*
D11*
G04 #@! TD*
G04 #@! TO.N,Net-(D36-Pad2)*
G04 #@! TO.C,K_G1*
X154900000Y-54237500D02*
X154940000Y-53657500D01*
D13*
G04 #@! TO.P,K_H1,4*
G04 #@! TO.N,Net-(K_H1-Pad4)*
X172720000Y-63817500D03*
D12*
G04 #@! TO.P,K_H1,3*
G04 #@! TO.N,+5V*
X170180000Y-63817500D03*
D10*
G04 #@! TO.P,K_H1,1*
G04 #@! TO.N,COL6*
X168950000Y-54737500D03*
X168295001Y-55467500D03*
D11*
G04 #@! TD*
G04 #@! TO.N,COL6*
G04 #@! TO.C,K_H1*
X167640000Y-56197500D02*
X168950002Y-54737500D01*
D10*
G04 #@! TO.P,K_H1,2*
G04 #@! TO.N,Net-(D37-Pad2)*
X173990000Y-53657500D03*
X173970000Y-53947500D03*
D11*
G04 #@! TD*
G04 #@! TO.N,Net-(D37-Pad2)*
G04 #@! TO.C,K_H1*
X173950000Y-54237500D02*
X173990000Y-53657500D01*
D10*
G04 #@! TO.P,K_I1,2*
G04 #@! TO.N,Net-(D24-Pad2)*
X207307500Y-34897500D03*
D11*
G04 #@! TD*
G04 #@! TO.N,Net-(D24-Pad2)*
G04 #@! TO.C,K_I1*
X207287500Y-35187500D02*
X207327500Y-34607500D01*
D10*
G04 #@! TO.P,K_I1,2*
G04 #@! TO.N,Net-(D24-Pad2)*
X207327500Y-34607500D03*
G04 #@! TO.P,K_I1,1*
G04 #@! TO.N,COL8*
X201632501Y-36417500D03*
D11*
G04 #@! TD*
G04 #@! TO.N,COL8*
G04 #@! TO.C,K_I1*
X200977500Y-37147500D02*
X202287502Y-35687500D01*
D10*
G04 #@! TO.P,K_I1,1*
G04 #@! TO.N,COL8*
X202287500Y-35687500D03*
D12*
G04 #@! TO.P,K_I1,3*
G04 #@! TO.N,+5V*
X203517500Y-44767500D03*
D13*
G04 #@! TO.P,K_I1,4*
G04 #@! TO.N,Net-(K_I1-Pad4)*
X206057500Y-44767500D03*
G04 #@! TD*
G04 #@! TO.P,K_J1,4*
G04 #@! TO.N,Net-(K_J1-Pad4)*
X191770000Y-63817500D03*
D12*
G04 #@! TO.P,K_J1,3*
G04 #@! TO.N,+5V*
X189230000Y-63817500D03*
D10*
G04 #@! TO.P,K_J1,1*
G04 #@! TO.N,COL7*
X188000000Y-54737500D03*
X187345001Y-55467500D03*
D11*
G04 #@! TD*
G04 #@! TO.N,COL7*
G04 #@! TO.C,K_J1*
X186690000Y-56197500D02*
X188000002Y-54737500D01*
D10*
G04 #@! TO.P,K_J1,2*
G04 #@! TO.N,Net-(D38-Pad2)*
X193040000Y-53657500D03*
X193020000Y-53947500D03*
D11*
G04 #@! TD*
G04 #@! TO.N,Net-(D38-Pad2)*
G04 #@! TO.C,K_J1*
X193000000Y-54237500D02*
X193040000Y-53657500D01*
D13*
G04 #@! TO.P,K_K1,4*
G04 #@! TO.N,Net-(K_K1-Pad4)*
X210820000Y-63817500D03*
D12*
G04 #@! TO.P,K_K1,3*
G04 #@! TO.N,+5V*
X208280000Y-63817500D03*
D10*
G04 #@! TO.P,K_K1,1*
G04 #@! TO.N,COL8*
X207050000Y-54737500D03*
X206395001Y-55467500D03*
D11*
G04 #@! TD*
G04 #@! TO.N,COL8*
G04 #@! TO.C,K_K1*
X205740000Y-56197500D02*
X207050002Y-54737500D01*
D10*
G04 #@! TO.P,K_K1,2*
G04 #@! TO.N,Net-(D39-Pad2)*
X212090000Y-53657500D03*
X212070000Y-53947500D03*
D11*
G04 #@! TD*
G04 #@! TO.N,Net-(D39-Pad2)*
G04 #@! TO.C,K_K1*
X212050000Y-54237500D02*
X212090000Y-53657500D01*
D10*
G04 #@! TO.P,K_L1,2*
G04 #@! TO.N,Net-(D40-Pad2)*
X231120000Y-53947500D03*
D11*
G04 #@! TD*
G04 #@! TO.N,Net-(D40-Pad2)*
G04 #@! TO.C,K_L1*
X231100000Y-54237500D02*
X231140000Y-53657500D01*
D10*
G04 #@! TO.P,K_L1,2*
G04 #@! TO.N,Net-(D40-Pad2)*
X231140000Y-53657500D03*
G04 #@! TO.P,K_L1,1*
G04 #@! TO.N,COL9*
X225445001Y-55467500D03*
D11*
G04 #@! TD*
G04 #@! TO.N,COL9*
G04 #@! TO.C,K_L1*
X224790000Y-56197500D02*
X226100002Y-54737500D01*
D10*
G04 #@! TO.P,K_L1,1*
G04 #@! TO.N,COL9*
X226100000Y-54737500D03*
D12*
G04 #@! TO.P,K_L1,3*
G04 #@! TO.N,+5V*
X227330000Y-63817500D03*
D13*
G04 #@! TO.P,K_L1,4*
G04 #@! TO.N,Net-(K_L1-Pad4)*
X229870000Y-63817500D03*
G04 #@! TD*
D10*
G04 #@! TO.P,K_LSPACE1,2*
G04 #@! TO.N,Net-(D58-Pad2)*
X123963750Y-92047500D03*
D11*
G04 #@! TD*
G04 #@! TO.N,Net-(D58-Pad2)*
G04 #@! TO.C,K_LSPACE1*
X123943750Y-92337500D02*
X123983750Y-91757500D01*
D10*
G04 #@! TO.P,K_LSPACE1,2*
G04 #@! TO.N,Net-(D58-Pad2)*
X123983750Y-91757500D03*
G04 #@! TO.P,K_LSPACE1,1*
G04 #@! TO.N,COL4*
X118288751Y-93567500D03*
D11*
G04 #@! TD*
G04 #@! TO.N,COL4*
G04 #@! TO.C,K_LSPACE1*
X117633750Y-94297500D02*
X118943752Y-92837500D01*
D10*
G04 #@! TO.P,K_LSPACE1,1*
G04 #@! TO.N,COL4*
X118943750Y-92837500D03*
D12*
G04 #@! TO.P,K_LSPACE1,3*
G04 #@! TO.N,+5V*
X120173750Y-101917500D03*
D13*
G04 #@! TO.P,K_LSPACE1,4*
G04 #@! TO.N,Net-(K_LSPACE1-Pad4)*
X122713750Y-101917500D03*
G04 #@! TD*
D10*
G04 #@! TO.P,K_M1,2*
G04 #@! TO.N,Net-(D52-Pad2)*
X202545000Y-72997500D03*
D11*
G04 #@! TD*
G04 #@! TO.N,Net-(D52-Pad2)*
G04 #@! TO.C,K_M1*
X202525000Y-73287500D02*
X202565000Y-72707500D01*
D10*
G04 #@! TO.P,K_M1,2*
G04 #@! TO.N,Net-(D52-Pad2)*
X202565000Y-72707500D03*
G04 #@! TO.P,K_M1,1*
G04 #@! TO.N,COL8*
X196870001Y-74517500D03*
D11*
G04 #@! TD*
G04 #@! TO.N,COL8*
G04 #@! TO.C,K_M1*
X196215000Y-75247500D02*
X197525002Y-73787500D01*
D10*
G04 #@! TO.P,K_M1,1*
G04 #@! TO.N,COL8*
X197525000Y-73787500D03*
D12*
G04 #@! TO.P,K_M1,3*
G04 #@! TO.N,+5V*
X198755000Y-82867500D03*
D13*
G04 #@! TO.P,K_M1,4*
G04 #@! TO.N,Net-(K_M1-Pad4)*
X201295000Y-82867500D03*
G04 #@! TD*
D10*
G04 #@! TO.P,K_N1,2*
G04 #@! TO.N,Net-(D51-Pad2)*
X183495000Y-72997500D03*
D11*
G04 #@! TD*
G04 #@! TO.N,Net-(D51-Pad2)*
G04 #@! TO.C,K_N1*
X183475000Y-73287500D02*
X183515000Y-72707500D01*
D10*
G04 #@! TO.P,K_N1,2*
G04 #@! TO.N,Net-(D51-Pad2)*
X183515000Y-72707500D03*
G04 #@! TO.P,K_N1,1*
G04 #@! TO.N,COL7*
X177820001Y-74517500D03*
D11*
G04 #@! TD*
G04 #@! TO.N,COL7*
G04 #@! TO.C,K_N1*
X177165000Y-75247500D02*
X178475002Y-73787500D01*
D10*
G04 #@! TO.P,K_N1,1*
G04 #@! TO.N,COL7*
X178475000Y-73787500D03*
D12*
G04 #@! TO.P,K_N1,3*
G04 #@! TO.N,+5V*
X179705000Y-82867500D03*
D13*
G04 #@! TO.P,K_N1,4*
G04 #@! TO.N,Net-(K_N1-Pad4)*
X182245000Y-82867500D03*
G04 #@! TD*
D10*
G04 #@! TO.P,K_P1,2*
G04 #@! TO.N,Net-(D26-Pad2)*
X245407500Y-34897500D03*
D11*
G04 #@! TD*
G04 #@! TO.N,Net-(D26-Pad2)*
G04 #@! TO.C,K_P1*
X245387500Y-35187500D02*
X245427500Y-34607500D01*
D10*
G04 #@! TO.P,K_P1,2*
G04 #@! TO.N,Net-(D26-Pad2)*
X245427500Y-34607500D03*
G04 #@! TO.P,K_P1,1*
G04 #@! TO.N,.-COL*
X239732501Y-36417500D03*
D11*
G04 #@! TD*
G04 #@! TO.N,.-COL*
G04 #@! TO.C,K_P1*
X239077500Y-37147500D02*
X240387502Y-35687500D01*
D10*
G04 #@! TO.P,K_P1,1*
G04 #@! TO.N,.-COL*
X240387500Y-35687500D03*
D12*
G04 #@! TO.P,K_P1,3*
G04 #@! TO.N,+5V*
X241617500Y-44767500D03*
D13*
G04 #@! TO.P,K_P1,4*
G04 #@! TO.N,Net-(K_P1-Pad4)*
X244157500Y-44767500D03*
G04 #@! TD*
G04 #@! TO.P,K_Q1,4*
G04 #@! TO.N,Net-(K_Q1-Pad4)*
X72707500Y-44767500D03*
D12*
G04 #@! TO.P,K_Q1,3*
G04 #@! TO.N,+5V*
X70167500Y-44767500D03*
D10*
G04 #@! TO.P,K_Q1,1*
G04 #@! TO.N,COL1*
X68937500Y-35687500D03*
X68282501Y-36417500D03*
D11*
G04 #@! TD*
G04 #@! TO.N,COL1*
G04 #@! TO.C,K_Q1*
X67627500Y-37147500D02*
X68937502Y-35687500D01*
D10*
G04 #@! TO.P,K_Q1,2*
G04 #@! TO.N,Net-(D17-Pad2)*
X73977500Y-34607500D03*
X73957500Y-34897500D03*
D11*
G04 #@! TD*
G04 #@! TO.N,Net-(D17-Pad2)*
G04 #@! TO.C,K_Q1*
X73937500Y-35187500D02*
X73977500Y-34607500D01*
D10*
G04 #@! TO.P,K_R1,2*
G04 #@! TO.N,Net-(D20-Pad2)*
X131107500Y-34897500D03*
D11*
G04 #@! TD*
G04 #@! TO.N,Net-(D20-Pad2)*
G04 #@! TO.C,K_R1*
X131087500Y-35187500D02*
X131127500Y-34607500D01*
D10*
G04 #@! TO.P,K_R1,2*
G04 #@! TO.N,Net-(D20-Pad2)*
X131127500Y-34607500D03*
G04 #@! TO.P,K_R1,1*
G04 #@! TO.N,COL4*
X125432501Y-36417500D03*
D11*
G04 #@! TD*
G04 #@! TO.N,COL4*
G04 #@! TO.C,K_R1*
X124777500Y-37147500D02*
X126087502Y-35687500D01*
D10*
G04 #@! TO.P,K_R1,1*
G04 #@! TO.N,COL4*
X126087500Y-35687500D03*
D12*
G04 #@! TO.P,K_R1,3*
G04 #@! TO.N,+5V*
X127317500Y-44767500D03*
D13*
G04 #@! TO.P,K_R1,4*
G04 #@! TO.N,Net-(K_R1-Pad4)*
X129857500Y-44767500D03*
G04 #@! TD*
G04 #@! TO.P,K_RALT1,4*
G04 #@! TO.N,Net-(K_RALT1-Pad4)*
X227488750Y-101917500D03*
D12*
G04 #@! TO.P,K_RALT1,3*
G04 #@! TO.N,+5V*
X224948750Y-101917500D03*
D10*
G04 #@! TO.P,K_RALT1,1*
G04 #@! TO.N,COL9*
X223718750Y-92837500D03*
X223063751Y-93567500D03*
D11*
G04 #@! TD*
G04 #@! TO.N,COL9*
G04 #@! TO.C,K_RALT1*
X222408750Y-94297500D02*
X223718752Y-92837500D01*
D10*
G04 #@! TO.P,K_RALT1,2*
G04 #@! TO.N,Net-(D1-Pad2)*
X228758750Y-91757500D03*
X228738750Y-92047500D03*
D11*
G04 #@! TD*
G04 #@! TO.N,Net-(D1-Pad2)*
G04 #@! TO.C,K_RALT1*
X228718750Y-92337500D02*
X228758750Y-91757500D01*
D10*
G04 #@! TO.P,K_RCTRL1,2*
G04 #@! TO.N,Net-(D64-Pad2)*
X271601250Y-92047500D03*
D11*
G04 #@! TD*
G04 #@! TO.N,Net-(D64-Pad2)*
G04 #@! TO.C,K_RCTRL1*
X271581250Y-92337500D02*
X271621250Y-91757500D01*
D10*
G04 #@! TO.P,K_RCTRL1,2*
G04 #@! TO.N,Net-(D64-Pad2)*
X271621250Y-91757500D03*
G04 #@! TO.P,K_RCTRL1,1*
G04 #@! TO.N,COL11*
X265926251Y-93567500D03*
D11*
G04 #@! TD*
G04 #@! TO.N,COL11*
G04 #@! TO.C,K_RCTRL1*
X265271250Y-94297500D02*
X266581252Y-92837500D01*
D10*
G04 #@! TO.P,K_RCTRL1,1*
G04 #@! TO.N,COL11*
X266581250Y-92837500D03*
D12*
G04 #@! TO.P,K_RCTRL1,3*
G04 #@! TO.N,+5V*
X267811250Y-101917500D03*
D13*
G04 #@! TO.P,K_RCTRL1,4*
G04 #@! TO.N,Net-(K_RCTRL1-Pad4)*
X270351250Y-101917500D03*
G04 #@! TD*
G04 #@! TO.P,K_RSPACE1,4*
G04 #@! TO.N,Net-(K_RSPACE1-Pad4)*
X189388750Y-101917500D03*
D12*
G04 #@! TO.P,K_RSPACE1,3*
G04 #@! TO.N,+5V*
X186848750Y-101917500D03*
D10*
G04 #@! TO.P,K_RSPACE1,1*
G04 #@! TO.N,COL8*
X185618750Y-92837500D03*
X184963751Y-93567500D03*
D11*
G04 #@! TD*
G04 #@! TO.N,COL8*
G04 #@! TO.C,K_RSPACE1*
X184308750Y-94297500D02*
X185618752Y-92837500D01*
D10*
G04 #@! TO.P,K_RSPACE1,2*
G04 #@! TO.N,Net-(D62-Pad2)*
X190658750Y-91757500D03*
X190638750Y-92047500D03*
D11*
G04 #@! TD*
G04 #@! TO.N,Net-(D62-Pad2)*
G04 #@! TO.C,K_RSPACE1*
X190618750Y-92337500D02*
X190658750Y-91757500D01*
D13*
G04 #@! TO.P,K_RWIN1,4*
G04 #@! TO.N,Net-(K_RWIN1-Pad4)*
X248920000Y-101917500D03*
D12*
G04 #@! TO.P,K_RWIN1,3*
G04 #@! TO.N,+5V*
X246380000Y-101917500D03*
D10*
G04 #@! TO.P,K_RWIN1,1*
G04 #@! TO.N,.-COL*
X245150000Y-92837500D03*
X244495001Y-93567500D03*
D11*
G04 #@! TD*
G04 #@! TO.N,.-COL*
G04 #@! TO.C,K_RWIN1*
X243840000Y-94297500D02*
X245150002Y-92837500D01*
D10*
G04 #@! TO.P,K_RWIN1,2*
G04 #@! TO.N,Net-(D63-Pad2)*
X250190000Y-91757500D03*
X250170000Y-92047500D03*
D11*
G04 #@! TD*
G04 #@! TO.N,Net-(D63-Pad2)*
G04 #@! TO.C,K_RWIN1*
X250150000Y-92337500D02*
X250190000Y-91757500D01*
D13*
G04 #@! TO.P,K_S1,4*
G04 #@! TO.N,Net-(K_S1-Pad4)*
X96520000Y-63817500D03*
D12*
G04 #@! TO.P,K_S1,3*
G04 #@! TO.N,+5V*
X93980000Y-63817500D03*
D10*
G04 #@! TO.P,K_S1,1*
G04 #@! TO.N,COL2*
X92750000Y-54737500D03*
X92095001Y-55467500D03*
D11*
G04 #@! TD*
G04 #@! TO.N,COL2*
G04 #@! TO.C,K_S1*
X91440000Y-56197500D02*
X92750002Y-54737500D01*
D10*
G04 #@! TO.P,K_S1,2*
G04 #@! TO.N,Net-(D33-Pad2)*
X97790000Y-53657500D03*
X97770000Y-53947500D03*
D11*
G04 #@! TD*
G04 #@! TO.N,Net-(D33-Pad2)*
G04 #@! TO.C,K_S1*
X97750000Y-54237500D02*
X97790000Y-53657500D01*
D10*
G04 #@! TO.P,K_SHIFT1,2*
G04 #@! TO.N,Net-(D45-Pad2)*
X57288750Y-72997500D03*
D11*
G04 #@! TD*
G04 #@! TO.N,Net-(D45-Pad2)*
G04 #@! TO.C,K_SHIFT1*
X57268750Y-73287500D02*
X57308750Y-72707500D01*
D10*
G04 #@! TO.P,K_SHIFT1,2*
G04 #@! TO.N,Net-(D45-Pad2)*
X57308750Y-72707500D03*
G04 #@! TO.P,K_SHIFT1,1*
G04 #@! TO.N,COL0*
X51613751Y-74517500D03*
D11*
G04 #@! TD*
G04 #@! TO.N,COL0*
G04 #@! TO.C,K_SHIFT1*
X50958750Y-75247500D02*
X52268752Y-73787500D01*
D10*
G04 #@! TO.P,K_SHIFT1,1*
G04 #@! TO.N,COL0*
X52268750Y-73787500D03*
D12*
G04 #@! TO.P,K_SHIFT1,3*
G04 #@! TO.N,+5V*
X53498750Y-82867500D03*
D13*
G04 #@! TO.P,K_SHIFT1,4*
G04 #@! TO.N,Net-(K_SHIFT1-Pad4)*
X56038750Y-82867500D03*
G04 #@! TD*
D10*
G04 #@! TO.P,K_SHIFT2,2*
G04 #@! TO.N,Net-(D45-Pad2)*
X47763750Y-72997500D03*
D11*
G04 #@! TD*
G04 #@! TO.N,Net-(D45-Pad2)*
G04 #@! TO.C,K_SHIFT2*
X47743750Y-73287500D02*
X47783750Y-72707500D01*
D10*
G04 #@! TO.P,K_SHIFT2,2*
G04 #@! TO.N,Net-(D45-Pad2)*
X47783750Y-72707500D03*
G04 #@! TO.P,K_SHIFT2,1*
G04 #@! TO.N,COL0*
X42088751Y-74517500D03*
D11*
G04 #@! TD*
G04 #@! TO.N,COL0*
G04 #@! TO.C,K_SHIFT2*
X41433750Y-75247500D02*
X42743752Y-73787500D01*
D10*
G04 #@! TO.P,K_SHIFT2,1*
G04 #@! TO.N,COL0*
X42743750Y-73787500D03*
D12*
G04 #@! TO.P,K_SHIFT2,3*
G04 #@! TO.N,+5V*
X43973750Y-82867500D03*
D13*
G04 #@! TO.P,K_SHIFT2,4*
G04 #@! TO.N,Net-(K_SHIFT1-Pad4)*
X46513750Y-82867500D03*
G04 #@! TD*
G04 #@! TO.P,K_SHIFT3,4*
G04 #@! TO.N,Net-(K_SHIFT3-Pad4)*
X67945000Y-82867500D03*
D12*
G04 #@! TO.P,K_SHIFT3,3*
G04 #@! TO.N,+5V*
X65405000Y-82867500D03*
D10*
G04 #@! TO.P,K_SHIFT3,1*
G04 #@! TO.N,COL1*
X64175000Y-73787500D03*
X63520001Y-74517500D03*
D11*
G04 #@! TD*
G04 #@! TO.N,COL1*
G04 #@! TO.C,K_SHIFT3*
X62865000Y-75247500D02*
X64175002Y-73787500D01*
D10*
G04 #@! TO.P,K_SHIFT3,2*
G04 #@! TO.N,Net-(D44-Pad2)*
X69215000Y-72707500D03*
X69195000Y-72997500D03*
D11*
G04 #@! TD*
G04 #@! TO.N,Net-(D44-Pad2)*
G04 #@! TO.C,K_SHIFT3*
X69175000Y-73287500D02*
X69215000Y-72707500D01*
D13*
G04 #@! TO.P,K_SPACE3,4*
G04 #@! TO.N,Net-(K_SPACE2-Pad4)*
X153670000Y-101917500D03*
D12*
G04 #@! TO.P,K_SPACE3,3*
G04 #@! TO.N,+5V*
X151130000Y-101917500D03*
D10*
G04 #@! TO.P,K_SPACE3,1*
G04 #@! TO.N,COL6*
X149900000Y-92837500D03*
X149245001Y-93567500D03*
D11*
G04 #@! TD*
G04 #@! TO.N,COL6*
G04 #@! TO.C,K_SPACE3*
X148590000Y-94297500D02*
X149900002Y-92837500D01*
D10*
G04 #@! TO.P,K_SPACE3,2*
G04 #@! TO.N,Net-(D61-Pad2)*
X154940000Y-91757500D03*
X154920000Y-92047500D03*
D11*
G04 #@! TD*
G04 #@! TO.N,Net-(D61-Pad2)*
G04 #@! TO.C,K_SPACE3*
X154900000Y-92337500D02*
X154940000Y-91757500D01*
D10*
G04 #@! TO.P,K_T1,2*
G04 #@! TO.N,Net-(D21-Pad2)*
X150157500Y-34897500D03*
D11*
G04 #@! TD*
G04 #@! TO.N,Net-(D21-Pad2)*
G04 #@! TO.C,K_T1*
X150137500Y-35187500D02*
X150177500Y-34607500D01*
D10*
G04 #@! TO.P,K_T1,2*
G04 #@! TO.N,Net-(D21-Pad2)*
X150177500Y-34607500D03*
G04 #@! TO.P,K_T1,1*
G04 #@! TO.N,COL5*
X144482501Y-36417500D03*
D11*
G04 #@! TD*
G04 #@! TO.N,COL5*
G04 #@! TO.C,K_T1*
X143827500Y-37147500D02*
X145137502Y-35687500D01*
D10*
G04 #@! TO.P,K_T1,1*
G04 #@! TO.N,COL5*
X145137500Y-35687500D03*
D12*
G04 #@! TO.P,K_T1,3*
G04 #@! TO.N,+5V*
X146367500Y-44767500D03*
D13*
G04 #@! TO.P,K_T1,4*
G04 #@! TO.N,Net-(K_T1-Pad4)*
X148907500Y-44767500D03*
G04 #@! TD*
D10*
G04 #@! TO.P,K_TAB1,2*
G04 #@! TO.N,Net-(D16-Pad2)*
X50145000Y-34897500D03*
D11*
G04 #@! TD*
G04 #@! TO.N,Net-(D16-Pad2)*
G04 #@! TO.C,K_TAB1*
X50125000Y-35187500D02*
X50165000Y-34607500D01*
D10*
G04 #@! TO.P,K_TAB1,2*
G04 #@! TO.N,Net-(D16-Pad2)*
X50165000Y-34607500D03*
G04 #@! TO.P,K_TAB1,1*
G04 #@! TO.N,COL0*
X44470001Y-36417500D03*
D11*
G04 #@! TD*
G04 #@! TO.N,COL0*
G04 #@! TO.C,K_TAB1*
X43815000Y-37147500D02*
X45125002Y-35687500D01*
D10*
G04 #@! TO.P,K_TAB1,1*
G04 #@! TO.N,COL0*
X45125000Y-35687500D03*
D12*
G04 #@! TO.P,K_TAB1,3*
G04 #@! TO.N,+5V*
X46355000Y-44767500D03*
D13*
G04 #@! TO.P,K_TAB1,4*
G04 #@! TO.N,Net-(K_TAB1-Pad4)*
X48895000Y-44767500D03*
G04 #@! TD*
G04 #@! TO.P,K_U1,4*
G04 #@! TO.N,Net-(K_U1-Pad4)*
X187007500Y-44767500D03*
D12*
G04 #@! TO.P,K_U1,3*
G04 #@! TO.N,+5V*
X184467500Y-44767500D03*
D10*
G04 #@! TO.P,K_U1,1*
G04 #@! TO.N,COL7*
X183237500Y-35687500D03*
X182582501Y-36417500D03*
D11*
G04 #@! TD*
G04 #@! TO.N,COL7*
G04 #@! TO.C,K_U1*
X181927500Y-37147500D02*
X183237502Y-35687500D01*
D10*
G04 #@! TO.P,K_U1,2*
G04 #@! TO.N,Net-(D23-Pad2)*
X188277500Y-34607500D03*
X188257500Y-34897500D03*
D11*
G04 #@! TD*
G04 #@! TO.N,Net-(D23-Pad2)*
G04 #@! TO.C,K_U1*
X188237500Y-35187500D02*
X188277500Y-34607500D01*
D10*
G04 #@! TO.P,K_V1,2*
G04 #@! TO.N,Net-(D49-Pad2)*
X145395000Y-72997500D03*
D11*
G04 #@! TD*
G04 #@! TO.N,Net-(D49-Pad2)*
G04 #@! TO.C,K_V1*
X145375000Y-73287500D02*
X145415000Y-72707500D01*
D10*
G04 #@! TO.P,K_V1,2*
G04 #@! TO.N,Net-(D49-Pad2)*
X145415000Y-72707500D03*
G04 #@! TO.P,K_V1,1*
G04 #@! TO.N,COL5*
X139720001Y-74517500D03*
D11*
G04 #@! TD*
G04 #@! TO.N,COL5*
G04 #@! TO.C,K_V1*
X139065000Y-75247500D02*
X140375002Y-73787500D01*
D10*
G04 #@! TO.P,K_V1,1*
G04 #@! TO.N,COL5*
X140375000Y-73787500D03*
D12*
G04 #@! TO.P,K_V1,3*
G04 #@! TO.N,+5V*
X141605000Y-82867500D03*
D13*
G04 #@! TO.P,K_V1,4*
G04 #@! TO.N,Net-(K_V1-Pad4)*
X144145000Y-82867500D03*
G04 #@! TD*
D10*
G04 #@! TO.P,K_W1,2*
G04 #@! TO.N,Net-(D18-Pad2)*
X93007500Y-34897500D03*
D11*
G04 #@! TD*
G04 #@! TO.N,Net-(D18-Pad2)*
G04 #@! TO.C,K_W1*
X92987500Y-35187500D02*
X93027500Y-34607500D01*
D10*
G04 #@! TO.P,K_W1,2*
G04 #@! TO.N,Net-(D18-Pad2)*
X93027500Y-34607500D03*
G04 #@! TO.P,K_W1,1*
G04 #@! TO.N,COL2*
X87332501Y-36417500D03*
D11*
G04 #@! TD*
G04 #@! TO.N,COL2*
G04 #@! TO.C,K_W1*
X86677500Y-37147500D02*
X87987502Y-35687500D01*
D10*
G04 #@! TO.P,K_W1,1*
G04 #@! TO.N,COL2*
X87987500Y-35687500D03*
D12*
G04 #@! TO.P,K_W1,3*
G04 #@! TO.N,+5V*
X89217500Y-44767500D03*
D13*
G04 #@! TO.P,K_W1,4*
G04 #@! TO.N,Net-(K_W1-Pad4)*
X91757500Y-44767500D03*
G04 #@! TD*
G04 #@! TO.P,K_WIN1,4*
G04 #@! TO.N,Net-(K_WIN1-Pad4)*
X67945000Y-101917500D03*
D12*
G04 #@! TO.P,K_WIN1,3*
G04 #@! TO.N,+5V*
X65405000Y-101917500D03*
D10*
G04 #@! TO.P,K_WIN1,1*
G04 #@! TO.N,COL1*
X64175000Y-92837500D03*
X63520001Y-93567500D03*
D11*
G04 #@! TD*
G04 #@! TO.N,COL1*
G04 #@! TO.C,K_WIN1*
X62865000Y-94297500D02*
X64175002Y-92837500D01*
D10*
G04 #@! TO.P,K_WIN1,2*
G04 #@! TO.N,Net-(D60-Pad2)*
X69215000Y-91757500D03*
X69195000Y-92047500D03*
D11*
G04 #@! TD*
G04 #@! TO.N,Net-(D60-Pad2)*
G04 #@! TO.C,K_WIN1*
X69175000Y-92337500D02*
X69215000Y-91757500D01*
D10*
G04 #@! TO.P,K_X1,2*
G04 #@! TO.N,Net-(D47-Pad2)*
X107295000Y-72997500D03*
D11*
G04 #@! TD*
G04 #@! TO.N,Net-(D47-Pad2)*
G04 #@! TO.C,K_X1*
X107275000Y-73287500D02*
X107315000Y-72707500D01*
D10*
G04 #@! TO.P,K_X1,2*
G04 #@! TO.N,Net-(D47-Pad2)*
X107315000Y-72707500D03*
G04 #@! TO.P,K_X1,1*
G04 #@! TO.N,COL3*
X101620001Y-74517500D03*
D11*
G04 #@! TD*
G04 #@! TO.N,COL3*
G04 #@! TO.C,K_X1*
X100965000Y-75247500D02*
X102275002Y-73787500D01*
D10*
G04 #@! TO.P,K_X1,1*
G04 #@! TO.N,COL3*
X102275000Y-73787500D03*
D12*
G04 #@! TO.P,K_X1,3*
G04 #@! TO.N,+5V*
X103505000Y-82867500D03*
D13*
G04 #@! TO.P,K_X1,4*
G04 #@! TO.N,Net-(K_X1-Pad4)*
X106045000Y-82867500D03*
G04 #@! TD*
G04 #@! TO.P,K_Y1,4*
G04 #@! TO.N,Net-(K_Y1-Pad4)*
X167957500Y-44767500D03*
D12*
G04 #@! TO.P,K_Y1,3*
G04 #@! TO.N,+5V*
X165417500Y-44767500D03*
D10*
G04 #@! TO.P,K_Y1,1*
G04 #@! TO.N,COL6*
X164187500Y-35687500D03*
X163532501Y-36417500D03*
D11*
G04 #@! TD*
G04 #@! TO.N,COL6*
G04 #@! TO.C,K_Y1*
X162877500Y-37147500D02*
X164187502Y-35687500D01*
D10*
G04 #@! TO.P,K_Y1,2*
G04 #@! TO.N,Net-(D22-Pad2)*
X169227500Y-34607500D03*
X169207500Y-34897500D03*
D11*
G04 #@! TD*
G04 #@! TO.N,Net-(D22-Pad2)*
G04 #@! TO.C,K_Y1*
X169187500Y-35187500D02*
X169227500Y-34607500D01*
D10*
G04 #@! TO.P,K_Z1,2*
G04 #@! TO.N,Net-(D46-Pad2)*
X88245000Y-72997500D03*
D11*
G04 #@! TD*
G04 #@! TO.N,Net-(D46-Pad2)*
G04 #@! TO.C,K_Z1*
X88225000Y-73287500D02*
X88265000Y-72707500D01*
D10*
G04 #@! TO.P,K_Z1,2*
G04 #@! TO.N,Net-(D46-Pad2)*
X88265000Y-72707500D03*
G04 #@! TO.P,K_Z1,1*
G04 #@! TO.N,COL2*
X82570001Y-74517500D03*
D11*
G04 #@! TD*
G04 #@! TO.N,COL2*
G04 #@! TO.C,K_Z1*
X81915000Y-75247500D02*
X83225002Y-73787500D01*
D10*
G04 #@! TO.P,K_Z1,1*
G04 #@! TO.N,COL2*
X83225000Y-73787500D03*
D12*
G04 #@! TO.P,K_Z1,3*
G04 #@! TO.N,+5V*
X84455000Y-82867500D03*
D13*
G04 #@! TO.P,K_Z1,4*
G04 #@! TO.N,Net-(K_Z1-Pad4)*
X86995000Y-82867500D03*
G04 #@! TD*
D14*
G04 #@! TO.P,USB1,13*
G04 #@! TO.N,GND*
X63851250Y-29587500D03*
X55211250Y-29587500D03*
D15*
X63851250Y-33767500D03*
X55211250Y-33767500D03*
G04 #@! TD*
D10*
G04 #@! TO.P,K_ENTER1,2*
G04 #@! TO.N,Net-(D42-Pad2)*
X262076250Y-53947500D03*
D11*
G04 #@! TD*
G04 #@! TO.N,Net-(D42-Pad2)*
G04 #@! TO.C,K_ENTER1*
X262056250Y-54237500D02*
X262096250Y-53657500D01*
D10*
G04 #@! TO.P,K_ENTER1,2*
G04 #@! TO.N,Net-(D42-Pad2)*
X262096250Y-53657500D03*
G04 #@! TO.P,K_ENTER1,1*
G04 #@! TO.N,COL11*
X256401251Y-55467500D03*
D11*
G04 #@! TD*
G04 #@! TO.N,COL11*
G04 #@! TO.C,K_ENTER1*
X255746250Y-56197500D02*
X257056252Y-54737500D01*
D10*
G04 #@! TO.P,K_ENTER1,1*
G04 #@! TO.N,COL11*
X257056250Y-54737500D03*
D12*
G04 #@! TO.P,K_ENTER1,3*
G04 #@! TO.N,+5V*
X258286250Y-63817500D03*
D13*
G04 #@! TO.P,K_ENTER1,4*
G04 #@! TO.N,Net-(K_ENTER1-Pad4)*
X260826250Y-63817500D03*
G04 #@! TD*
D10*
G04 #@! TO.P,K_ENTER2,2*
G04 #@! TO.N,COL11*
X271601250Y-53947500D03*
D11*
G04 #@! TD*
G04 #@! TO.N,COL11*
G04 #@! TO.C,K_ENTER2*
X271581250Y-54237500D02*
X271621250Y-53657500D01*
D10*
G04 #@! TO.P,K_ENTER2,2*
G04 #@! TO.N,COL11*
X271621250Y-53657500D03*
G04 #@! TO.P,K_ENTER2,1*
G04 #@! TO.N,Net-(D42-Pad2)*
X265926251Y-55467500D03*
D11*
G04 #@! TD*
G04 #@! TO.N,Net-(D42-Pad2)*
G04 #@! TO.C,K_ENTER2*
X265271250Y-56197500D02*
X266581252Y-54737500D01*
D10*
G04 #@! TO.P,K_ENTER2,1*
G04 #@! TO.N,Net-(D42-Pad2)*
X266581250Y-54737500D03*
D12*
G04 #@! TO.P,K_ENTER2,3*
G04 #@! TO.N,+5V*
X267811250Y-63817500D03*
D13*
G04 #@! TO.P,K_ENTER2,4*
G04 #@! TO.N,Net-(K_ENTER1-Pad4)*
X270351250Y-63817500D03*
G04 #@! TD*
D10*
G04 #@! TO.P,K_ENTER3,1*
G04 #@! TO.N,COL11*
X273871250Y-51732499D03*
D11*
G04 #@! TD*
G04 #@! TO.N,COL11*
G04 #@! TO.C,K_ENTER3*
X273581250Y-51712500D02*
X274161250Y-51752498D01*
D10*
G04 #@! TO.P,K_ENTER3,1*
G04 #@! TO.N,COL11*
X274161250Y-51752500D03*
G04 #@! TO.P,K_ENTER3,2*
G04 #@! TO.N,Net-(D42-Pad2)*
X272351254Y-46057495D03*
D11*
G04 #@! TD*
G04 #@! TO.N,Net-(D42-Pad2)*
G04 #@! TO.C,K_ENTER3*
X271621250Y-45402500D02*
X273081258Y-46712490D01*
D10*
G04 #@! TO.P,K_ENTER3,2*
G04 #@! TO.N,Net-(D42-Pad2)*
X273081250Y-46712500D03*
D13*
G04 #@! TO.P,K_ENTER3,4*
G04 #@! TO.N,Net-(K_ENTER1-Pad4)*
X264001250Y-50482500D03*
D12*
G04 #@! TO.P,K_ENTER3,3*
G04 #@! TO.N,+5V*
X264001250Y-47942500D03*
D10*
G04 #@! TO.P,K_ENTER3,1*
G04 #@! TO.N,COL11*
X271581250Y-53212500D03*
G04 #@! TO.P,K_ENTER3,2*
G04 #@! TO.N,Net-(D42-Pad2)*
X266581250Y-53712500D03*
G04 #@! TD*
D13*
G04 #@! TO.P,K_RSHIFT1,4*
G04 #@! TO.N,Net-(K_RSHIFT1-Pad4)*
X265588750Y-82867500D03*
D12*
G04 #@! TO.P,K_RSHIFT1,3*
G04 #@! TO.N,+5V*
X263048750Y-82867500D03*
D10*
G04 #@! TO.P,K_RSHIFT1,1*
G04 #@! TO.N,COL11*
X261818750Y-73787500D03*
X261163751Y-74517500D03*
D11*
G04 #@! TD*
G04 #@! TO.N,COL11*
G04 #@! TO.C,K_RSHIFT1*
X260508750Y-75247500D02*
X261818752Y-73787500D01*
D10*
G04 #@! TO.P,K_RSHIFT1,2*
G04 #@! TO.N,Net-(D55-Pad2)*
X266858750Y-72707500D03*
X266838750Y-72997500D03*
D11*
G04 #@! TD*
G04 #@! TO.N,Net-(D55-Pad2)*
G04 #@! TO.C,K_RSHIFT1*
X266818750Y-73287500D02*
X266858750Y-72707500D01*
D10*
G04 #@! TO.P,K_RSHIFT2,2*
G04 #@! TO.N,.-COL*
X247788750Y-72997500D03*
D11*
G04 #@! TD*
G04 #@! TO.N,.-COL*
G04 #@! TO.C,K_RSHIFT2*
X247768750Y-73287500D02*
X247808750Y-72707500D01*
D10*
G04 #@! TO.P,K_RSHIFT2,2*
G04 #@! TO.N,.-COL*
X247808750Y-72707500D03*
G04 #@! TO.P,K_RSHIFT2,1*
G04 #@! TO.N,.-ROW*
X242113751Y-74517500D03*
D11*
G04 #@! TD*
G04 #@! TO.N,.-ROW*
G04 #@! TO.C,K_RSHIFT2*
X241458750Y-75247500D02*
X242768752Y-73787500D01*
D10*
G04 #@! TO.P,K_RSHIFT2,1*
G04 #@! TO.N,.-ROW*
X242768750Y-73787500D03*
D12*
G04 #@! TO.P,K_RSHIFT2,3*
G04 #@! TO.N,+5V*
X243998750Y-82867500D03*
D13*
G04 #@! TO.P,K_RSHIFT2,4*
G04 #@! TO.N,.-LEDGND*
X246538750Y-82867500D03*
G04 #@! TD*
D10*
G04 #@! TO.P,K_RSHIFT3,2*
G04 #@! TO.N,COL11*
X273982500Y-72997500D03*
D11*
G04 #@! TD*
G04 #@! TO.N,COL11*
G04 #@! TO.C,K_RSHIFT3*
X273962500Y-73287500D02*
X274002500Y-72707500D01*
D10*
G04 #@! TO.P,K_RSHIFT3,2*
G04 #@! TO.N,COL11*
X274002500Y-72707500D03*
G04 #@! TO.P,K_RSHIFT3,1*
G04 #@! TO.N,Net-(D55-Pad2)*
X268307501Y-74517500D03*
D11*
G04 #@! TD*
G04 #@! TO.N,Net-(D55-Pad2)*
G04 #@! TO.C,K_RSHIFT3*
X267652500Y-75247500D02*
X268962502Y-73787500D01*
D10*
G04 #@! TO.P,K_RSHIFT3,1*
G04 #@! TO.N,Net-(D55-Pad2)*
X268962500Y-73787500D03*
D12*
G04 #@! TO.P,K_RSHIFT3,3*
G04 #@! TO.N,+5V*
X270192500Y-82867500D03*
D13*
G04 #@! TO.P,K_RSHIFT3,4*
G04 #@! TO.N,Net-(K_RSHIFT1-Pad4)*
X272732500Y-82867500D03*
G04 #@! TD*
D10*
G04 #@! TO.P,K_RSHIFT4,2*
G04 #@! TO.N,Net-(D55-Pad2)*
X257313750Y-72997500D03*
D11*
G04 #@! TD*
G04 #@! TO.N,Net-(D55-Pad2)*
G04 #@! TO.C,K_RSHIFT4*
X257293750Y-73287500D02*
X257333750Y-72707500D01*
D10*
G04 #@! TO.P,K_RSHIFT4,2*
G04 #@! TO.N,Net-(D55-Pad2)*
X257333750Y-72707500D03*
G04 #@! TO.P,K_RSHIFT4,1*
G04 #@! TO.N,COL11*
X251638751Y-74517500D03*
D11*
G04 #@! TD*
G04 #@! TO.N,COL11*
G04 #@! TO.C,K_RSHIFT4*
X250983750Y-75247500D02*
X252293752Y-73787500D01*
D10*
G04 #@! TO.P,K_RSHIFT4,1*
G04 #@! TO.N,COL11*
X252293750Y-73787500D03*
D12*
G04 #@! TO.P,K_RSHIFT4,3*
G04 #@! TO.N,+5V*
X253523750Y-82867500D03*
D13*
G04 #@! TO.P,K_RSHIFT4,4*
G04 #@! TO.N,Net-(K_RSHIFT1-Pad4)*
X256063750Y-82867500D03*
G04 #@! TD*
D10*
G04 #@! TO.P,K_SPACE2,2*
G04 #@! TO.N,Net-(D61-Pad2)*
X169207500Y-92047500D03*
D11*
G04 #@! TD*
G04 #@! TO.N,Net-(D61-Pad2)*
G04 #@! TO.C,K_SPACE2*
X169187500Y-92337500D02*
X169227500Y-91757500D01*
D10*
G04 #@! TO.P,K_SPACE2,2*
G04 #@! TO.N,Net-(D61-Pad2)*
X169227500Y-91757500D03*
G04 #@! TO.P,K_SPACE2,1*
G04 #@! TO.N,COL6*
X163532501Y-93567500D03*
D11*
G04 #@! TD*
G04 #@! TO.N,COL6*
G04 #@! TO.C,K_SPACE2*
X162877500Y-94297500D02*
X164187502Y-92837500D01*
D10*
G04 #@! TO.P,K_SPACE2,1*
G04 #@! TO.N,COL6*
X164187500Y-92837500D03*
D12*
G04 #@! TO.P,K_SPACE2,3*
G04 #@! TO.N,+5V*
X165417500Y-101917500D03*
D13*
G04 #@! TO.P,K_SPACE2,4*
G04 #@! TO.N,Net-(K_SPACE2-Pad4)*
X167957500Y-101917500D03*
G04 #@! TD*
D10*
G04 #@! TO.P,K_SPACE4,2*
G04 #@! TO.N,COL6*
X164445000Y-92047500D03*
D11*
G04 #@! TD*
G04 #@! TO.N,COL6*
G04 #@! TO.C,K_SPACE4*
X164425000Y-92337500D02*
X164465000Y-91757500D01*
D10*
G04 #@! TO.P,K_SPACE4,2*
G04 #@! TO.N,COL6*
X164465000Y-91757500D03*
G04 #@! TO.P,K_SPACE4,1*
G04 #@! TO.N,Net-(D61-Pad2)*
X158770001Y-93567500D03*
D11*
G04 #@! TD*
G04 #@! TO.N,Net-(D61-Pad2)*
G04 #@! TO.C,K_SPACE4*
X158115000Y-94297500D02*
X159425002Y-92837500D01*
D10*
G04 #@! TO.P,K_SPACE4,1*
G04 #@! TO.N,Net-(D61-Pad2)*
X159425000Y-92837500D03*
D12*
G04 #@! TO.P,K_SPACE4,3*
G04 #@! TO.N,+5V*
X163195000Y-101917500D03*
D13*
G04 #@! TO.P,K_SPACE4,4*
G04 #@! TO.N,Net-(K_SPACE2-Pad4)*
X160655000Y-101917500D03*
G04 #@! TD*
D10*
G04 #@! TO.P,K_LSPACE2,2*
G04 #@! TO.N,COL4*
X128726250Y-92047500D03*
D11*
G04 #@! TD*
G04 #@! TO.N,COL4*
G04 #@! TO.C,K_LSPACE2*
X128706250Y-92337500D02*
X128746250Y-91757500D01*
D10*
G04 #@! TO.P,K_LSPACE2,2*
G04 #@! TO.N,COL4*
X128746250Y-91757500D03*
G04 #@! TO.P,K_LSPACE2,1*
G04 #@! TO.N,Net-(D58-Pad2)*
X123051251Y-93567500D03*
D11*
G04 #@! TD*
G04 #@! TO.N,Net-(D58-Pad2)*
G04 #@! TO.C,K_LSPACE2*
X122396250Y-94297500D02*
X123706252Y-92837500D01*
D10*
G04 #@! TO.P,K_LSPACE2,1*
G04 #@! TO.N,Net-(D58-Pad2)*
X123706250Y-92837500D03*
D12*
G04 #@! TO.P,K_LSPACE2,3*
G04 #@! TO.N,+5V*
X127476250Y-101917500D03*
D13*
G04 #@! TO.P,K_LSPACE2,4*
G04 #@! TO.N,Net-(K_LSPACE1-Pad4)*
X124936250Y-101917500D03*
G04 #@! TD*
D10*
G04 #@! TO.P,K_RSPACE2,2*
G04 #@! TO.N,COL8*
X195401250Y-92047500D03*
D11*
G04 #@! TD*
G04 #@! TO.N,COL8*
G04 #@! TO.C,K_RSPACE2*
X195381250Y-92337500D02*
X195421250Y-91757500D01*
D10*
G04 #@! TO.P,K_RSPACE2,2*
G04 #@! TO.N,COL8*
X195421250Y-91757500D03*
G04 #@! TO.P,K_RSPACE2,1*
G04 #@! TO.N,Net-(D62-Pad2)*
X189726251Y-93567500D03*
D11*
G04 #@! TD*
G04 #@! TO.N,Net-(D62-Pad2)*
G04 #@! TO.C,K_RSPACE2*
X189071250Y-94297500D02*
X190381252Y-92837500D01*
D10*
G04 #@! TO.P,K_RSPACE2,1*
G04 #@! TO.N,Net-(D62-Pad2)*
X190381250Y-92837500D03*
D12*
G04 #@! TO.P,K_RSPACE2,3*
G04 #@! TO.N,+5V*
X194151250Y-101917500D03*
D13*
G04 #@! TO.P,K_RSPACE2,4*
G04 #@! TO.N,Net-(K_RSPACE1-Pad4)*
X191611250Y-101917500D03*
G04 #@! TD*
D16*
G04 #@! TO.N,+5V*
X55753000Y-44831000D03*
X59182000Y-42926000D03*
X211582000Y-49530000D03*
X173482000Y-49530000D03*
X127381000Y-48387000D03*
X96393000Y-49911000D03*
X40767000Y-49911000D03*
X41148000Y-43942000D03*
X56007000Y-88265000D03*
X86106000Y-90297000D03*
X121666000Y-89281000D03*
X163068000Y-88011000D03*
X209550000Y-89281000D03*
X253619000Y-88011000D03*
X256794000Y-45720000D03*
X243967000Y-66802000D03*
X263144000Y-44704000D03*
G04 #@! TO.N,GND*
X247523000Y-47244000D03*
X207264000Y-47244000D03*
X169164000Y-47244000D03*
X123190000Y-47371000D03*
X125095000Y-47244000D03*
X171069000Y-47117000D03*
X209169000Y-47117000D03*
X259207000Y-47117000D03*
X76835000Y-50165000D03*
X81026000Y-48895000D03*
X83947000Y-48895000D03*
X61087000Y-63373000D03*
X63627000Y-68072000D03*
X65659000Y-44704000D03*
X67056000Y-41275000D03*
X70104000Y-48514000D03*
X77089000Y-88900000D03*
G04 #@! TO.N,ROW3*
X57277000Y-54483000D03*
X57023000Y-62357000D03*
X53213000Y-63627000D03*
X57658000Y-98933000D03*
G04 #@! TO.N,ROW0*
X50800000Y-41910000D03*
X66294000Y-41910000D03*
X59182000Y-43815000D03*
G04 #@! TO.N,ROW1*
X53467000Y-60960000D03*
X71882000Y-60960000D03*
X61214000Y-60960000D03*
G04 #@! TO.N,ROW2*
X58039000Y-54991000D03*
X58039000Y-62357000D03*
X58420000Y-80010000D03*
X54102000Y-63627000D03*
G04 #@! TO.N,Net-(D55-Pad2)*
X226949000Y-79375000D03*
X226949000Y-73279000D03*
G04 #@! TO.N,VCC*
X62230000Y-36195000D03*
X57404000Y-36957000D03*
G04 #@! TO.N,COL1*
X67056000Y-66040000D03*
G04 #@! TO.N,LEDGND*
X53467000Y-61976000D03*
X71882000Y-61849000D03*
X41148000Y-42672000D03*
X38735000Y-61341000D03*
X79756000Y-50165000D03*
X79756000Y-41529000D03*
X74549000Y-98806000D03*
X75946000Y-80391000D03*
X83693000Y-60706000D03*
G04 #@! TO.N,Net-(R69-Pad2)*
X64389000Y-59055000D03*
X71501000Y-50165000D03*
G04 #@! TO.N,Net-(R73-Pad2)*
X58293000Y-36195000D03*
X55118000Y-36830000D03*
G04 #@! TO.N,RGBLED*
X52832000Y-56769000D03*
X50165000Y-49657000D03*
G04 #@! TO.N,.-COL*
X250444000Y-61722000D03*
X244094000Y-61722000D03*
G04 #@! TO.N,Net-(RGB1-Pad2)*
X46736000Y-47625000D03*
X65659000Y-46482000D03*
G04 #@! TO.N,Net-(RGB11-Pad2)*
X273050000Y-88900000D03*
X275971000Y-49911000D03*
G04 #@! TO.N,+3V3*
X56134000Y-48133000D03*
X70231000Y-54229000D03*
X56261000Y-61087000D03*
X68961000Y-48514000D03*
X70231000Y-51308000D03*
X62738000Y-47752000D03*
G04 #@! TO.N,Net-(SW2-Pad2)*
X67437000Y-53721000D03*
X60452000Y-60452000D03*
G04 #@! TD*
D17*
G04 #@! TO.N,+5V*
X74930000Y-63817500D02*
X74930000Y-64262000D01*
X92710000Y-62547500D02*
X93980000Y-63817500D01*
X89217500Y-44767500D02*
X88392000Y-45593000D01*
X88392000Y-47879000D02*
X94488000Y-53975000D01*
X94488000Y-53975000D02*
X94488000Y-55626000D01*
X88392000Y-45593000D02*
X88392000Y-47879000D01*
X94488000Y-55626000D02*
X92710000Y-57404000D01*
X92710000Y-57404000D02*
X92710000Y-62547500D01*
X265430000Y-46513750D02*
X264001250Y-47942500D01*
X265430000Y-44767500D02*
X265430000Y-46513750D01*
X264001250Y-47942500D02*
X262699500Y-47942500D01*
X262699500Y-47942500D02*
X260223000Y-50419000D01*
X260223000Y-50419000D02*
X260223000Y-54229000D01*
X260223000Y-54229000D02*
X256921000Y-57531000D01*
X256921000Y-62452250D02*
X258286250Y-63817500D01*
X256921000Y-57531000D02*
X256921000Y-62452250D01*
X93980000Y-63817500D02*
X93980000Y-63881000D01*
X93980000Y-63881000D02*
X84963000Y-72898000D01*
X84963000Y-72898000D02*
X84963000Y-74676000D01*
X84963000Y-74676000D02*
X83185000Y-76454000D01*
X83185000Y-81597500D02*
X84455000Y-82867500D01*
X83185000Y-76454000D02*
X83185000Y-81597500D01*
X113030000Y-63817500D02*
X113030000Y-63881000D01*
X113030000Y-63881000D02*
X104013000Y-72898000D01*
X104013000Y-72898000D02*
X104013000Y-74803000D01*
X104013000Y-74803000D02*
X102235000Y-76581000D01*
X102235000Y-81597500D02*
X103505000Y-82867500D01*
X102235000Y-76581000D02*
X102235000Y-81597500D01*
X132080000Y-63817500D02*
X132080000Y-63881000D01*
X132080000Y-63881000D02*
X123063000Y-72898000D01*
X123063000Y-72898000D02*
X123063000Y-74676000D01*
X123063000Y-74676000D02*
X121285000Y-76454000D01*
X121285000Y-81597500D02*
X122555000Y-82867500D01*
X121285000Y-76454000D02*
X121285000Y-81597500D01*
X151130000Y-63817500D02*
X151130000Y-64135000D01*
X151130000Y-64135000D02*
X142113000Y-73152000D01*
X142113000Y-73152000D02*
X142113000Y-74676000D01*
X142113000Y-74676000D02*
X140335000Y-76454000D01*
X140335000Y-81597500D02*
X141605000Y-82867500D01*
X140335000Y-76454000D02*
X140335000Y-81597500D01*
X170180000Y-63817500D02*
X170180000Y-63881000D01*
X170180000Y-63881000D02*
X161163000Y-72898000D01*
X161163000Y-72898000D02*
X161163000Y-74676000D01*
X161163000Y-74676000D02*
X159385000Y-76454000D01*
X159385000Y-81597500D02*
X160655000Y-82867500D01*
X159385000Y-76454000D02*
X159385000Y-81597500D01*
X189230000Y-63817500D02*
X189230000Y-64008000D01*
X189230000Y-64008000D02*
X180213000Y-73025000D01*
X180213000Y-73025000D02*
X180213000Y-74676000D01*
X180213000Y-74676000D02*
X178435000Y-76454000D01*
X178435000Y-81597500D02*
X179705000Y-82867500D01*
X178435000Y-76454000D02*
X178435000Y-81597500D01*
X208280000Y-63817500D02*
X208280000Y-63881000D01*
X208280000Y-63881000D02*
X199263000Y-72898000D01*
X199263000Y-72898000D02*
X199263000Y-74803000D01*
X199263000Y-74803000D02*
X197485000Y-76581000D01*
X197485000Y-81597500D02*
X198755000Y-82867500D01*
X197485000Y-76581000D02*
X197485000Y-81597500D01*
X227330000Y-63817500D02*
X227330000Y-63881000D01*
X227330000Y-63881000D02*
X218313000Y-72898000D01*
X218313000Y-72898000D02*
X218313000Y-74676000D01*
X218313000Y-74676000D02*
X216535000Y-76454000D01*
X216535000Y-81597500D02*
X217805000Y-82867500D01*
X216535000Y-76454000D02*
X216535000Y-81597500D01*
X246380000Y-63817500D02*
X246380000Y-63881000D01*
X237363000Y-72898000D02*
X237363000Y-74803000D01*
X237363000Y-74803000D02*
X235585000Y-76581000D01*
X235585000Y-81597500D02*
X236855000Y-82867500D01*
X235585000Y-76581000D02*
X235585000Y-81597500D01*
X258286250Y-63817500D02*
X258286250Y-64230250D01*
X258286250Y-64230250D02*
X259461000Y-65405000D01*
X266223750Y-65405000D02*
X267811250Y-63817500D01*
X259461000Y-65405000D02*
X266223750Y-65405000D01*
X111760000Y-62547500D02*
X113030000Y-63817500D01*
X108267500Y-44767500D02*
X107442000Y-45593000D01*
X107442000Y-45593000D02*
X107442000Y-47879000D01*
X107442000Y-47879000D02*
X113538000Y-53975000D01*
X113538000Y-53975000D02*
X113538000Y-55626000D01*
X113538000Y-55626000D02*
X111760000Y-57404000D01*
X111760000Y-57404000D02*
X111760000Y-62547500D01*
X126492000Y-45593000D02*
X126492000Y-47879000D01*
X130810000Y-62547500D02*
X132080000Y-63817500D01*
X127317500Y-44767500D02*
X126492000Y-45593000D01*
X132588000Y-53975000D02*
X132588000Y-55626000D01*
X132588000Y-55626000D02*
X130810000Y-57404000D01*
X130810000Y-57404000D02*
X130810000Y-62547500D01*
X145542000Y-45593000D02*
X146367500Y-44767500D01*
X149860000Y-62547500D02*
X149860000Y-57404000D01*
X151130000Y-63817500D02*
X149860000Y-62547500D01*
X149860000Y-57404000D02*
X151638000Y-55626000D01*
X151638000Y-53975000D02*
X145542000Y-47879000D01*
X151638000Y-55626000D02*
X151638000Y-53975000D01*
X145542000Y-47879000D02*
X145542000Y-45593000D01*
X164592000Y-45593000D02*
X165417500Y-44767500D01*
X168910000Y-62547500D02*
X168910000Y-57404000D01*
X170180000Y-63817500D02*
X168910000Y-62547500D01*
X168910000Y-57404000D02*
X170688000Y-55626000D01*
X170688000Y-55626000D02*
X170688000Y-53975000D01*
X164592000Y-47879000D02*
X164592000Y-45593000D01*
X48736250Y-63817500D02*
X46513750Y-63817500D01*
X44577000Y-72898000D02*
X44577000Y-74676000D01*
X44577000Y-74676000D02*
X42672000Y-76581000D01*
X42672000Y-81565750D02*
X43973750Y-82867500D01*
X42672000Y-76581000D02*
X42672000Y-81565750D01*
X45593000Y-64738250D02*
X46513750Y-63817500D01*
X45593000Y-71882000D02*
X45593000Y-64738250D01*
X45593000Y-71882000D02*
X44577000Y-72898000D01*
X43973750Y-82867500D02*
X42227500Y-82867500D01*
X42227500Y-82867500D02*
X40259000Y-84836000D01*
X40259000Y-84836000D02*
X40259000Y-87884000D01*
X40259000Y-87884000D02*
X44450000Y-92075000D01*
X44450000Y-92075000D02*
X44450000Y-93853000D01*
X44450000Y-93853000D02*
X42672000Y-95631000D01*
X42672000Y-100615750D02*
X43973750Y-101917500D01*
X42672000Y-95631000D02*
X42672000Y-100615750D01*
X65405000Y-82931000D02*
X65405000Y-82867500D01*
X65405000Y-101917500D02*
X64135000Y-100647500D01*
X64135000Y-100647500D02*
X64135000Y-95504000D01*
X64135000Y-95504000D02*
X65913000Y-93726000D01*
X64135000Y-84201000D02*
X65405000Y-82931000D01*
X65913000Y-93726000D02*
X65913000Y-92075000D01*
X65913000Y-92075000D02*
X64135000Y-90297000D01*
X64135000Y-90297000D02*
X64135000Y-84201000D01*
X65405000Y-82867500D02*
X65405000Y-82804000D01*
X65405000Y-82804000D02*
X64135000Y-81534000D01*
X64135000Y-81534000D02*
X64135000Y-76454000D01*
X64135000Y-76454000D02*
X65913000Y-74676000D01*
X65913000Y-74676000D02*
X65913000Y-73025000D01*
X65913000Y-73025000D02*
X64516000Y-71628000D01*
X84455000Y-82867500D02*
X84391500Y-82867500D01*
X84391500Y-82867500D02*
X83185000Y-84074000D01*
X83185000Y-84074000D02*
X83185000Y-87884000D01*
X87376000Y-92075000D02*
X87376000Y-93726000D01*
X87376000Y-93726000D02*
X85598000Y-95504000D01*
X85598000Y-100679250D02*
X86836250Y-101917500D01*
X85598000Y-95504000D02*
X85598000Y-100679250D01*
X122555000Y-82867500D02*
X122491500Y-82867500D01*
X122491500Y-82867500D02*
X121285000Y-84074000D01*
X120650000Y-91948000D02*
X121285000Y-91313000D01*
X118872000Y-100615750D02*
X118872000Y-95631000D01*
X118872000Y-95631000D02*
X120650000Y-93853000D01*
X120173750Y-101917500D02*
X118872000Y-100615750D01*
X120650000Y-93853000D02*
X120650000Y-91948000D01*
X163195000Y-101917500D02*
X165417500Y-101917500D01*
X159385000Y-84137500D02*
X160655000Y-82867500D01*
X161163000Y-91948000D02*
X159385000Y-90170000D01*
X161163000Y-93853000D02*
X161163000Y-91948000D01*
X163195000Y-101917500D02*
X163195000Y-101473000D01*
X163195000Y-101473000D02*
X162052000Y-100330000D01*
X162052000Y-100330000D02*
X161544000Y-100330000D01*
X161544000Y-100330000D02*
X159258000Y-98044000D01*
X159258000Y-98044000D02*
X159258000Y-95758000D01*
X159258000Y-95758000D02*
X161163000Y-93853000D01*
X151130000Y-101473000D02*
X151130000Y-101917500D01*
X152273000Y-100330000D02*
X151130000Y-101473000D01*
X159258000Y-98044000D02*
X156972000Y-100330000D01*
X156972000Y-100330000D02*
X152273000Y-100330000D01*
X127476250Y-101917500D02*
X127476250Y-101314250D01*
X127476250Y-101314250D02*
X126492000Y-100330000D01*
X126492000Y-100330000D02*
X121285000Y-100330000D01*
X120173750Y-101441250D02*
X120173750Y-101917500D01*
X121285000Y-100330000D02*
X120173750Y-101441250D01*
X186848750Y-101917500D02*
X186848750Y-101441250D01*
X186848750Y-101441250D02*
X187960000Y-100330000D01*
X187960000Y-100330000D02*
X193040000Y-100330000D01*
X194151250Y-101441250D02*
X194151250Y-101917500D01*
X193040000Y-100330000D02*
X194151250Y-101441250D01*
X198755000Y-82867500D02*
X198691500Y-82867500D01*
X198691500Y-82867500D02*
X197485000Y-84074000D01*
X197485000Y-84074000D02*
X197485000Y-92837000D01*
X197485000Y-92837000D02*
X195580000Y-94742000D01*
X195580000Y-100488750D02*
X194151250Y-101917500D01*
X195580000Y-94742000D02*
X195580000Y-100488750D01*
X217805000Y-82867500D02*
X217805000Y-84455000D01*
X217805000Y-84455000D02*
X225425000Y-92075000D01*
X225425000Y-92075000D02*
X225425000Y-93853000D01*
X225425000Y-93853000D02*
X223647000Y-95631000D01*
X223647000Y-100615750D02*
X224948750Y-101917500D01*
X223647000Y-95631000D02*
X223647000Y-100615750D01*
X236855000Y-82867500D02*
X236855000Y-84201000D01*
X236855000Y-84201000D02*
X243713000Y-91059000D01*
X243713000Y-91059000D02*
X245872000Y-91059000D01*
X245872000Y-91059000D02*
X246888000Y-92075000D01*
X246888000Y-92075000D02*
X246888000Y-93726000D01*
X246888000Y-93726000D02*
X245110000Y-95504000D01*
X245110000Y-100647500D02*
X246380000Y-101917500D01*
X245110000Y-95504000D02*
X245110000Y-100647500D01*
X258286250Y-63817500D02*
X258254500Y-63817500D01*
X258254500Y-63817500D02*
X256921000Y-65151000D01*
X256921000Y-65151000D02*
X256921000Y-70104000D01*
X256921000Y-70104000D02*
X254000000Y-73025000D01*
X254000000Y-73025000D02*
X254000000Y-74803000D01*
X254000000Y-74803000D02*
X252222000Y-76581000D01*
X252222000Y-81565750D02*
X253523750Y-82867500D01*
X252222000Y-76581000D02*
X252222000Y-81565750D01*
X243998750Y-82867500D02*
X243998750Y-82835750D01*
X243998750Y-82835750D02*
X242443000Y-81280000D01*
X242443000Y-81280000D02*
X237998000Y-81280000D01*
X236855000Y-82423000D02*
X236855000Y-82867500D01*
X237998000Y-81280000D02*
X236855000Y-82423000D01*
X267811250Y-101917500D02*
X267779500Y-101917500D01*
X266446000Y-100584000D02*
X266446000Y-95758000D01*
X266446000Y-95758000D02*
X268351000Y-93853000D01*
X267779500Y-101917500D02*
X266446000Y-100584000D01*
X268351000Y-92075000D02*
X268351000Y-93853000D01*
X263048750Y-82867500D02*
X263048750Y-82899250D01*
X263048750Y-82899250D02*
X262255000Y-83693000D01*
X262255000Y-83693000D02*
X262255000Y-85979000D01*
X262255000Y-85979000D02*
X268351000Y-92075000D01*
X183642000Y-45593000D02*
X183642000Y-47879000D01*
X184467500Y-44767500D02*
X183642000Y-45593000D01*
X183642000Y-47879000D02*
X189738000Y-53975000D01*
X189738000Y-53975000D02*
X189738000Y-55626000D01*
X187960000Y-62547500D02*
X189230000Y-63817500D01*
X189738000Y-55626000D02*
X187960000Y-57404000D01*
X187960000Y-57404000D02*
X187960000Y-62547500D01*
X202692000Y-45593000D02*
X203517500Y-44767500D01*
X207010000Y-62547500D02*
X207010000Y-57404000D01*
X208280000Y-63817500D02*
X207010000Y-62547500D01*
X207010000Y-57404000D02*
X208788000Y-55626000D01*
X208788000Y-55626000D02*
X208788000Y-53975000D01*
X208788000Y-53975000D02*
X202692000Y-47879000D01*
X202692000Y-47879000D02*
X202692000Y-45593000D01*
X226060000Y-62547500D02*
X226060000Y-57531000D01*
X227330000Y-63817500D02*
X226060000Y-62547500D01*
X226060000Y-57531000D02*
X227838000Y-55753000D01*
X227838000Y-55753000D02*
X227838000Y-53975000D01*
X221742000Y-45593000D02*
X222567500Y-44767500D01*
X227838000Y-53975000D02*
X221742000Y-47879000D01*
X221742000Y-47879000D02*
X221742000Y-45593000D01*
X245110000Y-62547500D02*
X246380000Y-63817500D01*
X240792000Y-45593000D02*
X240792000Y-48006000D01*
X241617500Y-44767500D02*
X240792000Y-45593000D01*
X246888000Y-54102000D02*
X246888000Y-55626000D01*
X246888000Y-55626000D02*
X245110000Y-57404000D01*
X240792000Y-48006000D02*
X246888000Y-54102000D01*
X159385000Y-90170000D02*
X159385000Y-84137500D01*
X245110000Y-57404000D02*
X245110000Y-62547500D01*
X243998750Y-83343750D02*
X243998750Y-82867500D01*
X85979000Y-90678000D02*
X87376000Y-92075000D01*
X73660000Y-57531000D02*
X75438000Y-55753000D01*
X70167500Y-46037500D02*
X75438000Y-51308000D01*
X70167500Y-44767500D02*
X70167500Y-46037500D01*
X75438000Y-55753000D02*
X75438000Y-51308000D01*
X64516000Y-71628000D02*
X64516000Y-69850000D01*
X73660000Y-60706000D02*
X73660000Y-57531000D01*
X74930000Y-61976000D02*
X73660000Y-60706000D01*
X74930000Y-63817500D02*
X74930000Y-61976000D01*
X70548500Y-63817500D02*
X67437000Y-66929000D01*
X74930000Y-63817500D02*
X70548500Y-63817500D01*
X64516000Y-69850000D02*
X67437000Y-66929000D01*
X43973750Y-82867500D02*
X43973750Y-83216750D01*
X43973750Y-83216750D02*
X45212000Y-84455000D01*
X51911250Y-84455000D02*
X53498750Y-82867500D01*
X45212000Y-84455000D02*
X51911250Y-84455000D01*
X170688000Y-53975000D02*
X164592000Y-47879000D01*
X211582000Y-51181000D02*
X208788000Y-53975000D01*
X211582000Y-49530000D02*
X211582000Y-51181000D01*
X173482000Y-51181000D02*
X170688000Y-53975000D01*
X173482000Y-49530000D02*
X173482000Y-51181000D01*
X127381000Y-48387000D02*
X127381000Y-48768000D01*
X126492000Y-47879000D02*
X127381000Y-48768000D01*
X127381000Y-48768000D02*
X132588000Y-53975000D01*
X96393000Y-52070000D02*
X94488000Y-53975000D01*
X96393000Y-49911000D02*
X96393000Y-52070000D01*
X40767000Y-49911000D02*
X40767000Y-44323000D01*
X40767000Y-44323000D02*
X41148000Y-43942000D01*
X53498750Y-85756750D02*
X53498750Y-82867500D01*
X56007000Y-88265000D02*
X53498750Y-85756750D01*
X86106000Y-90297000D02*
X85598000Y-90297000D01*
X83185000Y-87884000D02*
X85598000Y-90297000D01*
X85598000Y-90297000D02*
X85979000Y-90678000D01*
X121666000Y-89281000D02*
X121285000Y-89281000D01*
X121285000Y-84074000D02*
X121285000Y-89281000D01*
X121285000Y-89281000D02*
X121285000Y-91313000D01*
X163068000Y-90043000D02*
X161163000Y-91948000D01*
X163068000Y-88011000D02*
X163068000Y-90043000D01*
X198755000Y-83312000D02*
X198755000Y-82867500D01*
X201295000Y-85852000D02*
X198755000Y-83312000D01*
X209550000Y-89281000D02*
X206121000Y-85852000D01*
X206121000Y-85852000D02*
X201295000Y-85852000D01*
X253523750Y-87915750D02*
X253523750Y-82867500D01*
X253619000Y-88011000D02*
X253523750Y-87915750D01*
X256794000Y-45720000D02*
X256032000Y-46482000D01*
X256032000Y-46482000D02*
X242824000Y-46482000D01*
X241617500Y-45275500D02*
X241617500Y-44767500D01*
X242824000Y-46482000D02*
X241617500Y-45275500D01*
X243967000Y-66802000D02*
X243713000Y-66548000D01*
X246380000Y-63881000D02*
X243713000Y-66548000D01*
X243713000Y-66548000D02*
X237363000Y-72898000D01*
X257810000Y-44704000D02*
X256794000Y-45720000D01*
X263144000Y-44704000D02*
X257810000Y-44704000D01*
X54102000Y-43180000D02*
X55753000Y-44831000D01*
X47498000Y-43180000D02*
X54102000Y-43180000D01*
X46355000Y-44323000D02*
X47498000Y-43180000D01*
X46355000Y-44767500D02*
X46355000Y-44323000D01*
X55753000Y-44831000D02*
X57404000Y-43180000D01*
X57658000Y-42926000D02*
X57404000Y-43180000D01*
X59182000Y-42926000D02*
X57658000Y-42926000D01*
X48736250Y-63150750D02*
X48736250Y-63817500D01*
X49784000Y-62103000D02*
X48736250Y-63150750D01*
X50419000Y-62103000D02*
X49784000Y-62103000D01*
X52578000Y-59944000D02*
X50419000Y-62103000D01*
X52578000Y-57658000D02*
X52578000Y-59944000D01*
X46355000Y-44767500D02*
X46355000Y-44831000D01*
X46355000Y-44831000D02*
X45466000Y-45720000D01*
X45466000Y-45720000D02*
X45466000Y-48260000D01*
X45466000Y-48260000D02*
X49530000Y-52324000D01*
X49530000Y-52324000D02*
X49530000Y-54610000D01*
X49530000Y-54610000D02*
X52578000Y-57658000D01*
G04 #@! TO.N,GND*
X247523000Y-47244000D02*
X247650000Y-47117000D01*
X247650000Y-47117000D02*
X258953000Y-47117000D01*
X207264000Y-47244000D02*
X207391000Y-47117000D01*
X169164000Y-47244000D02*
X169291000Y-47117000D01*
X123190000Y-47371000D02*
X123317000Y-47244000D01*
X123317000Y-47244000D02*
X125095000Y-47244000D01*
X169291000Y-47117000D02*
X171069000Y-47117000D01*
X207772000Y-47117000D02*
X209169000Y-47117000D01*
X207391000Y-47117000D02*
X207772000Y-47117000D01*
X258953000Y-47117000D02*
X259207000Y-47117000D01*
X76835000Y-50165000D02*
X77978000Y-49022000D01*
X77978000Y-49022000D02*
X77978000Y-36068000D01*
X77978000Y-36068000D02*
X74803000Y-32893000D01*
X64725750Y-32893000D02*
X63851250Y-33767500D01*
X74803000Y-32893000D02*
X64725750Y-32893000D01*
X81026000Y-48895000D02*
X81661000Y-48895000D01*
X81661000Y-48895000D02*
X83947000Y-48895000D01*
X61087000Y-63373000D02*
X63627000Y-65913000D01*
X63627000Y-65913000D02*
X63627000Y-68072000D01*
X67056000Y-43307000D02*
X67056000Y-41275000D01*
X66294000Y-44704000D02*
X65659000Y-44704000D01*
X70104000Y-48514000D02*
X66294000Y-44704000D01*
X67056000Y-43942000D02*
X66294000Y-44704000D01*
X67056000Y-43307000D02*
X67056000Y-43942000D01*
X76835000Y-73279000D02*
X84709000Y-65405000D01*
X76835000Y-88392000D02*
X76835000Y-73279000D01*
X77089000Y-88900000D02*
X77089000Y-88646000D01*
X77089000Y-88646000D02*
X76835000Y-88392000D01*
X81026000Y-50419000D02*
X84709000Y-54102000D01*
X81026000Y-48895000D02*
X81026000Y-50419000D01*
X84709000Y-65405000D02*
X84709000Y-54102000D01*
D18*
G04 #@! TO.N,ROW3*
X57277000Y-54483000D02*
X57277000Y-62103000D01*
X57277000Y-62103000D02*
X57023000Y-62357000D01*
X57658000Y-98933000D02*
X57658000Y-76835000D01*
X53340000Y-63754000D02*
X53213000Y-63627000D01*
X53340000Y-72517000D02*
X53340000Y-63754000D01*
X57658000Y-76835000D02*
X53340000Y-72517000D01*
G04 #@! TO.N,ROW0*
X50800000Y-41910000D02*
X51054000Y-42164000D01*
X66040000Y-42164000D02*
X66294000Y-41910000D01*
X61468000Y-42164000D02*
X61214000Y-42164000D01*
X61468000Y-42164000D02*
X66040000Y-42164000D01*
X59182000Y-43815000D02*
X59436000Y-43815000D01*
X59436000Y-43815000D02*
X59944000Y-43307000D01*
X59944000Y-42672000D02*
X59436000Y-42164000D01*
X59944000Y-43307000D02*
X59944000Y-42672000D01*
X51054000Y-42164000D02*
X59436000Y-42164000D01*
X60452000Y-42164000D02*
X59944000Y-42672000D01*
X61214000Y-42164000D02*
X60452000Y-42164000D01*
G04 #@! TO.N,ROW1*
X71882000Y-60960000D02*
X71628000Y-61214000D01*
X61214000Y-60960000D02*
X61214000Y-61214000D01*
X71628000Y-61214000D02*
X61214000Y-61214000D01*
X61087000Y-61214000D02*
X61214000Y-61214000D01*
X59182000Y-63119000D02*
X61087000Y-61214000D01*
X55626000Y-63119000D02*
X59182000Y-63119000D01*
X53467000Y-60960000D02*
X55626000Y-63119000D01*
G04 #@! TO.N,Net-(D42-Pad2)*
X266319000Y-48260000D02*
X266319000Y-53450250D01*
X267970000Y-46609000D02*
X266319000Y-48260000D01*
X270414750Y-46609000D02*
X267970000Y-46609000D01*
X271621250Y-45402500D02*
X270414750Y-46609000D01*
X266319000Y-53450250D02*
X266581250Y-53712500D01*
X266581250Y-54887500D02*
X265271250Y-56197500D01*
X266581250Y-54737500D02*
X266581250Y-54887500D01*
X265271250Y-56197500D02*
X265271250Y-57118250D01*
G04 #@! TO.N,ROW2*
X58039000Y-54991000D02*
X57785000Y-55245000D01*
X57785000Y-55245000D02*
X57785000Y-55499000D01*
X57785000Y-55499000D02*
X57785000Y-62103000D01*
X57785000Y-62103000D02*
X58039000Y-62357000D01*
X53848000Y-63881000D02*
X54102000Y-63627000D01*
X53848000Y-72263000D02*
X53848000Y-63881000D01*
X58166000Y-76581000D02*
X53848000Y-72263000D01*
X58420000Y-80010000D02*
X58166000Y-79756000D01*
X58166000Y-79756000D02*
X58166000Y-76581000D01*
G04 #@! TO.N,Net-(D55-Pad2)*
X226949000Y-79375000D02*
X226949000Y-73279000D01*
X257293750Y-72747500D02*
X257333750Y-72707500D01*
X257293750Y-73287500D02*
X257293750Y-72747500D01*
X266287250Y-73279000D02*
X266858750Y-72707500D01*
X263779000Y-73279000D02*
X266287250Y-73279000D01*
X262509000Y-72009000D02*
X263779000Y-73279000D01*
X257810000Y-72009000D02*
X262509000Y-72009000D01*
X257293750Y-73287500D02*
X257293750Y-72525250D01*
X257293750Y-72525250D02*
X257810000Y-72009000D01*
D17*
G04 #@! TO.N,VCC*
X62230000Y-36195000D02*
X61722000Y-36703000D01*
X61722000Y-36703000D02*
X61468000Y-36957000D01*
X61468000Y-36957000D02*
X57404000Y-36957000D01*
D18*
G04 #@! TO.N,COL9*
X225425000Y-56832500D02*
X224790000Y-56197500D01*
X216575000Y-73787500D02*
X225425000Y-64937500D01*
X225425000Y-64937500D02*
X225425000Y-56832500D01*
X223718750Y-91257750D02*
X223718750Y-92837500D01*
X215900000Y-83439000D02*
X223718750Y-91257750D01*
X215900000Y-77216000D02*
X215900000Y-83439000D01*
X215265000Y-75247500D02*
X215265000Y-76581000D01*
X215265000Y-76581000D02*
X215900000Y-77216000D01*
X221107000Y-38227000D02*
X220027500Y-37147500D01*
X221107000Y-48133000D02*
X221107000Y-38227000D01*
X226100000Y-54737500D02*
X226100000Y-53126000D01*
X226100000Y-53126000D02*
X221107000Y-48133000D01*
G04 #@! TO.N,COL11*
X256286000Y-56737250D02*
X255746250Y-56197500D01*
X256286000Y-69795250D02*
X256286000Y-56737250D01*
X266581250Y-91194250D02*
X266581250Y-92837500D01*
X261620000Y-86233000D02*
X266581250Y-91194250D01*
X261620000Y-76454000D02*
X261620000Y-86233000D01*
X260508750Y-75247500D02*
X260508750Y-75342750D01*
X260508750Y-75342750D02*
X261620000Y-76454000D01*
X258825500Y-54737500D02*
X257056250Y-54737500D01*
X259588000Y-53975000D02*
X258825500Y-54737500D01*
X259588000Y-50165000D02*
X259588000Y-53975000D01*
X263906000Y-45847000D02*
X259588000Y-50165000D01*
X264200000Y-35687500D02*
X263906000Y-35981500D01*
X263906000Y-35981500D02*
X263906000Y-45847000D01*
X252293750Y-73787500D02*
X255778000Y-70303250D01*
X255778000Y-70303250D02*
X256286000Y-69795250D01*
X272533500Y-54237500D02*
X271581250Y-54237500D01*
X273581250Y-51712500D02*
X273581250Y-53189750D01*
X273581250Y-53189750D02*
X272533500Y-54237500D01*
G04 #@! TO.N,COL1*
X63500000Y-75882500D02*
X62865000Y-75247500D01*
X63500000Y-92162500D02*
X63500000Y-75882500D01*
X64175000Y-92837500D02*
X63500000Y-92162500D01*
X63881000Y-74231500D02*
X62865000Y-75247500D01*
X63881000Y-69596000D02*
X63881000Y-74231500D01*
X67183000Y-66294000D02*
X63881000Y-69596000D01*
X74803000Y-53634500D02*
X73700000Y-54737500D01*
X74803000Y-51562000D02*
X74803000Y-53634500D01*
X68707000Y-45466000D02*
X74803000Y-51562000D01*
X67627500Y-37147500D02*
X68707000Y-38227000D01*
X68707000Y-38227000D02*
X68707000Y-45466000D01*
X67056000Y-66167000D02*
X67183000Y-66294000D01*
X67056000Y-66040000D02*
X67056000Y-66167000D01*
X70231000Y-63246000D02*
X67183000Y-66294000D01*
X71755000Y-63246000D02*
X70231000Y-63246000D01*
X73025000Y-61976000D02*
X71755000Y-63246000D01*
X73025000Y-56832500D02*
X73025000Y-61976000D01*
X72390000Y-56197500D02*
X73025000Y-56832500D01*
G04 #@! TO.N,COL2*
X87757000Y-38227000D02*
X86677500Y-37147500D01*
X87757000Y-48133000D02*
X87757000Y-38227000D01*
X92750000Y-53126000D02*
X87757000Y-48133000D01*
X92750000Y-54737500D02*
X92750000Y-53126000D01*
X92075000Y-56832500D02*
X91440000Y-56197500D01*
X83225000Y-73787500D02*
X92075000Y-64937500D01*
X92075000Y-64937500D02*
X92075000Y-56832500D01*
X82550000Y-75882500D02*
X81915000Y-75247500D01*
X82550000Y-88138000D02*
X82550000Y-75882500D01*
X85606250Y-92837500D02*
X85606250Y-91194250D01*
X85606250Y-91194250D02*
X82550000Y-88138000D01*
G04 #@! TO.N,COL6*
X168275000Y-56832500D02*
X167640000Y-56197500D01*
X159425000Y-73787500D02*
X168275000Y-64937500D01*
X168275000Y-64937500D02*
X168275000Y-56832500D01*
X163957000Y-38227000D02*
X162877500Y-37147500D01*
X163957000Y-48133000D02*
X163957000Y-38227000D01*
X168950000Y-54737500D02*
X168950000Y-53126000D01*
X168950000Y-53126000D02*
X163957000Y-48133000D01*
X148590000Y-94297500D02*
X148590000Y-94234000D01*
X148590000Y-94234000D02*
X158750000Y-84074000D01*
X158750000Y-75882500D02*
X158115000Y-75247500D01*
X158750000Y-84074000D02*
X158750000Y-75882500D01*
G04 #@! TO.N,COL4*
X130175000Y-56832500D02*
X129540000Y-56197500D01*
X121325000Y-73787500D02*
X130175000Y-64937500D01*
X130175000Y-64937500D02*
X130175000Y-56832500D01*
X125857000Y-38227000D02*
X124777500Y-37147500D01*
X125857000Y-48133000D02*
X125857000Y-38227000D01*
X130850000Y-54737500D02*
X130850000Y-53126000D01*
X130850000Y-53126000D02*
X125857000Y-48133000D01*
X120650000Y-75882500D02*
X120015000Y-75247500D01*
X120650000Y-91131250D02*
X120650000Y-75882500D01*
X118943750Y-92837500D02*
X120650000Y-91131250D01*
G04 #@! TO.N,COL0*
X44831000Y-38163500D02*
X43815000Y-37147500D01*
X44132500Y-56197500D02*
X46196250Y-56197500D01*
X41433750Y-75152250D02*
X44958000Y-71628000D01*
X44958000Y-67564000D02*
X42545000Y-65151000D01*
X41433750Y-75247500D02*
X41433750Y-75152250D01*
X42545000Y-65151000D02*
X42545000Y-57785000D01*
X44958000Y-71628000D02*
X44958000Y-67564000D01*
X42545000Y-57785000D02*
X44132500Y-56197500D01*
X42037000Y-75850750D02*
X41433750Y-75247500D01*
X42037000Y-82169000D02*
X42037000Y-75850750D01*
X39624000Y-84582000D02*
X42037000Y-82169000D01*
X39624000Y-88138000D02*
X39624000Y-84582000D01*
X42743750Y-92837500D02*
X42743750Y-91257750D01*
X42743750Y-91257750D02*
X39624000Y-88138000D01*
X47506250Y-51189250D02*
X44831000Y-48514000D01*
X47506250Y-54737500D02*
X47506250Y-51189250D01*
X44831000Y-48514000D02*
X44831000Y-38163500D01*
G04 #@! TO.N,COL3*
X111125000Y-56832500D02*
X110490000Y-56197500D01*
X102275000Y-73787500D02*
X111125000Y-64937500D01*
X111125000Y-64937500D02*
X111125000Y-56832500D01*
X106807000Y-38227000D02*
X105727500Y-37147500D01*
X106807000Y-48133000D02*
X106807000Y-38227000D01*
X111800000Y-54737500D02*
X111800000Y-53126000D01*
X111800000Y-53126000D02*
X106807000Y-48133000D01*
G04 #@! TO.N,COL5*
X149225000Y-56832500D02*
X148590000Y-56197500D01*
X139065000Y-75247500D02*
X149225000Y-65087500D01*
X149225000Y-65087500D02*
X149225000Y-56832500D01*
X144907000Y-38227000D02*
X143827500Y-37147500D01*
X144907000Y-48133000D02*
X144907000Y-38227000D01*
X149900000Y-54737500D02*
X149900000Y-53126000D01*
X149900000Y-53126000D02*
X144907000Y-48133000D01*
G04 #@! TO.N,COL8*
X206375000Y-56832500D02*
X205740000Y-56197500D01*
X197525000Y-73787500D02*
X206375000Y-64937500D01*
X206375000Y-64937500D02*
X206375000Y-56832500D01*
X196850000Y-75882500D02*
X196215000Y-75247500D01*
X195381250Y-92337500D02*
X196850000Y-90868750D01*
X196850000Y-90868750D02*
X196850000Y-75882500D01*
X202057000Y-38227000D02*
X200977500Y-37147500D01*
X202057000Y-48133000D02*
X202057000Y-38227000D01*
X207050000Y-54737500D02*
X207050000Y-53126000D01*
X207050000Y-53126000D02*
X202057000Y-48133000D01*
X184308750Y-94297500D02*
X184308750Y-94202250D01*
X184308750Y-94202250D02*
X188468000Y-90043000D01*
X193086750Y-90043000D02*
X195381250Y-92337500D01*
X188468000Y-90043000D02*
X193086750Y-90043000D01*
G04 #@! TO.N,COL7*
X187325000Y-56832500D02*
X186690000Y-56197500D01*
X187325000Y-64937500D02*
X187325000Y-56832500D01*
X178475000Y-73787500D02*
X187325000Y-64937500D01*
X183007000Y-38227000D02*
X181927500Y-37147500D01*
X183007000Y-48133000D02*
X183007000Y-38227000D01*
X188000000Y-54737500D02*
X188000000Y-53126000D01*
X188000000Y-53126000D02*
X183007000Y-48133000D01*
D17*
G04 #@! TO.N,LEDGND*
X38735000Y-45085000D02*
X41148000Y-42672000D01*
X38735000Y-61341000D02*
X38735000Y-45085000D01*
X79756000Y-50165000D02*
X79756000Y-49530000D01*
X79756000Y-49530000D02*
X79756000Y-41529000D01*
X79756000Y-50165000D02*
X81661000Y-52070000D01*
X81661000Y-52070000D02*
X84074000Y-54483000D01*
X84074000Y-54483000D02*
X84074000Y-60706000D01*
X84074000Y-60706000D02*
X84074000Y-65024000D01*
X76200000Y-72898000D02*
X84074000Y-65024000D01*
X76200000Y-80391000D02*
X76200000Y-72898000D01*
X76200000Y-80391000D02*
X76200000Y-97155000D01*
X76200000Y-97155000D02*
X74549000Y-98806000D01*
X53594000Y-61976000D02*
X53467000Y-61976000D01*
X55372000Y-63754000D02*
X53594000Y-61976000D01*
X59436000Y-63754000D02*
X55372000Y-63754000D01*
X61341000Y-61849000D02*
X59436000Y-63754000D01*
X71882000Y-61849000D02*
X61341000Y-61849000D01*
X76200000Y-80391000D02*
X75946000Y-80391000D01*
X84074000Y-60706000D02*
X83693000Y-60706000D01*
D18*
G04 #@! TO.N,Net-(R69-Pad2)*
X66802000Y-59055000D02*
X64389000Y-59055000D01*
X71501000Y-50165000D02*
X71501000Y-54356000D01*
X71501000Y-54356000D02*
X66802000Y-59055000D01*
G04 #@! TO.N,Net-(R73-Pad2)*
X55753000Y-36195000D02*
X55118000Y-36830000D01*
X58293000Y-36195000D02*
X55753000Y-36195000D01*
G04 #@! TO.N,RGBLED*
X50165000Y-54356000D02*
X50165000Y-49657000D01*
X52832000Y-56769000D02*
X52578000Y-56769000D01*
X52578000Y-56769000D02*
X50165000Y-54356000D01*
G04 #@! TO.N,Net-(K_ENTER1-Pad4)*
X264001250Y-50482500D02*
X264001250Y-54768750D01*
X264001250Y-54768750D02*
X262509000Y-56261000D01*
X262509000Y-56261000D02*
X262509000Y-59245500D01*
X262509000Y-59245500D02*
X263398000Y-60134500D01*
X263398000Y-60134500D02*
X263398000Y-62230000D01*
X261810500Y-63817500D02*
X260826250Y-63817500D01*
X263398000Y-62230000D02*
X261810500Y-63817500D01*
X270351250Y-63817500D02*
X270319500Y-63817500D01*
X268732000Y-62230000D02*
X263398000Y-62230000D01*
X270319500Y-63817500D02*
X268732000Y-62230000D01*
G04 #@! TO.N,.-COL*
X244475000Y-56832500D02*
X243840000Y-56197500D01*
X235625000Y-73787500D02*
X244475000Y-64937500D01*
X234950000Y-75882500D02*
X234315000Y-75247500D01*
X234950000Y-83185000D02*
X234950000Y-75882500D01*
X245150000Y-92837500D02*
X244602500Y-92837500D01*
X244602500Y-92837500D02*
X234950000Y-83185000D01*
X240157000Y-38227000D02*
X239077500Y-37147500D01*
X240157000Y-48260000D02*
X240157000Y-38227000D01*
X245150000Y-54737500D02*
X245150000Y-53253000D01*
X245150000Y-53253000D02*
X240157000Y-48260000D01*
X244094000Y-61722000D02*
X244475000Y-61722000D01*
X244475000Y-64937500D02*
X244475000Y-61722000D01*
X244475000Y-61722000D02*
X244475000Y-56832500D01*
X250444000Y-70612250D02*
X247768750Y-73287500D01*
X250444000Y-61722000D02*
X250444000Y-70612250D01*
G04 #@! TO.N,Net-(RGB1-Pad2)*
X46990000Y-47371000D02*
X46736000Y-47625000D01*
X47625000Y-46736000D02*
X46990000Y-47371000D01*
X65405000Y-46736000D02*
X65278000Y-46736000D01*
X65659000Y-46482000D02*
X65405000Y-46736000D01*
X65278000Y-46736000D02*
X47625000Y-46736000D01*
G04 #@! TO.N,Net-(RGB11-Pad2)*
X272161000Y-74803000D02*
X274320000Y-76962000D01*
X275971000Y-54737000D02*
X272669000Y-58039000D01*
X272669000Y-58039000D02*
X272669000Y-64389000D01*
X274320000Y-76962000D02*
X274320000Y-87630000D01*
X272161000Y-70104000D02*
X272161000Y-74803000D01*
X275971000Y-49911000D02*
X275971000Y-54737000D01*
X272669000Y-64389000D02*
X274066000Y-65786000D01*
X274320000Y-87630000D02*
X273050000Y-88900000D01*
X274066000Y-65786000D02*
X274066000Y-68199000D01*
X274066000Y-68199000D02*
X272161000Y-70104000D01*
D17*
G04 #@! TO.N,+3V3*
X70231000Y-49784000D02*
X68961000Y-48514000D01*
X68961000Y-48514000D02*
X67818000Y-47371000D01*
X70231000Y-51308000D02*
X70231000Y-49784000D01*
X70231000Y-54229000D02*
X70231000Y-51308000D01*
X62738000Y-47752000D02*
X62738000Y-47371000D01*
X62738000Y-47371000D02*
X67818000Y-47371000D01*
X56515000Y-48514000D02*
X56134000Y-48133000D01*
X57658000Y-47371000D02*
X56515000Y-48514000D01*
X62738000Y-47371000D02*
X57658000Y-47371000D01*
X56515000Y-60833000D02*
X56261000Y-61087000D01*
X56515000Y-48514000D02*
X56515000Y-60833000D01*
D18*
G04 #@! TO.N,Net-(SW2-Pad2)*
X67437000Y-53721000D02*
X60706000Y-60452000D01*
X60706000Y-60452000D02*
X60452000Y-60452000D01*
G04 #@! TD*
M02*
