M48
;DRILL file {KiCad (5.0.0)} date 02/03/19 03:36:40
;FORMAT={-:-/ absolute / inch / decimal}
FMAT,2
INCH,TZ
T1C0.0256
T2C0.0670
T3C0.0689
T4C0.1200
T5C0.1570
%
G90
G05
M72
T1
X2.23Y-1.3086
X2.4575Y-1.3086
T2
X10.5938Y-1.7375
X10.5938Y-2.1375
T3
X7.675Y-3.0625
X8.075Y-3.0625
X8.05Y-2.3125
X8.45Y-2.3125
X4.1125Y-1.5625
X4.5125Y-1.5625
X1.9563Y-3.0625
X2.3562Y-3.0625
X7.1125Y-1.5625
X7.5125Y-1.5625
X6.55Y-2.3125
X6.95Y-2.3125
X4.3Y-2.3125
X4.7Y-2.3125
X9.55Y-2.3125
X9.95Y-2.3125
X8.425Y-3.0625
X8.825Y-3.0625
X6.3625Y-3.8125
X6.7625Y-3.8125
X1.675Y-1.5625
X2.075Y-1.5625
X9.4562Y-3.0625
X9.8562Y-3.0625
X5.8Y-3.8125
X6.2Y-3.8125
X10.0187Y-2.3125
X10.4187Y-2.3125
X5.425Y-3.0625
X5.825Y-3.0625
X8.8Y-2.3125
X9.2Y-2.3125
X1.5813Y-3.8125
X1.9812Y-3.8125
X6.175Y-3.0625
X6.575Y-3.0625
X4.7687Y-3.8125
X5.1688Y-3.8125
X8.7062Y-3.8125
X9.1062Y-3.8125
X1.5813Y-3.0625
X1.9812Y-3.0625
X7.3Y-2.3125
X7.7Y-2.3125
X1.5813Y-2.3125
X1.9812Y-2.3125
X10.2062Y-3.0625
X10.6062Y-3.0625
X9.55Y-3.8125
X9.95Y-3.8125
X10.3937Y-3.8125
X10.7937Y-3.8125
X7.8625Y-1.5625
X8.2625Y-1.5625
X1.7688Y-2.3125
X2.1687Y-2.3125
X3.2687Y-3.8125
X3.6687Y-3.8125
X7.3937Y-3.8125
X7.7938Y-3.8125
X9.3625Y-1.5625
X9.7625Y-1.5625
X9.8312Y-3.0625
X10.2312Y-3.0625
X2.425Y-3.0625
X2.825Y-3.0625
X7.2062Y-3.8125
X7.6063Y-3.8125
X4.8625Y-1.5625
X5.2625Y-1.5625
X8.6125Y-1.5625
X9.0125Y-1.5625
X5.8Y-2.3125
X6.2Y-2.3125
X9.175Y-3.0625
X9.575Y-3.0625
X2.8Y-2.3125
X3.2Y-2.3125
X6.175Y-3.8125
X6.575Y-3.8125
X6.3625Y-1.5625
X6.7625Y-1.5625
X10.4875Y-3.0625
X10.8875Y-3.0625
X2.6125Y-1.5625
X3.0125Y-1.5625
X3.925Y-3.0625
X4.325Y-3.0625
X6.925Y-3.0625
X7.325Y-3.0625
X4.5812Y-3.8125
X4.9813Y-3.8125
X5.05Y-2.3125
X5.45Y-2.3125
X4.675Y-3.0625
X5.075Y-3.0625
X10.3Y-1.5625
X10.7Y-1.5625
X10.3937Y-2.3125
X10.7937Y-2.3125
X3.175Y-3.0625
X3.575Y-3.0625
X2.425Y-3.8125
X2.825Y-3.8125
X3.55Y-2.3125
X3.95Y-2.3125
X3.3625Y-1.5625
X3.7625Y-1.5625
X5.6125Y-1.5625
X6.0125Y-1.5625
T4
X4.3113Y-4.0875
X5.2512Y-4.0875
X1.6863Y-2.7875
X2.6262Y-2.7875
X4.3125Y-4.0875
X8.0625Y-4.0875
X9.7487Y-2.0375
X10.6888Y-2.0375
X4.4988Y-4.0875
X5.4387Y-4.0875
X10.8688Y-1.4675
X10.8688Y-2.4075
X7.1238Y-4.0875
X8.0638Y-4.0875
X9.5612Y-2.7875
X10.5013Y-2.7875
X6.9363Y-4.0875
X7.8762Y-4.0875
T5
X6.75Y-2.3125
X4.5Y-2.3125
X9.75Y-2.3125
X8.625Y-3.0625
X4.3125Y-3.4875
X6.5625Y-3.8125
X8.0625Y-3.4875
X1.875Y-1.5625
X9.6562Y-3.0625
X6.Y-3.8125
X9.7487Y-2.6375
X10.2188Y-2.3125
X10.6888Y-2.6375
X5.625Y-3.0625
X9.Y-2.3125
X1.7812Y-3.8125
X6.375Y-3.0625
X4.4988Y-3.4875
X4.9688Y-3.8125
X5.4387Y-3.4875
X10.2687Y-1.4675
X10.2687Y-2.4075
X10.5938Y-1.9375
X8.9062Y-3.8125
X1.7812Y-3.0625
X7.5Y-2.3125
X1.7812Y-2.3125
X10.4062Y-3.0625
X9.75Y-3.8125
X10.5938Y-3.8125
X8.0625Y-1.5625
X1.9688Y-2.3125
X3.4688Y-3.8125
X7.1238Y-3.4875
X7.5938Y-3.8125
X8.0638Y-3.4875
X9.5625Y-1.5625
X9.5612Y-3.3875
X10.0312Y-3.0625
X10.5013Y-3.3875
X2.625Y-3.0625
X6.9363Y-3.4875
X7.4062Y-3.8125
X7.8762Y-3.4875
X5.0625Y-1.5625
X8.8125Y-1.5625
X6.Y-2.3125
X9.375Y-3.0625
X3.Y-2.3125
X6.375Y-3.8125
X6.5625Y-1.5625
X10.6875Y-3.0625
X2.8125Y-1.5625
X4.125Y-3.0625
X7.125Y-3.0625
X4.3113Y-3.4875
X4.7812Y-3.8125
X5.2512Y-3.4875
X5.25Y-2.3125
X4.875Y-3.0625
X10.5Y-1.5625
X10.5938Y-2.3125
X3.375Y-3.0625
X2.625Y-3.8125
X3.75Y-2.3125
X3.5625Y-1.5625
X5.8125Y-1.5625
X7.875Y-3.0625
X8.25Y-2.3125
X4.3125Y-1.5625
X1.6863Y-3.3875
X2.1562Y-3.0625
X2.6262Y-3.3875
X7.3125Y-1.5625
T0
M30
