G04 #@! TF.GenerationSoftware,KiCad,Pcbnew,(5.0.0)*
G04 #@! TF.CreationDate,2019-02-03T03:36:39-08:00*
G04 #@! TF.ProjectId,Voyager40,566F796167657234302E6B696361645F,rev?*
G04 #@! TF.SameCoordinates,Original*
G04 #@! TF.FileFunction,Soldermask,Top*
G04 #@! TF.FilePolarity,Negative*
%FSLAX46Y46*%
G04 Gerber Fmt 4.6, Leading zero omitted, Abs format (unit mm)*
G04 Created by KiCad (PCBNEW (5.0.0)) date 02/03/19 03:36:39*
%MOMM*%
%LPD*%
G01*
G04 APERTURE LIST*
%ADD10C,4.387800*%
%ADD11C,2.150000*%
%ADD12C,3.448000*%
%ADD13O,1.400000X2.000000*%
%ADD14O,1.400000X2.500000*%
%ADD15C,1.050000*%
%ADD16C,2.101800*%
G04 APERTURE END LIST*
D10*
G04 #@! TO.C,K_\002C1*
X219075000Y-77787500D03*
D11*
X213995000Y-77787500D03*
X224155000Y-77787500D03*
G04 #@! TD*
D10*
G04 #@! TO.C,K_.1*
X238125000Y-77787500D03*
D11*
X233045000Y-77787500D03*
X243205000Y-77787500D03*
G04 #@! TD*
D10*
G04 #@! TO.C,K_;1*
X247650000Y-58737500D03*
D11*
X242570000Y-58737500D03*
X252730000Y-58737500D03*
G04 #@! TD*
G04 #@! TO.C,K_\005C1*
X271780000Y-39687500D03*
X261620000Y-39687500D03*
D10*
X266700000Y-39687500D03*
G04 #@! TD*
G04 #@! TO.C,K_A1*
X76200000Y-58737500D03*
D11*
X71120000Y-58737500D03*
X81280000Y-58737500D03*
G04 #@! TD*
G04 #@! TO.C,K_ALT1*
X93186250Y-96837500D03*
X83026250Y-96837500D03*
D10*
X88106250Y-96837500D03*
G04 #@! TD*
D11*
G04 #@! TO.C,K_B1*
X167005000Y-77787500D03*
X156845000Y-77787500D03*
D10*
X161925000Y-77787500D03*
G04 #@! TD*
D11*
G04 #@! TO.C,K_C1*
X128905000Y-77787500D03*
X118745000Y-77787500D03*
D10*
X123825000Y-77787500D03*
G04 #@! TD*
G04 #@! TO.C,K_CAPS1*
X50006250Y-58737500D03*
D11*
X44926250Y-58737500D03*
X55086250Y-58737500D03*
G04 #@! TD*
D10*
G04 #@! TO.C,K_CAPS2*
X45243750Y-58737500D03*
D11*
X40163750Y-58737500D03*
X50323750Y-58737500D03*
G04 #@! TD*
D10*
G04 #@! TO.C,K_CTRL1*
X45243750Y-96837500D03*
D11*
X40163750Y-96837500D03*
X50323750Y-96837500D03*
G04 #@! TD*
G04 #@! TO.C,K_D1*
X119380000Y-58737500D03*
X109220000Y-58737500D03*
D10*
X114300000Y-58737500D03*
G04 #@! TD*
D11*
G04 #@! TO.C,K_E1*
X114617500Y-39687500D03*
X104457500Y-39687500D03*
D10*
X109537500Y-39687500D03*
G04 #@! TD*
G04 #@! TO.C,K_F1*
X133350000Y-58737500D03*
D11*
X128270000Y-58737500D03*
X138430000Y-58737500D03*
G04 #@! TD*
G04 #@! TO.C,K_G1*
X157480000Y-58737500D03*
X147320000Y-58737500D03*
D10*
X152400000Y-58737500D03*
G04 #@! TD*
D11*
G04 #@! TO.C,K_H1*
X176530000Y-58737500D03*
X166370000Y-58737500D03*
D10*
X171450000Y-58737500D03*
G04 #@! TD*
G04 #@! TO.C,K_I1*
X204787500Y-39687500D03*
D11*
X199707500Y-39687500D03*
X209867500Y-39687500D03*
G04 #@! TD*
G04 #@! TO.C,K_J1*
X195580000Y-58737500D03*
X185420000Y-58737500D03*
D10*
X190500000Y-58737500D03*
G04 #@! TD*
D11*
G04 #@! TO.C,K_K1*
X214630000Y-58737500D03*
X204470000Y-58737500D03*
D10*
X209550000Y-58737500D03*
G04 #@! TD*
G04 #@! TO.C,K_L1*
X228600000Y-58737500D03*
D11*
X223520000Y-58737500D03*
X233680000Y-58737500D03*
G04 #@! TD*
D10*
G04 #@! TO.C,K_LSPACE1*
X121443750Y-96837500D03*
D11*
X116363750Y-96837500D03*
X126523750Y-96837500D03*
D12*
X109505750Y-103822500D03*
X133381750Y-103822500D03*
D10*
X109505750Y-88582500D03*
X133381750Y-88582500D03*
G04 #@! TD*
G04 #@! TO.C,K_M1*
X200025000Y-77787500D03*
D11*
X194945000Y-77787500D03*
X205105000Y-77787500D03*
G04 #@! TD*
D10*
G04 #@! TO.C,K_N1*
X180975000Y-77787500D03*
D11*
X175895000Y-77787500D03*
X186055000Y-77787500D03*
G04 #@! TD*
D10*
G04 #@! TO.C,K_O1*
X223837500Y-39687500D03*
D11*
X218757500Y-39687500D03*
X228917500Y-39687500D03*
G04 #@! TD*
D10*
G04 #@! TO.C,K_P1*
X242887500Y-39687500D03*
D11*
X237807500Y-39687500D03*
X247967500Y-39687500D03*
G04 #@! TD*
G04 #@! TO.C,K_Q1*
X76517500Y-39687500D03*
X66357500Y-39687500D03*
D10*
X71437500Y-39687500D03*
G04 #@! TD*
G04 #@! TO.C,K_R1*
X128587500Y-39687500D03*
D11*
X123507500Y-39687500D03*
X133667500Y-39687500D03*
G04 #@! TD*
G04 #@! TO.C,K_RALT1*
X231298750Y-96837500D03*
X221138750Y-96837500D03*
D10*
X226218750Y-96837500D03*
G04 #@! TD*
G04 #@! TO.C,K_RCTRL1*
X269081250Y-96837500D03*
D11*
X264001250Y-96837500D03*
X274161250Y-96837500D03*
G04 #@! TD*
D10*
G04 #@! TO.C,K_RSPACE1*
X200056750Y-88582500D03*
X176180750Y-88582500D03*
D12*
X200056750Y-103822500D03*
X176180750Y-103822500D03*
D11*
X193198750Y-96837500D03*
X183038750Y-96837500D03*
D10*
X188118750Y-96837500D03*
G04 #@! TD*
D11*
G04 #@! TO.C,K_RWIN1*
X252730000Y-96837500D03*
X242570000Y-96837500D03*
D10*
X247650000Y-96837500D03*
G04 #@! TD*
D11*
G04 #@! TO.C,K_S1*
X100330000Y-58737500D03*
X90170000Y-58737500D03*
D10*
X95250000Y-58737500D03*
G04 #@! TD*
G04 #@! TO.C,K_SHIFT1*
X54768750Y-77787500D03*
D11*
X49688750Y-77787500D03*
X59848750Y-77787500D03*
D12*
X42830750Y-70802500D03*
X66706750Y-70802500D03*
D10*
X42830750Y-86042500D03*
X66706750Y-86042500D03*
G04 #@! TD*
G04 #@! TO.C,K_SHIFT2*
X45243750Y-77787500D03*
D11*
X40163750Y-77787500D03*
X50323750Y-77787500D03*
G04 #@! TD*
G04 #@! TO.C,K_SHIFT3*
X71755000Y-77787500D03*
X61595000Y-77787500D03*
D10*
X66675000Y-77787500D03*
G04 #@! TD*
D11*
G04 #@! TO.C,K_SPACE3*
X157480000Y-96837500D03*
X147320000Y-96837500D03*
D10*
X152400000Y-96837500D03*
G04 #@! TD*
G04 #@! TO.C,K_T1*
X147637500Y-39687500D03*
D11*
X142557500Y-39687500D03*
X152717500Y-39687500D03*
G04 #@! TD*
D10*
G04 #@! TO.C,K_TAB1*
X47625000Y-39687500D03*
D11*
X42545000Y-39687500D03*
X52705000Y-39687500D03*
G04 #@! TD*
G04 #@! TO.C,K_U1*
X190817500Y-39687500D03*
X180657500Y-39687500D03*
D10*
X185737500Y-39687500D03*
G04 #@! TD*
G04 #@! TO.C,K_V1*
X142875000Y-77787500D03*
D11*
X137795000Y-77787500D03*
X147955000Y-77787500D03*
G04 #@! TD*
D10*
G04 #@! TO.C,K_W1*
X90487500Y-39687500D03*
D11*
X85407500Y-39687500D03*
X95567500Y-39687500D03*
G04 #@! TD*
G04 #@! TO.C,K_WIN1*
X71755000Y-96837500D03*
X61595000Y-96837500D03*
D10*
X66675000Y-96837500D03*
G04 #@! TD*
G04 #@! TO.C,K_X1*
X104775000Y-77787500D03*
D11*
X99695000Y-77787500D03*
X109855000Y-77787500D03*
G04 #@! TD*
G04 #@! TO.C,K_Y1*
X171767500Y-39687500D03*
X161607500Y-39687500D03*
D10*
X166687500Y-39687500D03*
G04 #@! TD*
G04 #@! TO.C,K_Z1*
X85725000Y-77787500D03*
D11*
X80645000Y-77787500D03*
X90805000Y-77787500D03*
G04 #@! TD*
D13*
G04 #@! TO.C,USB1*
X63851250Y-29587500D03*
X55211250Y-29587500D03*
D14*
X63851250Y-33767500D03*
X55211250Y-33767500D03*
D15*
X56641250Y-33237500D03*
X62421250Y-33237500D03*
G04 #@! TD*
D10*
G04 #@! TO.C,K_ENTER1*
X259556250Y-58737500D03*
D11*
X254476250Y-58737500D03*
X264636250Y-58737500D03*
D12*
X247618250Y-51752500D03*
X271494250Y-51752500D03*
D10*
X247618250Y-66992500D03*
X271494250Y-66992500D03*
G04 #@! TD*
G04 #@! TO.C,K_ENTER2*
X269081250Y-58737500D03*
D11*
X264001250Y-58737500D03*
X274161250Y-58737500D03*
G04 #@! TD*
D10*
G04 #@! TO.C,K_ENTER3*
X269081250Y-49212500D03*
D16*
X269081250Y-44132500D03*
X269081250Y-54292500D03*
D12*
X276066250Y-61150500D03*
X276066250Y-37274500D03*
D10*
X260826250Y-61150500D03*
X260826250Y-37274500D03*
G04 #@! TD*
D11*
G04 #@! TO.C,K_RSHIFT1*
X269398750Y-77787500D03*
X259238750Y-77787500D03*
D10*
X264318750Y-77787500D03*
G04 #@! TD*
G04 #@! TO.C,K_RSHIFT2*
X245268750Y-77787500D03*
D11*
X240188750Y-77787500D03*
X250348750Y-77787500D03*
G04 #@! TD*
D10*
G04 #@! TO.C,K_RSHIFT3*
X271462500Y-77787500D03*
D11*
X266382500Y-77787500D03*
X276542500Y-77787500D03*
G04 #@! TD*
D10*
G04 #@! TO.C,K_RSHIFT4*
X254793750Y-77787500D03*
D11*
X249713750Y-77787500D03*
X259873750Y-77787500D03*
D12*
X242855750Y-70802500D03*
X266731750Y-70802500D03*
D10*
X242855750Y-86042500D03*
X266731750Y-86042500D03*
G04 #@! TD*
G04 #@! TO.C,K_SPACE2*
X166687500Y-96837500D03*
D11*
X161607500Y-96837500D03*
X171767500Y-96837500D03*
D12*
X109537500Y-103822500D03*
X204787500Y-103822500D03*
D10*
X109537500Y-88582500D03*
X204787500Y-88582500D03*
G04 #@! TD*
G04 #@! TO.C,K_SPACE4*
X161925000Y-96837500D03*
D11*
X156845000Y-96837500D03*
X167005000Y-96837500D03*
G04 #@! TD*
D10*
G04 #@! TO.C,K_LSPACE2*
X126206250Y-96837500D03*
D11*
X121126250Y-96837500D03*
X131286250Y-96837500D03*
D12*
X114268250Y-103822500D03*
X138144250Y-103822500D03*
D10*
X114268250Y-88582500D03*
X138144250Y-88582500D03*
G04 #@! TD*
G04 #@! TO.C,K_RSPACE2*
X192881250Y-96837500D03*
D11*
X187801250Y-96837500D03*
X197961250Y-96837500D03*
D12*
X180943250Y-103822500D03*
X204819250Y-103822500D03*
D10*
X180943250Y-88582500D03*
X204819250Y-88582500D03*
G04 #@! TD*
M02*
