G04 #@! TF.GenerationSoftware,KiCad,Pcbnew,(5.0.0)*
G04 #@! TF.CreationDate,2019-02-03T03:36:39-08:00*
G04 #@! TF.ProjectId,Voyager40,566F796167657234302E6B696361645F,rev?*
G04 #@! TF.SameCoordinates,Original*
G04 #@! TF.FileFunction,Paste,Bot*
G04 #@! TF.FilePolarity,Positive*
%FSLAX46Y46*%
G04 Gerber Fmt 4.6, Leading zero omitted, Abs format (unit mm)*
G04 Created by KiCad (PCBNEW (5.0.0)) date 02/03/19 03:36:39*
%MOMM*%
%LPD*%
G01*
G04 APERTURE LIST*
%ADD10R,0.800000X0.750000*%
%ADD11R,0.750000X0.800000*%
%ADD12R,1.200000X0.900000*%
%ADD13R,2.030000X1.140000*%
%ADD14R,0.800000X0.900000*%
%ADD15R,1.300000X0.700000*%
%ADD16R,0.700000X1.300000*%
%ADD17R,1.800000X1.100000*%
%ADD18R,0.700000X1.000000*%
%ADD19R,0.700000X0.600000*%
%ADD20R,0.300000X1.450000*%
%ADD21R,0.600000X1.450000*%
%ADD22R,1.400000X1.200000*%
%ADD23R,1.035000X1.035000*%
%ADD24R,0.700000X0.250000*%
%ADD25R,0.250000X0.700000*%
%ADD26R,1.600000X1.000000*%
G04 APERTURE END LIST*
D10*
G04 #@! TO.C,C2*
X59487500Y-55562500D03*
X57987500Y-55562500D03*
G04 #@! TD*
D11*
G04 #@! TO.C,C3*
X67945000Y-50685000D03*
X67945000Y-52185000D03*
G04 #@! TD*
D10*
G04 #@! TO.C,C4*
X59487500Y-57150000D03*
X57987500Y-57150000D03*
G04 #@! TD*
G04 #@! TO.C,C6*
X59487500Y-60325000D03*
X57987500Y-60325000D03*
G04 #@! TD*
D11*
G04 #@! TO.C,C7*
X59309000Y-52216750D03*
X59309000Y-50716750D03*
G04 #@! TD*
D10*
G04 #@! TO.C,C8*
X63551500Y-48291750D03*
X62051500Y-48291750D03*
G04 #@! TD*
D12*
G04 #@! TO.C,D1*
X234156250Y-95187500D03*
X234156250Y-98487500D03*
G04 #@! TD*
G04 #@! TO.C,D16*
X39687500Y-38037500D03*
X39687500Y-41337500D03*
G04 #@! TD*
G04 #@! TO.C,D17*
X79375000Y-41337500D03*
X79375000Y-38037500D03*
G04 #@! TD*
G04 #@! TO.C,D18*
X98425000Y-38037500D03*
X98425000Y-41337500D03*
G04 #@! TD*
G04 #@! TO.C,D19*
X117475000Y-38037500D03*
X117475000Y-41337500D03*
G04 #@! TD*
G04 #@! TO.C,D20*
X136525000Y-36450000D03*
X136525000Y-39750000D03*
G04 #@! TD*
G04 #@! TO.C,D21*
X155575000Y-41337500D03*
X155575000Y-38037500D03*
G04 #@! TD*
G04 #@! TO.C,D22*
X174625000Y-38037500D03*
X174625000Y-41337500D03*
G04 #@! TD*
G04 #@! TO.C,D23*
X193675000Y-38037500D03*
X193675000Y-41337500D03*
G04 #@! TD*
G04 #@! TO.C,D24*
X212725000Y-41337500D03*
X212725000Y-38037500D03*
G04 #@! TD*
G04 #@! TO.C,D25*
X231775000Y-41337500D03*
X231775000Y-38037500D03*
G04 #@! TD*
G04 #@! TO.C,D26*
X250825000Y-39750000D03*
X250825000Y-36450000D03*
G04 #@! TD*
G04 #@! TO.C,D27*
X254000000Y-36450000D03*
X254000000Y-39750000D03*
G04 #@! TD*
G04 #@! TO.C,D31*
X37306250Y-60387500D03*
X37306250Y-57087500D03*
G04 #@! TD*
G04 #@! TO.C,D32*
X84137500Y-60387500D03*
X84137500Y-57087500D03*
G04 #@! TD*
G04 #@! TO.C,D33*
X103187500Y-57087500D03*
X103187500Y-60387500D03*
G04 #@! TD*
G04 #@! TO.C,D34*
X122237500Y-57087500D03*
X122237500Y-60387500D03*
G04 #@! TD*
G04 #@! TO.C,D35*
X141287500Y-60387500D03*
X141287500Y-57087500D03*
G04 #@! TD*
G04 #@! TO.C,D36*
X160337500Y-60387500D03*
X160337500Y-57087500D03*
G04 #@! TD*
G04 #@! TO.C,D37*
X179387500Y-60387500D03*
X179387500Y-57087500D03*
G04 #@! TD*
G04 #@! TO.C,D38*
X198437500Y-57087500D03*
X198437500Y-60387500D03*
G04 #@! TD*
G04 #@! TO.C,D39*
X217487500Y-60387500D03*
X217487500Y-57087500D03*
G04 #@! TD*
G04 #@! TO.C,D40*
X220662500Y-60387500D03*
X220662500Y-57087500D03*
G04 #@! TD*
G04 #@! TO.C,D41*
X239712500Y-60387500D03*
X239712500Y-57087500D03*
G04 #@! TD*
G04 #@! TO.C,D42*
X236537500Y-60387500D03*
X236537500Y-57087500D03*
G04 #@! TD*
G04 #@! TO.C,D44*
X74612500Y-76137500D03*
X74612500Y-79437500D03*
G04 #@! TD*
G04 #@! TO.C,D45*
X77787500Y-76137500D03*
X77787500Y-79437500D03*
G04 #@! TD*
G04 #@! TO.C,D46*
X93662500Y-77850000D03*
X93662500Y-74550000D03*
G04 #@! TD*
G04 #@! TO.C,D47*
X112712500Y-76137500D03*
X112712500Y-79437500D03*
G04 #@! TD*
G04 #@! TO.C,D48*
X131762500Y-77850000D03*
X131762500Y-74550000D03*
G04 #@! TD*
G04 #@! TO.C,D49*
X150812500Y-76137500D03*
X150812500Y-79437500D03*
G04 #@! TD*
G04 #@! TO.C,D50*
X169862500Y-77850000D03*
X169862500Y-74550000D03*
G04 #@! TD*
G04 #@! TO.C,D51*
X188912500Y-76137500D03*
X188912500Y-79437500D03*
G04 #@! TD*
G04 #@! TO.C,D52*
X207962500Y-74550000D03*
X207962500Y-77850000D03*
G04 #@! TD*
G04 #@! TO.C,D53*
X211137500Y-74550000D03*
X211137500Y-77850000D03*
G04 #@! TD*
G04 #@! TO.C,D54*
X230187500Y-76137500D03*
X230187500Y-79437500D03*
G04 #@! TD*
G04 #@! TO.C,D55*
X227012500Y-76137500D03*
X227012500Y-79437500D03*
G04 #@! TD*
G04 #@! TO.C,D58*
X134143750Y-98487500D03*
X134143750Y-95187500D03*
G04 #@! TD*
G04 #@! TO.C,D59*
X53181250Y-98487500D03*
X53181250Y-95187500D03*
G04 #@! TD*
G04 #@! TO.C,D60*
X74612500Y-95187500D03*
X74612500Y-98487500D03*
G04 #@! TD*
G04 #@! TO.C,D61*
X174625000Y-95187500D03*
X174625000Y-98487500D03*
G04 #@! TD*
G04 #@! TO.C,D62*
X200818750Y-98487500D03*
X200818750Y-95187500D03*
G04 #@! TD*
G04 #@! TO.C,D63*
X255587500Y-95187500D03*
X255587500Y-98487500D03*
G04 #@! TD*
G04 #@! TO.C,D64*
X261143750Y-98487500D03*
X261143750Y-95187500D03*
G04 #@! TD*
G04 #@! TO.C,D67*
X96043750Y-98487500D03*
X96043750Y-95187500D03*
G04 #@! TD*
D13*
G04 #@! TO.C,F1*
X53975000Y-42456250D03*
X53975000Y-44856250D03*
G04 #@! TD*
D14*
G04 #@! TO.C,Q1*
X81756250Y-50212500D03*
X82706250Y-48212500D03*
X80806250Y-48212500D03*
G04 #@! TD*
D15*
G04 #@! TO.C,R1*
X234156250Y-103343750D03*
X234156250Y-101443750D03*
G04 #@! TD*
G04 #@! TO.C,R16*
X39687500Y-44293750D03*
X39687500Y-46193750D03*
G04 #@! TD*
G04 #@! TO.C,R17*
X79375000Y-44293750D03*
X79375000Y-46193750D03*
G04 #@! TD*
G04 #@! TO.C,R18*
X98425000Y-46193750D03*
X98425000Y-44293750D03*
G04 #@! TD*
G04 #@! TO.C,R19*
X117475000Y-44293750D03*
X117475000Y-46193750D03*
G04 #@! TD*
G04 #@! TO.C,R20*
X136525000Y-44606250D03*
X136525000Y-42706250D03*
G04 #@! TD*
G04 #@! TO.C,R21*
X155575000Y-46193750D03*
X155575000Y-44293750D03*
G04 #@! TD*
G04 #@! TO.C,R22*
X174625000Y-44293750D03*
X174625000Y-46193750D03*
G04 #@! TD*
G04 #@! TO.C,R23*
X193675000Y-46193750D03*
X193675000Y-44293750D03*
G04 #@! TD*
G04 #@! TO.C,R24*
X212725000Y-46193750D03*
X212725000Y-44293750D03*
G04 #@! TD*
G04 #@! TO.C,R25*
X231775000Y-44293750D03*
X231775000Y-46193750D03*
G04 #@! TD*
G04 #@! TO.C,R26*
X250825000Y-42706250D03*
X250825000Y-44606250D03*
G04 #@! TD*
G04 #@! TO.C,R27*
X254000000Y-44606250D03*
X254000000Y-42706250D03*
G04 #@! TD*
G04 #@! TO.C,R31*
X37306250Y-65243750D03*
X37306250Y-63343750D03*
G04 #@! TD*
G04 #@! TO.C,R32*
X84137500Y-63343750D03*
X84137500Y-65243750D03*
G04 #@! TD*
G04 #@! TO.C,R33*
X103187500Y-63343750D03*
X103187500Y-65243750D03*
G04 #@! TD*
G04 #@! TO.C,R34*
X122237500Y-65243750D03*
X122237500Y-63343750D03*
G04 #@! TD*
G04 #@! TO.C,R35*
X141287500Y-65243750D03*
X141287500Y-63343750D03*
G04 #@! TD*
G04 #@! TO.C,R36*
X160337500Y-63343750D03*
X160337500Y-65243750D03*
G04 #@! TD*
G04 #@! TO.C,R37*
X179387500Y-65243750D03*
X179387500Y-63343750D03*
G04 #@! TD*
G04 #@! TO.C,R38*
X198437500Y-63343750D03*
X198437500Y-65243750D03*
G04 #@! TD*
G04 #@! TO.C,R39*
X217487500Y-65243750D03*
X217487500Y-63343750D03*
G04 #@! TD*
G04 #@! TO.C,R40*
X220662500Y-63343750D03*
X220662500Y-65243750D03*
G04 #@! TD*
G04 #@! TO.C,R41*
X239712500Y-65243750D03*
X239712500Y-63343750D03*
G04 #@! TD*
G04 #@! TO.C,R42*
X236537500Y-65243750D03*
X236537500Y-63343750D03*
G04 #@! TD*
G04 #@! TO.C,R44*
X74612500Y-82393750D03*
X74612500Y-84293750D03*
G04 #@! TD*
G04 #@! TO.C,R45*
X77787500Y-82393750D03*
X77787500Y-84293750D03*
G04 #@! TD*
G04 #@! TO.C,R46*
X93662500Y-82706250D03*
X93662500Y-80806250D03*
G04 #@! TD*
G04 #@! TO.C,R47*
X112712500Y-84293750D03*
X112712500Y-82393750D03*
G04 #@! TD*
G04 #@! TO.C,R48*
X131762500Y-80806250D03*
X131762500Y-82706250D03*
G04 #@! TD*
G04 #@! TO.C,R49*
X150812500Y-82393750D03*
X150812500Y-84293750D03*
G04 #@! TD*
G04 #@! TO.C,R50*
X169862500Y-82706250D03*
X169862500Y-80806250D03*
G04 #@! TD*
G04 #@! TO.C,R51*
X188912500Y-84293750D03*
X188912500Y-82393750D03*
G04 #@! TD*
G04 #@! TO.C,R52*
X207962500Y-80806250D03*
X207962500Y-82706250D03*
G04 #@! TD*
G04 #@! TO.C,R53*
X211137500Y-80806250D03*
X211137500Y-82706250D03*
G04 #@! TD*
G04 #@! TO.C,R54*
X230187500Y-82393750D03*
X230187500Y-84293750D03*
G04 #@! TD*
G04 #@! TO.C,R55*
X227012500Y-82393750D03*
X227012500Y-84293750D03*
G04 #@! TD*
G04 #@! TO.C,R58*
X138112500Y-97787500D03*
X138112500Y-95887500D03*
G04 #@! TD*
G04 #@! TO.C,R59*
X53181250Y-101443750D03*
X53181250Y-103343750D03*
G04 #@! TD*
G04 #@! TO.C,R60*
X74612500Y-103343750D03*
X74612500Y-101443750D03*
G04 #@! TD*
G04 #@! TO.C,R61*
X178593750Y-97787500D03*
X178593750Y-95887500D03*
G04 #@! TD*
G04 #@! TO.C,R62*
X204787500Y-95887500D03*
X204787500Y-97787500D03*
G04 #@! TD*
G04 #@! TO.C,R63*
X255587500Y-103343750D03*
X255587500Y-101443750D03*
G04 #@! TD*
G04 #@! TO.C,R64*
X261143750Y-101443750D03*
X261143750Y-103343750D03*
G04 #@! TD*
G04 #@! TO.C,R67*
X57943750Y-44606250D03*
X57943750Y-42706250D03*
G04 #@! TD*
G04 #@! TO.C,R68*
X61118750Y-42706250D03*
X61118750Y-44606250D03*
G04 #@! TD*
G04 #@! TO.C,R69*
X77787500Y-48262500D03*
X77787500Y-50162500D03*
G04 #@! TD*
D16*
G04 #@! TO.C,R70*
X59687500Y-63103125D03*
X57787500Y-63103125D03*
G04 #@! TD*
D15*
G04 #@! TO.C,R71*
X70739000Y-50162500D03*
X70739000Y-48262500D03*
G04 #@! TD*
G04 #@! TO.C,R72*
X96043750Y-101443750D03*
X96043750Y-103343750D03*
G04 #@! TD*
G04 #@! TO.C,R73*
X55165625Y-37943750D03*
X55165625Y-39843750D03*
G04 #@! TD*
G04 #@! TO.C,R74*
X63896875Y-39843750D03*
X63896875Y-37943750D03*
G04 #@! TD*
D17*
G04 #@! TO.C,SW1*
X55637500Y-69318750D03*
X61837500Y-65618750D03*
X55637500Y-65618750D03*
X61837500Y-69318750D03*
G04 #@! TD*
D18*
G04 #@! TO.C,U2*
X60531250Y-38143750D03*
D19*
X58531250Y-37943750D03*
X60531250Y-39843750D03*
X58531250Y-39843750D03*
G04 #@! TD*
D20*
G04 #@! TO.C,USB1*
X59281250Y-34682500D03*
X59781250Y-34682500D03*
X60281250Y-34682500D03*
X58781250Y-34682500D03*
X60781250Y-34682500D03*
X58281250Y-34682500D03*
X61281250Y-34682500D03*
X57781250Y-34682500D03*
D21*
X57081250Y-34682500D03*
X61981250Y-34682500D03*
X56306250Y-34682500D03*
X62756250Y-34682500D03*
G04 #@! TD*
D22*
G04 #@! TO.C,Y1*
X61701500Y-52316750D03*
X63901500Y-52316750D03*
X63901500Y-50616750D03*
X61701500Y-50616750D03*
G04 #@! TD*
D23*
G04 #@! TO.C,U1*
X63431250Y-57875000D03*
X65156250Y-57875000D03*
X63431250Y-59600000D03*
X65156250Y-59600000D03*
D24*
X61893750Y-56987500D03*
X61893750Y-57487500D03*
X61893750Y-57987500D03*
X61893750Y-58487500D03*
X61893750Y-58987500D03*
X61893750Y-59487500D03*
X61893750Y-59987500D03*
X61893750Y-60487500D03*
D25*
X62543750Y-61137500D03*
X63043750Y-61137500D03*
X63543750Y-61137500D03*
X64043750Y-61137500D03*
X64543750Y-61137500D03*
X65043750Y-61137500D03*
X65543750Y-61137500D03*
X66043750Y-61137500D03*
D24*
X66693750Y-60487500D03*
X66693750Y-59987500D03*
X66693750Y-59487500D03*
X66693750Y-58987500D03*
X66693750Y-58487500D03*
X66693750Y-57987500D03*
X66693750Y-57487500D03*
X66693750Y-56987500D03*
D25*
X66043750Y-56337500D03*
X65543750Y-56337500D03*
X65043750Y-56337500D03*
X64543750Y-56337500D03*
X64043750Y-56337500D03*
X63543750Y-56337500D03*
X63043750Y-56337500D03*
X62543750Y-56337500D03*
G04 #@! TD*
D11*
G04 #@! TO.C,C1*
X42068750Y-49962500D03*
X42068750Y-48462500D03*
G04 #@! TD*
G04 #@! TO.C,C5*
X95250000Y-48462500D03*
X95250000Y-49962500D03*
G04 #@! TD*
G04 #@! TO.C,C9*
X128587500Y-49962500D03*
X128587500Y-48462500D03*
G04 #@! TD*
G04 #@! TO.C,C10*
X174625000Y-48462500D03*
X174625000Y-49962500D03*
G04 #@! TD*
G04 #@! TO.C,C11*
X212725000Y-49962500D03*
X212725000Y-48462500D03*
G04 #@! TD*
G04 #@! TO.C,C12*
X250825000Y-48462500D03*
X250825000Y-49962500D03*
G04 #@! TD*
G04 #@! TO.C,C13*
X54768750Y-86562500D03*
X54768750Y-88062500D03*
G04 #@! TD*
G04 #@! TO.C,C14*
X82550000Y-88062500D03*
X82550000Y-86562500D03*
G04 #@! TD*
G04 #@! TO.C,C15*
X121443750Y-86562500D03*
X121443750Y-88062500D03*
G04 #@! TD*
G04 #@! TO.C,C16*
X164306250Y-88062500D03*
X164306250Y-86562500D03*
G04 #@! TD*
G04 #@! TO.C,C17*
X209550000Y-86562500D03*
X209550000Y-88062500D03*
G04 #@! TD*
G04 #@! TO.C,C18*
X254793750Y-88062500D03*
X254793750Y-86562500D03*
G04 #@! TD*
D26*
G04 #@! TO.C,RGB1*
X45125000Y-50812500D03*
X45125000Y-47612500D03*
X50125000Y-50812500D03*
X50125000Y-47612500D03*
G04 #@! TD*
G04 #@! TO.C,RGB2*
X257850000Y-88912500D03*
X257850000Y-85712500D03*
X262850000Y-88912500D03*
X262850000Y-85712500D03*
G04 #@! TD*
G04 #@! TO.C,RGB3*
X87193750Y-50812500D03*
X87193750Y-47612500D03*
X92193750Y-50812500D03*
X92193750Y-47612500D03*
G04 #@! TD*
G04 #@! TO.C,RGB4*
X217606250Y-85712500D03*
X217606250Y-88912500D03*
X212606250Y-85712500D03*
X212606250Y-88912500D03*
G04 #@! TD*
G04 #@! TO.C,RGB5*
X131643750Y-50812500D03*
X131643750Y-47612500D03*
X136643750Y-50812500D03*
X136643750Y-47612500D03*
G04 #@! TD*
G04 #@! TO.C,RGB6*
X172362500Y-85712500D03*
X172362500Y-88912500D03*
X167362500Y-85712500D03*
X167362500Y-88912500D03*
G04 #@! TD*
G04 #@! TO.C,RGB7*
X182681250Y-47612500D03*
X182681250Y-50812500D03*
X177681250Y-47612500D03*
X177681250Y-50812500D03*
G04 #@! TD*
G04 #@! TO.C,RGB8*
X129500000Y-85712500D03*
X129500000Y-88912500D03*
X124500000Y-85712500D03*
X124500000Y-88912500D03*
G04 #@! TD*
G04 #@! TO.C,RGB9*
X215781250Y-50812500D03*
X215781250Y-47612500D03*
X220781250Y-50812500D03*
X220781250Y-47612500D03*
G04 #@! TD*
G04 #@! TO.C,RGB10*
X85606250Y-88912500D03*
X85606250Y-85712500D03*
X90606250Y-88912500D03*
X90606250Y-85712500D03*
G04 #@! TD*
G04 #@! TO.C,RGB11*
X258881250Y-48406250D03*
X258881250Y-51606250D03*
X253881250Y-48406250D03*
X253881250Y-51606250D03*
G04 #@! TD*
G04 #@! TO.C,RGB12*
X51712500Y-85712500D03*
X51712500Y-88912500D03*
X46712500Y-85712500D03*
X46712500Y-88912500D03*
G04 #@! TD*
M02*
